<svg xmlns="http://www.w3.org/2000/svg" viewBox="0 0 97.73 97.21"><defs><style>.cls-1{fill:#ffe600;}.cls-2{fill:#fff99a;}.cls-3{fill:#ffce00;}</style></defs><title>Asset 8</title><g id="Layer_2" data-name="Layer 2"><g id="Layer_1-2" data-name="Layer 1"><circle class="cls-1" cx="49.12" cy="48.3" r="31.36"/><path class="cls-1" d="M6.68,72.33a1,1,0,0,0-.36,1.36,1,1,0,0,0,.87.5,1,1,0,0,0,.5-.13l11.93-6.89c-.36-.56-.71-1.13-1-1.71Z"/><path class="cls-1" d="M18.51,75.33a1,1,0,0,0-.07,1.41,1,1,0,0,0,.74.33,1,1,0,0,0,.67-.26l4.33-3.93c-.47-.47-.92-1-1.36-1.46Z"/><path class="cls-1" d="M10,60.69a1,1,0,0,0,.3,2,.81.81,0,0,0,.31,0l5.8-1.88c-.23-.62-.46-1.25-.66-1.89Z"/><path class="cls-1" d="M19.77,87.48a1,1,0,0,0,.22,1.4,1.06,1.06,0,0,0,.59.19,1,1,0,0,0,.81-.42l8.19-11.28C29,77,28.49,76.61,28,76.21Z"/><path class="cls-1" d="M3.4,33.3a1,1,0,0,0-.62,1.91l12.49,4.06c.17-.65.37-1.29.58-1.92Z"/><path class="cls-1" d="M.9,53.16A1,1,0,0,0,0,54.26a1,1,0,0,0,1,.9h.11l13.4-1.41c-.1-.66-.18-1.32-.25-2Z"/><path class="cls-1" d="M31.86,85.26a1,1,0,0,0,.51,1.32,1.14,1.14,0,0,0,.4.08,1,1,0,0,0,.92-.6L36,80.78c-.63-.25-1.24-.51-1.84-.8Z"/><path class="cls-1" d="M8.36,43.8a1,1,0,0,0-.21,2l6,.64c0-.67.09-1.34.17-2Z"/><path class="cls-2" d="M76.35,88.65a1,1,0,0,0,.81.42,1,1,0,0,0,.58-.19,1,1,0,0,0,.22-1.4l-8-11c-.53.4-1.08.78-1.64,1.14Z"/><path class="cls-1" d="M13.67,27.91a1,1,0,1,0-1,1.74l5.14,2.93c.3-.6.61-1.19.95-1.76Z"/><path class="cls-1" d="M37.88,96a1,1,0,0,0,.77,1.19l.21,0a1,1,0,0,0,1-.8l2.91-13.67c-.66-.13-1.32-.26-2-.42Z"/><path class="cls-2" d="M64.38,86.4a1,1,0,0,0,.92.59,1,1,0,0,0,.91-1.4l-2.44-5.48c-.6.28-1.22.54-1.84.79Z"/><path class="cls-2" d="M57.89,96.41a1,1,0,0,0,1,.8l.21,0A1,1,0,0,0,59.85,96L57,82.43c-.65.15-1.3.28-2,.39Z"/><path class="cls-2" d="M90.05,74.06a1,1,0,0,0,.5.13,1,1,0,0,0,.86-.5,1,1,0,0,0-.36-1.36L79.53,65.68c-.34.58-.68,1.15-1,1.7Z"/><path class="cls-2" d="M87.42,62.76a1.18,1.18,0,0,0,.31.05,1,1,0,0,0,.31-2L82.46,59c-.2.63-.43,1.26-.67,1.88Z"/><path class="cls-1" d="M47.8,83.29l0,5.95a1,1,0,0,0,1,1h0a1,1,0,0,0,1-1V83.31h-.68Q48.46,83.32,47.8,83.29Z"/><path class="cls-2" d="M95,35.21a1,1,0,0,0-.62-1.91l-12,3.9c.21.63.41,1.27.58,1.92Z"/><path class="cls-2" d="M89.92,45.87a1,1,0,0,0-.2-2l-5.78.6c.07.66.13,1.33.16,2Z"/><path class="cls-2" d="M85.23,29.31a1,1,0,1,0-1-1.73l-5,2.87c.34.57.66,1.16,1,1.75Z"/><path class="cls-2" d="M85.3,17.67A1,1,0,1,0,84,16.18l-9.19,8.28c.46.48.9,1,1.33,1.5Z"/><path class="cls-2" d="M96.84,53.16,84,51.81c-.07.67-.15,1.33-.26,2l12.92,1.36h.1a1,1,0,0,0,.11-2Z"/><path class="cls-2" d="M73.88,73.07l4.43,4a1,1,0,0,0,.67.26,1,1,0,0,0,.67-1.74l-4.4-4C74.81,72.11,74.36,72.6,73.88,73.07Z"/><path class="cls-1" d="M49.87,13.29V1a1,1,0,0,0-2,0V13.3c.41,0,.83,0,1.25,0Z"/><path class="cls-1" d="M13.77,16.18a1,1,0,0,0-1.34,1.49l9.5,8.55c.42-.52.85-1,1.3-1.52Z"/><path class="cls-1" d="M30.2,4.75a1,1,0,0,0-1.82.82L33.45,17c.6-.3,1.2-.59,1.81-.85Z"/><path class="cls-1" d="M25.24,15a1,1,0,1,0-1.62,1.18L27.15,21c.51-.41,1.05-.82,1.59-1.21Z"/><path class="cls-1" d="M41.17,8.14a1,1,0,1,0-2,.42l1.23,5.79c.64-.16,1.3-.3,1.95-.43Z"/><path class="cls-2" d="M58.52,8.56a1,1,0,0,0-2-.42l-1.21,5.69c.66.12,1.32.26,2,.41Z"/><path class="cls-2" d="M69.36,5.57a1,1,0,0,0-.51-1.32,1,1,0,0,0-1.32.5l-5,11.19c.62.26,1.23.53,1.82.82Z"/><path class="cls-2" d="M74.11,16.11a1,1,0,1,0-1.61-1.18l-3.37,4.63c.55.38,1.09.78,1.61,1.19Z"/><path class="cls-3" d="M76.35,88.65a1,1,0,0,0,.81.42,1,1,0,0,0,.58-.19,1,1,0,0,0,.22-1.4l-8-11c-.53.4-1.08.78-1.64,1.14Z"/><path class="cls-3" d="M64.38,86.4a1,1,0,0,0,.92.59,1,1,0,0,0,.91-1.4l-2.44-5.48c-.6.28-1.22.54-1.84.79Z"/><path class="cls-3" d="M57.89,96.41a1,1,0,0,0,1,.8l.21,0A1,1,0,0,0,59.85,96L57,82.43c-.65.15-1.3.28-2,.39Z"/><path class="cls-3" d="M90.05,74.06a1,1,0,0,0,.5.13,1,1,0,0,0,.86-.5,1,1,0,0,0-.36-1.36L79.53,65.68c-.34.58-.68,1.15-1,1.7Z"/><path class="cls-3" d="M87.42,62.76a1.18,1.18,0,0,0,.31.05,1,1,0,0,0,.31-2L82.46,59c-.2.63-.43,1.26-.67,1.88Z"/><path class="cls-3" d="M95,35.21a1,1,0,0,0-.62-1.91l-12,3.9c.21.63.41,1.27.58,1.92Z"/><path class="cls-3" d="M89.92,45.87a1,1,0,0,0-.2-2l-5.78.6c.07.66.13,1.33.16,2Z"/><path class="cls-3" d="M85.23,29.31a1,1,0,1,0-1-1.73l-5,2.87c.34.57.66,1.16,1,1.75Z"/><path class="cls-3" d="M85.3,17.67A1,1,0,1,0,84,16.18l-9.19,8.28c.46.48.9,1,1.33,1.5Z"/><path class="cls-3" d="M96.84,53.16,84,51.81c-.07.67-.15,1.33-.26,2l12.92,1.36h.1a1,1,0,0,0,.11-2Z"/><path class="cls-3" d="M73.88,73.07l4.43,4a1,1,0,0,0,.67.26,1,1,0,0,0,.67-1.74l-4.4-4C74.81,72.11,74.36,72.6,73.88,73.07Z"/><path class="cls-3" d="M58.52,8.56a1,1,0,0,0-2-.42l-1.21,5.69c.66.12,1.32.26,2,.41Z"/><path class="cls-3" d="M69.36,5.57a1,1,0,0,0-.51-1.32,1,1,0,0,0-1.32.5l-5,11.19c.62.26,1.23.53,1.82.82Z"/><path class="cls-3" d="M74.11,16.11a1,1,0,1,0-1.61-1.18l-3.37,4.63c.55.38,1.09.78,1.61,1.19Z"/><path class="cls-3" d="M48.93,0V13.27h.19l.75,0V1A1,1,0,0,0,48.93,0Z"/><path class="cls-3" d="M49.12,16.94h-.19V79.65h.19a31.36,31.36,0,1,0,0-62.72Z"/><path class="cls-3" d="M49.12,83.32h-.19v6.91a1,1,0,0,0,.86-1V83.31Z"/></g></g></svg>