<svg xmlns="http://www.w3.org/2000/svg" viewBox="0 0 88.15 75.9"><defs><style>.cls-1{fill:#a9561c;}.cls-2{fill:#50ed3a;}</style></defs><title>Asset 7</title><g id="Layer_2" data-name="Layer 2"><g id="Layer_1-2" data-name="Layer 1"><path class="cls-1" d="M81.41,34.64a2.07,2.07,0,0,0,.06-.5c0-1.56-1.71-2.83-3.82-2.83a4.77,4.77,0,0,0-2.07.46,20.12,20.12,0,0,0-3.09-.61,5.9,5.9,0,0,0-4.4-1.75c-2.34,0-4.32,1.12-5,2.67-3.69,1.26-6.53,3.5-7.76,6.22H67.58c-.88.71-3.22,1.91-9,1.91a11.72,11.72,0,0,0-8.8,3.57,14,14,0,0,0-2.43,3.49c-.82-4.2-1.14-10.19,1.7-11.35,8.2-3.34,13.88-9.79,14.55-16.36H88.15c-2.21-4.89-7.16-9-13.62-11.39a2.67,2.67,0,0,0,.37-1.33c0-2.27-3-4.11-6.79-4.11a10.88,10.88,0,0,0-2,.19C64.9.88,61.93-.33,58.67.08c-4,.51-7,3.31-6.62,6.26,0,.11,0,.21.05.32a32.68,32.68,0,0,0-12.22,5.19h0A2.43,2.43,0,0,0,37.91,11a2.59,2.59,0,0,0-1.35.36,32.19,32.19,0,0,0-3.29-.17,30.16,30.16,0,0,0-7.86,1,4.5,4.5,0,0,0-1.79-.36,3.67,3.67,0,0,0-3.76,2.57,18.83,18.83,0,0,0-4.15,3.06,8.89,8.89,0,0,0-3.81-.83c-3.75,0-6.79,2.16-6.79,4.81a3.66,3.66,0,0,0,.48,1.79A14.68,14.68,0,0,0,0,29.31H13.65a5.87,5.87,0,0,0,2.26,3.58c2.37,1.93,6.34,2.9,11.79,2.9A7.37,7.37,0,0,1,33.3,38c3.7,3.82,3.5,11.27,3.5,11.34h0L35.13,74.27h0c0,.89,3.52,1.62,7.87,1.62s7.87-.73,7.87-1.62h0L49.68,55c.32-2.51,1.15-6,3.3-8.17a7.38,7.38,0,0,1,5.6-2.2c5.45,0,9.41-1,11.79-2.9A5.94,5.94,0,0,0,72.6,38.3H84.38A10.13,10.13,0,0,0,81.41,34.64ZM35.25,24a21.17,21.17,0,0,0-4.68-2.65h4.28A19.61,19.61,0,0,0,35.25,24Zm5.49,11.65a17.17,17.17,0,0,0-.9,4.91,15.46,15.46,0,0,0-3.35-5.67,11.72,11.72,0,0,0-8.79-3.57c-4.91,0-7.35-.85-8.53-1.57a4.24,4.24,0,0,1-.64-.48h19a11.51,11.51,0,0,0,1.25,1.45A12.18,12.18,0,0,0,42,33.06,11.72,11.72,0,0,0,40.74,35.69Zm3.91-5.27a9,9,0,0,1-3.43-2.09,10.94,10.94,0,0,1-2.92-6.94H53.65a12.25,12.25,0,0,0-1-1.82h3.93a10.6,10.6,0,0,1-2.39,4.52,20.09,20.09,0,0,1-7.74,5.39A9.36,9.36,0,0,0,44.65,30.42Z"/><path class="cls-2" d="M41.07,29.23a33,33,0,0,0-10.5-7.84H53.65a11.77,11.77,0,0,0-1-1.82H88.15c-2.21-4.89-7.16-9-13.62-11.39a2.67,2.67,0,0,0,.37-1.33c0-2.27-3-4.11-6.79-4.11a10.88,10.88,0,0,0-2,.19C64.9.88,61.93-.33,58.67.08c-4,.51-7,3.31-6.62,6.26,0,.11,0,.21.05.32a32.68,32.68,0,0,0-12.22,5.19h0A2.43,2.43,0,0,0,37.91,11a2.59,2.59,0,0,0-1.35.36,32.19,32.19,0,0,0-3.29-.17,30.16,30.16,0,0,0-7.86,1,4.5,4.5,0,0,0-1.79-.36,3.67,3.67,0,0,0-3.76,2.57,18.83,18.83,0,0,0-4.15,3.06,8.89,8.89,0,0,0-3.81-.83c-3.75,0-6.79,2.16-6.79,4.81a3.66,3.66,0,0,0,.48,1.79A14.68,14.68,0,0,0,0,29.31Z"/><path class="cls-2" d="M81.41,34.64a2.07,2.07,0,0,0,.06-.5c0-1.56-1.71-2.83-3.82-2.83a4.77,4.77,0,0,0-2.07.46,20.12,20.12,0,0,0-3.09-.61,5.9,5.9,0,0,0-4.4-1.75c-2.34,0-4.32,1.12-5,2.67-3.69,1.26-6.53,3.5-7.76,6.22h29A10.13,10.13,0,0,0,81.41,34.64Z"/></g></g></svg>