<svg xmlns="http://www.w3.org/2000/svg" viewBox="0 0 73.7 75.46"><defs><style>.cls-1{fill:#06c;}.cls-2{fill:#09f;}</style></defs><title>Asset 9</title><g id="Layer_2" data-name="Layer 2"><g id="Layer_1-2" data-name="Layer 1"><path class="cls-1" d="M59.54,7.18a6.57,6.57,0,0,1,1.85,3.32,6.19,6.19,0,0,1,1-.58A4.13,4.13,0,0,0,55.7,5.17l-.18.18A6.59,6.59,0,0,1,59.54,7.18Z"/><path class="cls-1" d="M36,18.67a7.71,7.71,0,0,1,.64,2.51L50.09,7.31a6.55,6.55,0,0,1,1.75-1.26,4.12,4.12,0,0,0-6.61-4.79l-12.7,13C34.43,16.15,35.07,16.78,36,18.67Z"/><path class="cls-1" d="M4.13,51.19a27,27,0,0,1,7.69-19.31L27,16.27A6,6,0,0,0,27,11.91c-.69-1.48-1.08-1.86-2.91-3.64L7,25.82A24.63,24.63,0,0,0,5.11,58,27.06,27.06,0,0,1,4.13,51.19Z"/><path class="cls-2" d="M13.66,33.65,30.75,16.1c1.83,1.78,2.22,2.16,2.91,3.64a6.17,6.17,0,0,1-1.32,6.6l-9.7,10A1,1,0,1,0,24,37.73L51.92,9.09a4.14,4.14,0,1,1,5.94,5.77L37.65,35.6A1,1,0,0,0,39.07,37L62.39,13a4.14,4.14,0,0,1,5.94,5.77L45,42.75a1,1,0,0,0,0,1.38,1,1,0,0,0,1.37,0L66.6,23.37a4.14,4.14,0,1,1,5.93,5.78L52.33,49.88a1,1,0,0,0,1.4,1.37L65.66,39a4.14,4.14,0,1,1,5.93,5.78L49,68A24.64,24.64,0,0,1,13.66,33.65"/></g></g></svg>