<svg xmlns="http://www.w3.org/2000/svg" viewBox="0 0 54.34 84.2"><defs><style>.cls-1{fill:#c55d1c;}.cls-1,.cls-2,.cls-3,.cls-4,.cls-5,.cls-6,.cls-7{fill-rule:evenodd;}.cls-2{fill:#793d1c;}.cls-3{fill:#ec1c24;}.cls-4{fill:#e21f26;}.cls-5{fill:#9f6;}.cls-6{fill:#50ed3a;}.cls-7{fill:#fff;}</style></defs><title>Asset 6</title><g id="Layer_2" data-name="Layer 2"><g id="Layer_1-2" data-name="Layer 1"><path id="_Path_" data-name="&lt;Path&gt;" class="cls-1" d="M27.33,38.6C26.65,30.31,39.19,22,39.25,21.94c.33-.27-.74-1.78-1.22-1.47a12.89,12.89,0,0,0-2,1.12c-.41.27-.82.56-1.23.89l-1.23-1.92-.48.26a10.56,10.56,0,0,1,1,2.2c-4.57,3.88-9,10.62-9.06,15.93C25.05,39.23,27.33,38.6,27.33,38.6Z"/><path id="_Path_2" data-name="&lt;Path&gt;" class="cls-2" d="M27.56,35.84C29.29,28.56,39.2,22,39.25,21.94s0-.59-.32-1c-4,1.37-10.4,8.88-12.28,14.36Z"/><path id="_Path_3" data-name="&lt;Path&gt;" class="cls-3" d="M22.86,34.43a25.72,25.72,0,0,0-13.38.93C-9.83,42.55,4.45,82,16.25,84c4.74.81,5.2-1.44,6.67-1.29s1.88,1.46,4.25,1.46,2.79-1.3,4.25-1.46,1.93,2.1,6.67,1.29c11.8-2,26.08-41.48,6.77-48.67a25.72,25.72,0,0,0-13.38-.93,28.88,28.88,0,0,1-4.31.58A28.88,28.88,0,0,1,22.86,34.43Z"/><path id="_Path_4" data-name="&lt;Path&gt;" class="cls-4" d="M27.17,84.2c2.37,0,2.79-1.3,4.25-1.46s1.93,2.1,6.67,1.29c11.8-2,26.08-41.48,6.77-48.67a25.72,25.72,0,0,0-13.38-.93,28.88,28.88,0,0,1-4.31.58C32.44,50.88,31.69,67.35,27.17,84.2Z"/><path id="_Path_5" data-name="&lt;Path&gt;" class="cls-5" d="M25.31,23.26c-10.4-1.62-14.6-16.75-25-22.1a38.09,38.09,0,0,1,22.23,1C42.59,9.05,39.7,25.52,25.31,23.26Z"/><path id="_Path_6" data-name="&lt;Path&gt;" class="cls-6" d="M25.31,23.26c-10.4-1.62-14.6-16.75-25-22.1C13.27,4.09,18.12,6,28.88,15.89A32.07,32.07,0,0,1,34,21.74C32,23.17,29,23.85,25.31,23.26Z"/><path id="_Path_7" data-name="&lt;Path&gt;" class="cls-7" d="M41.79,38.15c12.56.59,8.86,17.22,5.57,21.88C48.42,49.84,48.05,41,41.79,38.15Z"/></g></g></svg>