<?xml version="1.0" encoding="utf-8"?>
<!-- Generator: Adobe Illustrator 22.0.1, SVG Export Plug-In . SVG Version: 6.00 Build 0)  -->
<svg version="1.1" id="Layer_1" xmlns="http://www.w3.org/2000/svg" xmlns:xlink="http://www.w3.org/1999/xlink" x="0px" y="0px"
	 viewBox="0 0 57 56.9" style="enable-background:new 0 0 57 56.9;" xml:space="preserve">
<style type="text/css">
	.st0{fill:#FFE600;}
	.st1{fill:#333333;}
	.st2{fill:#FF9900;}
	.st3{fill:#FFFFFF;}
</style>
<title>Asset 1</title>
<g>
	<g id="Layer_2_1_">
		<g id="Layer_4">
			<rect x="0" y="0" class="st0" width="57" height="57"/>
			<path class="st1" d="M21.1,29.1c-0.3,0-0.5-0.3-0.5-0.5c-0.1-0.6-0.6-1.1-1.2-1c-0.5,0.1-1,0.5-1,1c0,0.3-0.2,0.6-0.5,0.6
				c-0.3,0-0.6-0.2-0.6-0.5c0,0,0,0,0,0c0-1.2,1-2.2,2.2-2.2c1.2,0,2.2,1,2.2,2.2C21.6,28.8,21.4,29.1,21.1,29.1z"/>
			<circle class="st2" cx="8.5" cy="20.5" r="3.2"/>
			<circle class="st2" cx="48.6" cy="20.5" r="3.2"/>
			
				<image style="overflow:visible;opacity:0.15;enable-background:new    ;" width="115" height="103" xlink:href="8F281C3CFE4C97C2.png"  transform="matrix(1 0 0 1 -16.9961 -11.0008)">
			</image>
			<path class="st3" d="M37.5,13.9c-3.5,0-6.8,1.4-9.1,3.9c-2.4-2.5-5.7-3.9-9.1-3.9C12.5,13.9,7,19.5,7,26.3c0,0.1,0,0.2,0,0.2
				v13.1c0,1.8,1.5,3.3,3.3,3.3s3.3-1.5,3.3-3.3V26.7c-0.2-3,2.1-5.6,5.1-5.9h0.4c3.2,0,5.8,2.6,5.8,5.7v4c0,1.9,1.5,3.4,3.3,3.4
				c0,0,0,0,0.1,0l0,0c1.9,0,3.3-1.5,3.3-3.4c0,0,0,0,0-0.1v-4c0.1-3.2,2.7-5.8,5.9-5.8H38c3,0.2,5,2.8,5,5.9v13
				c0,1.9,1.5,3.4,3.3,3.4c0,0,0,0,0,0c1.8,0,3.3-1.5,3.3-3.3c0,0,0-0.1,0-0.1V26.5c0.2-6.8-5.2-12.4-12-12.6
				C37.7,13.9,37.6,13.9,37.5,13.9z"/>
			<path class="st2" d="M25.3,37.3c-0.3,0-0.6,0.3-0.6,0.6c0,0,0,0.1,0,0.1c0.4,2.1,2.5,3.4,4.6,3c1.5-0.3,2.7-1.5,3-3
				c0.1-0.3-0.2-0.7-0.5-0.7c0,0-0.1,0-0.1,0H25.3z"/>
			<circle class="st1" cx="37.4" cy="28.3" r="1.9"/>
		</g>
	</g>
</g>
</svg>
