<svg xmlns="http://www.w3.org/2000/svg" viewBox="0 0 18.52 14.14"><defs><style>.cls-1{fill:#9b9b9b;fill-opacity:0.8;}</style></defs><title>Asset 3</title><g id="Layer_2" data-name="Layer 2"><g id="Layer_1-2" data-name="Layer 1"><path class="cls-1" d="M18.52,7.08a.72.72,0,0,0-.72-.72H2.45L7.58,1.23A.75.75,0,0,0,7.79.72.75.75,0,0,0,7.58.21.71.71,0,0,0,7.07,0h0a.71.71,0,0,0-.51.21L.21,6.57a.51.51,0,0,0-.15.23.7.7,0,0,0,0,.55.78.78,0,0,0,.16.24l6.35,6.35a.74.74,0,0,0,1,0,.71.71,0,0,0,0-1L2.45,7.8H17.8A.72.72,0,0,0,18.52,7.08Z"/></g></g></svg>