<svg xmlns="http://www.w3.org/2000/svg" viewBox="0 0 226.57 269.43"><defs><style>.cls-1{isolation:isolate;}.cls-2,.cls-5{fill:#a16733;}.cls-3{fill:#ebc17d;}.cls-4{fill:#ca974d;}.cls-5{mix-blend-mode:multiply;}.cls-6{fill:#c08329;}.cls-7{fill:#442e29;}.cls-8{fill:#7f706f;}.cls-9{fill:#684e48;}.cls-10{fill:#d3a262;}.cls-11{fill:#78a04a;}.cls-12{fill:#5c8742;}.cls-13{fill:#8dc63f;}</style></defs><title>Asset 9</title><g class="cls-1"><g id="Layer_2" data-name="Layer 2"><g id="Layer_4" data-name="Layer 4"><path class="cls-2" d="M125.08,1.44c-7.3,82.35-22,226.07-23.63,241.16a1.29,1.29,0,0,1-1.43,1.15L86.09,242.3A1.3,1.3,0,0,1,85,240.72C92.18,209.19,99,104,100,94.59L109.19,1.8A1.3,1.3,0,0,1,110.43.62L123.72,0A1.3,1.3,0,0,1,125.08,1.44Z"/><path class="cls-3" d="M125.1,1.24C117.42,88,101.42,243.11,101.31,243.89l-12.79-1.34c7.35-29.64,14.41-138,15.41-147.56l9.23-93.41A1.46,1.46,0,0,1,114.57.26L123.92,0A1.14,1.14,0,0,1,125.1,1.24Z"/><path class="cls-4" d="M116.55.81l2.8-.08a14.53,14.53,0,0,0-.26,2.85c0,.37.91-1.89.91-2.87l1.08,0c.13,0,.29,3.48.38,3.27a11.52,11.52,0,0,0,.77-3.07,3.07,3.07,0,0,1,2,3.16c-7.09,79.56-20.71,212.5-23.15,236.12a3.09,3.09,0,0,1-3.4,2.75l-5-.52a3.09,3.09,0,0,1-2.71-3.7c5.65-27.64,11-98,13.36-129,.57-7.47,1-12.86,1.16-14.66l9-91.46A3.08,3.08,0,0,1,116.55.81Z"/><path class="cls-5" d="M124.45,8.56c-5,48-8.85,95.52-13.57,141.07-.12,0-.24,0-.36,0a63.11,63.11,0,0,0-7.83-1.13c-2.18-.14-4.49-.69-6.87-.74,4.9-49,8.65-98.07,12.51-137.23C110.68,8.84,121.41,8.26,124.45,8.56Z"/><path class="cls-4" d="M226.57,31.23q-2.48,11.51-5,23c-1.82.27-3.64.54-5.46.83l3.27,4.22q-3.88,15.39-7.74,30.84-3,.69-6,1.41l5.48,1-6.54,30.68c-2,.56-3.91,1.13-5.85,1.71l4.8,3.2q-1.69,8-3.4,16c-46.65-4-164.48-13.57-196.62-17Q5,101.34,6.65,75.29l3.71-1.79S6,74,6.66,70.87C7.35,57,3.36,40.62,3.34,40.65A64.92,64.92,0,0,0,14.26,37.3Q8.82,36.09,3.34,35C3.35,24.91,0,7.55,0,7.57c22.41.07,79.84-.73,130.84,5.83C182,18.78,226.68,31.52,226.57,31.23Z"/><path class="cls-6" d="M210.73,94.57c-2-.17-4.17-.11-6-.21-3.46-.2-6.9-.58-10.36-.7-.08,0-.11.12,0,.13,3.74.52,7.53.78,11.28,1.3,1.53.22,3.18.59,4.82.81C210.55,95.46,210.64,95,210.73,94.57ZM10.36,73.5,6.93,75.16c6.51,0,13.06-.32,19.57-.37,8.22-.06,18.53.06,26.77.15,16.18.18,32.39.6,48.61,1.47s32.49,2.29,48.63,4.5C158.74,82,167,83.36,175.09,85c5.47,1,26.29,5,31.69,6.3l2.62-.62c-6.43-1.91-28.51-5.93-35.13-7q-12.27-2.2-24.64-3.87c-16.16-2.16-32.42-3.53-48.68-4.47S68.5,73.85,52.3,73.61c-8.24-.14-18.57-.27-26.8-.23-5.59,0-11.23-.09-16.84.06A6.91,6.91,0,0,0,10.36,73.5Zm198.5,29.89c-6.9-1.39-29.13-4.91-36.09-6s-14.21-2.56-21.38-3.25c-.07,0-.09.1,0,.12,7.37,1.58,14.89,2.57,22.32,3.85,6.62,1.08,28.4,5,35,6.29Zm.86-54c4.08,1.32,8,3,11.93,4.69.09-.41.17-.82.26-1.22-7.59-4.09-33.89-10.2-42.28-10.17-.13,0-.13.2,0,.22C184,43.53,205.47,47.91,209.72,49.38ZM3.86,121.78l-.06,1.06a69.89,69.89,0,0,0,7.2.88,76.62,76.62,0,0,0,9.36,1.06c.15,0,.2-.25.05-.29A75.61,75.61,0,0,0,11,122.9,72.15,72.15,0,0,0,3.86,121.78Zm205.76-22a58.05,58.05,0,0,0-7.52-1,.1.1,0,0,0,0,.2,63,63,0,0,0,7.44,1.4ZM49.11,125q24,2.37,48,4.74c16.33,1.61,32.64,3.4,49,5.2,13.34,1.47,41.45,4.9,55.09,4.58l.15-.7c-14.31.27-43.07-3.3-57.09-4.85-16-1.76-32-3.44-48-5.22s-32-3.44-48-5c-14-1.41-30.13-3.48-44.19-4.48l-.09,1.62C18.29,122.56,34.73,123.61,49.11,125ZM220.32,33a52.58,52.58,0,0,0,5.61,1.2l.24-1.12c-2.15-.65-4.7-.56-6.8-.86-3.22-.46-6.45-.75-9.67-1.2,0,0,0,0,0,0C213.25,31.6,216.78,32.33,220.32,33Zm-3.09,36.4c.07-.34.15-.68.22-1a28.9,28.9,0,0,0-4.46-.65c-2.1-.25-5.24-.72-7.33-1-3.8-.58-23.4-4.31-27.26-4.3-.09,0-.09.13,0,.15,4.47.82,25.81,4.44,30.27,5.31C211.21,68.34,214.43,69.43,217.23,69.41ZM.33,9.33c0,.24.09.51.14.79,2,.49,4,.94,6,1.34,16,3.19,34.65,4.21,51.05,4.69,17.54.5,35.14.87,52.67,2.06,29.13,1.59,75.45,9.12,103.92,15.84a.12.12,0,0,0,.09.17c3.59,1.28,7.35,2.28,11.07,3.22.11-.49.21-1,.32-1.48l-.22-.05c-35.61-9.37-89.44-17.76-126.07-19.12C67,15.2,31.58,16.9.33,9.33Zm4.79,90.94,0,.49,2.05,0c4.24,0,8.5.22,12.75.63s10.51,1.14,14.72,2c3.88.74,7.72,1.94,11.59,2.54,0,0,0,0,0-.05-4-1.54-8.41-2.22-12.55-2.95S23.17,101.41,18.92,101s-8.51-.68-12.76-.74Zm217.13-49,.18-.88a37.79,37.79,0,0,0-6.37-2.94l3.53.77c1,.54,2,1.12,2.95,1.69l.2-.95a.47.47,0,0,0-.09-.06l.1,0,.1-.47-1.38-.3C207.69,39.45,173,32.43,157.4,34.75c-.28,0-.4.51-.09.61,8.24,2.77,16.78,3.8,25.28,5.18-11.38-.95-22.85-.89-32.72-7.32,10.6-3.3,21.87-2.56,32.62.38,8.33,2.13,33.07,9.81,40.62,13.71l.27-1.28c-7.81-4.17-33.32-11.54-41.71-13.42-10.82-2.64-22.2-3-32.85.11a.4.4,0,0,0-.1.67C165.65,44.69,204.93,40.75,222.25,51.3Zm-10,36.33c0-.12.05-.25.08-.37-29.24-13.21-77.48-22.72-109.89-21.44-31.64,1-64.84,8.54-95.67,1.46,0,.56,0,1.13,0,1.69,31.88,7.65,66.07-1.58,98.63-2.44C136.77,65.46,183.84,74.93,212.22,87.63ZM8.05,79.48c-.55,0-1.1-.12-1.65-.18,0,.41-.05.81-.07,1.21.87.08,1.75.13,2.59.2a29.37,29.37,0,0,0,5.3.13c.17,0,.15-.28,0-.33A28.73,28.73,0,0,0,8.05,79.48Zm16.33,27.65c-6.49-.73-13-1.68-19.52-2.49,0,.46-.06.92-.08,1.38,6.87.73,13.76,1.27,20.58,2,11.26,1.17,24.51,2.49,35.78,3.53q33.77,3.1,67.72,5.19c.23,0,.28-.38,0-.39-23-1.52-45.86-3.26-68.73-5.5C48.91,109.73,35.65,108.4,24.38,107.13Zm176.21,19.06L198.77,125l.7-.21c-6.87-.86-28.87-3-35.77-3.41q-12-.81-23.9-1.5c-15.91-.91-31.8-1.68-47.64-2.45-16.16-.79-32.27-1.75-48.35-3.15-12.44-1.08-26.83-2.78-39.26-4.37,0,.62-.07,1.25-.11,1.87,28.4,4.19,59.06,5.33,87.62,6.68,16.16.78,32.36,1.54,48.58,2.54,8,.48,15.91,1,23.87,1.56C171.52,123,193.52,125.9,200.59,126.19ZM14.94,66.44c-2.8-.65-5.54-1.44-8.27-2.27l0,1a112.48,112.48,0,0,0,26.69,4.56,142.41,142.41,0,0,0,19.92-.22c5.81-.59,12-1.32,17.57-3.3.15-.06.12-.31-.06-.28C64.9,67,59.18,68.48,53.21,69a139.2,139.2,0,0,1-19.8.13A120.46,120.46,0,0,1,14.94,66.44ZM171,53.5c10.32,2.07,37.19,8.61,47,12.37l.22-1c-9.8-3.72-36.82-10-47.12-11.85-11.89-2.3-24.28-4.29-36.41-4.15-.05,0,0,.09,0,.09C146.89,50,159,50.91,171,53.5Zm13.3-22.07c7.93,1.8,32.38,9.14,39.36,13.27,0-.17.07-.34.11-.51-14.46-9.08-48.59-16.1-65.27-15.63-18.1.16-37.26,2.38-53.94-6.43-.17-.09-.27.19-.11.28,15.76,8.65,33.72,7.25,51,6.78C165.1,28.91,174.81,29.09,184.31,31.43ZM14.17,37.28l.09,0-.65.26a.5.5,0,0,0,.37.64l-2.47.14c-1.28.45-2.94,1-4.88,1.51q8.54-.45,17.1-.81c24.93,1.81,52,1.16,77.11,1l3.08.21c32.89,2,82.61,9.91,114.63,17.89l-.69-.89C189,50,142.58,42.29,113,40.08c29.15-.19,75.59,5.31,103.37,15.23l-.19-.24,2.74-.42a.61.61,0,0,0-1,.08C186.62,43,136.15,38.48,103.3,39.3l-.36,0q-25.84-1.86-51.75-1.8c-9.58,0-21.33.07-30.92.45Q17.22,37.63,14.17,37.28ZM30.8,38.76c6.42-.23,15-.33,21.42-.32q19.22,0,38.43,1C71.32,39.77,50,40,30.8,38.76ZM4.38,45.43c2.54-.23,5.08-.54,7.62-.78a68.17,68.17,0,0,0,8.55-.95c.17,0,.12-.28,0-.29-3.17-.23-6.39.27-9.56.44-2.27.12-4.54.25-6.8.46Z"/><path class="cls-7" d="M118.72,20.15c-5.36-.58-6.07,6.31-.76,6.88S124.07,20.75,118.72,20.15ZM106.31,128.07a3.27,3.27,0,1,0,.71-6.5A3.27,3.27,0,1,0,106.31,128.07Z"/><path class="cls-8" d="M119.48,19c-4.33-.48-5,6.41-.75,6.88S123.82,19.52,119.48,19ZM107.29,127c3.68.39,4.42-6.1.7-6.5S103.61,126.58,107.29,127Z"/><path class="cls-9" d="M117,20.73a1.47,1.47,0,0,0,.54.59.26.26,0,0,0,.39-.32,2.24,2.24,0,0,0-.53-.75,2.52,2.52,0,0,1,2-.63,2.64,2.64,0,0,1,2.33,3.14,3.19,3.19,0,0,1-.62,1.59A18.81,18.81,0,0,0,119,22.1c-.29-.27-.74.22-.48.5a22.52,22.52,0,0,0,2.17,2.2,2.47,2.47,0,0,1-1.87.52h0a2.67,2.67,0,0,1-2.33-3.14A3.18,3.18,0,0,1,117,20.73Z"/><path class="cls-9" d="M105.88,122.18a3.14,3.14,0,0,0,.69.8c.26.26.64-.13.52-.42a1.35,1.35,0,0,0-.92-.8,2,2,0,0,1,1.76-.69c1.5.16,2,1.55,1.89,2.86a3.59,3.59,0,0,1-.22.9,8.62,8.62,0,0,0-1.45-1.21.24.24,0,0,0-.33.35,7.27,7.27,0,0,0,1.53,1.38,2,2,0,0,1-2,1h0c-1.49-.16-2-1.61-1.89-2.88A3.41,3.41,0,0,1,105.88,122.18Z"/><path class="cls-3" d="M3.34,35q5.48,1.09,10.92,2.31A64.92,64.92,0,0,1,3.34,40.65S7.35,57,6.66,70.87C6,74,10.36,73.49,10.36,73.5L6.65,75.29q-1.64,26-3.1,51.86c32.14,3.43,150,13,196.62,17q1.7-8,3.4-16l-4.8-3.2c1.94-.58,3.9-1.15,5.85-1.71l6.54-30.68-5.48-1q3-.72,6-1.41,3.85-15.45,7.74-30.84l-3.27-4.22c1.82-.29,3.64-.56,5.46-.83q2.47-11.51,5-23c.11.29-44.6-12.45-95.73-17.83C79.84,6.84,22.41,7.64,0,7.57,0,7.55,3.35,24.91,3.34,35Zm7.33,72.67q44.54,3.6,89,7.5c28.45,2.52,56.91,5.69,85.41,7.64l-.26.08,12,8-1.46,6.85-36.59-3.07c-51-4.25-119.92-10-149-12.89C10.12,117.1,10.39,112.38,10.67,107.66ZM12.4,79.15l16-7.75c27.7,1.09,55.46,2.77,83,5.42q24.28,2.34,48.41,5.78c7.85,1.12,15.7,2.28,23.52,3.58,7,1.16,13.94,2.65,21,3.42l.15,5.45-1.42,6.68c-4.11-.36-8.25-.51-12.37-.6-.07,0-.08.1,0,.12,4,.74,8,1.45,12.06,1.94l-3.26,15.33-2.46.72-10,3c-29-3.24-58.22-5.17-87.3-7.77q-44.52-4-89-8.34.44-7.24.89-14.51c3.89.12,7.77.58,11.66.7a.18.18,0,0,0,0-.35c-3.86-.7-7.76-1-11.62-1.73Q12.06,84.69,12.4,79.15Zm7.8-41.23.21-2q47.88,3.68,95.74,7.58,23.7,2,47.38,4,11.83,1,23.68,2c6.06.51,12.23,1.32,18.35,1.61l7.35,9.49-1.8,7.13c-9.17-1.66-18.61-3.41-27.9-4.1-.18,0-.27.28-.08.34a270,270,0,0,0,27.55,5.48c-1.48,5.9-2.85,11.34-3.91,15.63l-2.5.6,0,2c-6.81-1.52-13.84-2.31-20.73-3.26-7.85-1.09-15.7-2.2-23.56-3.22-16.12-2.09-32.28-3.78-48.42-5.67C82.89,72.21,54.07,70.18,25.19,69l-12.47-1.3a115.78,115.78,0,0,0-1.54-18.1c-.28-1.78-.53-3.31-.76-4.65.91-.27,1.82-.56,2.72-.87C16.86,42.83,19.8,41.82,20.2,37.92ZM7.13,13.55h1c23.62,0,67.61-.05,109.43,4.32,4.3.45,8.53.94,12.57,1.46l.14,0c27.55,2.89,57.58,8.38,89.28,16.3l-2.86,13.29-7.79,1.23c-7.45-1.18-15.19-1.4-22.68-2l-23.7-2q-23.68-2-47.38-3.94-47.25-4-94.46-8.4l.13-1.24-5.21-1.15c-2.14-.47-4.29-.94-6.41-1.38-.25-3.76-.77-8.26-1.54-13.45C7.43,15.5,7.28,14.48,7.13,13.55Z"/><path class="cls-10" d="M212.1,63.87c2.21.69,4.15,1.34,5.69,1.92l.24-1c-1.53-.57-3.47-1.21-5.69-1.88Zm7.35-28q2.88.83,5.78,1.54c.11-.49.21-1,.32-1.48l-.22-.05C196,28.18,154.16,21.12,119.87,18.12c3.49.38,6.91.79,10.21,1.21l.14,0a610.75,610.75,0,0,1,64.65,10.57c6.94,1.37,13.44,2.77,19.2,4.13a.12.12,0,0,0,.09.17c.48.18,1,.33,1.46.49l3.88.94Zm-1.34,6.19a46.59,46.59,0,0,1,5.56,2.61c0-.17.07-.34.11-.51a48,48,0,0,0-5.49-2.93Zm-.25,15.19c-2.93-.75-6-1.49-9.29-2.24l.72.93c3.21.73,6.31,1.46,9.26,2.2Zm-1.16-8.64a34,34,0,0,1,5.55,2.66l.07-.34c0-.18.08-.36.11-.54a38.48,38.48,0,0,0-5.55-2.63ZM211,49.83c3.62,1.25,7.13,2.75,10.65,4.24.09-.41.17-.82.26-1.22a54.15,54.15,0,0,0-8.76-3.36Zm6.51-5c2.3.9,4.23,1.73,5.6,2.44l.27-1.28a53.87,53.87,0,0,0-5.59-2.45ZM198.8,125l0,0h0l.7-.21c-2.82-.35-8.21-.92-14.05-1.5l2.69,1.8c5.19.56,9.86,1,12.48,1.13ZM10.19,73.51h.17L6.93,75.16c4.76,0,9.55-.17,14.32-.28l3.1-1.5c-5.22,0-10.46-.08-15.69.06h.06l.29,0h.14l.19,0h.85Zm4-36.23.09,0-.65.27a.49.49,0,0,0,.37.63l-2.47.14h0c-.62.22-1.33.45-2.13.7l-.11,0-1.15.34-.1,0-1.37.39c4.43-.23,8.87-.43,13.31-.63a7.12,7.12,0,0,0,.26-1.3h0Q17.2,37.62,14.17,37.28ZM206.33,52.14c3.53,1,6.89,2.06,10,3.17l-.19-.24h0l2.74-.42a.61.61,0,0,0-1,.08c-3.87-1.45-8-2.79-12.41-4l-.2,0ZM203.6,99.35c1.94.43,3.92.73,5.9,1l.12-.58c-2-.36-3.94-.7-5.92-.89ZM220.32,33a52.58,52.58,0,0,0,5.61,1.2l0-.1c.07-.34.15-.68.22-1-2.15-.65-4.7-.56-6.8-.86-3.22-.46-6.45-.75-9.67-1.2,0,0,0,0,0,0C213.25,31.6,216.78,32.33,220.32,33Zm-.74,15.24c1,.54,2,1.12,3,1.69.07-.32.14-.64.2-.95a.47.47,0,0,0-.09-.06l.1,0,.1-.47-1.38-.3a41.12,41.12,0,0,0-4.18-2.29l-.38,1.78ZM123,131.68c-14.77-1.23-29.88-2.51-44.3-3.74l18.46,1.82c16.33,1.61,32.64,3.4,49,5.2,13.34,1.47,41.45,4.9,55.09,4.58l.15-.7c-14.31.27-43.07-3.3-57.09-4.85ZM8.05,79.48c-.55,0-1.09-.12-1.64-.18,0,.41,0,.81-.08,1.21.88.08,1.75.13,2.59.2,1.12.09,2.25.18,3.37.2l.06-.86A37.83,37.83,0,0,0,8.05,79.48ZM6.16,100.27h-1l0,.49,2.05,0c1.31,0,2.62,0,3.93.09l0-.43C9.45,100.36,7.8,100.29,6.16,100.27Zm.58-33c0,.57,0,1.13,0,1.69A111.25,111.25,0,0,0,27.6,71.81L31,70.2A125.16,125.16,0,0,1,6.74,67.28Zm5.95-1.42q-3-.78-6-1.68c0,.33,0,.67,0,1q3,.91,6,1.63C12.7,66.5,12.69,66.18,12.69,65.86ZM.33,9.33c0,.24.1.51.15.79q3,.74,5.95,1.34c4.23.85,8.64,1.53,13.15,2.1l6,0A197.65,197.65,0,0,1,.33,9.33ZM11,43.85c-2.27.12-4.54.25-6.8.46.08.35.15.73.23,1.12,2.27-.21,4.53-.47,6.8-.69.66-.21,1.31-.41,2-.63l1.55-.55C13.44,43.66,12.19,43.78,11,43.85Zm-.15,61.56c-2-.27-4-.53-5.94-.77,0,.46-.05.92-.08,1.38,2,.21,4,.4,6,.59C10.76,106.21,10.78,105.81,10.8,105.41ZM209.4,90.66c-1.2-.36-2.94-.79-5-1.26l0,1.35c1,.2,1.77.38,2.38.53Zm-198.9,20-5.94-.75c0,.62-.07,1.25-.11,1.87q3,.44,5.93.83Zm196-25.43q3,1.2,5.75,2.43c0-.12.05-.25.08-.37q-2.64-1.19-5.48-2.34l0,.21Zm-.84,9.89c1.53.22,3.18.59,4.82.81.1-.44.19-.88.28-1.33-2-.17-4.17-.11-6-.21l-.23,0,0,.61ZM211,68.39a30.59,30.59,0,0,0,5.91,1l.27-1.08a34.07,34.07,0,0,0-4.16-.58c-.55-.06-1.16-.14-1.8-.23C211.11,67.8,211,68.1,211,68.39Zm-8.2,34.86c2.44.45,4.5.85,5.88,1.13l.21-1c-1.41-.29-3.46-.66-5.89-1.08ZM10,119.74q-3-.27-6-.48l-.09,1.62,5.94.65C9.9,120.93,9.93,120.33,10,119.74Zm-6.1,2-.06,1.06a69.38,69.38,0,0,0,7.19.88,76.62,76.62,0,0,0,9.36,1.06c.15,0,.2-.25.05-.29a77.55,77.55,0,0,0-9.4-1.6C8.81,122.59,6.22,121.87,3.87,121.78Z"/><path class="cls-6" d="M5.48,7.67c1.11,7,1.33,24.09,1.33,24.09q5.58,3,11.09,6.24c-3.26.66-6.51,1.32-9.76,2,0,0,2.18-.58,2.92,7.46s-.17,22.39-.16,22.39c.77,1.17,1.55,2.34,2.32,3.52l-3.4,1.77q-1.19,24.3-2.27,48.48c64.25,4.87,128.88,9.75,193.6,15.92-.33,1.54-.65,3.07-1,4.61-46.65-4-164.48-13.57-196.62-17Q5,101.34,6.65,75.29l3.71-1.79S6,74,6.66,70.87C7.35,57,3.36,40.62,3.34,40.65A64.92,64.92,0,0,0,14.26,37.3c-4.53-1-8.57-1.87-10.92-2.31C3.35,24.91,0,7.55,0,7.57c1.66,0,3.5.08,5.48.1Z"/><path class="cls-2" d="M8.45,103.9c0-.76.07-1.53.1-2.29L6.73,100c-.49-.45-1-.9-1.51-1.37,0,.73-.09,1.46-.13,2.19l1,.88C6.88,102.4,7.67,103.14,8.45,103.9Zm2.65-38c0-.29,0-.58,0-.89a13.4,13.4,0,0,1-2.88-1.39c-.56-.29-1.11-.6-1.66-.9l0,.62,1.54.79a12.51,12.51,0,0,1,2.88,1.67A.19.19,0,0,1,11.1,65.86ZM7.81,117.77c0-.76.07-1.52.1-2.28a13.43,13.43,0,0,1-1.51-1.36,23.06,23.06,0,0,1-2-1.84c0,.72-.09,1.45-.13,2.18.59.48,1.13,1,1.67,1.55S7.2,117.18,7.81,117.77Zm3.35-53.29c0-.51,0-1,.06-1.6-.94-.39-1.84-1-2.72-1.46l-2.06-1.1c0,.5.07,1,.11,1.51.69.37,1.39.74,2.08,1.13A15.43,15.43,0,0,1,11.16,64.48ZM8.37,105.63l.06-1.34q-1.17-.92-2.31-1.89l-1.07-.9c0,.43-.06.85-.08,1.28.61.42,1.18,1,1.73,1.42S7.82,105.14,8.37,105.63Zm-.4,8.7L8,113l-2-1.71c-.47-.4-1-.8-1.44-1.22l-.09,1.5a17.79,17.79,0,0,1,2.35,1.82C7.12,113.7,7.57,114,8,114.33ZM11.24,62c0-.52,0-1,0-1.58-.81-.35-1.58-.78-2.36-1.18s-1.82-.89-2.71-1.37c0,.47.1,1,.14,1.44.69.37,1.37.76,2.05,1.14C9.32,61,10.35,61.45,11.24,62Zm-2,12.06h0Zm.46,4.15c0-.31,0-.61.05-.92-1-.58-1.91-1.16-2.82-1.81l0,0H6.64l-.06.93C7.64,77,8.66,77.6,9.67,78.25Zm1.67-24.71A20.89,20.89,0,0,1,8,51.92c-.92-.48-1.84-1-2.75-1.49.08.5.15,1,.23,1.53,2,1,4,2.18,5.86,3.38C11.35,54.74,11.35,54.14,11.34,53.54ZM10.91,69.7c0-.23,0-.73.08-1.44-.66-.34-1.31-.69-2-1s-1.58-.8-2.32-1.29c0,.52,0,1,0,1.56.49.25,1,.53,1.46.77C9.1,68.72,10,69.2,10.91,69.7Zm-.63.84.51-.25-1.88-1c-.7-.36-1.45-.72-2.17-1.11,0,.9,0,1.79-.08,2.67a2.7,2.7,0,0,0,0,.84C7.84,71.31,9.06,70.92,10.28,70.54Zm.74-3c0-.44.05-.94.07-1.48a.29.29,0,0,1-.3.13A13.16,13.16,0,0,1,8.18,65c-.5-.25-1-.51-1.51-.78l0,1.05A19.16,19.16,0,0,1,9,66.41C9.65,66.79,10.34,67.17,11,67.56ZM3.7,18.46c-.64-.45-1.36-.86-2.06-1.27.07.5.15,1,.22,1.52l1.27.74a33.24,33.24,0,0,1,3.4,2c0-.3,0-.62,0-.93C5.54,19.89,4.65,19.13,3.7,18.46ZM7,31.94l.09,0L7,31.86S7,31.91,7,31.94ZM2.09,13.53c-.37-.21-.76-.44-1.15-.69.08.43.15.88.23,1.35.52.4,1,.8,1.57,1.17,1.18.83,2.4,1.59,3.61,2.37L6.26,16C4.81,15.3,3.44,14.33,2.09,13.53ZM3.36,25.79l-.64-.29c0,.13,0,.27,0,.4a12,12,0,0,1,2.09,1c.63.32,1.26.64,1.88,1,0-.15,0-.31,0-.46C5.58,26.89,4.47,26.32,3.36,25.79ZM8.11,41.06c-.71-.34-1.43-.68-2.13-1l-1.76.43a46.9,46.9,0,0,1,6.25,3.16,11.78,11.78,0,0,0-.54-1.74A8.22,8.22,0,0,1,8.11,41.06ZM6.62,24c-1.45-.65-2.94-1.34-4.33-2.14l.15,1.21,1.16.53c1,.45,2.06.89,3.05,1.4Zm-5-12.46L.62,11c.05.27.1.56.15.86a16.92,16.92,0,0,0,2.06,1.48c1.09.63,2.29,1.21,3.38,1.9,0-.33,0-.67-.07-1C4.57,13.45,3.09,12.41,1.61,11.55ZM4.53,27.41a18.13,18.13,0,0,1-1.7-.87c0,.51.1,1,.14,1.52l.18.09a33.93,33.93,0,0,1,3.64,2.13c0-.49,0-1.09,0-1.77C6,28.16,5.26,27.79,4.53,27.41ZM9.58,80.18,9.64,79c-1.06-.65-2.09-1.32-3.09-2,0,.45-.06.89-.08,1.33.65.4,1.3.8,1.94,1.21ZM2.9,16.2c-.51-.34-1-.68-1.58-1,.06.34.11.69.17,1,.76.45,1.47,1,2.16,1.47a24.81,24.81,0,0,1,2.81,2.14c0-.46,0-.92-.07-1.39C5.19,17.73,4,17,2.9,16.2Zm3,92.53a.09.09,0,0,1,.1-.12,7.41,7.41,0,0,1,2.15,1.66l.09-1.88-2.08-1.72c-.43-.36-.91-.71-1.36-1.1-.07,1.25-.15,2.51-.22,3.76.49.35,1,.74,1.42,1.12.69.57,1.38,1.14,2.06,1.72L8.12,111A9.12,9.12,0,0,1,5.9,108.73Zm.77-83A42.49,42.49,0,0,1,2.55,24c0,.22.05.43.07.65l1.12.52c1,.46,2,.92,3,1.42ZM2.85,19.92,2,19.45c.07.55.15,1.1.22,1.65A35.36,35.36,0,0,1,6.6,23.27l-.06-1.39A34.26,34.26,0,0,1,2.85,19.92ZM8.7,98.55l.06-1.33c-1.1-.9-2.22-1.79-3.29-2.73,0,.39,0,.77-.07,1.16.4.34.79.7,1.18,1C7.29,97.3,8,97.93,8.7,98.55ZM7.59,32.21l.27.12-.47-.25a1,1,0,0,1,0,.1ZM9.06,90.94,9.15,89C8,88.23,7,87.35,6,86.46L5.84,88.4C6.91,89.23,8,90.05,9.06,90.94ZM7.6,122.44l.06-1.33c-.68-.49-1.3-1.07-1.94-1.61s-1.12-.88-1.65-1.37l-.06,1c.48.41.94.87,1.39,1.28C6.14,121.07,6.89,121.73,7.6,122.44ZM8.79,96.66l.06-1.33L7.25,94c-.54-.43-1.13-.85-1.68-1.31,0,.39,0,.78-.07,1.16C6.63,94.77,7.71,95.72,8.79,96.66ZM4.46,45.89C6.77,47,9,48.3,11.21,49.54c0-.73-.09-1.43-.15-2.08v-.05a76.71,76.71,0,0,0-7-3.56C4.18,44.46,4.32,45.14,4.46,45.89ZM11.35,56c-1.94-1-3.86-2.07-5.74-3.19q.12.9.24,1.83c1.86,1,3.72,2,5.49,3.09C11.35,57.15,11.35,56.57,11.35,56Zm0,3.61c0-.44,0-.9,0-1.35C9.5,57.39,7.72,56.4,6,55.41c.06.48.11,1,.16,1.44.95.43,1.87.95,2.79,1.44S10.52,59.13,11.31,59.6ZM9.76,76.52l.05-1.1-1.75,0C8.63,75.8,9.19,76.16,9.76,76.52ZM0,7.57s0,.12.06.32a24.86,24.86,0,0,1,5.85,3.4c-.13-1.36-.27-2.6-.43-3.62h0C3.5,7.65,1.66,7.62,0,7.57ZM8.14,40c3.25-.68,6.5-1.34,9.76-2l-1.35-.78a.46.46,0,0,1-.26.1c-.75,0-1.5.06-2.24.07a65,65,0,0,1-7,2.34l1.1.54c.39.18.83.35,1.25.55C8.72,39.86,8.14,40,8.14,40ZM3.69,124.71c0,.49,0,1-.08,1.49q.47.51.9,1c33.44,2.92,151,10.24,195.66,16.9.33-1.54.65-3.07,1-4.61-64.72-6.17-129.35-11-193.6-15.92v-.29l0,0c-1-.75-1.91-1.64-2.84-2.47-.23-.21-.48-.42-.73-.63,0,.6-.07,1.2-.1,1.8.44.33.86.72,1.28,1.07A6.87,6.87,0,0,1,7,124.89a.18.18,0,0,1-.2.27,6.83,6.83,0,0,1-2-1.54c-.32-.28-.68-.55-1-.84L3.74,124c.83.81,1.68,1.6,2.52,2.4a.34.34,0,1,1-.48.48C5.08,126.12,4.39,125.41,3.69,124.71Zm-.34-95.8L3,28.76l.06.81.81.44c1,.5,2,1,2.9,1.53,0-.21,0-.56,0-1A35.8,35.8,0,0,1,3.35,28.91Zm.24,1.62-.44-.21c.05.61.08,1.21.11,1.79.48.23,1,.49,1.41.71l.72.34c.47-.37.93-.74,1.42-1.1a.25.25,0,0,1-.19,0C5.59,31.58,4.6,31,3.59,30.53ZM6,12.22A21.66,21.66,0,0,0,.21,8.66c.08.45.19,1,.31,1.71,1.66,1.26,3.8,2.09,5.58,3.25C6.06,13.14,6,12.68,6,12.22ZM11.24,50c-2.18-1.08-4.45-2.08-6.61-3.23.07.36.14.73.2,1.12a47.2,47.2,0,0,1,6.45,3.31C11.27,50.81,11.25,50.41,11.24,50ZM8.59,100.93c0-.59.05-1.18.08-1.77l-2-1.77L5.36,96.33l-.09,1.48c.56.45,1.08,1,1.6,1.47S8,100.38,8.59,100.93Zm.3-6.45c0-.39,0-.77,0-1.16a14.19,14.19,0,0,1-2.07-1.7c-.38-.32-.78-.63-1.17-.94l-.07,1.17c.69.48,1.33,1.07,2,1.6Zm.3-6.28L9.25,87c-.57-.4-1.14-.82-1.7-1.23s-1-.71-1.48-1.09l-.06,1H6C7.1,86.42,8.18,87.28,9.19,88.2ZM9,92.33l0-.59c-1.1-.79-2.17-1.67-3.23-2.53,0,.18,0,.37,0,.56.5.41,1,.83,1.48,1.22S8.45,91.82,9,92.33Zm.3-6.24.06-1.19c-1.09-.64-2.14-1.45-3.16-2.18,0,.37-.05.73-.07,1.1.73.44,1.41,1,2.1,1.5ZM3.85,42.89A37.29,37.29,0,0,1,11,46.54c-.05-.44-.11-.85-.17-1.23a57.3,57.3,0,0,1-7-2.87C3.79,42.59,3.82,42.73,3.85,42.89ZM9.38,84.14l.07-1.29c-.53-.32-1-.68-1.55-1s-1.06-.7-1.59-1.07c0,.42,0,.84-.08,1.25.78.52,1.56,1,2.33,1.56ZM4.71,33.62c-.44-.21-.93-.4-1.41-.61,0,.64,0,1.25,0,1.84l1.44-1.2Zm3.56,74,.06-1.28c-.78-.57-1.52-1.21-2.27-1.82-.37-.29-.77-.58-1.14-.9,0,.39,0,.77-.07,1.16a19.36,19.36,0,0,1,1.63,1.34C7.08,106.61,7.68,107.1,8.27,107.61Zm2.31-63.48a64.07,64.07,0,0,1-7.24-3.48s.09.36.23,1a49.48,49.48,0,0,1,7.16,3.29C10.69,44.63,10.64,44.38,10.58,44.13ZM9.49,82l0-1c-.51-.31-1-.65-1.49-1S7,79.35,6.42,79l-.06,1c.65.4,1.28.83,1.91,1.26C8.67,81.48,9.09,81.75,9.49,82ZM11.3,51.8A68.77,68.77,0,0,1,5,48.86c0,.25.08.5.13.76,1.1.52,2.18,1.09,3.26,1.66A22.59,22.59,0,0,1,11.33,53ZM7.7,120.21c0-.71.06-1.42.1-2.13-.7-.55-1.38-1.11-2.07-1.68-.47-.39-1-.78-1.49-1.2,0,.64-.08,1.28-.11,1.92a21.59,21.59,0,0,1,2,1.7C6.63,119.27,7.18,119.72,7.7,120.21Z"/><path class="cls-11" d="M78,238.61c-2.66-3-5-7.12-5.59-10.8,0-.15.18-.2.25-.07,1.08,1.91,1.85,4,3,5.89a49.22,49.22,0,0,0,3.51,4.92c1,0,2-.08,3-.1a39.3,39.3,0,0,0-3.61-11.87,35.09,35.09,0,0,0-3.66-5.66c-.64-.83-1.35-1.6-2.06-2.37a7.26,7.26,0,0,0-2.39-1.79c-1.58-.73-4.23,1.24-2.21,2.73a.22.22,0,0,1-.21.38,2.1,2.1,0,0,1-.2-3.69c3-1.77,5.76,1.45,7.57,3.53a33,33,0,0,1,8,18.73H84a151.35,151.35,0,0,1-3.48-18c-.94-6.45-1.65-14.39,1.21-20.48,0-.11.25-.08.22.06a62.47,62.47,0,0,0-1.47,9.33,53.58,53.58,0,0,0,.85,10.95c1,6.1,2.94,12.05,4,18.14a128.18,128.18,0,0,1,20.87,1.85,31.54,31.54,0,0,0,3.57-9.54c.78-4.16.21-8.06-.28-12.2a.17.17,0,0,1,.32-.09c2.83,6.62,1.45,15.67-2.24,22.08.93.17,1.85.36,2.77.55,2.89-4.84,2.69-10.62,3-16.24.21-4.54,1.16-11.54,5.74-13.9.14-.08.28.11.19.23-1.74,2.35-3.25,4.38-4.07,7.25-.94,3.28-.89,6.79-1,10.16-.14,4.29-.51,9-2.79,12.71.83.18,1.66.37,2.48.57a26.81,26.81,0,0,0,2.23-6c.57-2.86.17-5.94.92-8.74.08-.28.45-.17.51.05.78,2.93.28,6.62-.34,9.53a18.06,18.06,0,0,1-2,5.44c.75.18,1.5.38,2.25.58,5.28-6,7.6-13,8.43-20.82,0,0,.1-.06.11,0,.48,7.53-2.74,15.29-7.43,21.11l2.44.71a19.86,19.86,0,0,0,3.13-3c1-1.18,1.63-2.58,2.57-3.78.06-.07.2,0,.18.07-.39,2.69-2.5,5.27-4.62,7.11,14.53,4.47,26.58,9.37,38.37,18.8,2.47,2,1.22,8.1-1.27,6.12-32.19-25.67-80.12-33.45-118.24-18C38.48,252.09,46.88,241.44,78,238.61Z"/><path class="cls-12" d="M41.49,249.89a105.91,105.91,0,0,1,24.12-7.61,16.51,16.51,0,0,1-2.27-3.44c-.85-1.69-1.63-4.47-.84-6.27a.45.45,0,0,1,.82,0c.95,1.62,1.17,3.66,2.06,5.37a17.79,17.79,0,0,0,3,3.9c1-.16,2-.33,3-.47-.73-5.11-1.23-10.23-2.22-15.31a125.91,125.91,0,0,0-4.52-16.14c-2.39,4.34-1.68,10,.43,14.27a.1.1,0,0,1-.18.09c-3.18-5.19-2.61-10.47-.63-15.92a.59.59,0,0,1,1.07,0c4.37,10.05,7.88,21.68,8.34,32.77,3.34-.38,6.71-.62,10.07-.71,0-2.8.32-5.63.4-8.42.11-3.6-.6-7.17-.47-10.74,0-.19.28-.21.35-.05,1.54,3.21,1.86,7.21,2.15,10.72a31.07,31.07,0,0,1-.33,8.44c1.37,0,2.75,0,4.12.06a28.73,28.73,0,0,1,2.31-16.49.59.59,0,0,1,.89-.26A8.36,8.36,0,0,1,96,231.72c0,.17-.27.08-.27-.07-.06-2.75-.69-4.84-2.72-6.57-1.8,5.16-1.82,10.1-1.14,15.36,3,.14,6.08.41,9.08.8.52-6.58.83-13.19,1.77-19.73.9-6.25,2.59-13.29,7.17-17.93.21-.21.61.08.48.35a55.88,55.88,0,0,0-6,19.79c-.61,5.93-.48,11.94-1.25,17.84a105.13,105.13,0,0,1,17.68,4.21l0,0c-.44-.21-.78-.42-1.26-.63l1.34.59c13.36-6.59,4.94-24.87,14.94-33.84.18-.17.45.1.31.29-5,7-4.18,15.1-5.64,23.14-.81,4.43-3.11,9.23-7.16,11.41,1.54.61,3.32,1.3,5.24,2,.22-1,.58-2,.84-3a48.46,48.46,0,0,1,2.74-8.34.19.19,0,0,1,.36.08,60.27,60.27,0,0,1-1.4,7.54,29.41,29.41,0,0,1-1,4.33l3.27,1.26a52.84,52.84,0,0,0,1.89-10.88c.23-4.78-1.25-8.82-2.3-13.37a.22.22,0,0,1,.38-.17c4.63,6.53,5,17.62,1.75,25.09l.32.13c.66-3.82,3.49-8.21,7-9.14a.3.3,0,0,1,.29.47c-1.31,1.62-3,2.84-4.15,4.6a14.8,14.8,0,0,0-1.85,4.57c14.08,5.58,29.73,12.7,23.82,17.49-10.76.52-49.71-18.07-45-5.69-13.64,1.13-28.27,2.35-40.63-3.06-.56-.25,4-2.91,2.75-3.83C69.49,251,30.32,255,41.49,249.89Z"/><path class="cls-13" d="M84,242.58c32.11-.33,56.82,13.19,54.66,13.15-5.71-.12-31.18-6.23-26.69,2.31,1.41,2.69-28.27,5-26.73.73.42-1.16,6.16-4.37-.24-7.08-6.94-2.93-23.53-2.17-19.48-4.77,6.89-4.43,15.12,1.36,21.68-1.27C88.4,245.17,85.47,243.32,84,242.58Z"/></g></g></g></svg>