<svg xmlns="http://www.w3.org/2000/svg" viewBox="0 0 275.06 270.08"><defs><style>.cls-1{isolation:isolate;}.cls-2{fill:#8dc63f;}.cls-3{fill:#a16733;}.cls-4{fill:#ebc17d;}.cls-5{fill:#c08329;}.cls-6{fill:#c2b59b;mix-blend-mode:multiply;}.cls-7{fill:#ca974d;}.cls-8{fill:#6c301e;}.cls-9{fill:#5c8742;}</style></defs><title>Asset 8</title><g class="cls-1"><g id="Layer_2" data-name="Layer 2"><g id="Layer_4" data-name="Layer 4"><path class="cls-2" d="M88.31,246c1.92,1.54,3.32,3.87,4.8,5.87.83,1.12,1.67,2.24,2.48,3.38a9.58,9.58,0,0,1,1.76-1.36,48.4,48.4,0,0,1-5.29-9.5c-2.08-4.8-4.33-11.24-3.77-16.62,0-.26.36-.33.44-.06.74,2.52,1,5.24,1.59,7.8a50.5,50.5,0,0,0,2.84,8.19,53.36,53.36,0,0,0,5.58,9.46l.9-.39c-2.62-5.95-3.4-12.81-4.07-19.27a120.26,120.26,0,0,0-2-13.65,42.42,42.42,0,0,0-5.49-13,.31.31,0,0,1,.48-.39c5.54,5.68,7,15,7.94,22.7,1,7.95,1.66,15.85,4.62,23.12,3.55-1.08,8.67-1.69,15.86-1.42-1.36-5.93-2.48-11.94-3.69-17.89-.71-3.44-1.39-6.89-2.11-10.32-.66-3.18-1.66-6.19-4.14-8.15l-.12.32a.46.46,0,1,1-.89-.26c.1-.36.19-.72.28-1.08a.52.52,0,0,1,.77-.34c5.25,2.61,5.72,11.07,6.81,16.27,1.51,7.14,3.18,14.3,4.48,21.51a190.79,190.79,0,0,1,29.31,4.25c-.29-4.51.07-9.16-.19-13.69-.17-2.81-.43-5.61-.81-8.39,0-.18-1-3-1.34-1.06a9.58,9.58,0,0,1-.82,2.87c-.19.39-.69.17-.72-.21a14.06,14.06,0,0,1,.47-4,.65.65,0,0,1,.62-.5l2,0a.57.57,0,0,1,.54.58c.46,4.25.84,8.51,1,12.79a66.18,66.18,0,0,1-.12,11.69l3.48.76c.39-.88.81-1.72,1.07-2.48a51.28,51.28,0,0,0,.9-29.22c-1.58-6-4.37-12.56-8.6-17-3.55-3.74-8.38-1.66-8.36,3.6,0,4,3.6,6.18,5.62,9,.54.73-.13,1.93-1,1.37-4.69-3.07-9.42-11.71-3.82-16.36s11.63,6.29,13.62,10.35a56.58,56.58,0,0,1,4.16,35.3,72.58,72.58,0,0,0,3.14-11.32,78.1,78.1,0,0,0,1.18-12.12c.11-4.14-.58-8.26-.48-12.37a.39.39,0,0,1,.76-.11c1.17,3.59,1.19,7.77,1.23,11.52a75.53,75.53,0,0,1-.85,11.64,67.31,67.31,0,0,1-5.38,19l2.44.58a58.83,58.83,0,0,0,3-7.21c1.4-4.18,1.73-8.47,2.53-12.78a.3.3,0,0,1,.58,0c.87,5.95-1.06,12.42-3.37,17.77-.23.53-.66,1.49-1.22,2.59l1.42.35c.21-.46.42-.92.59-1.38.89-2.36,1.29-4.86,2.07-7.25a.28.28,0,0,1,.55.08,23.41,23.41,0,0,1-1.52,7.49c-.15.44-.3.91-.46,1.37,4.23,1.07,8.7,2.25,13.45,3.59-.32,0-.32.34-.65.34,27.35,0-37,15.92-78.32,1-1.75-.63-3.56-4.05-1.38-7.16-.87-1.11-1.72-2.24-2.56-3.37-1.49-2-3.38-4-4.35-6.36C87.75,246.18,88,245.75,88.31,246Z"/><path class="cls-3" d="M130.11,0c-1.46,91.42-1.68,257.27-1.65,258.1h17.68c-4.45-31.85,0-146.09,0-156.24l.56-99.38Z"/><path class="cls-4" d="M130.11,0c-1.46,91.42-1.68,257.27-1.65,258.1H142c-4.46-31.85,0-146.09,0-156.24l.55-100.21Z"/><path class="cls-5" d="M133.73,2.34c-1.46,91.42-1.58,255.76-1.58,255.76H142c-4.46-31.85,0-146.09,0-156.24l.55-100.21Z"/><path class="cls-6" d="M145.77,114.11c.22-7.89.37-10.36.37-12.25L146.61,18c-2.65,0-5.34-.11-8,0-2.92.15-5.88.42-8.82.36-.39,30.32-.68,61.55-.89,96.08C132.43,113.69,143.71,114.43,145.77,114.11Z"/><path class="cls-7" d="M15.32,21.16q-2.23,7.48-4.31,15l5.66,1.39q-2.66,1-5.34,2.08Q9.28,49.72,7.54,59.89l6.64,1.87-7-.27q-2.37,10-4.45,20l6.88,2q-3.76.6-7.54,1.17Q1,90,0,95.19c32.13,3,89.51,6.58,144.65,6.7,55.12.48,108-2.53,130.41-4.32q-5.13-16.47-10.85-33l-5-1s5.56.19,4.32-1.79c-2.74-8.87-.58-19.41-.62-19.39a125.49,125.49,0,0,1-13.35-1.84L262,38.71c-1.65-6.43-1.19-17.56-1.23-17.55-24.91,1-86.45.6-140.57.35C66.15,21,15.33,21.33,15.32,21.16Z"/><path class="cls-4" d="M259.38,63.51l0,.09.32.5a2.75,2.75,0,0,1-.28-.57Z"/><path class="cls-4" d="M264.21,64.52,261.64,64l-1.11,1.32c0-.15,0-.32,0-.47a1.57,1.57,0,0,0-.14-1.27,17.74,17.74,0,0,0-.83-2.88,3.74,3.74,0,0,1,.73-1.12l3.2,2.25-1.23,1.45c1.07-.22,1.88-.67,1.33-1.56-2.74-8.87-.58-19.41-.62-19.39a125.49,125.49,0,0,1-13.35-1.84L262,38.71c-1.65-6.43-1.19-17.56-1.23-17.55-24.91,1-86.45.6-140.57.35-54-.52-104.87-.18-104.88-.35q-2.23,7.48-4.31,15l5.66,1.39q-2.66,1-5.34,2.08Q9.28,49.72,7.54,59.89l6.64,1.87-7-.27q-2.37,10-4.45,20l6.88,2q-3.76.6-7.54,1.17Q1,90,0,95.19c32.13,3,89.51,6.58,144.65,6.7,55.12.48,108-2.53,130.41-4.32Q269.93,81.1,264.21,64.52Zm-6.35-18.17a53.41,53.41,0,0,0-.1,8.09.73.73,0,0,0-.39-.13c-.94-2.83-1.9-5.67-3-8.43C255.42,46,256.58,46.19,257.86,46.35ZM16.65,32.85c.18-.65.37-1.3.56-2,23.25,1,46.65.93,69.91,1.13,11.85.11,23.72.55,35.57.16,10.23-.33,22.09-1.15,31.39-5.82a.6.6,0,0,0,.19-.16c16.56.07,33,.13,48.07.13,23.32,0,39.95-.13,51.33-.41a1.51,1.51,0,0,0,.09.18,9.46,9.46,0,0,1,1.43,9l-.44.06c-15.39.43-30.76,1.37-46.14,1.91a.48.48,0,0,0,0,.95c13.42-.22,26.86-.14,40.29-.35l-.08,2.55a1.35,1.35,0,0,0-.36-.07c-38.05.75-76.1,1-114.15.37Q105.78,40,77.25,39C61.84,38.39,46.44,37.44,31,36.77l.56-.22ZM13,56.7l-.26-.07c.5-2.87,1-5.74,1.58-8.59,9.14.67,18.48.18,27.61.31,10,.14,20.08.52,30,.13A.23.23,0,0,0,72,48c-9.94-.83-20.06-.88-30-1.22-9-.3-18.17-1.16-27.18-.94.18-1,.37-2,.56-2.91L26,38.74C62,41.47,98.28,42,134.31,42.69c38,.73,76.11.77,114.15-.12a1.15,1.15,0,0,0,.28-.07l-.08,2.41c.11,0,1.42.29,3.55.64.74,3.07,1.72,6.08,2.66,9.09-7.86,1.17-15.63,2.48-23.6,2.73-8.33.26-16.49-.65-24.76-1.36-.16,0-.19.24,0,.27,8.08,1.75,16.56,2.07,24.8,2,8,0,16.24-.42,24.1-2.15.24.66.56,1.47.89,2.35-4.26.73-8.46,1.63-12.79,2.06-5.1.51-10.1-.16-15.19-.17a.2.2,0,0,0-.05.4c4.89,1.41,10.19,1.24,15.24,1.17a46.45,46.45,0,0,0,13.3-2,18.89,18.89,0,0,1,.73,2.92c-40.65,0-81.3.08-121.95.14-20.61,0-41.22.07-61.83.33-19.73.25-39.44-.49-59.17-.49l.54-3.45c3.31.32,6.67.36,9.93.5,5.9.25,11.81.29,17.7.32,11.2.06,22.9.22,34-1.45.24,0,.17-.4-.06-.41-10.79-.31-21.64.43-32.45.21-5.42-.12-10.82-.38-16.23-.75C23,57.51,18,56.77,13,56.7ZM8,78.37q1.07-5,2.2-9.91c15,.88,30.1.68,45.12,1,16,.3,17-.65,1.5-1.19-14.27-.5-28.54-1.7-42.82-2l.17-1c19.84,0,39.68-.65,59.53-.37,20.61.3,41.22.42,61.83.48,40.62.13,81.24.36,121.85.41a2.75,2.75,0,0,1-1.86,1.89c-3.4,1.13-8,.63-11.51.77a101.32,101.32,0,0,0-10.59.78c-.35,0-.22.54.08.57,5.49.51,11,.08,16.51.21,2.57.06,5.6.22,7.93-1,.86,1.37,1.71,2.74,2.51,4.13-13.75,1.2-13.25,2.52.72,1.31.55,1,1.09,2.06,1.57,3.13-15,1.49-14.58,2.81.44,1,0,0,0,0,0,.05a32.32,32.32,0,0,1,2.31,8.2q-63.58,2.42-127.25,1.7-31.52-.34-63-1.48c-21.18-.76-42.39-2.6-63.58-3-.24-1.06-.49-2.11-.73-3.17a.79.79,0,0,0-.17-.37l.08-1.23ZM262.56,93.44a1.5,1.5,0,0,0-.66.53c-26.25,1.74-65.34,3.43-105.17,3.43q-6,0-12-.05C93.12,97.23,38.71,94,5.41,91.11c.15-.78.31-1.57.46-2.36l4.43-.69L10.44,86a1.64,1.64,0,0,0,.41.11c20.81,2.26,42,2.54,62.93,3.36q32.23,1.28,64.5,1.69,63.6.87,127.21-1.5A4.5,4.5,0,0,1,262.56,93.44Z"/><path class="cls-5" d="M254.79,21.38c.08,4.5,2.65,15.37,2.63,15.37l-12,4.24q5.85.54,11.76,1s-2.62-.31-2.36,4.83,3.28,14.3,3.27,14.3l-2.47,2.31,4.53,1Q264.86,80,269,95.46A1878.35,1878.35,0,0,1,.58,92.18c-.2,1-.39,2-.58,3,32.13,3,89.51,6.58,144.65,6.7,55.12.48,108-2.53,130.41-4.32q-5.13-16.47-10.85-33l-5-1s5.56.19,4.32-1.79c-2.74-8.87-.58-19.41-.62-19.39a125.49,125.49,0,0,1-13.35-1.84L262,38.71c-1.65-6.43-1.19-17.56-1.23-17.55-1.81.08-3.83.15-6,.22Z"/><path class="cls-5" d="M6.65,63.66c2.09.14,4.24.18,6.19.3,4.76.29,9.47.72,14.23,1,.11,0,.12-.07,0-.09-4.27-.45-8.6-.75-12.87-1.19C12,63.42,9.4,63,6.85,62.8,6.79,63.08,6.72,63.37,6.65,63.66Zm254.74-.26c-7.12.07-14.24.27-21.3.33-10.39.09-23.33.18-33.64.14-20.25,0-40.36-.34-60.41-.73s-40.15-.87-60.27-1.24q-15.4-.27-30.9-.49c-8.31-.08-36.29-.84-44.81-.81l2.9.81c7,.17,33.59.75,40.5.75,10.36.06,20.67.21,30.95.39,20.16.35,40.23.83,60.35,1.27s40.23.78,60.51.9c10.32.07,23.29,0,33.69-.07,8.23-.05,16.58,0,24.88-.21l-4.59-.95A17.63,17.63,0,0,0,261.39,63.4Zm-256,5.79c8.68.38,37.12,1.26,45.69,1.38,9.65.19,19.33.49,28.95.31.09,0,.1-.07,0-.07-9.14-.37-18.39-.37-27.59-.57-9-.14-37.81-1.3-46.91-1.69Zm55.75-34c.14,0,.2-.12.06-.14-9.14-1-39.85-1-49.93.2L11,36c5-.37,10-.81,14.93-1C31.21,34.83,56.14,35.08,61.13,35.17Zm203,59.94c-4.32.38-8.76.68-13,1.28-.21,0-.11.19.08.18,4.34-.1,8.73-.55,13-.93,3.07-.27,6.77-.37,10-.83l-.21-.67C270.71,94.29,267.16,94.84,264.12,95.11ZM6,66.58c3.22.19,6.47.38,9.69.36.17,0,.19-.12,0-.13-3.14-.33-6.4-.47-9.64-.61C6,66.33,6,66.45,6,66.58Zm267.83,27-.33-1c-19.43,1.22-41.62,2.79-61.07,3.56q-33.27,1.34-66.6,1.56t-66.64-.83c-19.44-.46-59.54-2.33-78.51-5.1l-.08.46c18.06,2.68,57.28,4.58,75.82,5q34,1.09,68,1,33.36,0,66.68-1.32C231.09,96.15,253.93,95.23,273.81,93.56ZM32.92,23.67s0,0,0,0c-3.54-.2-7-.51-10.55-.73-2.3-.14-4.91-.6-7.42-.54-.07.24-.14.48-.22.72,2,.21,4.38.09,6.34.15C25.05,23.39,29,23.48,32.92,23.67ZM20,46.65c5.45.24,31.17,1,36.54,1,.09,0,.13-.08,0-.09-4.42-.45-28.12-.9-32.71-1.19-2.49-.15-6.25-.35-8.73-.54-1.69-.12-3.54-.34-5.34-.33l-.18.67C12.78,46.67,16.91,46.52,20,46.65Zm133.4-20.83C113.93,25,55.92,24.51,14.67,24.24h-.26c-.1.32-.19.64-.29,1,4.31,0,8.66,0,12.93-.25.11,0,.16-.06.16-.1,32.56.4,83,.61,114.34,1.22,18.93.36,38,.86,57.2.88,17.91,0,38.55-.7,55.66-3.14q3.21-.46,6.33-1c0-.18,0-.36,0-.51C227.54,28.11,188,26.63,153.38,25.82Zm114.8,54.64c-5.69.2-11.36.5-17,.85s-14,.92-19.56,1.42-11.4.93-16.68,1.9c0,0,0,0,0,0,5.17-.36,10.27-1.13,15.41-1.62,5.59-.53,13.9-1.09,19.55-1.45s11.33-.58,17-.75l2.74-.09c0-.1-.06-.21-.1-.31ZM97.38,32.63c.28-.08.31-.36,0-.43-10.94-3-23.06-4-35.41-3.75-9.44.24-39.27,1.15-49.5,2.34l-.24.83c9.86-1.06,39.1-2.26,48.56-2.65,12.4-.48,24.51.3,35.34,3.44-12.21,3.1-24.94,1.76-37.57.9,9.67.22,19.3.57,29-.3.37,0,.35-.35,0-.41-16.37-2.93-55.3-3.14-73.93-.18l-1.62,0-.09.3h.12l-.13,0c-.05.21-.11.42-.17.63q2-.3,3.9-.57l4.12.09c-2.69.14-5.39.39-8.11.79,0,.19-.11.38-.16.57C34.32,30.74,76,38.31,97.38,32.63Zm44.3,24.65c38.59,2.66,82,9.15,121.54,3.2-.09-.35-.18-.71-.26-1.07-38,5.54-80.1.2-117.66-2.4C106.5,54.48,48.38,55,8,58c0,.08,0,.16-.05.24C47.12,55.43,104,54.84,141.68,57.28Zm113.51,10.8c-.18,0-.18.2,0,.21,2.28.06,4.56-.1,6.81-.24,1.06-.06,2.19-.12,3.31-.21l-.27-.77-2.09.17A70,70,0,0,0,255.19,68.08Zm-59,19.55c-30.83.94-61.65.74-92.37-.44-.3,0-.31.24,0,.25,30.25,1.26,60.7,1.43,91.07.61,15.2-.4,33.07-1.2,48.23-2.14,9.16-.56,18.45-1.09,27.68-1.82-.1-.29-.19-.58-.29-.88-8.71.76-17.42,1.55-26.13,2.13C229.22,86.35,211.35,87.17,196.17,87.63Zm-140.93-.5q16,1,32,1.84c21.77,1.09,43.6,1.91,65.49,2.3,38.62.75,80.77.28,119.25-3.52-.12-.4-.25-.8-.38-1.2-16.78,1.51-36.32,2.84-53.25,3.48-21.88.83-43.8,1-65.64.58Q120.55,90,88.6,88.35q-16-.82-31.94-1.86C47.45,86,18,84,8.76,83.33l.83.24L6.74,84C16.05,85.12,45.85,86.61,55.24,87.13Zm174.59-26c-7.32.3-17.3.26-24.6-.17s-14.44-1.52-21.64-2.37c-.21,0-.26.13-.07.17a153,153,0,0,0,21.59,2.52c7.36.48,17.39.48,24.79.23a216.1,216.1,0,0,0,32.8-3.41c0-.21-.07-.42-.1-.64-3.28.62-6.59,1.2-10,1.67C245.17,60.13,237.53,60.78,229.83,61.09ZM109.94,43.83s.07,0,0,0c-13.79-1.16-28.21-1.2-42.3-1.19-12.08,0-44.64.09-57.29.65l-.17.65c12.69-.58,45.24-.82,57.42-1C81.94,42.72,95.81,43.42,109.94,43.83ZM91,29.29c18.35,2.08,38.23,4.43,56.27-.17.18-.05.1-.23-.09-.19-19.08,4.65-40.1,1.66-59.32-.36-17.74-1.89-55.68-2.05-75,1l-.09.34c9.28-1.31,37.9-2.33,46.79-2.55C70.35,27.12,80.69,28.12,91,29.29ZM242.64,41c-11.26-.08-24.91-.11-36-.25L147.41,40H147c-37.34-2.22-93-4.87-132.06-2.94-.1-.26-.62-.43-1.11-.22l2.84.7-.3.12C51,36.22,103,38,136,39.87,102.29,39.5,48.87,39,13.89,38.62l-1.13.44c38.88.57,95.94,1.06,133.43,1.52l3.52.05c28.48,1.55,60,2.6,89,1.1q10.07.14,20.21.17c-2.38-.28-4.41-.58-6-.83L250,41c.37,0,.46-.26.35-.42l-.79-.15.09,0Q246.17,40.75,242.64,41Zm-81.28-.18c14.65.19,29.34.37,44.16.54,7.43.09,17.4.19,24.91.29C208.15,42.54,183.36,41.93,161.36,40.79ZM262.6,44.67c-2.73-.06-5.45-.08-8.16-.1-3.8,0-7.69-.28-11.41-.09-.18,0-.21.17,0,.19,3.38.35,6.86.34,10.27.44,3.06.09,6.14.22,9.21.28Q262.56,45,262.6,44.67Z"/><path class="cls-3" d="M268.47,81.36l1.21-.6c-.15-.47-.31-.93-.46-1.4-.59.33-1.25.63-1.84.93s-1.49.75-2.25,1.12l.42,1.46C266.5,82.35,267.48,81.85,268.47,81.36Zm-11.11-22.8a19.74,19.74,0,0,1,3.36-1.15l1.8-.55c0-.13,0-.26,0-.39l-1.93.62a22.37,22.37,0,0,1-3.39,1c.05.2.11.38.16.56C257.33,58.6,257.33,58.58,257.36,58.56Zm13,32c.69-.33,1.37-.72,2.12-1l-.45-1.39a26.68,26.68,0,0,1-2.51,1.25,15.93,15.93,0,0,1-1.93.92c.13.49.27,1,.4,1.46C268.8,91.32,269.59,90.92,270.39,90.53ZM260,56.7l2.42-.78c0-.32-.07-.64-.09-1l-2.39.77c-1,.33-2,.73-3.16,1,.1.35.2.69.29,1A22.86,22.86,0,0,1,260,56.7ZM267.94,83c.69-.31,1.39-.68,2.16-1l-.27-.82-1.33.62q-1.41.66-2.88,1.29l.24.85C266.54,83.64,267.25,83.32,267.94,83Zm1,5.91a24.92,24.92,0,0,1,3-1.25l-.3-1c-.6.29-1.24.56-1.83.83-.86.4-1.73.79-2.6,1.17.07.28.15.55.23.83C267.92,89.3,268.5,89.09,268.91,88.91Zm-9-33.79c.78-.26,1.56-.53,2.36-.78,0-.32,0-.63,0-.93-1,.34-2.09.64-3.13,1-.89.27-1.79.57-2.73.81.09.35.18.68.27,1C257.65,55.79,258.86,55.47,259.91,55.12Zm1,8.72h0Zm3.55,1.4-.21-.59h-.33c-1.06.45-2.21.85-3.35,1.25l.18.58C262,66.06,263.18,65.63,264.46,65.24Zm-8.88-13.32c2.15-.82,4.37-1.61,6.63-2.33,0-.33,0-.66,0-1-1,.36-2.06.7-3.11,1a33.22,33.22,0,0,1-3.8,1.13Zm5.69,8.16c.58-.17,1.15-.36,1.73-.54q-.12-.49-.21-1c-.85.33-1.82.61-2.71.89l-2.31.72c.14.45.25.77.29.92C259.12,60.73,260.2,60.4,261.27,60.08Zm2.46,2.15a.92.92,0,0,0-.16-.53c-.18-.56-.33-1.13-.47-1.7-.86.27-1.75.52-2.58.77l-2.24.68.68.14Zm-3.67-3.31c.84-.27,1.72-.59,2.65-.8,0-.23-.07-.45-.11-.67l-1.76.54a21.8,21.8,0,0,1-3.09.85.63.63,0,0,1-.4-.07c.11.34.2.66.29.94Zm-4.14-29.31.12.6c1-.53,2.31-.95,3.48-1.4l1.29-.51,0-1c-.71.28-1.44.56-2.09.87C257.74,28.65,256.88,29.16,255.92,29.61Zm1.3,7.21-.09,0h.12S257.23,36.84,257.22,36.82ZM255.4,26.7c.06.37.12.73.19,1.1,1.23-.52,2.46-1,3.62-1.6.53-.25,1-.53,1.54-.8,0-.29,0-.58,0-.86-.38.17-.77.33-1.14.48C258.25,25.56,256.89,26.21,255.4,26.7ZM256.8,34c0,.1.05.19.07.29.65-.23,1.32-.45,2-.67a17.48,17.48,0,0,1,2.22-.68,2.11,2.11,0,0,0,0-.25l-.67.2C259.2,33.22,258,33.61,256.8,34Zm-1.45,9.32a4,4,0,0,0-.38,1.13c2.12-.84,4.54-1.53,6.91-2.2L259.73,42c-.76.25-1.56.49-2.35.73A13.05,13.05,0,0,1,255.35,43.28Zm1.14-10.83c1-.36,2.16-.66,3.23-1L261,31.1c0-.26,0-.52-.05-.77-1.43.55-3,1-4.54,1.48C256.4,32,256.44,32.24,256.49,32.45Zm-1.27-6.89c0,.21.06.42.1.64,1.09-.47,2.32-.87,3.41-1.31a15.06,15.06,0,0,0,2-1v-.55l-1,.4C258.29,24.33,256.83,25,255.22,25.56ZM257,34.68c.09.44.18.82.25,1.13,1.2-.54,2.5-1,3.83-1.46l.18-.07c0-.32-.07-.64-.1-1-.55.23-1.2.41-1.79.61C258.55,34.18,257.76,34.44,257,34.68Zm5.56,32.55,2.33-.83c-.09-.28-.19-.57-.29-.85-1.17.5-2.41,1-3.67,1.41.07.26.15.52.23.77Zm-6.85-39c.05.3.11.6.16.89a25.06,25.06,0,0,1,2.78-1.44c.69-.32,1.39-.68,2.16-1,0-.22,0-.45,0-.66l-1.57.71C258.06,27.26,256.9,27.77,255.67,28.24Zm11.15,59.14.21.76L269.66,87c.59-.26,1.18-.52,1.8-.77l-.78-2.4c-.55.27-1.16.51-1.71.76l-2.61,1.17.33,1.2a11,11,0,0,1,2.75-1.13c.08,0,.18,0,.14.07A9.88,9.88,0,0,1,266.82,87.38ZM256.69,33.43c1-.34,2.1-.66,3.15-1l1.18-.37c0-.13,0-.27,0-.41-1.42.46-2.95.87-4.41,1.22C256.62,33.07,256.66,33.26,256.69,33.43Zm-.61-3,.18.89c1.47-.55,3-1.08,4.62-1.51,0-.35,0-.71-.05-1l-.91.32A40.19,40.19,0,0,1,256.08,30.45Zm11.08,47.74,1.44-.71c-.09-.24-.17-.49-.25-.73-1.3.63-2.67,1.24-4,1.85.09.29.17.57.25.85ZM256.78,37a.14.14,0,0,1,0-.06l-.5.17.3-.08Zm10.27,35.84c-.14-.41-.27-.82-.41-1.24-1.23.61-2.49,1.21-3.84,1.75l.36,1.22C264.41,74,265.76,73.44,267.05,72.87Zm4.62,20.45c.59-.27,1.17-.59,1.78-.87-.06-.21-.13-.42-.2-.64-.68.34-1.45.64-2.13.94s-1.63.77-2.51,1.1l.23.85C269.74,94.23,270.72,93.77,271.67,93.32Zm-3.45-16.95-.24-.75c-.67.32-1.39.61-2.05.9l-2,.88c.09.28.17.56.25.84C265.54,77.61,266.85,77,268.22,76.37Zm-5.58-32c-2.7.74-5.26,1.57-7.82,2.47v0c0,.42.06.87.12,1.34,2.49-.85,4.95-1.76,7.54-2.52C262.53,45.21,262.58,44.77,262.64,44.38Zm-6.72,9c2-.76,4.15-1.45,6.26-2.13,0-.39,0-.78,0-1.17-2.11.77-4.29,1.51-6.52,2.2C255.75,52.7,255.84,53.07,255.92,53.43Zm3.08.3c1.05-.34,2.1-.7,3.2-1,0-.31,0-.62,0-.92-2,.68-4.05,1.37-6.18,2,.07.29.15.58.22.87C257.12,54.31,258.08,54,259,53.73Zm3.44,10.94-2.24,0,.21.7Zm-7.65-43.29h0c0,.65.07,1.44.17,2.31a29.33,29.33,0,0,1,5.81-2.32v-.21C259,21.24,256.94,21.31,254.79,21.38Zm1,21.22c.47-.14,1-.26,1.39-.39l1.22-.37c-4.49-.54-7.68-1.14-8.58-1.32-.88,0-1.75,0-2.64,0a.79.79,0,0,1-.32-.06l-1.48.53q5.85.54,11.76,1A1.77,1.77,0,0,0,255.83,42.6Zm16,54.84c-.43.24-1.17-.06-.73-.28,1.09-.55,2.2-1.09,3.27-1.64-.07-.25-.15-.49-.23-.74-.44.2-.91.38-1.33.58a11,11,0,0,1-2.65,1.06c-.21,0-.43-.06-.32-.17A9,9,0,0,1,272.36,95c.55-.24,1.09-.5,1.67-.74l-.36-1.14c-.32.14-.64.28-.94.43-1.2.57-2.39,1.17-3.69,1.69H269l.05.19A1878.35,1878.35,0,0,1,.58,92.18c-.2,1-.39,2-.58,3,31.82,2.92,88.51,6.52,143.22,6.69,54.69.52,107.39-2.39,130.5-4.21.37-.24.75-.48,1.15-.71l-.3-.95C273.67,96.48,272.79,97,271.88,97.44ZM257.24,36c.07.29.12.52.15.65,1-.37,2.06-.71,3.1-1.06l.85-.3-.06-.52-.33.11C259.74,35.24,258.54,35.63,257.24,36Zm.45,1a.5.5,0,0,1-.21,0l1.82.65.78-.23c.5-.15,1-.34,1.52-.5-.07-.37-.13-.75-.19-1.14l-.47.15C259.86,36.23,258.8,36.61,257.69,36.93Zm-2.53-11.75c1.77-.78,4-1.37,5.58-2.22,0-.44,0-.81,0-1.1A24,24,0,0,0,255,24.29C255.07,24.58,255.11,24.88,255.16,25.18Zm-.08,24.1c2.28-.82,4.76-1.66,7.28-2.3q0-.37.06-.72c-2.4.8-5,1.5-7.44,2.25C255,48.76,255,49,255.08,49.28Zm12,30.58c.63-.33,1.26-.69,1.95-1-.1-.31-.2-.63-.31-.94-.51.25-1,.48-1.54.72l-2.52,1.21L265,81C265.7,80.6,266.39,80.22,267.1,79.86Zm-1.71-3.71c.79-.35,1.56-.75,2.4-1.08-.08-.25-.17-.5-.25-.75-.48.21-1,.42-1.42.64a18.48,18.48,0,0,1-2.52,1.16c.07.24.15.49.22.74Zm1-5.06h0l-.21-.61-1.78.74c-.68.28-1.36.57-2,.84l.23.8C263.84,72.23,265.14,71.65,266.42,71.09Zm-.86,3.48,1.79-.83c-.05-.12-.09-.24-.13-.36-1.27.59-2.56,1.19-3.91,1.73l.11.37C264.07,75.14,264.92,74.86,265.56,74.57Zm-2-3.59c.83-.35,1.64-.72,2.53-1l-.24-.7c-1.23.5-2.48,1-3.81,1.49.07.26.15.51.23.77Zm-.78-27.51c-2.54.75-5.21,1.5-7.93,2,0,.24,0,.51,0,.79a56.4,56.4,0,0,1,7.91-2.53C262.73,43.66,262.75,43.56,262.76,43.47Zm.11,26.41c.93-.37,1.87-.72,2.81-1.07-.09-.27-.18-.54-.28-.8-.62.25-1.27.49-1.9.73s-1.23.48-1.87.69c.08.28.16.55.25.83Zm-2.77-32,1.88.72q-.15-.57-.27-1.17c-.52.15-1.06.28-1.54.43Zm8.37,46.31c.66-.29,1.31-.65,2-.92l-.24-.73c-.46.21-1,.41-1.43.62-.94.41-1.86.85-2.85,1.24.07.27.15.54.23.81Zm-13.63-39c2.47-.88,5.26-1.62,8-2.3l.11-.62c-2.58.85-5.23,1.78-8,2.42C254.88,44.9,254.86,45.06,254.84,45.24Zm8.1,23.11c.75-.29,1.51-.59,2.28-.87-.06-.2-.13-.4-.2-.6-.65.24-1.29.5-2,.73s-1.17.45-1.78.66l.2.65C262,68.72,262.45,68.54,262.94,68.35ZM255.28,50.4a31.37,31.37,0,0,1,3.31-1.15c1.22-.4,2.44-.8,3.69-1.16l0-.49c-2.25.77-4.79,1.45-7.16,2.06C255.19,49.9,255.23,50.15,255.28,50.4ZM270.5,92.33c.81-.37,1.63-.83,2.55-1.16l-.39-1.23c-.64.29-1.32.56-1.92.83l-2.66,1.15c.12.45.25.9.37,1.36C269.11,93,269.83,92.64,270.5,92.33Z"/><path class="cls-8" d="M136,29.66c2.8,0,2.79-4.45,0-4.45S133.24,29.66,136,29.66ZM136,90.8a2.1,2.1,0,1,0,0,4.2A2.1,2.1,0,1,0,136,90.8Z"/><path class="cls-9" d="M204.63,257.23l-18.49-2.6q-2.67-1.19-5.41-2.16A44,44,0,0,0,184.78,233a.26.26,0,0,0-.52,0A48.14,48.14,0,0,1,179.34,252a83.4,83.4,0,0,0-13.44-3.28,15.73,15.73,0,0,0,4.61-7c0-.11-.11-.15-.17-.07-.88,1.23-1.55,2.6-2.46,3.83a37.42,37.42,0,0,1-2.76,3.13c-.69-.11-1.38-.2-2.07-.29a27.11,27.11,0,0,1,3.33-7.89,24.68,24.68,0,0,1,2.91-3.62c.5-.52,1-1,1.59-1.48a4.88,4.88,0,0,1,1.76-1.06c1.15-.39,2.82,1.16,1.33,2a.15.15,0,0,0,.11.28,1.45,1.45,0,0,0,.4-2.52c-1.95-1.43-4,.58-5.44,1.88a22.74,22.74,0,0,0-6.82,12.28l-.44-.05a106.66,106.66,0,0,0,3.67-12.11c1.11-4.36,2.17-9.76.64-14.14,0-.08-.17-.08-.16,0a42.92,42.92,0,0,1,.35,6.51,37.14,37.14,0,0,1-1.38,7.46c-1.13,4.11-2.88,8.06-4.06,12.15a88.23,88.23,0,0,0-14.45-.22,21.8,21.8,0,0,1-1.77-6.8,27.41,27.41,0,0,1,1.07-8.35c0-.13-.15-.21-.21-.09-2.42,4.34-2.12,10.65,0,15.32l-1.94.17c-1.64-3.52-1.08-7.47-.86-11.35.17-3.13,0-8-2.95-10-.09-.06-.2.06-.14.15a15.36,15.36,0,0,1,2.27,5.27,28.6,28.6,0,0,1-.05,7c-.21,3-.29,6.22,1,8.92l-1.74.22a19.18,19.18,0,0,1-1.11-4.26c-.18-2,.31-4.09,0-6.06,0-.2-.3-.15-.35,0a15,15,0,0,0-.45,6.56,12.48,12.48,0,0,0,1,3.87l-1.59.24c-3.2-4.46-4.29-9.44-4.29-14.89,0,0-.07-.05-.07,0-.87,5.13.78,10.69,3.58,15l-1.73.31a14.18,14.18,0,0,1-1.93-2.29c-.58-.88-.93-1.89-1.49-2.78a.07.07,0,0,0-.13,0,8.9,8.9,0,0,0,2.66,5.2,83.75,83.75,0,0,0-28.79,11.4l-6.25,2.64c-.5.22-.24,1,.28,1l6.48-.34a1.26,1.26,0,0,0,.43,0l22-1.13a30.81,30.81,0,0,1,6.44.11c2.33.37,4.1,1.94,6.05,3.12a22.11,22.11,0,0,0,10,2.79c8.14.57,16.49-2,24.36-3.68,9.54-2.07,19.18-3.85,28.53-6.67C205.21,258.37,205.34,257.33,204.63,257.23Z"/><path class="cls-2" d="M181.86,248.72c-1.85,1.4-3.19,3.49-4.62,5.29-.8,1-1.6,2-2.37,3a9.08,9.08,0,0,0-1.7-1.22,42.87,42.87,0,0,0,5.09-8.56c2-4.32,4.15-10.12,3.62-15a.21.21,0,0,0-.42-.05c-.72,2.26-.93,4.71-1.53,7a44.63,44.63,0,0,1-2.73,7.37,48.17,48.17,0,0,1-5.36,8.52c-.28-.12-.57-.23-.87-.34,2.52-5.36,3.27-11.55,3.91-17.36a101.86,101.86,0,0,1,1.88-12.29A37.18,37.18,0,0,1,182,213.45a.29.29,0,0,0-.46-.35c-5.32,5.11-6.72,13.46-7.63,20.43-.93,7.16-1.6,14.28-4.44,20.82-3.41-1-8.33-1.52-15.24-1.28,1.31-5.33,2.39-10.75,3.55-16.11.68-3.09,1.34-6.2,2-9.29.63-2.86,1.59-5.56,4-7.33l.12.28c.21.51,1,.33.85-.23-.09-.32-.18-.65-.26-1a.53.53,0,0,0-.75-.31c-5,2.35-5.49,10-6.54,14.65-1.44,6.43-3.06,12.88-4.3,19.37A193.34,193.34,0,0,0,124.78,257c.28-4.07-.07-8.25.18-12.33.16-2.53.41-5,.78-7.55,0-.17,1-2.66,1.28-1a8.41,8.41,0,0,0,.79,2.58c.19.36.66.16.69-.19a11.75,11.75,0,0,0-.45-3.57.6.6,0,0,0-.6-.45l-1.91,0a.55.55,0,0,0-.53.53c-.43,3.83-.8,7.66-1,11.51a56.14,56.14,0,0,0,.12,10.53l-3.34.69c-.38-.79-.78-1.56-1-2.24a42.87,42.87,0,0,1-2-8.21,43.34,43.34,0,0,1,1.17-18.09c1.52-5.43,4.21-11.32,8.27-15.31,3.41-3.37,8.05-1.5,8,3.23,0,3.61-3.46,5.58-5.4,8.08-.51.66.13,1.74,1,1.24,4.5-2.77,9-10.54,3.67-14.73s-11.18,5.66-13.08,9.32a48,48,0,0,0-5.1,21,46.81,46.81,0,0,0,1.1,10.74,63,63,0,0,1-3-10.2,66.5,66.5,0,0,1-1.13-10.91c-.1-3.72.55-7.43.46-11.13a.37.37,0,0,0-.73-.1c-1.12,3.23-1.14,7-1.18,10.37a63.3,63.3,0,0,0,.82,10.48,57.2,57.2,0,0,0,5.16,17.08l-2.34.52a50.21,50.21,0,0,1-2.91-6.49c-1.35-3.76-1.67-7.62-2.43-11.51a.29.29,0,0,0-.56,0c-.84,5.36,1,11.19,3.24,16,.22.48.63,1.35,1.17,2.34l-1.36.32c-.21-.42-.41-.84-.57-1.25-.86-2.12-1.24-4.38-2-6.53a.27.27,0,0,0-.53.07,19.93,19.93,0,0,0,1.46,6.75l.44,1.23c-4.06,1-8.35,2-12.92,3.23.31,0,.31.31.62.31-26.27,0,35.52,14.33,75.26.93,1.68-.56,3.41-3.64,1.32-6.44.84-1,1.65-2,2.46-3,1.43-1.78,3.24-3.63,4.18-5.72C182.39,248.9,182.13,248.51,181.86,248.72Z"/></g></g></g></svg>