<svg xmlns="http://www.w3.org/2000/svg" viewBox="0 0 60.32 29.12"><defs><style>.cls-1{fill:#00dc1d;}</style></defs><title>Asset 6</title><g id="Layer_2" data-name="Layer 2"><g id="Layer_1-2" data-name="Layer 1"><path class="cls-1" d="M53.78,12.29A5.72,5.72,0,0,0,52,12.8c-1.26-5.71-12.79-4.19-14.88,1.61C36.56,8.23,34.28,3.05,28.22.74a2.75,2.75,0,0,1-.3-.14A10.47,10.47,0,0,0,23.24.07,6.51,6.51,0,0,0,17.34,5a7.58,7.58,0,0,0-10,10.65,5.31,5.31,0,0,0-.69,0,5.74,5.74,0,0,0-4.17,8.78c-1.14.11-2,.32-2.38,1.44-.68,2.15,2,3.07,3.54,3.21,4.77.45,33.7-3,35.83-3.37,2.82-.46,5.65-.89,8.49-1.21.84-.1,2-.15,3.17-.23.47-.19.92-.4,1.37-.62a6,6,0,0,0,2.62.3,5.87,5.87,0,1,0-1.35-11.66ZM13,20.47h0l.74-.58Z"/></g></g></svg>