<svg xmlns="http://www.w3.org/2000/svg" viewBox="0 0 60.64 30.66"><defs><style>.cls-1{fill:#00dc1d;}</style></defs><title>Asset 7</title><g id="Layer_2" data-name="Layer 2"><g id="Layer_1-2" data-name="Layer 1"><path class="cls-1" d="M55.65,19.43a6.23,6.23,0,0,0-1.88,0C54,13.8,42.52,12.19,39,17c1.1-5.86.25-11.27-5-15-.09-.06-.16-.14-.25-.21A10.94,10.94,0,0,0,29.36.1a6.52,6.52,0,0,0-7,3,7.77,7.77,0,0,0-4-1.89A7.44,7.44,0,0,0,9.77,7.26a7.16,7.16,0,0,0,.22,3.1,4.82,4.82,0,0,0-.68-.15,5.62,5.62,0,0,0-6.5,4.56A5.46,5.46,0,0,0,3,17.26C1.88,17.06,1,17,.34,18c-1.22,1.81,1.15,3.38,2.58,3.9,4.48,1.67,33.29,6,35.44,6.25,2.83.32,5.68.66,8.51,1.1.83.13,1.92.38,3.11.63.5-.06,1-.14,1.48-.22a6.14,6.14,0,0,0,2.45,1,5.65,5.65,0,1,0,1.74-11.16Zm-41.5-3.1h0c.29-.11.57-.22.86-.35C14.73,16.1,14.44,16.22,14.15,16.33Z"/></g></g></svg>