<svg xmlns="http://www.w3.org/2000/svg" viewBox="0 0 46.13 24.56"><defs><style>.cls-1{fill:#00dc1d;}</style></defs><title>Asset 5</title><g id="Layer_2" data-name="Layer 2"><g id="Layer_1-2" data-name="Layer 1"><path class="cls-1" d="M40.48,6.89a4.71,4.71,0,0,0-1.36.57C37.61,3.14,28.8,5.38,27.71,10.08c-1-4.75-3.24-8.57-8.16-9.8L19.31.2a8.19,8.19,0,0,0-3.69,0A5.07,5.07,0,0,0,11.5,4.57a5.93,5.93,0,0,0-7.88,6.92,5.86,5.86,0,0,0,1.1,2.27l-.54.09a4.5,4.5,0,0,0-2.43,7.21c-.87.18-1.54.43-1.72,1.33-.33,1.73,1.86,2.2,3.05,2.17,3.75-.09,25.9-5.46,27.53-5.92,2.14-.62,4.3-1.21,6.48-1.73.64-.15,1.51-.29,2.44-.46.34-.19.68-.4,1-.61a4.82,4.82,0,0,0,2.07,0,4.59,4.59,0,0,0-2.12-8.94ZM9.53,17h0l.51-.53C9.88,16.67,9.7,16.84,9.53,17Z"/></g></g></svg>