<svg xmlns="http://www.w3.org/2000/svg" viewBox="0 0 47.74 30"><defs><style>.cls-1{fill:#95a63a;}.cls-2{fill:#fff;}.cls-3{fill:#167593;}.cls-4{fill:#ffe600;}.cls-5{fill:#8ef2f4;}.cls-6{fill:#c7d64e;}.cls-7{fill:#f2b062;}.cls-8{fill:#f29211;}</style></defs><title>Asset 6</title><g id="Layer_2" data-name="Layer 2"><g id="Layer_4" data-name="Layer 4"><rect class="cls-1" x="16.3" y="25.59" width="0.73" height="3.63"/><rect class="cls-1" x="23" y="24.99" width="0.73" height="4.23"/><path class="cls-2" d="M19.85.71c0,.38-4.44.68-9.92.68S0,1.09,0,.71,4.44,0,9.93,0,19.85.34,19.85.71Z"/><path class="cls-2" d="M19.85.71c0,.38,4.45.68,9.93.68s9.93-.3,9.93-.68S35.26,0,29.78,0,19.85.34,19.85.71Z"/><rect class="cls-1" x="19.5" y="1.07" width="0.7" height="1.83"/><path class="cls-3" d="M23.66,5.07a2.71,2.71,0,0,1-2.72,2.71H19.05a2.71,2.71,0,0,1-2.71-2.71h0a2.71,2.71,0,0,1,2.71-2.72h1.89a2.72,2.72,0,0,1,2.72,2.72Z"/><path class="cls-4" d="M47.67,7.15c-.33-1.42-1.74-1.69-3.17-1.37L29.39,8.64a11.62,11.62,0,1,0,1.06,10.9h0c2.07-5.1,8.14-8,11.46-9l2.24-.52h0l1.54-.35C47.11,9.37,48,8.57,47.67,7.15Z"/><path class="cls-5" d="M19.85,16.23V3.45h-.14A11.62,11.62,0,0,0,8.09,15.07a11.49,11.49,0,0,0,.5,3.39h9.19C19.77,18.46,19.85,17.4,19.85,16.23Z"/><path class="cls-6" d="M46.48,3.73c0,2.07-.32,3.74-.7,3.74s-.71-1.67-.71-3.74S45.39,0,45.78,0,46.48,1.67,46.48,3.73Z"/><path class="cls-6" d="M46.48,11.2c0,2.06-.32,3.73-.7,3.73s-.71-1.67-.71-3.73.32-3.73.71-3.73S46.48,9.14,46.48,11.2Z"/><path class="cls-7" d="M46.83,7.47a1.06,1.06,0,1,1-1-1.06A1,1,0,0,1,46.83,7.47Z"/><path class="cls-7" d="M17.78,19.26H8.59a.68.68,0,1,1,0-1.36h9.19c1.39,0,1.39-.48,1.39-1.55V3.58a.68.68,0,1,1,1.36,0V16.35C20.53,17.37,20.53,19.26,17.78,19.26Z"/><path class="cls-8" d="M20.53.71a.68.68,0,1,1-1.36,0,.68.68,0,0,1,1.36,0Z"/><path class="cls-3" d="M34.55,28.88H7.84A1.85,1.85,0,0,1,6.21,27a.55.55,0,0,0-.56-.55A.54.54,0,0,0,5.1,27a3,3,0,0,0,3,3l26.49-.14a.49.49,0,1,0,0-1Z"/></g></g></svg>