<svg xmlns="http://www.w3.org/2000/svg" viewBox="0 0 1138.67 268.85"><defs><style>.cls-1{fill:#06c;opacity:0.6;}</style></defs><title>Asset 27</title><g id="Layer_2" data-name="Layer 2"><g id="Layer_4" data-name="Layer 4"><path class="cls-1" d="M507.73,91.66c3.72-7,58.63-80.91,79.68-66.56,22,15,97,75,97,75s7,5,15,3,27-18,27-18l15,21,.37.27.11-.67S840.7,31.08,894.75,4.34c5.86-2.9,12.57-5.76,18.74-3.57,3.87,1.38,6.79,4.54,9.51,7.62,21.17,24,39.56,50.35,57.9,76.61,8.28,11.85,16.58,23.76,24.15,36.1q12.48-7.41,25.51-13.86c3.56-1.76,7.64-3.51,11.38-2.18,2.35.84,4.13,2.75,5.78,4.63,11.81,13.4,22.19,28,32.43,42.61a566.87,566.87,0,0,1,58.52-43.39l-1.26,129.19c-185-90-536-84-536-84-424,11-518,103-518,103L10.09,268.85,0,212.21S55,128.7,88.87,93.73c3.68-3.79,8-7.78,13.29-7.79,3.32,0,6.4,1.62,9.3,3.23,22.61,12.55,43.73,27.6,64.79,42.61,9.51,6.78,19,13.59,28.14,20.93q7.5-9,15.66-17.45c2.23-2.3,4.86-4.73,8.07-4.73a12,12,0,0,1,5.64,1.95c12.62,7,14.49,7.78,26.25,16.15,18.53-31.88,29.25-56.69,54.91-83.18,3.26-3.37,10.65-14.53,15.34-14.53,2.95,0,23.79,11.71,26.37,13.14,20.07,11.15,38.82,24.51,57.52,37.84,8.21,5.86,16.44,11.73,24.32,18l20.94,15.15S475,153.22,507.73,91.66Z"/></g></g></svg>