<svg xmlns="http://www.w3.org/2000/svg" viewBox="0 0 97.45 91.43"><defs><style>.cls-1{fill:#fff;}.cls-2{fill:#f26b24;}.cls-3{fill:#ea4a26;}.cls-4{fill:#ddd;}.cls-5{fill:#8b5d25;}.cls-6{fill:#7caabe;}.cls-7{fill:#649ec3;}.cls-8{opacity:0.3;}.cls-9{fill:#d1a449;}.cls-10{fill:none;stroke:#ab8033;stroke-miterlimit:10;}.cls-11{fill:#9ac6de;}.cls-12{fill:#dbdcdd;}</style></defs><title>Asset 10</title><g id="Layer_2" data-name="Layer 2"><g id="Layer_4" data-name="Layer 4"><rect class="cls-1" x="6.9" y="22.92" width="10.07" height="17.91" transform="translate(-11.61 7.29) rotate(-23.24)"/><rect class="cls-2" x="1.57" y="21.01" width="12.51" height="2.76" transform="translate(-8.2 4.9) rotate(-23.24)"/><polygon class="cls-3" points="2.81 52.73 89.82 15.38 33.51 4.75 2.81 52.73"/><polygon class="cls-1" points="86.93 15.97 34.78 6.32 6.11 50.67 8.36 49.7 33.55 91.43 65.31 77.79 65.57 77.68 97.33 64.05 84.42 17.04 86.93 15.97"/><polygon class="cls-2" points="90.03 11.7 31.8 0.08 31.76 0 31.72 0.07 31.64 0.05 31.68 0.14 0 50.36 2.81 52.73 33.51 4.75 89.82 15.38 90.03 11.7"/><polygon class="cls-4" points="23.16 73.95 33.68 91.37 65.44 77.74 65.69 77.63 97.45 63.99 92.06 44.36 23.16 73.95"/><polygon class="cls-5" points="53.17 49.69 53.01 49.76 44.44 53.44 57.64 81.4 65.2 78.16 65.37 78.08 72.93 74.84 61.74 46.01 53.17 49.69"/><polygon class="cls-6" points="52.96 51.87 47.37 54.27 50.12 60.05 55.49 57.75 52.96 51.87"/><polygon class="cls-6" points="54.16 51.35 54.1 51.38 56.62 57.26 63.13 54.47 60.83 48.49 54.16 51.35"/><path class="cls-7" d="M50.05,60.08l5.44-2.33-1.41-3.29C51.11,56.06,49.34,58.43,50.05,60.08Z"/><path class="cls-7" d="M63.2,54.44c-.8-1.85-4.38-2.08-8-.52l1.43,3.34Z"/><g class="cls-8"><polygon class="cls-9" points="53.21 49.77 53.04 49.84 44.47 53.52 57.67 81.49 65.23 78.24 65.4 78.17 72.96 74.92 61.78 46.09 53.21 49.77"/></g><polygon class="cls-10" points="61.62 68.02 67.19 65.63 63.72 56.72 57.85 59.24 61.62 68.02"/><polygon class="cls-10" points="60.48 68.51 56.71 59.73 50.84 62.25 54.91 70.9 60.48 68.51"/><polygon class="cls-10" points="62.06 69.06 65.31 76.62 70.59 74.35 67.6 66.68 62.06 69.06"/><polygon class="cls-10" points="60.93 69.55 55.39 71.92 58.89 79.37 64.17 77.1 60.93 69.55"/><polygon class="cls-7" points="40.79 20.21 40.58 20.3 35.48 22.49 43.44 35.33 46.48 34.03 46.69 33.94 49.72 32.63 45.9 18.02 40.79 20.21"/><path class="cls-11" d="M47.13,22.75,45.9,18l-5.11,2.19-.21.09-5.1,2.19,7.26,11.7A10.88,10.88,0,0,1,47.13,22.75Z"/><path class="cls-5" d="M40.17,18.7l-.25.11L33.7,21.48l9.7,15.64,3.7-1.59.25-.11,3.7-1.58L46.39,16Zm-4.69,3.79,4.64-2,2.63,6.11L39,28.21Zm4.41,7.12,3.5-1.5L46,34.23l-2.57,1.1Zm9.83,3-2.57,1.11-2.63-6.12,3.5-1.5Zm-5.84-6.5L41.25,20l4.65-2,1.7,6.51Z"/><rect class="cls-12" x="40.73" y="35.3" width="13.81" height="2.29" transform="translate(-10.51 21.75) rotate(-23.24)"/></g></g></svg>