<svg xmlns="http://www.w3.org/2000/svg" xmlns:xlink="http://www.w3.org/1999/xlink" viewBox="0 0 97.57 143.64"><defs><style>.cls-1{isolation:isolate;}.cls-2{fill:url(#radial-gradient);}.cls-3{opacity:0.6;mix-blend-mode:screen;}.cls-4{fill:#f1f2f2;}.cls-5,.cls-7{opacity:0.3;}.cls-5{mix-blend-mode:multiply;}.cls-6{fill:#1e2857;}.cls-7{fill:#404700;}.cls-8{fill:#6ba507;}.cls-9{fill:#6eb40d;}.cls-10{fill:#7bba0f;}.cls-11{fill:#82c114;}</style><radialGradient id="radial-gradient" cx="43.31" cy="16.32" r="95.62" gradientUnits="userSpaceOnUse"><stop offset="0" stop-color="#698a91"/><stop offset="0.24" stop-color="#698791"/><stop offset="0.44" stop-color="#697c91"/><stop offset="0.62" stop-color="#686b91"/><stop offset="0.8" stop-color="#675291"/><stop offset="0.97" stop-color="#663391"/><stop offset="1" stop-color="#662d91"/></radialGradient></defs><title>Asset 12</title><g class="cls-1"><g id="Layer_2" data-name="Layer 2"><g id="Layer_1-2" data-name="Layer 1"><path class="cls-2" d="M97.57,25.87C94.16,31,93.25,36.92,92.83,43.1c-.33,4.7-.37,9.53-1,14.18a39.75,39.75,0,0,1-1.29,6c-1.24,4.05-3.32,7.82-4.64,11.85A84.58,84.58,0,0,0,83.58,85c-.09.45-.19.9-.28,1.35s-.25,1.12-.38,1.68l-.15.64-.15.55c0,.17-.08.33-.13.49l-.18.67c-.06.18-.11.37-.17.55-.94,3-2.81,6.37-6,6.76-1.53.19-3.19-.37-4.58.32a5.08,5.08,0,0,0-2.06,2.55,24.79,24.79,0,0,0-.91,2.35l-.11.35q-.2.63-.36,1.26c-.05.19-.1.38-.14.57s-.15.66-.22,1l-.15.78q-.08.34-.12.69h0c0,.24-.08.47-.11.71s-.07.47-.1.71,0,.39-.08.58c0,.34-.08.69-.11,1l-.09.89c0,.28,0,.56-.07.84,0,.07,0,.15,0,.23,0,.48-.07,1-.1,1.44s-.07,1-.1,1.43c-.06,1-.12,1.91-.2,2.86-.79,10.3-2.94,8.46-6.39,18.2-.64,1.81-1.33,3.62-2.06,5.4-.3.75-.72,1.57-1.49,1.76a2.41,2.41,0,0,1-2.16-1,19.76,19.76,0,0,1-3.62-6h0c-.56-1.36-1-2.77-1.5-4.17-3.47-10.57-6.37-9.31-8.66-20.2-.16-.76-.32-1.51-.47-2.27-.38-1.87-1.22-4.19-3.13-4.28-1.11-.06-2.07.72-3.16.93-2.81.55-4.8-2.61-5.9-5.25L27.45,100l-2.4-5.77q-2.78-6.69-5.56-13.37l0-.08a59.77,59.77,0,0,1-2.3-6.14c-.19-.64-.35-1.28-.49-1.93C16,69.42,16,65.94,14.4,63c-1.66-3.15-4.82-5.22-6.86-8.13q-.25-.37-.48-.75a29.7,29.7,0,0,1-3-8.73Q2.24,37.82.46,30.27C.31,29.61.15,29,0,28.3l.14-.1L4.5,25c4.94-4.31,10-8.66,15.86-11.53.29-.14.57-.28.87-.41l1.12-.49h0l.56-.23.36-.14c.46-.17.92-.35,1.38-.5l.44-.16.18-.05.88-.29.44-.13.86-.25.87-.24a81.56,81.56,0,0,1,16.5-2.19,68,68,0,0,1,7.69,0,33.52,33.52,0,0,1,4.1.51C62.24,10,67.4,12.65,72.57,15.12c7.86,3.75,15.93,7.06,24,10.34Z"/><g class="cls-3"><path class="cls-4" d="M96.58,25.46q-8.62.75-17.23,1.78a29.62,29.62,0,0,0-8.66,2,25.85,25.85,0,0,0-4.5,2.71c-2.76,2-5.41,4.1-8.67,4.88a5.28,5.28,0,0,1-2.76,0c-1.51-.47-2.48-1.9-3.57-3.06a13.05,13.05,0,0,0-11-3.77,12.23,12.23,0,0,0-5.75,2.21c-1.4,1-2.69,2.38-4.4,2.64a6.54,6.54,0,0,1-2.63-.27A52.74,52.74,0,0,1,20.27,32a44.86,44.86,0,0,0-6.35-2.27C9.48,28.55,4.7,28.67.14,28.2L4.5,25c4.94-4.31,10-8.66,15.86-11.53.65-.32,1.32-.62,2-.9a44.64,44.64,0,0,1,6-2,81.56,81.56,0,0,1,16.5-2.19,68,68,0,0,1,7.69,0,33.52,33.52,0,0,1,4.1.51C62.24,10,67.4,12.65,72.57,15.12,80.43,18.87,88.5,22.18,96.58,25.46Z"/></g><g class="cls-5"><path class="cls-6" d="M50.82,136.55c-.56-1.36-1-2.77-1.5-4.17-3.47-10.57-6.37-9.31-8.66-20.2-.16-.76-.32-1.51-.47-2.27-.38-1.87-1.22-4.19-3.13-4.28-1.11-.06-2.07.72-3.16.93-2.81.55-4.8-2.61-5.9-5.25L27.45,100c0-1.19.07-2.38.1-3.57l0-1.67q0-2.26.06-4.53V87.62c0-3.35-.09-6.72-.15-10.09-.07-4-.11-8,0-12,.26-7.55,1.14-15,3.61-22.11a29.52,29.52,0,0,1,2.78-6,8,8,0,0,1,3.28-3.16,3.57,3.57,0,0,1,1.94-.3,4.58,4.58,0,0,1,3.11,2.13C44,38.6,43.8,41.91,43.59,45a102.09,102.09,0,0,1-1.71,14.72l-.33,1.44A53.84,53.84,0,0,0,40,68.94a25,25,0,0,0-.07,3.24,75.24,75.24,0,0,0,1.25,9.42c1,6.39,1.73,12.83,2.35,19.28q.31,3.3.62,6.62c.31,3.22.63,6.45,1,9.67.3,2.6.63-6.83,1-4.24C47.35,120.87,49.05,128.72,50.82,136.55Z"/></g><g class="cls-5"><path class="cls-6" d="M19.49,80.84l0-.08a59.77,59.77,0,0,1-2.3-6.14c-.19-.64-.35-1.28-.49-1.93C16,69.42,16,65.94,14.4,63c-1.66-3.15-4.82-5.22-6.86-8.13q-.25-.37-.48-.75a29.7,29.7,0,0,1-3-8.73Q2.24,37.82.46,30.27A26.09,26.09,0,0,1,9,32.47a12,12,0,0,1,4.07,3.18A17.61,17.61,0,0,1,16,42,75.81,75.81,0,0,1,18.52,58.4c.11,1.67.18,3.35.24,5,.15,4,.21,8.07.39,12.1C19.23,77.31,19.34,79.08,19.49,80.84Z"/></g><g class="cls-5"><path class="cls-6" d="M86.78,31.84a91.5,91.5,0,0,1-2.17,14.9c-.17.8-.35,1.59-.53,2.39h0q-.57,2.55-1.17,5.09a139.47,139.47,0,0,0-2.75,14.57c-.16,1.36-.28,2.74-.31,4.12A22.8,22.8,0,0,0,80,76.42a15.72,15.72,0,0,0,1.33,4.89A24,24,0,0,0,83.58,85c-.09.45-.19.9-.28,1.35s-.25,1.12-.38,1.68l-.15.64-.15.55c0,.17-.08.33-.13.49l-.18.67h0c0,.18-.1.37-.16.55-.94,3-2.81,6.37-6,6.76-1.53.19-3.19-.37-4.58.32a5.08,5.08,0,0,0-2.06,2.55,24.79,24.79,0,0,0-.91,2.35c0,.12-.08.24-.11.35q-.2.63-.36,1.26c-.05.19-.1.38-.14.57s-.15.66-.22,1-.1.52-.15.78-.09.46-.12.69h0c0,.24-.08.47-.11.71s-.07.47-.1.71,0,.39-.08.58c0,.34-.08.69-.11,1l-.09.89c0,.28,0,.56-.07.84,0,.07,0,.15,0,.23,0,.48-.07,1-.1,1.44s-.07,1-.1,1.43c-.06,1-.12,1.91-.2,2.86-.79,10.3-2.94,8.46-6.39,18.2a43.26,43.26,0,0,1,.4-9.43c1.07-9.15,2-6.31,2.89-15.49q.53-5.52,1-11c0-.47.08-.93.11-1.4l.06-.7Q65.47,88,66.15,77.59q.45-6.82.82-13.65c.14-2.63.28-5.25.4-7.88.2-4,.38-8.1,1.57-12A23.87,23.87,0,0,1,83.44,29l.2-.07a2.76,2.76,0,0,1,1.93-.16C86.67,29.17,86.83,30.65,86.78,31.84Z"/></g><g class="cls-5"><path class="cls-6" d="M42.25,29.63h-.6A4,4,0,0,1,42.25,29.63Z"/></g><g class="cls-5"><path class="cls-6" d="M97.57,25.87C94.16,31,93.25,36.92,92.83,43.1c-.33,4.7-.37,9.53-1,14.18a39.75,39.75,0,0,1-1.29,6c-1.24,4.05-3.32,7.82-4.64,11.85A84.58,84.58,0,0,0,83.58,85c-.09.45-.19.9-.28,1.35s-.25,1.12-.38,1.68l-.15.64-.15.55c0,.17-.08.33-.13.49l-.18.67c-.06.18-.11.37-.17.55-.94,3-2.81,6.37-6,6.76-1.53.19-3.19-.37-4.58.32a5.08,5.08,0,0,0-2.06,2.55,24.79,24.79,0,0,0-.91,2.35l-.11.35q-.2.63-.36,1.26c-.05.19-.1.38-.14.57s-.15.66-.22,1l-.15.78q-.08.34-.12.69h0c0,.24-.08.47-.11.71s-.07.47-.1.71,0,.39-.08.58c0,.34-.08.69-.11,1l-.09.89c0,.28,0,.56-.07.84,0,.07,0,.15,0,.23,0,.48-.07,1-.1,1.44s-.07,1-.1,1.43c-.06,1-.12,1.91-.2,2.86-.79,10.3-2.94,8.46-6.39,18.2-.64,1.81-1.33,3.62-2.06,5.4-.3.75-.72,1.57-1.49,1.76a2.41,2.41,0,0,1-2.16-1,19.76,19.76,0,0,1-3.62-6h0c-.56-1.36-1-2.77-1.5-4.17-3.47-10.57-6.37-9.31-8.66-20.2-.16-.76-.32-1.51-.47-2.27-.38-1.87-1.22-4.19-3.13-4.28-1.11-.06-2.07.72-3.16.93-2.81.55-4.8-2.61-5.9-5.25L27.45,100l-2.4-5.77q-2.78-6.69-5.56-13.37l0-.08a59.77,59.77,0,0,1-2.3-6.14c-.19-.64-.35-1.28-.49-1.93C16,69.42,16,65.94,14.4,63c-1.66-3.15-4.82-5.22-6.86-8.13q-.25-.37-.48-.75a29.7,29.7,0,0,1-3-8.73Q2.24,37.82.46,30.27C.31,29.61.15,29,0,28.3l.14-.1L4.5,25c4.94-4.31,10-8.66,15.86-11.53.29-.14.57-.28.87-.41l1.12-.49h0l.56-.23.36-.14c.46-.17.92-.35,1.38-.5l.44-.16.18-.05.88-.29.44-.13.86-.25.87-.24-1,.79h0q-6.62,5.34-12.78,11.22c-1.05,1-2.18,2.33-1.74,3.7a3.41,3.41,0,0,0,1,1.4c3.64,3.26,8.95,3.88,13.82,3.48,2.69-.23,5.37-.72,8.05-1.09a43.18,43.18,0,0,1,5.89-.48,4.34,4.34,0,0,0-1.48.36c-3,1.27-4.9,5.55-8.14,7-2.89,1.32-6.29.16-9-1.42S17.64,32,14.52,31.36A7.54,7.54,0,0,0,9,32.47a4.47,4.47,0,0,0-1.94,3,8.49,8.49,0,0,0,.71,4.07,31.42,31.42,0,0,0,2.91,6.66c.92,1.45,2.07,2.74,3,4.18a27.75,27.75,0,0,1,2.83,6.31c.17.48.33,1,.49,1.44l1.77,5.35Q21,70.31,23.31,77.18q2,6,4,11.89c.12.38.24.76.38,1.14a16.54,16.54,0,0,0,2.91,5.55,7.58,7.58,0,0,0,2.14,1.7l.18-.58a81.58,81.58,0,0,0,3.52-20.16c4.18,6.84,2.16,15.77,4.55,23.42l.21.65c.81,2.31,2,4.48,3,6.71a31,31,0,0,1,1.57,3.89c1,3.22,1.2-5.4,1.63-2.06,0,.25.06.5.1.75a53.25,53.25,0,0,0,8.9,22.7c3.16-4.45,3.11-10.32,3.43-15.77.31-5.21,1.06,1.65,2-3.49.8-4.36,1.74-8.7,2.66-13,.11-.53.22-1.06.34-1.59a174.12,174.12,0,0,0,3.71-23.14c.11-1.45.18-2.91.22-4.37a80.91,80.91,0,0,1,.48-9.72,16.06,16.06,0,0,1,3.39-8.34l.06,5q.09,7.61.17,15.2c0,2.12,0,4.25.08,6.38,0,3,.09,6.1,1.28,8.86a3.14,3.14,0,0,0,1.67,1.87c2,.67,3.24-2.24,3.4-4.38.24-3.28.49-6.57.78-9.87q.17-2,.36-4c.59-6.13,1.37-12.23,2.54-18.24q.5-2.52,1.09-5c.19-.82.4-1.64.61-2.45A97.59,97.59,0,0,1,88,36.25c1-2.71,1.83-6.56-.77-7.87a5.73,5.73,0,0,0-3.11-.27A89.75,89.75,0,0,0,66.19,31.9c-1.84.59-3.67,1.24-5.47,1.94a30,30,0,0,1,3.46-4.08h0A29.92,29.92,0,0,1,77,22.29,102.81,102.81,0,0,1,54.36,9.76c-.62-.45-1.23-.9-1.84-1.37a33.52,33.52,0,0,1,4.1.51C62.24,10,67.4,12.65,72.57,15.12c7.86,3.75,15.93,7.06,24,10.34Z"/></g><g class="cls-3"><path class="cls-4" d="M96.58,25.46q-8.62.75-17.23,1.78a29.62,29.62,0,0,0-8.66,2,25.85,25.85,0,0,0-4.5,2.71c-2.76,2-5.41,4.1-8.67,4.88a5.28,5.28,0,0,1-2.76,0c-1.51-.47-2.48-1.9-3.57-3.06a13.05,13.05,0,0,0-11-3.77,12.23,12.23,0,0,0-5.75,2.21c-1.4,1-2.69,2.38-4.4,2.64a6.54,6.54,0,0,1-2.63-.27A52.74,52.74,0,0,1,20.27,32c4.6.89,9.43,1.43,13.54-.67,3-1.51,5.41-4.34,8.73-4.59,4.92-.37,8.53,5.1,13.43,5.7s8.65-3.47,13.09-5.26c3.71-1.5,7.9-1.42,11.64-2.83a2.19,2.19,0,0,0,1.23-.86c.6-1.06-.61-2.22-1.68-2.81a96.27,96.27,0,0,0-8.91-4.17l-12.2-5.23a17.41,17.41,0,0,0-4.31-1.41,20.37,20.37,0,0,0-6.53.59,53.76,53.76,0,0,1-10.89.91,69.9,69.9,0,0,0-8.92-.09,34.24,34.24,0,0,0-6.14,1.37,44.64,44.64,0,0,1,6-2,81.56,81.56,0,0,1,16.5-2.19,68,68,0,0,1,7.69,0,33.52,33.52,0,0,1,4.1.51C62.24,10,67.4,12.65,72.57,15.12,80.43,18.87,88.5,22.18,96.58,25.46Z"/></g><ellipse class="cls-7" cx="40.1" cy="11.18" rx="9.38" ry="3.79"/><path class="cls-8" d="M41.15,5.5A4.19,4.19,0,1,1,37,1.31,4.19,4.19,0,0,1,41.15,5.5Z"/><path class="cls-8" d="M47.5,6.07a4.19,4.19,0,1,1-4.19-4.19A4.19,4.19,0,0,1,47.5,6.07Z"/><path class="cls-8" d="M47.45,9.66c0,2.31-3.41,4.19-7.62,4.19S32.2,12,32.2,9.66s3.41-4.19,7.63-4.19S47.45,7.35,47.45,9.66Z"/><path class="cls-9" d="M44.71,3.07c-1.85-4.37-7.65-4.11-8.93,1s1.66,9.59,6.42,8.84S46.59,7.49,44.71,3.07Z"/><path class="cls-8" d="M42.53,6.57a7,7,0,0,0-3.14-2.14,6.82,6.82,0,0,0-3.64-.26c-1.19,5,1.73,9.46,6.45,8.72a4.67,4.67,0,0,0,2.61-1.18A10.77,10.77,0,0,0,42.53,6.57Z"/><path class="cls-10" d="M40.55,6.33c-2.19-2.91-8-2.41-8.83,1.16s2.42,6.51,7.09,5.74S42.77,9.27,40.55,6.33Z"/><path class="cls-11" d="M39.26,6.17c-.62-2.45-6.69-2.26-7.54,1.32C31.25,9.48,40.22,10,39.26,6.17Z"/><path class="cls-11" d="M44.27,2.22a4.47,4.47,0,0,0-7.66-.1C35.11,4.67,45.39,3.94,44.27,2.22Z"/><path class="cls-9" d="M48.2,6.44c1.2,1.81.18,4.59-2.27,6.2s-5.4,1.44-6.59-.38-.18-4.59,2.27-6.19S47,4.62,48.2,6.44Z"/><path class="cls-11" d="M48.13,6.58C49.33,8.39,46,9,43.81,9.34c-3.49.6-4.72-1.52-2.27-3.13S46.94,4.76,48.13,6.58Z"/><path class="cls-8" d="M46.25,11c-2.8,1.84-6,1.87-7.24,0-.06-.1-.11-.2-.16-.3a3,3,0,0,0,.49,1.52c1.19,1.82,4.14,2,6.59.38a5.91,5.91,0,0,0,2.74-4A8.53,8.53,0,0,1,46.25,11Z"/><path class="cls-7" d="M38.23,17c0,2.44-4.91,4.43-11,4.43s-11-2-11-4.43,4.91-4.42,11-4.42S38.23,14.56,38.23,17Z"/><path class="cls-8" d="M28.5,10.35a4.9,4.9,0,1,1-4.9-4.89A4.9,4.9,0,0,1,28.5,10.35Z"/><circle class="cls-8" cx="31.03" cy="11.02" r="4.9"/><path class="cls-8" d="M35.86,15.22c0,2.71-4,4.9-8.91,4.9S18,17.93,18,15.22s4-4.9,8.91-4.9S35.86,12.52,35.86,15.22Z"/><path class="cls-9" d="M32.67,7.52c-2.17-5.11-9-4.8-10.45,1.14s2,11.21,7.5,10.34S34.86,12.69,32.67,7.52Z"/><path class="cls-8" d="M30.11,11.61a8.21,8.21,0,0,0-3.67-2.5,7.87,7.87,0,0,0-4.25-.3c-1.4,5.88,2,11,7.53,10.19a5.46,5.46,0,0,0,3.06-1.38A12.59,12.59,0,0,0,30.11,11.61Z"/><path class="cls-10" d="M27.8,11.33c-2.56-3.4-9.31-2.82-10.32,1.35s2.82,7.62,8.29,6.71S30.39,14.77,27.8,11.33Z"/><path class="cls-11" d="M26.29,11.15c-.72-2.87-7.82-2.64-8.81,1.53C16.93,15,27.41,15.61,26.29,11.15Z"/><path class="cls-11" d="M32.14,6.52a5.22,5.22,0,0,0-8.95-.11C21.44,9.39,33.45,8.53,32.14,6.52Z"/><path class="cls-9" d="M36.75,11.45c1.39,2.12.2,5.37-2.66,7.25s-6.32,1.69-7.71-.43S26.18,12.9,29,11,35.35,9.33,36.75,11.45Z"/><path class="cls-11" d="M36.66,11.62c1.4,2.12-2.56,2.79-5.06,3.23-4.08.7-5.51-1.78-2.64-3.66S35.27,9.5,36.66,11.62Z"/><path class="cls-8" d="M34.46,16.78C31.18,18.93,27.4,19,26,16.84c-.07-.12-.14-.24-.2-.36a3.68,3.68,0,0,0,.58,1.79c1.39,2.12,4.85,2.31,7.71.43A6.88,6.88,0,0,0,37.29,14,9.85,9.85,0,0,1,34.46,16.78Z"/></g></g></g></svg>