<svg xmlns="http://www.w3.org/2000/svg" xmlns:xlink="http://www.w3.org/1999/xlink" viewBox="0 0 123.24 215.65"><defs><style>.cls-1{isolation:isolate;}.cls-2{fill:url(#radial-gradient);}.cls-3{opacity:0.6;mix-blend-mode:screen;}.cls-4{fill:#f1f2f2;}.cls-5,.cls-7{opacity:0.3;}.cls-5{mix-blend-mode:multiply;}.cls-6{fill:#1e2857;}.cls-7{fill:#404700;}.cls-8{fill:#6ba507;}.cls-9{fill:#6eb40d;}.cls-10{fill:#7bba0f;}.cls-11{fill:#82c114;}.cls-12{opacity:0.5;}.cls-13,.cls-18{fill:#303f3f;}.cls-14{fill:#646e70;}.cls-15{fill:#414852;}.cls-16{fill:#8a9597;}.cls-17{fill:#b6ced1;}.cls-18{opacity:0.4;}</style><radialGradient id="radial-gradient" cx="54.71" cy="40.56" r="129.91" gradientUnits="userSpaceOnUse"><stop offset="0" stop-color="#698a91"/><stop offset="0.24" stop-color="#698791"/><stop offset="0.44" stop-color="#697c91"/><stop offset="0.62" stop-color="#686b91"/><stop offset="0.8" stop-color="#675291"/><stop offset="0.97" stop-color="#663391"/><stop offset="1" stop-color="#662d91"/></radialGradient></defs><title>Asset 9</title><g class="cls-1"><g id="Layer_2" data-name="Layer 2"><g id="Layer_1-2" data-name="Layer 1"><path class="cls-2" d="M123.24,51.71c-4.3,6.43-5.45,14-6,21.77-.41,5.94-.47,12-1.31,17.91a50.21,50.21,0,0,1-1.63,7.53c-1.57,5.12-4.19,9.87-5.86,15a105.2,105.2,0,0,0-2.88,12.46l-.36,1.71c-.15.71-.31,1.42-.47,2.12-.06.27-.13.54-.2.81l-.18.69c0,.21-.1.42-.17.63s-.15.56-.23.83l-.21.7c-1.19,3.85-3.55,8-7.54,8.54-1.94.24-4-.46-5.78.41a6.27,6.27,0,0,0-2.6,3.22,29.66,29.66,0,0,0-1.15,3l-.15.45c-.16.53-.31,1.05-.45,1.59l-.18.72c-.1.42-.19.84-.28,1.25s-.13.66-.19,1-.1.58-.15.87h0c0,.3-.1.59-.14.9l-.12.89c0,.24-.07.49-.1.74,0,.43-.1.86-.14,1.3s-.08.75-.11,1.12-.07.71-.09,1.06l0,.29c0,.61-.09,1.21-.13,1.82l-.12,1.81c-.08,1.21-.16,2.41-.25,3.61A148.73,148.73,0,0,1,76,206.55q-1.22,3.45-2.61,6.83c-.38.94-.9,2-1.88,2.22s-2-.52-2.73-1.3a25,25,0,0,1-4.57-7.59h0c-.71-1.72-1.32-3.5-1.9-5.27a386.29,386.29,0,0,1-10.94-40.69c-.2-1-.39-1.91-.59-2.87-.48-2.37-1.54-5.29-3.95-5.41-1.4-.07-2.62.91-4,1.18-3.55.7-6.06-3.3-7.45-6.63-.24-.56-.47-1.13-.7-1.69l-3-7.28q-3.51-8.44-7-16.89a.36.36,0,0,0,0-.09,76.57,76.57,0,0,1-2.9-7.77c-.24-.81-.44-1.62-.62-2.44-.88-4.12-.9-8.52-2.86-12.25-2.1-4-6.09-6.59-8.66-10.27-.22-.31-.42-.63-.61-1-2-3.32-3-7.22-3.86-11Q2.83,66.8.58,57.27C.39,56.45.19,55.62,0,54.79l.18-.13,5.5-4c6.24-5.44,12.58-10.94,20-14.57.37-.18.73-.35,1.1-.51s.94-.43,1.41-.62h0l.7-.29.46-.18c.57-.22,1.16-.44,1.74-.64l.56-.19.21-.07,1.13-.37.55-.16,1.09-.32,1.09-.29a102,102,0,0,1,20.85-2.77,85,85,0,0,1,9.71,0,42.94,42.94,0,0,1,5.17.64c7.11,1.35,13.62,4.74,20.15,7.86,9.93,4.74,20.13,8.91,30.32,13.06Z"/><g class="cls-3"><path class="cls-4" d="M122,51.2q-10.89.94-21.75,2.24c-3.73.45-7.52,1-11,2.47a34,34,0,0,0-5.68,3.42c-3.48,2.48-6.83,5.18-10.95,6.17a6.74,6.74,0,0,1-3.48,0c-1.91-.6-3.13-2.4-4.51-3.87A16.56,16.56,0,0,0,50.72,56.9a15.54,15.54,0,0,0-7.25,2.8C41.7,61,40.06,62.71,37.9,63a8.46,8.46,0,0,1-3.31-.34,67.6,67.6,0,0,1-9-3.3,57.61,57.61,0,0,0-8-2.87C12,55.11,5.94,55.26.18,54.66l5.5-4c6.24-5.44,12.58-10.94,20-14.57.83-.4,1.67-.78,2.51-1.13a54.49,54.49,0,0,1,7.56-2.52,102,102,0,0,1,20.85-2.77,85,85,0,0,1,9.71,0,42.94,42.94,0,0,1,5.17.64c7.11,1.35,13.62,4.74,20.15,7.86C101.59,42.88,111.79,47.05,122,51.2Z"/></g><g class="cls-5"><path class="cls-6" d="M64.19,206.7c-.71-1.72-1.32-3.5-1.9-5.27a386.29,386.29,0,0,1-10.94-40.69c-.2-1-.39-1.91-.59-2.87-.48-2.37-1.54-5.29-3.95-5.41-1.4-.07-2.62.91-4,1.18-3.55.7-6.06-3.3-7.45-6.63-.24-.56-.47-1.13-.7-1.69,0-1.5.09-3,.12-4.5,0-.71,0-1.41.05-2.11,0-1.91.06-3.82.07-5.73q0-1.64,0-3.27c0-4.23-.12-8.48-.19-12.74-.09-5.06-.13-10.12,0-15.15.32-9.53,1.44-18.94,4.57-27.93a37.91,37.91,0,0,1,3.5-7.63,10,10,0,0,1,4.15-4,4.64,4.64,0,0,1,2.45-.39,5.85,5.85,0,0,1,3.92,2.7c2.16,3.21,2,7.39,1.71,11.24a128.76,128.76,0,0,1-2.17,18.6c-.13.61-.27,1.21-.42,1.81a69.9,69.9,0,0,0-2,9.88,32.9,32.9,0,0,0-.09,4.09A93.89,93.89,0,0,0,52,122.11c1.33,8.07,2.19,16.21,3,24.35.27,2.79.52,5.58.79,8.36.39,4.07.79,8.15,1.26,12.21.37,3.29.8,6.56,1.28,9.83C59.8,186.89,62,196.81,64.19,206.7Z"/></g><g class="cls-5"><path class="cls-6" d="M24.61,121.15a.36.36,0,0,0,0-.09,76.57,76.57,0,0,1-2.9-7.77c-.24-.81-.44-1.62-.62-2.44-.88-4.12-.9-8.52-2.86-12.25-2.1-4-6.09-6.59-8.66-10.27-.22-.31-.42-.63-.61-1-2-3.32-3-7.22-3.86-11Q2.83,66.8.58,57.27a33.39,33.39,0,0,1,10.78,2.79,15.13,15.13,0,0,1,5.13,4,22.33,22.33,0,0,1,3.74,8.07A96.57,96.57,0,0,1,23.39,92.8c.14,2.12.23,4.24.3,6.37.19,5.09.27,10.2.5,15.29C24.29,116.7,24.43,118.92,24.61,121.15Z"/></g><g class="cls-5"><path class="cls-6" d="M109.6,59.26a114.16,114.16,0,0,1-2.73,18.82c-.22,1-.44,2-.67,3h0c-.48,2.15-1,4.3-1.47,6.44a175.66,175.66,0,0,0-3.48,18.39c-.2,1.72-.36,3.47-.39,5.21a29.82,29.82,0,0,0,.19,4.44,19.87,19.87,0,0,0,1.7,6.18,29.39,29.39,0,0,0,2.82,4.6l-.36,1.71c-.15.71-.31,1.42-.47,2.12-.06.27-.13.54-.2.81l-.18.69c0,.21-.1.42-.17.63s-.15.56-.23.83h0c-.06.24-.13.47-.2.7-1.19,3.85-3.55,8-7.54,8.54-1.94.24-4-.46-5.78.41a6.27,6.27,0,0,0-2.6,3.22,29.66,29.66,0,0,0-1.15,3l-.15.45c-.16.53-.31,1.05-.45,1.59l-.18.72c-.1.42-.19.84-.28,1.25s-.13.66-.19,1-.1.58-.15.87h0c0,.3-.1.59-.14.9s-.09.59-.12.89-.07.49-.1.74c0,.43-.1.86-.14,1.3s-.08.75-.11,1.12-.07.71-.09,1.06l0,.29c0,.6-.09,1.21-.13,1.82l-.12,1.81c-.08,1.21-.16,2.41-.25,3.61A148.73,148.73,0,0,1,76,206.55a54,54,0,0,1,.5-11.9q2-17.34,3.65-34.75.66-7,1.25-14c.05-.59.1-1.17.14-1.76,0-.3,0-.59.08-.89q1.09-13.11,2-26.25.57-8.61,1-17.24.27-5,.51-10c.24-5.08.48-10.23,2-15.09a30.11,30.11,0,0,1,18.31-19.12l.25-.1a3.57,3.57,0,0,1,2.44-.2C109.47,55.89,109.67,57.76,109.6,59.26Z"/></g><g class="cls-5"><path class="cls-6" d="M53.37,56.46H52.6A6.59,6.59,0,0,1,53.37,56.46Z"/></g><g class="cls-5"><path class="cls-6" d="M123.24,51.71c-4.3,6.43-5.45,14-6,21.77-.41,5.94-.47,12-1.31,17.91a50.21,50.21,0,0,1-1.63,7.53c-1.57,5.12-4.19,9.87-5.86,15a105.2,105.2,0,0,0-2.88,12.46l-.36,1.71c-.15.71-.31,1.42-.47,2.12-.06.27-.13.54-.2.81l-.18.69c0,.21-.1.42-.17.63s-.15.56-.23.83l-.21.7c-1.19,3.85-3.55,8-7.54,8.54-1.94.24-4-.46-5.78.41a6.27,6.27,0,0,0-2.6,3.22,29.66,29.66,0,0,0-1.15,3l-.15.45c-.16.53-.31,1.05-.45,1.59l-.18.72c-.1.42-.19.84-.28,1.25s-.13.66-.19,1-.1.58-.15.87h0c0,.3-.1.59-.14.9l-.12.89c0,.24-.07.49-.1.74,0,.43-.1.86-.14,1.3s-.08.75-.11,1.12-.07.71-.09,1.06l0,.29c0,.61-.09,1.21-.13,1.82l-.12,1.81c-.08,1.21-.16,2.41-.25,3.61A148.73,148.73,0,0,1,76,206.55q-1.22,3.45-2.61,6.83c-.38.94-.9,2-1.88,2.22s-2-.52-2.73-1.3a25,25,0,0,1-4.57-7.59h0c-.71-1.72-1.32-3.5-1.9-5.27a386.29,386.29,0,0,1-10.94-40.69c-.2-1-.39-1.91-.59-2.87-.48-2.37-1.54-5.29-3.95-5.41-1.4-.07-2.62.91-4,1.18-3.55.7-6.06-3.3-7.45-6.63-.24-.56-.47-1.13-.7-1.69l-3-7.28q-3.51-8.44-7-16.89a.36.36,0,0,0,0-.09,76.57,76.57,0,0,1-2.9-7.77c-.24-.81-.44-1.62-.62-2.44-.88-4.12-.9-8.52-2.86-12.25-2.1-4-6.09-6.59-8.66-10.27-.22-.31-.42-.63-.61-1-2-3.32-3-7.22-3.86-11Q2.83,66.8.58,57.27C.39,56.45.19,55.62,0,54.79l.18-.13,5.5-4c6.24-5.44,12.58-10.94,20-14.57.37-.18.73-.35,1.1-.51s.94-.43,1.41-.62h0l.7-.29.46-.18c.57-.22,1.16-.44,1.74-.64l.56-.19.21-.07,1.13-.37.55-.16,1.09-.32,1.09-.29-1.22,1h0q-8.36,6.75-16.15,14.16c-1.32,1.26-2.75,2.95-2.19,4.69a4.3,4.3,0,0,0,1.31,1.77c4.6,4.11,11.31,4.89,17.46,4.38,3.4-.28,6.78-.9,10.17-1.36a53.07,53.07,0,0,1,7.44-.61,5.39,5.39,0,0,0-1.88.44c-3.77,1.61-6.18,7-10.28,8.9C36.8,67.46,32.49,66,29,64s-6.75-4.58-10.68-5.35a9.4,9.4,0,0,0-7,1.4A5.6,5.6,0,0,0,8.9,63.79a10.88,10.88,0,0,0,.9,5.15,39.66,39.66,0,0,0,3.68,8.41c1.16,1.83,2.61,3.46,3.79,5.28a36.11,36.11,0,0,1,3.58,8c.2.61.41,1.22.61,1.82l2.23,6.76,5.76,17.36q2.49,7.52,5,15c.15.47.31.95.48,1.43a21.06,21.06,0,0,0,3.68,7,9.29,9.29,0,0,0,2.7,2.15c.07-.24.15-.48.23-.72A103.47,103.47,0,0,0,46,116c5.29,8.64,2.73,19.92,5.75,29.58.08.27.18.54.27.81,1,2.92,2.48,5.67,3.78,8.48a40.06,40.06,0,0,1,2,4.92c1.27,4.06,1.52,8.36,2.07,12.58,0,.32.08.63.12.94a67.36,67.36,0,0,0,11.25,28.68c4-5.63,3.93-13,4.33-19.92A159.49,159.49,0,0,1,78,162.43c1-5.51,2.19-11,3.36-16.49.14-.67.28-1.34.43-2,2-9.69,4-19.4,4.69-29.22.13-1.84.22-3.67.27-5.52a104.87,104.87,0,0,1,.61-12.28,20.42,20.42,0,0,1,4.28-10.54c0,2.13,0,4.26.08,6.39q.11,9.6.22,19.19l.09,8.06c0,3.8.11,7.71,1.62,11.19a4,4,0,0,0,2.11,2.37c2.57.85,4.1-2.83,4.3-5.54.3-4.14.61-8.3,1-12.46.15-1.67.3-3.34.46-5,.75-7.73,1.74-15.44,3.22-23,.41-2.13.86-4.25,1.37-6.36.24-1,.5-2.06.77-3.09a122.3,122.3,0,0,1,4.23-13.26c1.32-3.42,2.32-8.28-1-9.93a7.06,7.06,0,0,0-3.93-.34,114.24,114.24,0,0,0-22.6,4.78q-3.5,1.13-6.91,2.46a37.22,37.22,0,0,1,4.38-5.16h0A37.6,37.6,0,0,1,97.25,47.2,130.48,130.48,0,0,1,68.66,31.37c-.78-.56-1.55-1.14-2.32-1.73a42.94,42.94,0,0,1,5.17.64c7.11,1.35,13.62,4.74,20.15,7.86,9.93,4.74,20.13,8.91,30.32,13.06Z"/></g><g class="cls-3"><path class="cls-4" d="M122,51.2q-10.89.94-21.75,2.24c-3.73.45-7.52,1-11,2.47a34,34,0,0,0-5.68,3.42c-3.48,2.48-6.83,5.18-10.95,6.17a6.74,6.74,0,0,1-3.48,0c-1.91-.6-3.13-2.4-4.51-3.87A16.56,16.56,0,0,0,50.72,56.9a15.54,15.54,0,0,0-7.25,2.8C41.7,61,40.06,62.71,37.9,63a8.46,8.46,0,0,1-3.31-.34,67.6,67.6,0,0,1-9-3.3c5.8,1.13,11.91,1.81,17.09-.84,3.74-1.91,6.84-5.49,11-5.8C60,52.29,64.5,59.2,70.7,60c6,.73,10.93-4.38,16.53-6.64,4.68-1.9,10-1.79,14.7-3.58a2.81,2.81,0,0,0,1.55-1.08c.76-1.34-.77-2.81-2.11-3.55a123.86,123.86,0,0,0-11.26-5.27L74.7,33.23a22,22,0,0,0-5.45-1.79c-2.74-.39-5.52.25-8.25.76a68.85,68.85,0,0,1-13.74,1.14c-3.76-.08-7.53-.51-11.27-.11A43.56,43.56,0,0,0,28.22,35a54.49,54.49,0,0,1,7.56-2.52,102,102,0,0,1,20.85-2.77,85,85,0,0,1,9.71,0,42.94,42.94,0,0,1,5.17.64c7.11,1.35,13.62,4.74,20.15,7.86C101.59,42.88,111.79,47.05,122,51.2Z"/></g><ellipse class="cls-7" cx="51.55" cy="34.63" rx="11.13" ry="4.49"/><circle class="cls-8" cx="47.83" cy="27.88" r="4.97"/><circle class="cls-8" cx="55.36" cy="28.56" r="4.97"/><path class="cls-8" d="M60.28,32.82c0,2.75-4.06,5-9.05,5s-9-2.22-9-5,4-5,9-5S60.28,30.07,60.28,32.82Z"/><path class="cls-9" d="M57,25c-2.2-5.18-9.09-4.87-10.6,1.16s2,11.38,7.61,10.5S59.26,30.25,57,25Z"/><path class="cls-8" d="M54.43,29.15a8.37,8.37,0,0,0-3.72-2.53,8,8,0,0,0-4.32-.31C45,32.28,48.45,37.53,54,36.66a5.57,5.57,0,0,0,3.11-1.41A12.88,12.88,0,0,0,54.43,29.15Z"/><path class="cls-10" d="M52.09,28.87c-2.6-3.45-9.45-2.86-10.48,1.37S44.47,38,50,37.06,54.72,32.36,52.09,28.87Z"/><path class="cls-11" d="M50.55,28.69c-.73-2.91-7.94-2.69-8.94,1.55C41.05,32.61,51.7,33.21,50.55,28.69Z"/><path class="cls-11" d="M56.5,24a5.3,5.3,0,0,0-9.09-.11C45.63,26.9,57.83,26,56.5,24Z"/><path class="cls-9" d="M61.17,29c1.42,2.15.21,5.44-2.7,7.35s-6.41,1.72-7.82-.44-.21-5.44,2.7-7.35S59.75,26.84,61.17,29Z"/><path class="cls-11" d="M61.09,29.16C62.5,31.32,58.49,32,56,32.44c-4.14.72-5.59-1.81-2.69-3.72S59.67,27,61.09,29.16Z"/><path class="cls-8" d="M58.85,34.4c-3.33,2.19-7.17,2.22-8.59.06a3.07,3.07,0,0,1-.2-.36,3.63,3.63,0,0,0,.59,1.81c1.41,2.16,4.92,2.35,7.82.44a7,7,0,0,0,3.26-4.76A10.18,10.18,0,0,1,58.85,34.4Z"/><g class="cls-12"><path class="cls-13" d="M104.75,49.74c1.3-1.06-3.72-3.88-4.45-4.35-2.46-1.58-4.69-3.48-7.12-5.08-1.78-1.17-2.28-3.6-4.44-4.08-2.74-.62-15.73-1-15.73-1l-8.49,2.12c1.5,1.42,9.73,8.94,14.78,9.74,3.42.54,6.65,1.87,10.14,2.17,2.65.24,5.31-.12,8,.07,2,.15,5.14,1.29,7,.58A1.26,1.26,0,0,0,104.75,49.74Z"/></g><path class="cls-14" d="M78.72.58c.92-3.59.75,10.33,4.33,20.13.5,1.38-2.27,15-3.16,20.11,0,0-3.27,1.43-9.83.85C68.55,41.53,80.73,25.2,80.73,25.2S76.7,8.39,78.72.58Z"/><path class="cls-15" d="M79.18.34c-1.58.93.29,10.57,3.87,20.37.5,1.38-2.27,15-3.16,20.11,0,0,14-4.28,7.48-4.87-1.51-.13-1-19.83-1-19.83S79.68,0,79.18.34Z"/><path class="cls-16" d="M78.72.58c.92-3.59-11.41,19.62-12.84,20s-3,11.55-2.37,16.08c0,0,5,4.88,6.55,5.05S80.73,25.2,80.73,25.2,76.7,8.39,78.72.58Z"/><path class="cls-17" d="M66.37,20.42c1.8-.5,3.15,1.36,4.63,2a47,47,0,0,0,.9-4.85.07.07,0,0,1,.1-.06,17.49,17.49,0,0,1,5.44,4.61c.37.46.65,1,1,1.46a4.4,4.4,0,0,0,1.63,1.23l.64.31c-.17-.69-4-17-2-24.59.87-3.39-10.5,17.51-13,20.08A3.41,3.41,0,0,1,66.37,20.42Z"/><path class="cls-15" d="M80.12,40.16s-3,1.73-9.52,1.15c-1.51-.17-6.95-5-6.95-5-.08-.57-.27-2.24-.29-3a20.24,20.24,0,0,0,.15,3.29s5,5,6.55,5.15c6.56.59,9.83-.84,9.83-.84s9.62-3,9.2-4.38C89,36.6,80.12,40.16,80.12,40.16Z"/><g class="cls-12"><path class="cls-13" d="M47.38,44.69c.5,1.15,6.22,4.83,10.6,5.82s7.61,1.64,10.25.9,5.12-2.79,4.23-3.34-8.41-3.88-9.41-4S47.38,44.69,47.38,44.69Z"/></g><path class="cls-14" d="M63.57,38.64c1.7.68,2.66,4.58,3.58,7,.53,1.36-4,2.08-7.14,2.3.36-1.38-.52-6.86-1.42-8A8.43,8.43,0,0,0,63.57,38.64Z"/><path class="cls-15" d="M67.15,45.61c-.77-2-1.2-4.53-2.63-6.18A4.38,4.38,0,0,1,64.36,42a3.65,3.65,0,0,1-1-1c.65,1.13,1.55,2.86.87,4.16-.93,1.8-2.6-.64-2.51-.73a18.69,18.69,0,0,0-1.68,2A6,6,0,0,1,60,47.91C63.16,47.69,67.68,47,67.15,45.61Z"/><path class="cls-17" d="M63.57,38.64c-1-.65-7.59-1.88-14.51,4-1.12.94,14.1,5.1,10.95,5.32.36-1.38-.52-6.86-1.42-8A8.43,8.43,0,0,0,63.57,38.64Z"/><path class="cls-16" d="M54.45,40.11a17.91,17.91,0,0,0-6.66,3.46c-1.68,1.48,1.33,2.31,2.41,2.74a15,15,0,0,0,5.25,1.14c1.46,0,5.92,1.38,6.44-.62.37-1.38-.67-4.71-1.57-5.8C59,39.39,56.28,39.63,54.45,40.11Z"/><path class="cls-15" d="M60,47.67a39.15,39.15,0,0,1-4.56-.47,15,15,0,0,1-5.25-1.14c-.8-.32-2.64-.85-2.88-1.7-.26,1.06,2,1.7,2.88,2.06a15,15,0,0,0,5.25,1.13A37.07,37.07,0,0,0,60,48c3.13-.22,7.61-.94,7.15-2.28C66.8,46.86,62.85,47.47,60,47.67Z"/><path class="cls-18" d="M21.19,42.12c1.07,1.06,10.62,5,16.64,6a23.94,23.94,0,0,0,8.62-.42A8.69,8.69,0,0,0,46.77,46c-.15-3.11-1.88-5.14-4.38-6.58a3.49,3.49,0,0,1-1-.69l-3.58-.39C30.17,40,21.19,42.12,21.19,42.12Z"/><path class="cls-16" d="M21.27,42.28c.25.12,11.84,2.2,12.94,1.28s-1.38-14.22-1.47-15.41-.55-17.7-1-18.34-5.59,9.35-6,11.55S22.83,29.25,22.1,32,20,41.63,21.27,42.28Z"/><path class="cls-14" d="M40.49,39.72c.74,1.65-6.28,3.84-6.28,3.84,1.1-.92-1.38-14.22-1.47-15.41s-.55-17.7-1-18.34C38.15,17.23,39.91,38.41,40.49,39.72Z"/><path class="cls-15" d="M40.49,39.72c-.2-.45-.54-3.26-1.16-7a14.09,14.09,0,0,1-.65,4.59.08.08,0,0,1-.13,0c-.29-.36-.78-.8-1-.15a4,4,0,0,0-.21,1,.07.07,0,0,1-.14,0c-.78-1.76-.68-3.67-1.05-5.52-.23-1.15-.54-2.29-.77-3.45s-.44-2.35-.73-3.5c-.53-2.13-1.41-4.15-1.86-6.29-.22-1.1-.25-2.21-.43-3.3,0-.18-.07-.36-.1-.54.25,5.1.45,11.82.51,12.57.09,1.19,2.57,14.49,1.47,15.41C34.21,43.56,41.23,41.37,40.49,39.72Z"/><path class="cls-17" d="M21.19,36.76c.39-1,.84-2,1.23-3s.62-1.94,1-2.89a18.75,18.75,0,0,1,1.24-2.55c.5-.85,1.14-1.61,1.64-2.46,1-1.73,1.5-3.72,2.62-5.39a.07.07,0,0,1,.13,0,8.48,8.48,0,0,1,.11,1.13,5.27,5.27,0,0,0,2-3c0-.06.09-.11.13,0,.78,1.26.61,2.84.58,4.26a12.79,12.79,0,0,0,.81,4.78c-.13-2.92-.56-17.3-1-17.89s-5.59,9.35-6,11.55S22.83,29.25,22.1,32c-.32,1.21-.77,3.23-1.06,5.15Z"/><path class="cls-15" d="M34.21,43.22c-1.1.92-12.69-1.16-12.94-1.28s-.5-.86-.52-1.79c0,1.16.11,2,.52,2.23.25.12,11.84,2.2,12.94,1.29,0,0,6.9-2.16,6.3-3.81C40,41.43,34.21,43.22,34.21,43.22Z"/><ellipse class="cls-7" cx="94.43" cy="49.4" rx="6.78" ry="2.74"/><path class="cls-8" d="M95.2,45.29a3,3,0,1,1-3-3A3,3,0,0,1,95.2,45.29Z"/><path class="cls-8" d="M99.79,45.71a3,3,0,1,1-3-3A3,3,0,0,1,99.79,45.71Z"/><path class="cls-8" d="M99.75,48.3c0,1.68-2.47,3-5.51,3s-5.52-1.35-5.52-3,2.47-3,5.52-3S99.75,46.63,99.75,48.3Z"/><path class="cls-9" d="M97.77,43.54c-1.34-3.16-5.54-3-6.46.7s1.2,6.94,4.64,6.4S99.13,46.74,97.77,43.54Z"/><path class="cls-8" d="M96.19,46.07a5.08,5.08,0,0,0-2.27-1.55,4.9,4.9,0,0,0-2.63-.19C90.43,48,92.54,51.18,96,50.64a3.37,3.37,0,0,0,1.9-.86A7.79,7.79,0,0,0,96.19,46.07Z"/><path class="cls-10" d="M94.76,45.9c-1.58-2.11-5.76-1.75-6.38.83s1.74,4.71,5.13,4.16S96.37,48,94.76,45.9Z"/><path class="cls-11" d="M93.83,45.78c-.45-1.77-4.84-1.63-5.45.95C88,48.18,94.52,48.54,93.83,45.78Z"/><path class="cls-11" d="M97.45,42.92a3.23,3.23,0,0,0-5.54-.07C90.82,44.69,98.26,44.16,97.45,42.92Z"/><path class="cls-9" d="M100.3,46c.86,1.31.13,3.32-1.65,4.49s-3.9,1-4.77-.27-.12-3.32,1.65-4.49S99.44,44.66,100.3,46Z"/><path class="cls-11" d="M100.25,46.07c.86,1.32-1.59,1.73-3.13,2-2.53.44-3.41-1.1-1.64-2.26S99.38,44.76,100.25,46.07Z"/><path class="cls-8" d="M98.88,49.27c-2,1.33-4.37,1.35-5.23,0a.94.94,0,0,1-.12-.22,2.27,2.27,0,0,0,.35,1.11c.87,1.31,3,1.43,4.77.27a4.29,4.29,0,0,0,2-2.9A6.26,6.26,0,0,1,98.88,49.27Z"/><ellipse class="cls-7" cx="85.15" cy="53.62" rx="7.93" ry="3.2"/><path class="cls-8" d="M86,48.81a3.54,3.54,0,1,1-3.54-3.55A3.54,3.54,0,0,1,86,48.81Z"/><path class="cls-8" d="M91.42,49.29a3.55,3.55,0,1,1-3.55-3.54A3.54,3.54,0,0,1,91.42,49.29Z"/><ellipse class="cls-8" cx="84.92" cy="52.33" rx="6.45" ry="3.54"/><path class="cls-9" d="M89.06,46.76c-1.57-3.7-6.48-3.48-7.56.82s1.41,8.11,5.43,7.48S90.64,50.5,89.06,46.76Z"/><path class="cls-8" d="M87.21,49.71a5.88,5.88,0,0,0-2.66-1.8,5.63,5.63,0,0,0-3.07-.22c-1,4.25,1.46,8,5.45,7.37a3.89,3.89,0,0,0,2.21-1A9.15,9.15,0,0,0,87.21,49.71Z"/><path class="cls-10" d="M85.54,49.51c-1.86-2.46-6.74-2-7.47,1s2,5.51,6,4.86S87.41,52,85.54,49.51Z"/><path class="cls-11" d="M84.44,49.38c-.52-2.07-5.66-1.91-6.37,1.11C77.67,52.18,85.26,52.61,84.44,49.38Z"/><path class="cls-11" d="M88.68,46A3.78,3.78,0,0,0,82.2,46C80.93,48.11,89.63,47.49,88.68,46Z"/><path class="cls-9" d="M92,49.6c1,1.54.15,3.88-1.92,5.24s-4.57,1.23-5.58-.31-.15-3.88,1.92-5.24S91,48.07,92,49.6Z"/><path class="cls-11" d="M92,49.72c1,1.54-1.85,2-3.66,2.34-3,.51-4-1.29-1.92-2.65S90.94,48.19,92,49.72Z"/><path class="cls-8" d="M90.35,53.46C88,55,85.25,55,84.24,53.5c-.06-.09-.1-.17-.15-.26a2.6,2.6,0,0,0,.42,1.29c1,1.54,3.5,1.68,5.58.31a5,5,0,0,0,2.32-3.39A7.33,7.33,0,0,1,90.35,53.46Z"/></g></g></g></svg>