<svg xmlns="http://www.w3.org/2000/svg" xmlns:xlink="http://www.w3.org/1999/xlink" viewBox="0 0 149.07 132.08"><defs><style>.cls-1{isolation:isolate;}.cls-2{fill:url(#radial-gradient);}.cls-15,.cls-3{opacity:0.6;}.cls-3{mix-blend-mode:screen;}.cls-4{fill:#f1f2f2;}.cls-17,.cls-5{opacity:0.3;}.cls-5{mix-blend-mode:multiply;}.cls-6{fill:#1e2857;}.cls-7{fill:#8a9597;}.cls-8{fill:#17bec7;}.cls-9{fill:#44e0e0;}.cls-10{fill:#646e70;}.cls-11{fill:#b6ced1;}.cls-12{fill:#414852;}.cls-13{fill:#55f2ed;}.cls-14{fill:#8ff9f1;}.cls-16{fill:#fff;}.cls-17{fill:#404700;}.cls-18{fill:#6ba507;}.cls-19{fill:#6eb40d;}.cls-20{fill:#7bba0f;}.cls-21{fill:#82c114;}</style><radialGradient id="radial-gradient" cx="2370.15" cy="40.38" r="66.96" gradientTransform="matrix(-1, 0, 0, 1, 2466.93, 0)" gradientUnits="userSpaceOnUse"><stop offset="0" stop-color="#698a91"/><stop offset="0.24" stop-color="#698791"/><stop offset="0.44" stop-color="#697c91"/><stop offset="0.62" stop-color="#686b91"/><stop offset="0.8" stop-color="#675291"/><stop offset="0.97" stop-color="#663391"/><stop offset="1" stop-color="#662d91"/></radialGradient></defs><title>Asset 13</title><g class="cls-1"><g id="Layer_2" data-name="Layer 2"><g id="Layer_1-2" data-name="Layer 1"><path class="cls-2" d="M0,37.25a4.57,4.57,0,0,0,1.33,2.89c.14.17.28.32.42.47l6.88,7c2,2,4,.46,6,2.49l.74.74.68.69c.16.16.31.32.48.47s.31.32.48.47l.48.47c.49.46,1,.91,1.5,1.34l.51.43.45.37.15.11q.2.16.39.3l.42.31.25.18.39.26.16.1.49.32.58.34c.16.09.31.18.48.26A36.93,36.93,0,0,0,30.51,60c1.27.37,2.56.72,3.82,1.12,1.61.51,3.2,1.08,4.76,1.73,2.31.94,4.55,3.23,6.73,4.46a17.13,17.13,0,0,0,4.75,2.17,11,11,0,0,0,3.48.08c2.45-.26,4.92,1.47,7.3,2a7.86,7.86,0,0,1,2.7,1.21c2.39,1.65,4.08,4.48,5.53,7.12.13.23.26.46.38.69l.61,1.12c.65,1.2,1.29,2.41,1.91,3.63.21.41.42.82.62,1.24s.39.82.59,1.24c.1.21.19.41.28.62s.13.27.18.4l0,0c.06.13.12.25.17.38l.27.64,0,0c.11.28.23.56.34.85l0,.09.33.86c.06.17.13.33.18.5s.16.42.23.64.15.42.22.64c.14.43.27.86.4,1.3l.18.65.06.23c0,.15.07.3.11.45l.07.28.09.39.06.28.09.41c0,.13,0,.25.07.38s0,.07,0,.1v0c.05.24.09.48.13.72s0,.19,0,.29l0,.26.06.47a.07.07,0,0,0,0,0l.06.6,0,.36c0,.16,0,.32,0,.48a2.35,2.35,0,0,1,0,.26.41.41,0,0,1,0,.11c0,.16,0,.32,0,.48a4.21,4.21,0,0,0,.73,2.83,2.67,2.67,0,0,0,1.31.71c.51.14,1,.2,1.56.31,3.3.73,5.71,3.67,6.93,6.82,1,2.57,2.94,10,4,14.43v0c.24,1,.42,1.83.55,2.44.18.89.5,1.92,1.36,2.24a2.8,2.8,0,0,0,1.12.1c3.74-.16,6.51-3.24,9.56-5.46a10,10,0,0,1,5.47-2.28,2.36,2.36,0,0,0,2.59-1.63A85.42,85.42,0,0,0,119,106.33c.15-.54.3-1.08.43-1.63a83.68,83.68,0,0,0,1.73-8.87,4.08,4.08,0,0,1,1-2.6c1-.88,2.59-.48,3.93-.7A4.37,4.37,0,0,0,129,90.7a6.58,6.58,0,0,0,.49-.76,13.4,13.4,0,0,0,1.36-4.22c.08-.42.14-.83.19-1.23a14.64,14.64,0,0,1,1.79-5.95,4.53,4.53,0,0,1,3-2.16,8.5,8.5,0,0,1,1.13-.13,3.37,3.37,0,0,0,1.63-.44,3.76,3.76,0,0,0,1.23-1.69c1-2.17,2-4.38,2.88-6.61a128,128,0,0,0,5.11-15.36h0c.29-1.11.56-2.21.82-3.31l.48-5V43.7c-7.47-4.36-14.94-8.72-22.51-12.92a27.37,27.37,0,0,0-8.45-3.48,12.16,12.16,0,0,0-1.48-.15l-.35,0h0c-.4,0-.79,0-1.18,0l-.29,0h-.09l-.25,0h-.16l-.17,0c-.28,0-.56.08-.84.13l-.56.1-.25.05-.22.05-.93.22q-.47.11-.93.24l-.46.12-1.38.38a120.9,120.9,0,0,1-28,4.16A193.6,193.6,0,0,1,59.4,32q-3.3-.25-6.6-.54A85.61,85.61,0,0,1,41.85,30,35.31,35.31,0,0,0,36,29a24.93,24.93,0,0,0-5.76.69L2.5,35.25a3.57,3.57,0,0,0-2.08.94A1.75,1.75,0,0,0,0,37.25Z"/><g class="cls-3"><path class="cls-4" d="M0,37.25l7.37,1.31h0l14.06,2.49,7.81,1.39a3.08,3.08,0,0,0,1.73,0,4.15,4.15,0,0,0,1.23-1.1c2.64-2.9,7.29-2.88,11-1.59l.61.23c1.32.5,2.6,1.13,3.88,1.76a44.89,44.89,0,0,0,5.4,2.41c.3.1.59.2.9.28,3.73,1.07,7.68.86,11.56,1.05A56.26,56.26,0,0,1,79.1,47.79a23.73,23.73,0,0,0,5.61,1.32c3.15.18,6.19-1.15,9.33-1.55,9.28-1.2,18.2,5.64,27.49,4.5a31.13,31.13,0,0,0,8.44-2.7l.2-.09c1.45-.63,2.9-1.26,4.38-1.79,4.69-1.7,9.69-2.37,14.51-3.67V43.7c-7.47-4.36-14.94-8.72-22.51-12.92a27.37,27.37,0,0,0-8.45-3.48,12.16,12.16,0,0,0-1.48-.15l-.35,0h0a27.67,27.67,0,0,0-7.71,1.42,120.9,120.9,0,0,1-28,4.16A193.6,193.6,0,0,1,59.4,32q-3.3-.25-6.6-.54A85.61,85.61,0,0,1,41.85,30,35.31,35.31,0,0,0,36,29a24.93,24.93,0,0,0-5.76.69L2.5,35.25a3.57,3.57,0,0,0-2.08.94A1.75,1.75,0,0,0,0,37.25Z"/></g><g class="cls-5"><path class="cls-6" d="M55,58.94a37,37,0,0,1,.58,6.39c0,.19,0,.39,0,.58v.26a5,5,0,0,1-.3,1.85,4.6,4.6,0,0,1-1.26,1.56c2.45-.26,4.92,1.47,7.3,2a7.86,7.86,0,0,1,2.7,1.21c2.39,1.65,4.08,4.48,5.53,7.12.13.23.26.46.38.69l.61,1.12c.65,1.2,1.29,2.41,1.91,3.63.21.41.42.82.62,1.24s.39.82.59,1.24c.1.21.19.41.28.62s.13.27.18.4l0,0c.06.13.12.25.17.38l.27.64,0,0c.11.28.23.56.34.85l0,.09c.11.29.23.58.33.86s.13.33.18.5.16.42.23.64.15.42.22.64c.14.43.27.86.4,1.3l.18.65.06.23c0,.15.08.3.11.45l.07.28.09.39.06.28.09.41c0,.13,0,.25.07.38s0,.07,0,.1v0c.05.24.09.48.13.72s0,.19,0,.29a2.34,2.34,0,0,1,0,.26l.06.47a.07.07,0,0,0,0,0l.06.6c0,.13,0,.24,0,.36s0,.32,0,.48a2.26,2.26,0,0,1,0,.26.41.41,0,0,1,0,.11c0,.16,0,.32,0,.48a4.21,4.21,0,0,0,.73,2.83,2.67,2.67,0,0,0,1.31.71c.51.14,1,.2,1.56.31,3.3.73,5.71,3.67,6.93,6.82,1,2.57,2.94,10,4,14.43-1.07-5.93-1.74-11.93-2.37-17.94l-.33-3.18c0-.33-.06-.66-.1-1-.38-3.72-.77-7.42-1.25-11.12a141.79,141.79,0,0,0-2.6-14.75c-.48-2.06-1-4.41.23-6.14l.06-.07a4.29,4.29,0,0,0,.45-.69,3.17,3.17,0,0,0-.45-2.59,41.67,41.67,0,0,1-2.16-6.14c-1.58-5.5-2.78-11.17-7-14.78-2,1.16-4.5.66-6.62-.21a50.06,50.06,0,0,0-4.75-2,9.62,9.62,0,0,0-1.68-.34,2.09,2.09,0,0,0-2,.68,3.81,3.81,0,0,0-.27,1.59,3.91,3.91,0,0,1-3,3.12,4.91,4.91,0,0,1-1.52.22A12.56,12.56,0,0,1,51,50a35.67,35.67,0,0,1,2.42,5.3C54.13,57.24,54.67,56.87,55,58.94Z"/></g><g class="cls-5"><path class="cls-6" d="M104.68,126.61a10,10,0,0,1,5.47-2.28,2.36,2.36,0,0,0,2.59-1.63A85.42,85.42,0,0,0,119,106.33c.15-.54.3-1.08.43-1.63a83.68,83.68,0,0,0,1.73-8.87,4.08,4.08,0,0,1,1-2.6c1-.88,2.59-.48,3.93-.7A4.37,4.37,0,0,0,129,90.7a6.58,6.58,0,0,0,.49-.76,13.4,13.4,0,0,0,1.36-4.22,34.5,34.5,0,0,0,2-7.18,4.53,4.53,0,0,1,3-2.16,8.5,8.5,0,0,1,1.13-.13c.34-1.39.67-2.78,1-4.17l.87-3.58c.91-3.74,1.85-7.47,2.86-11.18.21-.73.41-1.46.62-2.19.5-1.79,1-3.57,1.6-5.34.39-1.25.41-3.16-.89-3.3a2.14,2.14,0,0,0-.93.18l-1.77.6-13.09,4.47A11.12,11.12,0,0,0,122.77,54a11.24,11.24,0,0,0-2.11,3.57c-1,2.29-2,4.59-3,6.88a1.54,1.54,0,0,1-.08.19,48.62,48.62,0,0,0-3.7,10.85c0,.22-.08.43-.1.64-.77,5.15,0,10.42.18,15.64,0,1.5,0,3,0,4.5A62.72,62.72,0,0,1,112,109.15a65.4,65.4,0,0,1-2.61,8c-.52,1.29-1.08,2.56-1.68,3.82A64,64,0,0,1,104.68,126.61Z"/></g><g class="cls-5"><path class="cls-6" d="M119.46,104.7a83.68,83.68,0,0,0,1.73-8.87,4.08,4.08,0,0,1,1-2.6c1-.88,2.59-.48,3.93-.7A4.37,4.37,0,0,0,129,90.7l.21-.59,0,0c.52-1.45,1.09-2.89,1.62-4.34a34.5,34.5,0,0,0,2-7.18c.06-.43.11-.87.14-1.3,0-.26,0-.52,0-.78.07-2.09-.14-4.2-.07-6.29a16.34,16.34,0,0,1,.19-2.21c.49-3.14,2-6.22,2.47-9.28a9.68,9.68,0,0,0,.1-2,8.37,8.37,0,0,0-.27-1.69c-2.57.38-4,3.05-5.12,5.4l-.4.88q-2.15,4.65-4.28,9.31c-.34.76-.69,1.51-1,2.27a51.67,51.67,0,0,0-4.24,12.52,40.15,40.15,0,0,0-.5,5.47c0,.17,0,.34,0,.5,0,.9,0,1.79,0,2.68,0,2.17,0,4.34,0,6.51C119.69,101.91,119.6,103.31,119.46,104.7Z"/></g><g class="cls-5"><path class="cls-6" d="M63.72,68.5c.06,1.45.17,2.89.33,4.33,2.39,1.65,4.08,4.48,5.53,7.12.13.23.26.46.38.69l.61,1.12c.65,1.2,1.29,2.41,1.91,3.63.21.41.42.82.62,1.24s.39.82.59,1.24c.1.21.19.41.28.62s.13.27.18.4l0,0c.06.13.12.25.17.38l.27.64,0,0c.11.28.23.56.34.85l0,.09c.11.29.23.58.33.86s.13.33.18.5.16.42.23.64.15.42.22.64c.14.43.27.86.4,1.3l.18.65.06.23c0,.15.08.3.11.45l.07.28.09.39.06.28.09.41c0,.13,0,.25.07.38s0,.07,0,.1v0c.05.24.09.48.13.72s0,.19,0,.29a2.34,2.34,0,0,1,0,.26l.06.47a.07.07,0,0,0,0,0l.06.6c0,.13,0,.24,0,.36s0,.32,0,.48a2.26,2.26,0,0,1,0,.26.41.41,0,0,1,0,.11c0,.16,0,.32,0,.48a4.21,4.21,0,0,0,.73,2.83,2.67,2.67,0,0,0,1.31.71,44.85,44.85,0,0,1-1.85-5.21,34.64,34.64,0,0,1-.91-4.71,72.64,72.64,0,0,1-.46-8.35c0-.67,0-1.34,0-2,0-.23,0-.46,0-.68q-.11-9.09-.72-18.15l0-.36c-.21-2.69-.7-5.66-2.18-7.73a6,6,0,0,0-2.4-2,9.3,9.3,0,0,0-3.79-.66h-1a1.89,1.89,0,0,0-1.28.33,1.78,1.78,0,0,0-.44,1,39.77,39.77,0,0,0-.65,4.45A52.46,52.46,0,0,0,63.72,68.5Z"/></g><g class="cls-5"><path class="cls-6" d="M1.33,40.14c.14.17.28.32.42.47l6.88,7c2,2,4,.46,6,2.49l.74.74.68.69c.16.16.31.32.48.47s.31.32.48.47l.48.47c.49.46,1,.91,1.5,1.34l.51.43.45.37.15.11q.2.16.39.3l.42.31.25.18.39.26.16.1.49.32.58.34c.16.09.31.18.48.26A36.93,36.93,0,0,0,30.51,60c1.27.37,2.56.72,3.82,1.12,1.61.51,3.2,1.08,4.76,1.73-1-1.5-2.07-3-3.19-4.38l-1-1.26c-.5-.6-1-1.21-1.52-1.82-.33-.4-.66-.82-1-1.23a14.23,14.23,0,0,1-2.5-4.62c-.05-.18-.1-.36-.14-.53-.25-1-.39,1.55-.76.57a1.8,1.8,0,0,0-.08-.21h0a9.39,9.39,0,0,0-5.54-4.86,15.49,15.49,0,0,0-2.86-.82,42.22,42.22,0,0,0-4.5-.56,36.81,36.81,0,0,1-6.19-.9l-.41-.11C6.75,41.38,3.9,40.12,1.33,40.14Z"/></g><g class="cls-5"><path class="cls-6" d="M14.21,47.14c1.78,3,3.62,2.25,5.54,5.11q1.7,2.53,3.47,5A36.93,36.93,0,0,0,30.51,60c-.11-.22-.22-.43-.32-.65-.6-1.24-1.14-2.52-1.69-3.8-1.74-4.1-3.48-4.6-6.77-7.51a14.77,14.77,0,0,0-6.64-3.33,1.48,1.48,0,0,0-.78,0C13.42,45,13.73,46.34,14.21,47.14Z"/></g><g class="cls-5"><path class="cls-6" d="M72.64,59.18q0,1,0,2A6.45,6.45,0,0,0,72.64,59.18Z"/></g><g class="cls-5"><path class="cls-6" d="M0,37.25a4.57,4.57,0,0,0,1.33,2.89c.14.17.28.32.42.47l6.88,7c2,2,4,.46,6,2.49l.74.74.68.69c.16.16.31.32.48.47s.31.32.48.47l.48.47c.49.46,1,.91,1.5,1.34l.51.43.45.37.15.11q.2.16.39.3l.42.31.25.18.39.26.16.1.49.32.58.34c.16.09.31.18.48.26A36.93,36.93,0,0,0,30.51,60c1.27.37,2.56.72,3.82,1.12,1.61.51,3.2,1.08,4.76,1.73,2.31.94,4.55,3.23,6.73,4.46a17.13,17.13,0,0,0,4.75,2.17,11,11,0,0,0,3.48.08c2.45-.26,4.92,1.47,7.3,2a7.86,7.86,0,0,1,2.7,1.21c2.39,1.65,4.08,4.48,5.53,7.12.13.23.26.46.38.69l.61,1.12c.65,1.2,1.29,2.41,1.91,3.63.21.41.42.82.62,1.24s.39.82.59,1.24c.1.21.19.41.28.62s.13.27.18.4l0,0c.06.13.12.25.17.38l.27.64,0,0c.11.28.23.56.34.85l0,.09.33.86c.06.17.13.33.18.5s.16.42.23.64.15.42.22.64c.14.43.27.86.4,1.3l.18.65.06.23c0,.15.07.3.11.45l.07.28.09.39.06.28.09.41c0,.13,0,.25.07.38s0,.07,0,.1v0c.05.24.09.48.13.72s0,.19,0,.29l0,.26.06.47a.07.07,0,0,0,0,0l.06.6,0,.36c0,.16,0,.32,0,.48a2.35,2.35,0,0,1,0,.26.41.41,0,0,1,0,.11c0,.16,0,.32,0,.48a4.21,4.21,0,0,0,.73,2.83,2.67,2.67,0,0,0,1.31.71c.51.14,1,.2,1.56.31,3.3.73,5.71,3.67,6.93,6.82,1,2.57,2.94,10,4,14.43v0c.24,1,.42,1.83.55,2.44.18.89.5,1.92,1.36,2.24a2.8,2.8,0,0,0,1.12.1c3.74-.16,6.51-3.24,9.56-5.46a10,10,0,0,1,5.47-2.28,2.36,2.36,0,0,0,2.59-1.63A85.42,85.42,0,0,0,119,106.33c.15-.54.3-1.08.43-1.63a83.68,83.68,0,0,0,1.73-8.87,4.08,4.08,0,0,1,1-2.6c1-.88,2.59-.48,3.93-.7A4.37,4.37,0,0,0,129,90.7a6.58,6.58,0,0,0,.49-.76,13.4,13.4,0,0,0,1.36-4.22,34.5,34.5,0,0,0,2-7.18,4.53,4.53,0,0,1,3-2.16,8.5,8.5,0,0,1,1.13-.13,3.37,3.37,0,0,0,1.63-.44,3.76,3.76,0,0,0,1.23-1.69c1-2.17,2-4.38,2.88-6.61a128,128,0,0,0,5.11-15.36h0c.29-1.11.56-2.21.82-3.31l.48-5V43.7c-7.47-4.36-14.94-8.72-22.51-12.92a27.37,27.37,0,0,0-8.45-3.48c4.42,6.56,12.16,10.62,19.42,14.21l-17.1,8.67-2.38,1.2c4.06.42,8-.69,11.92-2C135,47.65,140.06,45.59,145.3,46a2.78,2.78,0,0,1,1.84.65c1.1,1.16-.15,3-1.22,4.14a24.83,24.83,0,0,0-2.85,3.92c-.51.85-1,1.73-1.42,2.63-1.82,3.74-3.14,7.83-4.74,11.69h0A36.7,36.7,0,0,1,133,76.46a20,20,0,0,1-3.84,4.07l-3.65-2.92c.35,4.9-2.94,9-5.66,13.22a33.55,33.55,0,0,0-1.89,3.26c-.13.27-.25.54-.37.81-1.88,4.21-2.44,8.89-3.52,13.41a39.15,39.15,0,0,1-1.35,4.52,26.53,26.53,0,0,1-5,8.13A27,27,0,0,1,94,129.3c-.44-7.92-1-16.15-4.65-23.15-.11-.22-.23-.43-.34-.64s-.25-.43-.37-.64c-.93-1.57-2-3.06-2.86-4.64a34.48,34.48,0,0,1-3.46-9.5,98.48,98.48,0,0,1-1.65-12.35Q80,83.69,79.26,89l-.42,3.13c-.59-1.4-1.14-2.82-1.65-4.25q-.42-1.22-.81-2.43a80.21,80.21,0,0,1-3.71-21.16q-.06-1.55-.06-3.09a7.13,7.13,0,0,1-1,2.52,10.34,10.34,0,0,1-6.3,4.51,13.07,13.07,0,0,1-1.62.28c-2.68.31-5.41-2.53-8.1-3.17-1-.23-1.92-.48-2.86-.73-4.37-1.17-8.73-3.54-13.1-4.71a14.4,14.4,0,0,1-3.76-1.4,5.81,5.81,0,0,1-1.32-1.05,6,6,0,0,1-1.22-2A10.16,10.16,0,0,1,33,54.3a16.52,16.52,0,0,0-1.34-4.52,5.34,5.34,0,0,0-1.43-2c-.06.59-.13,1.19-.19,1.78-.11,1-.22-1.55-.33-.51-.17,1.51-.33,3-.49,4.54L29,55.51l-.54.06c-3.19.23-6.21-1.2-8.75-3.32-.26-.22-.52-.44-.77-.68a23,23,0,0,1-2.7-3c-.94-1.23-1.79,1.08-2.63-.24A71.64,71.64,0,0,0,9.4,42.14a23.63,23.63,0,0,0-2-2.23A90.17,90.17,0,0,0,16,43.15a31.22,31.22,0,0,0,7.36,1.38,22.63,22.63,0,0,0,3.94-.15c6.27-.84,12.65-4.67,18.51-2.28,2.69,1.11,5.38,3.5,8.09,2.46l-.82-.44-3.51-1.86L41.2,37.82a9,9,0,0,0-4.11-1.37c-1.58,0-3,.87-4.52,1.31A17.9,17.9,0,0,1,26,38L14.47,37a35.26,35.26,0,0,1,5.94-3.56h0A26.09,26.09,0,0,1,35.85,31q1.07.18,2.1.45h0c2.19.54,4.33,1.27,6.55,1.69a30,30,0,0,0,11.82-.39h0c1-.22,2.05-.48,3.07-.77q-3.3-.25-6.6-.54A85.61,85.61,0,0,1,41.85,30,35.31,35.31,0,0,0,36,29a24.93,24.93,0,0,0-5.76.69L2.5,35.25a3.57,3.57,0,0,0-2.08.94A1.75,1.75,0,0,0,0,37.25Z"/></g><g class="cls-3"><path class="cls-4" d="M48,41.8l-.27-.09a44.89,44.89,0,0,0,5.4,2.41c.3.1.59.2.9.28,3.73,1.07,7.68.86,11.56,1.05A56.26,56.26,0,0,1,79.1,47.79a23.73,23.73,0,0,0,5.61,1.32c3.15.18,6.19-1.15,9.33-1.55,9.28-1.2,18.2,5.64,27.49,4.5a31.13,31.13,0,0,0,8.44-2.7l.2-.09c-2.84.24-5.72.88-8.57.92-9.51.14-18.25-6.29-27.75-5.89-4.94.21-9.86,2.27-14.7,1.27-2.58-.54-4.91-1.91-7.44-2.66C64.05,40.65,55.51,44.37,48,41.8Z"/></g><g class="cls-3"><path class="cls-4" d="M21.43,41.05l7.81,1.39a3.08,3.08,0,0,0,1.73,0,4.15,4.15,0,0,0,1.23-1.1c2.64-2.9,7.29-2.88,11-1.59l.61.23c-2.43-1.21-4.84-2.36-7.48-2.15a18.86,18.86,0,0,0-4.58,1.25A37.38,37.38,0,0,1,21.43,41.05Z"/></g><g class="cls-3"><path class="cls-4" d="M7.37,38.56c-.48-.79-.91-1.55-.4-2.22a2.19,2.19,0,0,1,1.39-.65c17.28-3.4,35.35-6.79,52.26-1.88a63.28,63.28,0,0,0,7.11,1.92,39.51,39.51,0,0,0,10.36-.14l12.7-1.28c8.88-.9,18.36-2.06,25.49-7.18a27.67,27.67,0,0,0-7.71,1.42,120.9,120.9,0,0,1-28,4.16A193.6,193.6,0,0,1,59.4,32q-3.3-.25-6.6-.54A85.61,85.61,0,0,1,41.85,30,35.31,35.31,0,0,0,36,29a24.93,24.93,0,0,0-5.76.69L2.5,35.25a3.57,3.57,0,0,0-2.08.94A1.75,1.75,0,0,0,0,37.25Z"/></g><path class="cls-7" d="M95.59,27.85c-1.13-3.52-.83-14.26-.62-14.47s3-1.84,3-1.84,1.88-8.47,2.29-8.88,7.25-3.13,8-2.51a42.69,42.69,0,0,1,3.9,6.46c.21.62,8.11,1,8.72.21a38.55,38.55,0,0,1,4-4.11,33.36,33.36,0,0,1,5.43-1.43c.62,0,3,4.1,5.44,8.92,4.87,9.53,2.27,19,1.85,21-.09.42.2,2.57-.62,3.49s-13.11,6.11-14.3,6.54c-.41-.72-14.53-4.9-14.73-5.2S96.41,30.41,95.59,27.85Z"/><path class="cls-8" d="M108.12,36.07c.13-.38.95-1.77,1.38-3,.12-.36.41-1,.56-1.35a11.1,11.1,0,0,1,2-3.35,14.93,14.93,0,0,1,3.1-2.24,7,7,0,0,0,1.35-.86,2.93,2.93,0,0,0,.52-2.07,34.22,34.22,0,0,1,1.52-8.69c.41-1.46,1.19-2.78,1.64-4.22a15.74,15.74,0,0,0,.68-3.57l-.07.09c-.61.82-7.81-.19-8.72-.21,0,0,0,0,0,0-1.1.62-3.87,1.9-5,2.37a10.55,10.55,0,0,0-.74,2.9,42.59,42.59,0,0,1-1,5.88c-.24,1.34-.49,2.69-.74,4a23.82,23.82,0,0,1-.71,3.89c-.36,1-.56,2.75-1,3.68s-.31,3-1.39,3.18a20.57,20.57,0,0,1-5.08-3.56c-2.78-3-4,2.27-3.71,3.56-1.74.25-4.11,3.05-1.17,5.59,9.16,7.9,27.12,4.38,28.27,4,3-1,.82-1.89-1.47-2.69C114,37.84,108.12,36.07,108.12,36.07Z"/><path class="cls-9" d="M120.82,6.76c-.61.82-7.81-.19-8.72-.21,0,0,0,0,0,0-1.1.62-3.87,1.9-5,2.37v0c0,.12-.25.64-.44,1.28a1.62,1.62,0,0,1,.85-.2.3.3,0,0,1,.1.09c.07.1,0,.24,0,.39a4.51,4.51,0,0,1-.46,1.22,4.77,4.77,0,0,0-.43,2.19,10.08,10.08,0,0,1-.35,2.94c-.31,1.56-.6,3.13-.95,4.68-.29,1.34-.65,2.67-.84,4a12.11,12.11,0,0,1-.64,2.64c-.29.78-.32,1.55-.6,2.33-.14.4-.31.79-.42,1.21a9,9,0,0,1-.13,1.21c.72-1.56,1.11-3.15,1.73-4.73a27.41,27.41,0,0,0,.92-2.78c.34-1.27.53-2.59.86-3.87a9.14,9.14,0,0,0,.47-2.49c0-1.62.81-3,1-4.62.07-.81.33-1.59.39-2.41a2,2,0,0,1,.63-1.43c.21.56-.1,1.24-.14,1.81.15-.38.41-1.18.77-1.41a9.28,9.28,0,0,1-.46,2.95c-.24.87-.43,1.76-.6,2.64a10.21,10.21,0,0,0-.39,1.66c.41-.22.48-.37.58-.85.2-.95.33-1.89.6-2.82.21-.72.59-1.38.79-2.1.13-.47.11-.84.48-1.21a29,29,0,0,1-.59,3.06c-.29,1.41-.37,2.86-.74,4.25s-1.42,2.44-1.86,3.84c-.62,1.95-1.09,3.95-1.6,5.94-.23.89-.42,1.74-.58,2.63a22,22,0,0,0-.69,2.77c0-1.07,1.17-2.45,1.56-3.46s.43-2.23.88-3.35a30.69,30.69,0,0,0,1.1-3.49c.14-.54.31-1.05.42-1.59.05-.24.06-.56.28-.67.39,1.15-.48,2.71-.68,3.83a61.34,61.34,0,0,0,2.59-7.94c.3-1.23.56-2.47.85-3.7,0-.22.28-1.84.56-1.9s-.41,5.13-.48,5.53c-.5,2.61-1.14,5.19-1.84,7.76-.33,1.24-.82,2.51-1,3.77a11.83,11.83,0,0,1-.77,3.14A19.71,19.71,0,0,1,109.46,28c-.54.89-.47,2.6-.77,3.62-.38,1.29-.89,2.54-1.23,3.85A27.75,27.75,0,0,0,109.24,31c.52-1.43,1.12-2.85,1.59-4.31.75-2.38,2.14-4.58,2.61-7a33,33,0,0,1,1-4,10.65,10.65,0,0,0,.69-2.32,17.86,17.86,0,0,1-.19,2.91,39.53,39.53,0,0,1-.67,5.42c-.25,1.18-.39,2.39-.65,3.57a17.65,17.65,0,0,1-.57,2.25c.68-.52,1.44-1,2.16-1.41l.12-.07c.12-.53.25-1.05.32-1.59.38-2.68.55-5.33,1-8A19.67,19.67,0,0,1,118,12c.22-.49.27-.44.59,0,.11.15.38.73.64.68l0,0c.34-.79.7-1.57,1-2.39a15.74,15.74,0,0,0,.68-3.57Z"/><path class="cls-10" d="M107,8.88c1.47-.55,5.08-2.28,5.06-2.33A43.19,43.19,0,0,0,108.2.09c-.71-.62-7.55,2.1-8,2.51A12.43,12.43,0,0,1,107,8.88Z"/><path class="cls-10" d="M135.7,10.14c-2.46-4.82-4.82-8.92-5.44-8.92a34.72,34.72,0,0,0-4.85,1.21c.44,2.24.75,4.52,1.36,6.72a21.47,21.47,0,0,1,1.08,5.66c0,1.87-.8,3.46-1.36,5.21s-1.23,3.53-1.83,5.3a27,27,0,0,0-1.19,5.77c-.37,3.31-.15,5.58-.59,8.9a2.32,2.32,0,0,0-.2,1.22c1.24-.65,13.43-5.62,14.25-6.55s.38-2.35.52-3.38c.25-1.9.67-3.84.81-5.77a20.1,20.1,0,0,0-.68-7.61,3.89,3.89,0,0,1-.05-1.32A14.29,14.29,0,0,0,135.7,10.14Z"/><path class="cls-11" d="M97.76,13.58a18.29,18.29,0,0,1,3.49,1A4.21,4.21,0,0,1,103,16.74a30.56,30.56,0,0,0,2,3.65c-.31-1.3-.91-2.53-1.2-3.85s-.28-3.09-1.43-4-2.86-.9-4.38-1.16v.08s-2,1.19-2.74,1.67A11.06,11.06,0,0,1,97.76,13.58Z"/><path class="cls-11" d="M116.84,25.34c.3-1.43.62-2.86,1-4.28A30.26,30.26,0,0,1,119,16.68c.55-1.34,1.2-2.65,1.64-4s.86-2.68,1.34-4a39.48,39.48,0,0,1,2.64-5.85h0a44.31,44.31,0,0,0-3.74,3.85,14.38,14.38,0,0,1-1.38,4.51,25.78,25.78,0,0,0-2,5.86,87,87,0,0,0-.89,9.11C116.73,25.85,116.79,25.6,116.84,25.34Z"/><path class="cls-11" d="M124.26,26.79c-2.84.08-4.82-.86-8.35,0s-7.84,9.38-7.84,9.38,2.24-6.46,4.05-8.44a16.11,16.11,0,0,1,5-3.27Z"/><path class="cls-12" d="M137.4,30.69c0-.23.11-.45.16-.68a12.08,12.08,0,0,1,.44-2.26,5.46,5.46,0,0,0-.74.34.13.13,0,0,1-.19-.14c.35-2.11,1.71-4.25.53-6.3a12.34,12.34,0,0,1-1.26-3c-.3-1.12-.49-2.27-.78-3.39-.47-1.85-1.93-3.17-3.26-4.43a17.11,17.11,0,0,1-2.53-2.79,66.09,66.09,0,0,1,2.55,10.52,11.35,11.35,0,0,1-.53,5c-.54,1.72-1.29,3.39-1.66,5.16-.18.89-.25,1.79-.43,2.68-.09.45-.18,1.17-.57,1.47a.61.61,0,0,1-.31.13,2.55,2.55,0,0,0-.88.66,2.25,2.25,0,0,0-1,2.36,5.21,5.21,0,0,1,.35,1.45,2.64,2.64,0,0,1-.71,1.47c-1,1.18-2.28,1.31-4,2.19.19.1,13.48-5.61,14.3-6.53a3.34,3.34,0,0,0,.46-2.28,5.47,5.47,0,0,1-.12-1A4.42,4.42,0,0,1,137.4,30.69Z"/><path class="cls-12" d="M108.69.69c0,.35.1.7.17,1.06a8.29,8.29,0,0,1,.27,3.05,6.28,6.28,0,0,1-2.36,3.52c.09.19.19.37.27.56,1.47-.55,5.08-2.28,5.06-2.33A53.39,53.39,0,0,0,108.69.69Z"/><path class="cls-13" d="M111,10.35c.09.08.11.25.06.55a11.94,11.94,0,0,0-.3,1.79c.66-.63.67-1.49,1.38-2,.24-.19.64-.65.93-.2.19.29-.11.82.07,1.2.22-.44.59-.5.79-.05A4.25,4.25,0,0,1,114,13c0,.27-.16,1.28.37,1,.36-.2.28-1.21.32-1.55s.17-1.3.7-1.46a1,1,0,0,1,1,.36c.11.25-.13,1.16.44.81s.16-.93.76-1.12c.94-.29,1.81.2,2.35-.87a9.83,9.83,0,0,0,1-3.48s0,.08-.07.09C120,7,113,6.57,112.1,6.55c0,0,0,0,0,0a14.61,14.61,0,0,0-2.86,1.11A7.05,7.05,0,0,0,107,8.9c.68.19.86,1,.8,1.59.28-.15.43-.84.76-.89l.55.25a.81.81,0,0,1,.13.59c.22,0,.93-.65,1,0C110.6,10.3,110.85,10.23,111,10.35Z"/><path class="cls-14" d="M112.41,9.13c-.54-.07-1,0-1.62-.06-.41,0-.78-.22-1.18-.27s-1.94-.35-1.94.13,1.39.33,1.66.36c1,.1,1.91.31,2.87.39a58.22,58.22,0,0,0,6.18.6c.26,0,1,.17,1.14,0,.61-.63-2.06-.77-2.27-.81a6.42,6.42,0,0,0-1-.19c-.31,0-.59.13-.9.14s-.61-.09-.91-.09a6.28,6.28,0,0,1-1.68-.1A2.83,2.83,0,0,0,112.41,9.13Z"/><path class="cls-9" d="M100.91,37c-4.75-1.89-6.38-4-3.89-4.84l-.26,0c-3.12.76-1.57,3,3.44,5s11.6,3,14.71,2.23l.45-.13C112.15,39.91,105.79,38.91,100.91,37Z"/><path class="cls-9" d="M102,35.41c-2.37-.95-3.18-2-1.94-2.42l-.13,0c-1.56.38-.79,1.5,1.72,2.49S107.45,37,109,36.61l.23-.06A15.76,15.76,0,0,1,102,35.41Z"/><path class="cls-9" d="M98.65,38.68C93,36.44,91.08,34,94,32.93H94c-3.69.9-1.86,3.55,4.09,5.91s13.76,3.55,17.45,2.65a4.83,4.83,0,0,0,.53-.16C112.32,42.21,104.56,41,98.65,38.68Z"/><g class="cls-15"><path class="cls-16" d="M95.63,13.27c.21-.2,3-1.77,3-1.77s1.75-8.14,2.16-8.55A26.29,26.29,0,0,1,108.2.09c-.71-.62-7.55,2.1-8,2.51S98,11.48,98,11.48s-2.77,1.64-3,1.85-.51,10.94.62,14.46C94.51,19.26,95.43,13.48,95.63,13.27Z"/></g><g class="cls-15"><path class="cls-16" d="M97.76,13.58a18.29,18.29,0,0,1,3.49,1A4.21,4.21,0,0,1,103,16.74a30.56,30.56,0,0,0,2,3.65c-.76-.35-1.73-1.83-2.31-3.2A3.39,3.39,0,0,0,101,15.12c-1.24-1-4.66-1.49-5.83-2A11.06,11.06,0,0,1,97.76,13.58Z"/></g><g class="cls-15"><path class="cls-16" d="M107.11,8.77a1.43,1.43,0,0,0-.25.58c-1.55-4.77-5.56-5.63-6.62-6.75A11.68,11.68,0,0,1,107.11,8.77Z"/></g><g class="cls-15"><path class="cls-16" d="M128.18,15.5c.26-3.69-1.49-6.28-2.38-13.2-.48.15-.35.07-.48.15A28.89,28.89,0,0,0,126,6.76a33.1,33.1,0,0,1,1.36,6.35,11.32,11.32,0,0,1-.26,4.14,64.64,64.64,0,0,1-2.4,6.67,30.25,30.25,0,0,0-1.6,7.06c-.17,1.92-.53,10.08-.45,10.22a36,36,0,0,0,1-6.85C124,24.25,127.86,20,128.18,15.5Z"/></g><g class="cls-15"><path class="cls-16" d="M115.57,26.12c-3.48.68-7.5,10.05-7.5,10.05s4.31-8.52,7.84-9.38,5.51.08,8.35,0C124.26,26.79,118.27,25.6,115.57,26.12Z"/></g><path class="cls-17" d="M90.2,36.3c0,1.47-3,2.67-6.62,2.67S77,37.77,77,36.3s3-2.68,6.62-2.68S90.2,34.82,90.2,36.3Z"/><path class="cls-18" d="M84.33,32.28a3,3,0,1,1-3-3A3,3,0,0,1,84.33,32.28Z"/><path class="cls-18" d="M88.81,32.69a3,3,0,1,1-3-3A3,3,0,0,1,88.81,32.69Z"/><path class="cls-18" d="M88.77,35.22c0,1.64-2.41,3-5.38,3S78,36.86,78,35.22s2.41-3,5.38-3S88.77,33.59,88.77,35.22Z"/><path class="cls-19" d="M86.84,30.57c-1.31-3.08-5.41-2.9-6.3.69S81.71,38,85.06,37.5,88.17,33.69,86.84,30.57Z"/><path class="cls-18" d="M85.3,33a5.07,5.07,0,0,0-2.22-1.51,4.74,4.74,0,0,0-2.56-.18c-.85,3.55,1.22,6.68,4.54,6.15a3.32,3.32,0,0,0,1.85-.83A7.68,7.68,0,0,0,85.3,33Z"/><path class="cls-20" d="M83.9,32.87c-1.55-2-5.62-1.7-6.23.82s1.7,4.6,5,4.05S85.47,35,83.9,32.87Z"/><path class="cls-21" d="M83,32.76c-.44-1.73-4.72-1.59-5.32.93C77.34,35.1,83.67,35.46,83,32.76Z"/><path class="cls-21" d="M86.52,30a3.15,3.15,0,0,0-5.4-.07C80.06,31.7,87.32,31.18,86.52,30Z"/><path class="cls-19" d="M89.3,33c.85,1.28.13,3.24-1.6,4.37s-3.81,1-4.65-.26-.13-3.24,1.6-4.37S88.46,31.67,89.3,33Z"/><path class="cls-21" d="M89.25,33.05c.85,1.28-1.54,1.68-3,2-2.46.42-3.33-1.08-1.6-2.21S88.41,31.77,89.25,33.05Z"/><path class="cls-18" d="M87.92,36.16c-2,1.3-4.26,1.32-5.1,0A.94.94,0,0,1,82.7,36a2.07,2.07,0,0,0,.35,1.08c.84,1.28,2.92,1.4,4.65.26a4.17,4.17,0,0,0,1.94-2.83A6,6,0,0,1,87.92,36.16Z"/></g></g></g></svg>