<svg xmlns="http://www.w3.org/2000/svg" xmlns:xlink="http://www.w3.org/1999/xlink" viewBox="0 0 240.19 179.55"><defs><style>.cls-1{isolation:isolate;}.cls-2{fill:url(#radial-gradient);}.cls-3{opacity:0.6;mix-blend-mode:screen;}.cls-4{fill:#f1f2f2;}.cls-5,.cls-7{opacity:0.3;}.cls-5{mix-blend-mode:multiply;}.cls-6{fill:#1e2857;}.cls-7{fill:#404700;}.cls-8{fill:#6ba507;}.cls-9{fill:#6eb40d;}.cls-10{fill:#7bba0f;}.cls-11{fill:#82c114;}</style><radialGradient id="radial-gradient" cx="84.25" cy="31.79" r="107.89" gradientUnits="userSpaceOnUse"><stop offset="0" stop-color="#698a91"/><stop offset="0.24" stop-color="#698791"/><stop offset="0.44" stop-color="#697c91"/><stop offset="0.62" stop-color="#686b91"/><stop offset="0.8" stop-color="#675291"/><stop offset="0.97" stop-color="#663391"/><stop offset="1" stop-color="#662d91"/></radialGradient></defs><title>Asset 10</title><g class="cls-1"><g id="Layer_2" data-name="Layer 2"><g id="Layer_1-2" data-name="Layer 1"><path class="cls-2" d="M240.18,26.76c.08,1.54-1,3.27-2.13,4.65-.23.27-.46.52-.69.76L226.28,43.48q-4.8,4.92-9.61,9.82l-1.18,1.2-1.1,1.1-.77.77-.77.75-.78.75c-.79.75-1.59,1.47-2.41,2.17l-.83.69c-.24.2-.48.4-.73.59l-.23.19-.64.48-.67.49-.41.29c-.2.14-.41.29-.62.42a2.2,2.2,0,0,1-.25.17l-.8.51-.93.55c-.25.15-.51.29-.77.42A60.28,60.28,0,0,1,191,69.25c-2.07.59-4.13,1.17-6.17,1.81-2.6.82-5.16,1.74-7.67,2.78a94.86,94.86,0,0,0-10.83,5.26c-2.45,1.39-4.9,2.9-7.66,3.49a17.65,17.65,0,0,1-5.62.13c-3.94-.42-7.92-1.5-11.76-.6a12.8,12.8,0,0,0-4.33,2c-3.87,2.66-6.59,7.22-8.92,11.47l-.62,1.12-1,1.79c-1,1.94-2.09,3.89-3.09,5.86-.33.66-.67,1.32-1,2s-.64,1.33-1,2c-.16.33-.31.67-.46,1s-.2.42-.29.64l0,.06-.27.62c-.15.34-.3.69-.44,1l0,.08c-.19.45-.37.91-.55,1.36l-.06.15c-.19.47-.36.93-.54,1.39-.1.27-.2.53-.29.79s-.25.69-.37,1-.23.69-.35,1c-.22.7-.44,1.39-.64,2.09-.1.35-.2.7-.29,1.05,0,.13-.07.25-.1.37l-.18.73-.11.46a6.21,6.21,0,0,0-.14.62c0,.15-.07.3-.11.45s-.09.44-.13.67-.08.4-.12.6l0,.16a.15.15,0,0,0,0,.07c-.08.38-.14.77-.2,1.16,0,.16,0,.31-.08.47l0,.42c0,.25-.07.5-.1.76a.22.22,0,0,0,0,.08c0,.32-.08.64-.1,1s0,.38-.06.58l-.06.77c0,.14,0,.28,0,.41s0,.12,0,.18q0,.39,0,.78c-.06,1.6-.07,3.38-1.18,4.56a4.22,4.22,0,0,1-2.11,1.13c-.81.23-1.69.33-2.51.51-5.32,1.17-9.21,5.91-11.17,11-1.62,4.14-4.73,16.1-6.41,23.25v0c-.38,1.6-.68,3-.88,3.93-.3,1.45-.81,3.09-2.2,3.62a4.55,4.55,0,0,1-1.81.16c-6-.25-10.48-5.22-15.39-8.8-2.69-2-5.52-3.53-8.82-3.67a5.08,5.08,0,0,1-2.62-.59,5,5,0,0,1-1.54-2A137.19,137.19,0,0,1,48.4,138.06c-.24-.88-.47-1.75-.69-2.63a138.68,138.68,0,0,1-2.79-14.29c-.21-1.52-.48-3.19-1.64-4.19-1.66-1.42-4.18-.77-6.33-1.13a7,7,0,0,1-4.55-2.95,12.5,12.5,0,0,1-.78-1.21,21.69,21.69,0,0,1-2.2-6.81c-.12-.67-.22-1.34-.3-2-.39-3.23-1.17-6.92-2.89-9.58a7.35,7.35,0,0,0-4.81-3.49,18.09,18.09,0,0,0-1.82-.2,5.57,5.57,0,0,1-2.63-.7,6.22,6.22,0,0,1-2-2.73c-1.65-3.5-3.2-7.06-4.65-10.65A207.41,207.41,0,0,1,2.12,50.76h0C1.65,49,1.21,47.21.79,45.42L0,37.32v-.17c12-7,24.08-14,36.28-20.82,4.31-2.39,8.8-4.8,13.62-5.6a18.66,18.66,0,0,1,2.37-.25l.57,0h0a17.16,17.16,0,0,1,1.9,0l.46,0,.15,0,.4,0h0l.15,0H56a2.4,2.4,0,0,1,.28,0c.46.06.91.13,1.36.21l.9.17.4.07.36.08,1.5.35,1.49.39.75.2,2.22.61a195.57,195.57,0,0,0,45.18,6.71,317.22,317.22,0,0,0,34-1.19c3.55-.28,7.09-.58,10.63-.88a137.62,137.62,0,0,0,17.65-2.27,54.84,54.84,0,0,1,9.4-1.69,39.83,39.83,0,0,1,9.27,1.11l44.72,9a5.67,5.67,0,0,1,3.36,1.51A2.85,2.85,0,0,1,240.18,26.76Z"/><g class="cls-3"><path class="cls-4" d="M240.18,26.76l-11.87,2.1h0l-22.65,4-12.59,2.23a4.86,4.86,0,0,1-2.78,0,6.29,6.29,0,0,1-2-1.77c-4.26-4.67-11.74-4.64-17.71-2.55q-.49.17-1,.36c-2.13.82-4.19,1.82-6.24,2.83a70.25,70.25,0,0,1-8.7,3.89c-.48.17-1,.32-1.46.46-6,1.71-12.38,1.38-18.62,1.69a91.13,91.13,0,0,0-21.85,3.77c-3,.9-5.93,2-9,2.13-5.09.28-10-1.85-15-2.51-15-1.93-29.32,9.1-44.3,7.25-4.75-.58-9.18-2.42-13.59-4.34l-.33-.14c-2.33-1-4.66-2-7-2.9C15.84,40.5,7.79,39.41,0,37.32v-.17c12-7,24.08-14,36.28-20.82,4.31-2.39,8.8-4.8,13.62-5.6a18.66,18.66,0,0,1,2.37-.25l.57,0h0c4.22-.09,8.35,1.17,12.42,2.28a195.57,195.57,0,0,0,45.18,6.71,317.22,317.22,0,0,0,34-1.19c3.55-.28,7.09-.58,10.63-.88a137.62,137.62,0,0,0,17.65-2.27,54.84,54.84,0,0,1,9.4-1.69,39.83,39.83,0,0,1,9.27,1.11l44.72,9a5.67,5.67,0,0,1,3.36,1.51A2.85,2.85,0,0,1,240.18,26.76Z"/></g><g class="cls-5"><path class="cls-6" d="M151.51,65.58a58.35,58.35,0,0,0-.94,10.29c0,.31,0,.62,0,.93,0,.15,0,.29,0,.42a7.9,7.9,0,0,0,.48,3,7.76,7.76,0,0,0,2,2.52c-3.94-.42-7.92-1.5-11.76-.6a12.8,12.8,0,0,0-4.33,2c-3.87,2.66-6.59,7.22-8.92,11.47l-.62,1.12-1,1.79c-1,1.94-2.09,3.89-3.09,5.86-.33.66-.67,1.32-1,2s-.64,1.33-1,2c-.16.33-.31.67-.46,1s-.2.43-.29.64l0,.06-.27.62c-.15.34-.3.69-.44,1l0,.08c-.19.45-.37.9-.55,1.36l-.06.15c-.19.47-.37.93-.54,1.39-.1.27-.2.53-.29.79s-.25.69-.37,1-.23.69-.35,1c-.22.7-.44,1.39-.64,2.09-.1.35-.2.7-.29,1.05,0,.13-.07.25-.1.37s-.13.49-.18.73l-.11.46a6.21,6.21,0,0,0-.14.62,3.69,3.69,0,0,0-.11.45c0,.22-.09.44-.13.67s-.09.4-.12.6l0,.16a.15.15,0,0,0,0,.07c-.08.39-.14.77-.2,1.16,0,.16,0,.31-.08.47s0,.28,0,.42-.07.5-.1.76a.22.22,0,0,0,0,.08c0,.32-.08.64-.1,1a5.42,5.42,0,0,0-.06.58l-.06.77c0,.14,0,.27,0,.41s0,.12,0,.18q0,.39,0,.78c-.06,1.6-.07,3.38-1.18,4.56a4.22,4.22,0,0,1-2.11,1.13c-.81.23-1.69.33-2.51.51-5.32,1.17-9.21,5.91-11.17,11-1.62,4.14-4.73,16.1-6.41,23.25,1.72-9.56,2.81-19.23,3.82-28.91l.52-5.12c.06-.54.11-1.07.17-1.6.61-6,1.24-12,2-17.91a232.44,232.44,0,0,1,4.19-23.76c.79-3.33,1.59-7.12-.37-9.91l-.09-.11a8.07,8.07,0,0,1-.73-1.1c-.61-1.33.1-2.86.72-4.18a66.13,66.13,0,0,0,3.49-9.89c2.54-8.86,4.48-18,11.33-23.81,3.18,1.86,7.25,1,10.66-.34A80.21,80.21,0,0,1,135.18,42a14.78,14.78,0,0,1,2.71-.54c1.22-.12,2.65.05,3.28,1.09a6.06,6.06,0,0,1,.44,2.56c.26,2.46,2.34,4.28,4.75,5a8,8,0,0,0,2.45.37c3.3,0,6.34-1.65,9.22-3.23a59.23,59.23,0,0,0-6.52,18.33Z"/></g><g class="cls-5"><path class="cls-6" d="M71.53,170.73c-2.69-2-5.52-3.53-8.82-3.67a5.08,5.08,0,0,1-2.62-.59,5,5,0,0,1-1.54-2A137.19,137.19,0,0,1,48.4,138.06c-.24-.88-.47-1.75-.69-2.63a138.68,138.68,0,0,1-2.79-14.29c-.21-1.52-.48-3.19-1.64-4.19-1.66-1.42-4.18-.77-6.33-1.13a7,7,0,0,1-4.55-2.95,12.5,12.5,0,0,1-.78-1.21,21.69,21.69,0,0,1-2.2-6.81,56.32,56.32,0,0,1-3.19-11.57,7.35,7.35,0,0,0-4.81-3.49,18.09,18.09,0,0,0-1.82-.2q-.83-3.36-1.63-6.71C17.5,81,17,79,16.57,77.1c-1.47-6-3-12-4.62-18-.32-1.18-.64-2.36-1-3.53Q9.74,51.25,8.39,47c-.64-2-.67-5.09,1.43-5.31a3.39,3.39,0,0,1,1.5.28l2.85,1,21.09,7.2c2.56.87,5.2,1.79,7.11,3.7a17.78,17.78,0,0,1,3.4,5.74q2.41,5.53,4.82,11.09a2.88,2.88,0,0,1,.13.31c2.46,5.66,4.91,11.4,6,17.48.06.35.12.69.17,1,1.23,8.3,0,16.79-.3,25.2-.07,2.41-.05,4.83.06,7.24a102.44,102.44,0,0,0,7.29,33.58q1.25,3.12,2.7,6.15A98.68,98.68,0,0,0,71.53,170.73Z"/></g><g class="cls-5"><path class="cls-6" d="M47.71,135.43a138.68,138.68,0,0,1-2.79-14.29c-.21-1.52-.48-3.19-1.64-4.19-1.66-1.42-4.18-.77-6.33-1.13a7,7,0,0,1-4.55-2.95c-.11-.32-.22-.64-.34-1,0,0,0,0,0-.08-.85-2.33-1.76-4.66-2.62-7a56.32,56.32,0,0,1-3.19-11.57c-.09-.69-.17-1.4-.22-2.1,0-.41-.05-.83-.06-1.24-.12-3.38.22-6.78.12-10.15a30.36,30.36,0,0,0-.31-3.56c-.8-5-3.31-10-4-15a16.69,16.69,0,0,1-.15-3.23,12.13,12.13,0,0,1,.43-2.72c4.13.61,6.5,4.9,8.25,8.7.21.47.43.94.65,1.41q3.44,7.5,6.88,15c.56,1.22,1.12,2.44,1.67,3.66,2.93,6.51,5.65,13.16,6.83,20.18a64.82,64.82,0,0,1,.8,8.8c0,.27,0,.54,0,.81.05,1.44.05,2.88.05,4.32,0,3.5-.07,7,.06,10.48Q47.38,132.07,47.71,135.43Z"/></g><g class="cls-5"><path class="cls-6" d="M137.51,77.11c-.09,2.32-.27,4.65-.51,7-3.87,2.66-6.59,7.22-8.92,11.47l-.62,1.12-1,1.79c-1,1.94-2.09,3.89-3.09,5.86-.33.66-.67,1.32-1,2s-.64,1.33-1,2c-.16.33-.31.67-.46,1s-.2.43-.29.64l0,.06-.27.62c-.15.34-.3.69-.44,1l0,.08c-.19.45-.37.9-.55,1.36l-.06.15c-.19.47-.37.93-.54,1.39-.1.27-.2.53-.29.79s-.25.69-.37,1-.23.69-.35,1c-.22.7-.44,1.39-.64,2.09-.1.35-.2.7-.29,1.05,0,.13-.07.25-.1.37s-.13.49-.18.73l-.11.46a6.21,6.21,0,0,0-.14.62,3.69,3.69,0,0,0-.11.45c0,.22-.09.44-.13.67s-.09.4-.12.6l0,.16a.15.15,0,0,0,0,.07c-.08.39-.14.77-.2,1.16,0,.16,0,.31-.08.47s0,.28,0,.42-.07.5-.1.76a.22.22,0,0,0,0,.08c0,.32-.08.64-.1,1a5.42,5.42,0,0,0-.06.58l-.06.77c0,.14,0,.27,0,.41s0,.12,0,.18q0,.39,0,.78c-.06,1.6-.07,3.38-1.18,4.56a4.22,4.22,0,0,1-2.11,1.13,70.34,70.34,0,0,0,3-8.39,54.42,54.42,0,0,0,1.48-7.59,118.1,118.1,0,0,0,.73-13.45c0-1.08,0-2.15,0-3.23,0-.36,0-.72,0-1.09q.17-14.64,1.15-29.24c0-.2,0-.39,0-.59.33-4.33,1.12-9.11,3.51-12.44a9.66,9.66,0,0,1,3.87-3.27,15,15,0,0,1,6.1-1.07h1.63a3,3,0,0,1,2.06.54,2.9,2.9,0,0,1,.72,1.64,65,65,0,0,1,1,7.16A80.29,80.29,0,0,1,137.51,77.11Z"/></g><g class="cls-5"><path class="cls-6" d="M238.05,31.41c-.23.27-.46.52-.69.76L226.28,43.48q-4.8,4.92-9.61,9.82l-1.18,1.2-1.1,1.1-.77.77-.77.75-.78.75c-.79.75-1.59,1.47-2.41,2.17l-.83.69c-.24.2-.48.4-.73.59l-.23.19-.64.48-.67.49-.41.29c-.2.14-.41.29-.62.42a2.2,2.2,0,0,1-.25.17l-.8.51-.93.55c-.25.15-.51.29-.77.42A60.28,60.28,0,0,1,191,69.25c-2.07.59-4.13,1.17-6.17,1.81-2.6.82-5.16,1.74-7.67,2.78q2.43-3.63,5.15-7c.53-.69,1.09-1.36,1.64-2,.81-1,1.64-2,2.45-2.94.53-.65,1.07-1.31,1.58-2a23.42,23.42,0,0,0,4-7.44c.08-.29.15-.57.22-.86a42.45,42.45,0,0,1,1.22-4.88c0-.12.09-.23.13-.34h0c1.57-3.77,5-6.31,8.93-7.84a25.42,25.42,0,0,1,4.61-1.32,72.86,72.86,0,0,1,7.25-.9,58.6,58.6,0,0,0,10-1.45l.66-.18C229.31,33.41,233.9,31.39,238.05,31.41Z"/></g><g class="cls-5"><path class="cls-6" d="M217.29,42.7c-2.87,4.74-5.84,9.43-8.92,14q-2.75,4.1-5.59,8.11A60.28,60.28,0,0,1,191,69.25l.51-1c1-2,1.83-4.06,2.71-6.13,2.81-6.59,5.62-13.21,10.92-17.89a23.46,23.46,0,0,1,10.69-5.36,2.35,2.35,0,0,1,1.26,0C218.56,39.26,218.07,41.4,217.29,42.7Z"/></g><g class="cls-5"><path class="cls-6" d="M123.16,62.08c0,1.08,0,2.16,0,3.24A9.77,9.77,0,0,1,123.16,62.08Z"/></g><g class="cls-5"><path class="cls-6" d="M240.18,26.76c.08,1.54-1,3.27-2.13,4.65-.23.27-.46.52-.69.76L226.28,43.48q-4.8,4.92-9.61,9.82l-1.18,1.2-1.1,1.1-.77.77-.77.75-.78.75c-.79.75-1.59,1.47-2.41,2.17l-.83.69c-.24.2-.48.4-.73.59l-.23.19-.64.48-.67.49-.41.29c-.2.14-.41.29-.62.42a2.2,2.2,0,0,1-.25.17l-.8.51-.93.55c-.25.15-.51.29-.77.42A60.28,60.28,0,0,1,191,69.25c-2.07.59-4.13,1.17-6.17,1.81-2.6.82-5.16,1.74-7.67,2.78a94.86,94.86,0,0,0-10.83,5.26c-2.45,1.39-4.9,2.9-7.66,3.49a17.65,17.65,0,0,1-5.62.13c-3.94-.42-7.92-1.5-11.76-.6a12.8,12.8,0,0,0-4.33,2c-3.87,2.66-6.59,7.22-8.92,11.47l-.62,1.12-1,1.79c-1,1.94-2.09,3.89-3.09,5.86-.33.66-.67,1.32-1,2s-.64,1.33-1,2c-.16.33-.31.67-.46,1s-.2.42-.29.64l0,.06-.27.62c-.15.34-.3.69-.44,1l0,.08c-.19.45-.37.91-.55,1.36l-.06.15c-.19.47-.36.93-.54,1.39-.1.27-.2.53-.29.79s-.25.69-.37,1-.23.69-.35,1c-.22.7-.44,1.39-.64,2.09-.1.35-.2.7-.29,1.05,0,.13-.07.25-.1.37l-.18.73-.11.46a6.21,6.21,0,0,0-.14.62c0,.15-.07.3-.11.45s-.09.44-.13.67-.08.4-.12.6l0,.16a.15.15,0,0,0,0,.07c-.08.38-.14.77-.2,1.16,0,.16,0,.31-.08.47l0,.42c0,.25-.07.5-.1.76a.22.22,0,0,0,0,.08c0,.32-.08.64-.1,1s0,.38-.06.58l-.06.77c0,.14,0,.28,0,.41s0,.12,0,.18q0,.39,0,.78c-.06,1.6-.07,3.38-1.18,4.56a4.22,4.22,0,0,1-2.11,1.13c-.81.23-1.69.33-2.51.51-5.32,1.17-9.21,5.91-11.17,11-1.62,4.14-4.73,16.1-6.41,23.25v0c-.38,1.6-.68,3-.88,3.93-.3,1.45-.81,3.09-2.2,3.62a4.55,4.55,0,0,1-1.81.16c-6-.25-10.48-5.22-15.39-8.8-2.69-2-5.52-3.53-8.82-3.67a5.08,5.08,0,0,1-2.62-.59,5,5,0,0,1-1.54-2A137.19,137.19,0,0,1,48.4,138.06c-.24-.88-.47-1.75-.69-2.63a138.68,138.68,0,0,1-2.79-14.29c-.21-1.52-.48-3.19-1.64-4.19-1.66-1.42-4.18-.77-6.33-1.13a7,7,0,0,1-4.55-2.95,12.5,12.5,0,0,1-.78-1.21,21.69,21.69,0,0,1-2.2-6.81,56.32,56.32,0,0,1-3.19-11.57,7.35,7.35,0,0,0-4.81-3.49,18.09,18.09,0,0,0-1.82-.2,5.57,5.57,0,0,1-2.63-.7,6.22,6.22,0,0,1-2-2.73c-1.65-3.5-3.2-7.06-4.65-10.65A207.41,207.41,0,0,1,2.12,50.76h0C1.65,49,1.21,47.21.79,45.42L0,37.32v-.17c12-7,24.08-14,36.28-20.82,4.31-2.39,8.8-4.8,13.62-5.6C42.77,21.3,30.3,27.84,18.59,33.62l27.57,14L50,49.52c-6.54.68-12.89-1.11-19.21-3.25-8.14-2.75-16.25-6.08-24.69-5.44a4.43,4.43,0,0,0-3,1c-1.77,1.86.24,4.77,2,6.67a39.87,39.87,0,0,1,4.59,6.31c.82,1.38,1.58,2.79,2.28,4.25,2.94,6,5.07,12.61,7.64,18.82h0a59.75,59.75,0,0,0,6.36,12,31.6,31.6,0,0,0,6.18,6.54L38,91.79c-.56,7.89,4.73,14.45,9.12,21.29a52.58,52.58,0,0,1,3,5.26c.22.43.42.86.61,1.3,3,6.79,3.93,14.33,5.67,21.61a59.17,59.17,0,0,0,2.18,7.28,42.22,42.22,0,0,0,8,13.09,43.66,43.66,0,0,0,22.06,13.45c.71-12.76,1.56-26,7.48-37.3l.57-1,.59-1c1.49-2.52,3.18-4.93,4.61-7.48a55.42,55.42,0,0,0,5.56-15.31A159.58,159.58,0,0,0,110.15,93q1.17,8.55,2.33,17.1c.22,1.67.45,3.35.68,5,1-2.26,1.84-4.54,2.65-6.85.46-1.3.9-2.61,1.32-3.92a128.6,128.6,0,0,0,6-34.09c.07-1.66.1-3.32.1-5a11.75,11.75,0,0,0,1.55,4.07,16.66,16.66,0,0,0,10.17,7.26,21,21,0,0,0,2.59.46,38,38,0,0,0,13.06-1.24c1.55-.36,3.09-.77,4.61-1.18l21.1-5.64a24.06,24.06,0,0,0,6.07-2.26,9.33,9.33,0,0,0,2.13-1.69,9.71,9.71,0,0,0,2-3.28A14.63,14.63,0,0,0,187,60c1-4.25.56-9.27,2.17-13.09a8.67,8.67,0,0,1,2.3-3.26c.1,1,.21,1.91.31,2.86.18,1.67.36,3.33.53,5,.27,2.43.53,4.88.79,7.32.11,1,.23,2.08.34,3.13a8.6,8.6,0,0,0,.86.08c5.14.38,10-1.92,14.11-5.34.42-.35.83-.71,1.23-1.09a37.13,37.13,0,0,0,4.35-4.8c1.51-2,2.89-4.08,4.25-6.19a114.07,114.07,0,0,1,6.84-10A36.91,36.91,0,0,1,228.3,31a139.82,139.82,0,0,1-13.89,5.23,50.3,50.3,0,0,1-11.86,2.22,35.59,35.59,0,0,1-6.35-.24c-10.1-1.35-20.39-7.52-29.82-3.66-4.34,1.77-8.67,5.63-13,4l1.33-.71,5.64-3,13.49-7.15c2.08-1.1,4.27-2.24,6.63-2.21,2.54,0,4.84,1.4,7.28,2.1,3.39,1,7,.7,10.53.39l18.63-1.61a57,57,0,0,0-9.57-5.73h0c-7.8-3.66-16.44-5.39-24.87-3.95-1.14.19-2.26.44-3.38.72h0c-3.53.88-7,2.06-10.56,2.72a47.91,47.91,0,0,1-19-.62h0c-1.65-.35-3.3-.77-4.94-1.23,3.55-.28,7.09-.58,10.63-.88a137.62,137.62,0,0,0,17.65-2.27,54.84,54.84,0,0,1,9.4-1.69,39.83,39.83,0,0,1,9.27,1.11l44.72,9a5.67,5.67,0,0,1,3.36,1.51A2.85,2.85,0,0,1,240.18,26.76Z"/></g><g class="cls-3"><path class="cls-4" d="M162.93,34.09l.44-.16a70.25,70.25,0,0,1-8.7,3.89c-.48.17-1,.32-1.46.46-6,1.71-12.38,1.38-18.62,1.69a91.13,91.13,0,0,0-21.85,3.77c-3,.9-5.93,2-9,2.13-5.09.28-10-1.85-15-2.51-15-1.93-29.32,9.1-44.3,7.25-4.75-.58-9.18-2.42-13.59-4.34l-.33-.14c4.58.38,9.22,1.41,13.82,1.48,15.32.23,29.4-10.13,44.71-9.49,8,.33,15.89,3.66,23.69,2,4.15-.86,7.9-3.07,12-4.27C137,32.24,150.75,38.23,162.93,34.09Z"/></g><g class="cls-3"><path class="cls-4" d="M205.66,32.88l-12.59,2.23a4.86,4.86,0,0,1-2.78,0,6.29,6.29,0,0,1-2-1.77c-4.26-4.67-11.74-4.64-17.71-2.55q-.49.17-1,.36c3.91-1.94,7.8-3.79,12.06-3.46a30.52,30.52,0,0,1,7.38,2A61.11,61.11,0,0,0,205.66,32.88Z"/></g><g class="cls-3"><path class="cls-4" d="M228.31,28.86c.78-1.27,1.46-2.49.64-3.57a3.57,3.57,0,0,0-2.24-1.05c-27.83-5.48-57-10.93-84.19-3a98,98,0,0,1-11.46,3.09c-5.5.91-11.14.35-16.69-.21L93.9,22C79.6,20.57,64.32,18.7,52.84,10.46c4.22-.09,8.35,1.17,12.42,2.28a195.57,195.57,0,0,0,45.18,6.71,317.22,317.22,0,0,0,34-1.19c3.55-.28,7.09-.58,10.63-.88a137.62,137.62,0,0,0,17.65-2.27,54.84,54.84,0,0,1,9.4-1.69,39.83,39.83,0,0,1,9.27,1.11l44.72,9a5.67,5.67,0,0,1,3.36,1.51,2.85,2.85,0,0,1,.67,1.71Z"/></g><path class="cls-7" d="M172.09,30.11c0,2-4,3.59-8.9,3.59s-8.9-1.61-8.9-3.59,4-3.59,8.9-3.59S172.09,28.13,172.09,30.11Z"/><circle class="cls-8" cx="160.21" cy="24.71" r="3.98"/><path class="cls-8" d="M170.22,25.26a4,4,0,1,1-4-4A4,4,0,0,1,170.22,25.26Z"/><path class="cls-8" d="M170.17,28.67c0,2.19-3.24,4-7.24,4s-7.24-1.78-7.24-4,3.24-4,7.24-4S170.17,26.47,170.17,28.67Z"/><path class="cls-9" d="M167.57,22.41c-1.76-4.14-7.27-3.9-8.48.93s1.58,9.1,6.09,8.39S169.35,26.61,167.57,22.41Z"/><path class="cls-8" d="M165.49,25.73a6.58,6.58,0,0,0-3-2,6.46,6.46,0,0,0-3.46-.24c-1.13,4.77,1.65,9,6.12,8.27a4.44,4.44,0,0,0,2.49-1.12A10.28,10.28,0,0,0,165.49,25.73Z"/><path class="cls-10" d="M163.62,25.51c-2.08-2.76-7.56-2.29-8.38,1.09s2.29,6.19,6.73,5.45S165.73,28.3,163.62,25.51Z"/><path class="cls-11" d="M162.39,25.36c-.58-2.33-6.35-2.15-7.15,1.24C154.79,28.5,163.31,29,162.39,25.36Z"/><path class="cls-11" d="M167.15,21.6a4.24,4.24,0,0,0-7.27-.09C158.45,23.93,168.21,23.23,167.15,21.6Z"/><path class="cls-9" d="M170.88,25.61c1.14,1.72.17,4.35-2.15,5.88s-5.13,1.37-6.26-.35-.17-4.36,2.16-5.89S169.75,23.88,170.88,25.61Z"/><path class="cls-11" d="M170.82,25.74c1.13,1.72-2.08,2.27-4.11,2.62-3.31.58-4.48-1.44-2.15-3S169.68,24,170.82,25.74Z"/><path class="cls-8" d="M169,29.93c-2.66,1.75-5.74,1.77-6.87.05a2.69,2.69,0,0,1-.16-.29,2.9,2.9,0,0,0,.47,1.45c1.13,1.72,3.93,1.88,6.26.35a5.62,5.62,0,0,0,2.6-3.81A8.1,8.1,0,0,1,169,29.93Z"/><ellipse class="cls-7" cx="151.01" cy="35.63" rx="10.41" ry="4.2"/><path class="cls-8" d="M152.18,29.33a4.65,4.65,0,1,1-4.65-4.65A4.65,4.65,0,0,1,152.18,29.33Z"/><path class="cls-8" d="M159.23,30a4.65,4.65,0,1,1-4.65-4.65A4.65,4.65,0,0,1,159.23,30Z"/><path class="cls-8" d="M159.17,34c0,2.56-3.79,4.65-8.46,4.65s-8.46-2.09-8.46-4.65,3.78-4.65,8.46-4.65S159.17,31.38,159.17,34Z"/><path class="cls-9" d="M156.13,26.64c-2-4.85-8.5-4.56-9.91,1.08s1.85,10.64,7.12,9.81S158.22,31.54,156.13,26.64Z"/><path class="cls-8" d="M153.7,30.52a7.6,7.6,0,0,0-3.48-2.37,7.36,7.36,0,0,0-4-.29c-1.33,5.58,1.92,10.49,7.15,9.67a5.13,5.13,0,0,0,2.9-1.31A11.88,11.88,0,0,0,153.7,30.52Z"/><path class="cls-10" d="M151.51,30.25c-2.43-3.22-8.83-2.67-9.79,1.29s2.67,7.22,7.87,6.37S154,33.52,151.51,30.25Z"/><path class="cls-11" d="M150.08,30.08c-.69-2.72-7.42-2.51-8.36,1.46C141.19,33.75,151.15,34.31,150.08,30.08Z"/><path class="cls-11" d="M155.64,25.69a5,5,0,0,0-8.5-.11C145.47,28.41,156.88,27.6,155.64,25.69Z"/><path class="cls-9" d="M160,30.37c1.32,2,.19,5.09-2.53,6.88s-6,1.6-7.31-.41-.2-5.1,2.52-6.88S158.68,28.36,160,30.37Z"/><path class="cls-11" d="M159.93,30.53c1.32,2-2.43,2.65-4.8,3.06-3.88.67-5.24-1.69-2.52-3.47S158.6,28.51,159.93,30.53Z"/><path class="cls-8" d="M157.83,35.43c-3.1,2-6.7,2.06-8,0a3.72,3.72,0,0,1-.19-.34,3.42,3.42,0,0,0,.55,1.7c1.32,2,4.6,2.19,7.31.41a6.58,6.58,0,0,0,3.05-4.45A9.56,9.56,0,0,1,157.83,35.43Z"/><ellipse class="cls-7" cx="60.02" cy="17.87" rx="14.99" ry="6.05"/><path class="cls-8" d="M61.7,8.78A6.7,6.7,0,1,1,55,2.09,6.69,6.69,0,0,1,61.7,8.78Z"/><path class="cls-8" d="M71.85,9.7A6.7,6.7,0,1,1,65.16,3,6.7,6.7,0,0,1,71.85,9.7Z"/><path class="cls-8" d="M71.77,15.44c0,3.69-5.46,6.69-12.19,6.69s-12.18-3-12.18-6.69,5.45-6.7,12.18-6.7S71.77,11.74,71.77,15.44Z"/><path class="cls-9" d="M67.4,4.91c-3-7-12.24-6.57-14.28,1.56S55.78,21.79,63.37,20.6,70.39,12,67.4,4.91Z"/><path class="cls-8" d="M63.9,10.5a11.13,11.13,0,0,0-5-3.42,10.73,10.73,0,0,0-5.81-.41c-1.91,8,2.76,15.11,10.29,13.93a7.47,7.47,0,0,0,4.19-1.89A17.29,17.29,0,0,0,63.9,10.5Z"/><path class="cls-10" d="M60.74,10.12C57.24,5.47,48,6.26,46.64,12S50.49,22.37,58,21.14,64.29,14.82,60.74,10.12Z"/><path class="cls-11" d="M58.68,9.87C57.69,6,48,6.25,46.64,12,45.88,15.16,60.21,16,58.68,9.87Z"/><path class="cls-11" d="M66.68,3.54A7.13,7.13,0,0,0,54.44,3.4C52.05,7.46,68.47,6.29,66.68,3.54Z"/><path class="cls-9" d="M73,10.28c1.91,2.9.28,7.34-3.63,9.91S60.71,22.5,58.8,19.6s-.28-7.34,3.64-9.91S71.07,7.39,73,10.28Z"/><path class="cls-11" d="M72.86,10.51c1.9,2.9-3.5,3.82-6.92,4.41-5.57,1-7.53-2.43-3.62-5S71,7.61,72.86,10.51Z"/><path class="cls-8" d="M69.84,17.57c-4.47,2.94-9.65,3-11.55.07a3.72,3.72,0,0,1-.27-.48,4.92,4.92,0,0,0,.78,2.44c1.91,2.9,6.63,3.16,10.54.59a9.41,9.41,0,0,0,4.38-6.41A13.51,13.51,0,0,1,69.84,17.57Z"/><path class="cls-7" d="M57,27.17c0,3.9-7.85,7.07-17.52,7.07S22,31.07,22,27.17s7.84-7.07,17.52-7.07S57,23.26,57,27.17Z"/><path class="cls-8" d="M41.49,16.55a7.83,7.83,0,1,1-7.83-7.83A7.83,7.83,0,0,1,41.49,16.55Z"/><circle class="cls-8" cx="45.52" cy="17.62" r="7.83"/><path class="cls-8" d="M53.25,24.32c0,4.33-6.37,7.83-14.24,7.83s-14.25-3.5-14.25-7.83S31.14,16.5,39,16.5,53.25,20,53.25,24.32Z"/><path class="cls-9" d="M48.14,12c-3.46-8.16-14.31-7.68-16.68,1.82s3.1,17.91,12,16.52S51.65,20.28,48.14,12Z"/><path class="cls-8" d="M44.05,18.55a13,13,0,0,0-5.86-4,12.64,12.64,0,0,0-6.79-.49c-2.23,9.41,3.23,17.67,12,16.29a8.71,8.71,0,0,0,4.89-2.21A20.22,20.22,0,0,0,44.05,18.55Z"/><path class="cls-10" d="M40.36,18.11c-4.09-5.43-14.86-4.51-16.49,2.16S28.38,32.43,37.12,31,44.51,23.6,40.36,18.11Z"/><path class="cls-11" d="M38,17.81c-1.15-4.58-12.5-4.22-14.08,2.46C23,24,39.75,24.94,38,17.81Z"/><path class="cls-11" d="M47.3,10.42A8.33,8.33,0,0,0,33,10.25C30.2,15,49.4,13.64,47.3,10.42Z"/><path class="cls-9" d="M54.66,18.3c2.23,3.39.33,8.58-4.25,11.58s-10.08,2.7-12.31-.69-.33-8.57,4.25-11.58S52.43,14.91,54.66,18.3Z"/><path class="cls-11" d="M54.53,18.57C56.76,22,50.44,23,46.44,23.73c-6.52,1.13-8.8-2.85-4.23-5.85S52.3,15.18,54.53,18.57Z"/><path class="cls-8" d="M51,26.82c-5.23,3.43-11.28,3.48-13.51.09a5.33,5.33,0,0,1-.31-.57,5.69,5.69,0,0,0,.92,2.85c2.23,3.39,7.74,3.7,12.31.69a11,11,0,0,0,5.13-7.49A16.15,16.15,0,0,1,51,26.82Z"/></g></g></g></svg>