<svg xmlns="http://www.w3.org/2000/svg" xmlns:xlink="http://www.w3.org/1999/xlink" viewBox="0 0 105.43 111.44"><defs><style>.cls-1{isolation:isolate;}.cls-2{fill:url(#radial-gradient);}.cls-3{opacity:0.6;mix-blend-mode:screen;}.cls-4{fill:#f1f2f2;}.cls-5,.cls-7{opacity:0.3;}.cls-5{mix-blend-mode:multiply;}.cls-6{fill:#1e2857;}.cls-7{fill:#404700;}.cls-8{fill:#6ba507;}.cls-9{fill:#6eb40d;}.cls-10{fill:#7bba0f;}.cls-11{fill:#82c114;}</style><radialGradient id="radial-gradient" cx="56.83" cy="16.77" r="82.05" gradientUnits="userSpaceOnUse"><stop offset="0" stop-color="#698a91"/><stop offset="0.24" stop-color="#698791"/><stop offset="0.44" stop-color="#697c91"/><stop offset="0.62" stop-color="#686b91"/><stop offset="0.8" stop-color="#675291"/><stop offset="0.97" stop-color="#663391"/><stop offset="1" stop-color="#662d91"/></radialGradient></defs><title>Asset 11</title><g class="cls-1"><g id="Layer_2" data-name="Layer 2"><g id="Layer_1-2" data-name="Layer 1"><path class="cls-2" d="M105.43,13.27c0,.5-.05,1-.08,1.5q-.57,11.34-1.83,22.62-1.12,10.14-2.82,20.2Q99.64,64,98.33,70.32a12.76,12.76,0,0,1-1.82,5.06h0s0,0,0,0a4.43,4.43,0,0,1-4.75,1.85c-1.16-.41-2.22-1.48-3.41-1.19a3.09,3.09,0,0,0-1.61,1.34c-6.3,8.6-8,20.2-14.14,28.67h0a27.38,27.38,0,0,1-3.22,3.69,4.75,4.75,0,0,1-3.29,1.65c-1.94-.09-3.08-2.15-3.86-3.93Q60,102.35,57.63,97.22q-3.84-8.43-7.87-16.75a4.34,4.34,0,0,0-1.89-2.3c-2-.86-3.79,1.36-5.44,2.75a9,9,0,0,1-5.85,2,11.68,11.68,0,0,1-5-1.15c-3.44-1.65-6-4.73-8-8a55.15,55.15,0,0,1-4.41-10c-1.52-4.35-2.77-8.83-4.44-13.13-.9-2.31-1.92-4.57-3-6.79A144.45,144.45,0,0,0,1.88,27.46c-1.35-2-2.66-4.77-1.32-6.58a3.31,3.31,0,0,1,.31-.36,5.48,5.48,0,0,1,1.84-1l35-14.08L38.83,5l3.28-1.3A47.89,47.89,0,0,1,55.79.08a34,34,0,0,1,6.54.19C67.71.93,73,2.68,78.17,4.43l21.58,7.26Z"/><g class="cls-3"><path class="cls-4" d="M105.43,13.27c0,.5-.05,1-.08,1.5-7.6,1.76-16,1.51-23.26,4.66-3.39,1.48-6.42,3.67-9.6,5.56-.9.54-1.82,1.05-2.76,1.51-4.25,2.1-9.52,3.13-13.66.8-3-1.68-5.1-4.95-8.27-5.9a6.55,6.55,0,0,0-.9-.21l-1.32,5.69v.06h0A17.53,17.53,0,0,0,31,31.23c-1,.93-2.07,2.06-3.46,2.12a5,5,0,0,1-2.37-.69l-9.9-4.73-14.71-7a3.31,3.31,0,0,1,.31-.36,5.48,5.48,0,0,1,1.84-1l35-14.08L38.83,5l3.28-1.3A47.89,47.89,0,0,1,55.79.08a34,34,0,0,1,6.54.19C67.71.93,73,2.68,78.17,4.43l21.58,7.26Z"/></g><g class="cls-5"><path class="cls-6" d="M57.63,97.22q-3.84-8.43-7.87-16.75a4.34,4.34,0,0,0-1.89-2.3c-2-.86-3.79,1.36-5.44,2.75a9,9,0,0,1-5.85,2q.15-1.8.24-3.6c0-.59.07-1.19.09-1.78a159.24,159.24,0,0,0-.24-19.17c-.34-4.78-.9-9.59-.24-14.33a22,22,0,0,1,2.24-7.17A14.76,14.76,0,0,1,43,31.69c2.26-1.63,5.48-2.44,7.8-.89,1.85,1.23,2.56,3.57,3.08,5.73A119.81,119.81,0,0,1,57,60.09c.25,7,0,14,0,21A139.83,139.83,0,0,0,57.63,97.22Z"/></g><g class="cls-5"><path class="cls-6" d="M96.51,75.38h0s0,0,0,0a4.43,4.43,0,0,1-4.75,1.85c-1.16-.41-2.22-1.48-3.41-1.19a3.09,3.09,0,0,0-1.61,1.34c-6.3,8.6-8,20.2-14.14,28.67l.06-.49c1.76-15.08,2.56-30.29,4.59-45.3a193.31,193.31,0,0,1,4-21.3c1.26-5,2.9-10.22,6.44-14a21.11,21.11,0,0,1,1.18,2.5C90.9,32.74,91,38.7,91.39,44.42a158.43,158.43,0,0,0,4.45,28.39C96.05,73.67,96.28,74.52,96.51,75.38Z"/></g><g class="cls-5"><path class="cls-6" d="M105.43,13.27c0,.5-.05,1-.08,1.5q-.57,11.34-1.83,22.62-1.12,10.14-2.82,20.2Q99.64,64,98.33,70.32a12.76,12.76,0,0,1-1.82,5.06h0s0,0,0,0a4.43,4.43,0,0,1-4.75,1.85c-1.16-.41-2.22-1.48-3.41-1.19a3.09,3.09,0,0,0-1.61,1.34c-6.3,8.6-8,20.2-14.14,28.67h0a27.38,27.38,0,0,1-3.22,3.69,4.75,4.75,0,0,1-3.29,1.65c-1.94-.09-3.08-2.15-3.86-3.93Q60,102.35,57.63,97.22q-3.84-8.43-7.87-16.75a4.34,4.34,0,0,0-1.89-2.3c-2-.86-3.79,1.36-5.44,2.75a9,9,0,0,1-5.85,2,11.68,11.68,0,0,1-5-1.15c-3.44-1.65-6-4.73-8-8a55.15,55.15,0,0,1-4.41-10c-1.52-4.35-2.77-8.83-4.44-13.13-.9-2.31-1.92-4.57-3-6.79A144.45,144.45,0,0,0,1.88,27.46c-1.35-2-2.66-4.77-1.32-6.58a3.31,3.31,0,0,1,.31-.36,5.48,5.48,0,0,1,1.84-1l35-14.08L38.83,5l3.28-1.3A16.75,16.75,0,0,1,40.47,5h0a31,31,0,0,1-6.36,3.35L15,16.11c-.76.3-1.63.77-1.7,1.58a2.24,2.24,0,0,0,.86,1.6l6,6.13c1.24,1.26,2.58,2.58,4.3,3a8.85,8.85,0,0,0,4.76-.73,76.28,76.28,0,0,0,15.65-7.88h0c.82-.54,1.64-1.1,2.44-1.68a7,7,0,0,1,.51,3.31A10.07,10.07,0,0,1,46,26.26a7,7,0,0,1-.45.62.1.1,0,0,1,0,.05,28.35,28.35,0,0,1-5.77,5.2c-4,3-8.74,6.2-13.7,5.26-4.07-.77-7.27-4.22-11.35-4.92-2.72,3.67-1.44,8.67.32,13,.2.51.42,1,.63,1.49q3.71,8.48,7.4,16.93c.14.34.29.66.44,1,1.53,3.46,3.22,6.93,6,9.47a11.64,11.64,0,0,0,7.4,3.12,7.82,7.82,0,0,0,4-.94c3.94-2.2,5-7.23,5-11.85,0-.43,0-.86,0-1.28-.08-3.21-.3-6.66.42-9.73a11,11,0,0,1,2.13-4.51A13,13,0,0,1,50,51.53c2.38,4.52,2.11,10.16,2.42,15.65a27.18,27.18,0,0,0,1.81,9.3,28.83,28.83,0,0,0,2.69,4.62,34.28,34.28,0,0,1,3.42,5.76c1.31,3.09,1.57,6.5,2.47,9.72s2.71,6.52,5.82,7.75A148.93,148.93,0,0,0,73,73c.15-4.61.51-10,4.22-12.65l.39-.25L81.27,76.2c.15.64.38,1.39,1,1.59,1.07.35,1.73-1.14,1.86-2.26l2-17.35c.14-1.23.29-2.46.44-3.7a21.84,21.84,0,0,0,.31,3.62,23.44,23.44,0,0,0,8.91,14.71l.09.07c2.82-4.56,3.47-10.06,3.7-15.47,0-.72.05-1.45.07-2.17.14-4.87.2-9.75.16-14.61Q99.79,30.8,99.25,21a5.54,5.54,0,0,0-.76-3c-1.53-2.1-4.81-1.13-7.12,0L80,23.75c-2.35,1.19-5.22,2.36-7.51,1.24a2.94,2.94,0,0,1-.46-.25A27.39,27.39,0,0,0,81.11,17a26.66,26.66,0,0,0,2.8-4.63Q77.28,8,70.29,4.29h0c-2.62-1.41-5.27-2.74-8-4C67.71.93,73,2.68,78.17,4.43l21.58,7.26Z"/></g><g class="cls-3"><path class="cls-4" d="M105.43,13.27c0,.5-.05,1-.08,1.5-7.6,1.76-16,1.51-23.26,4.66-3.39,1.48-6.42,3.67-9.6,5.56-.9.54-1.82,1.05-2.76,1.51-4.25,2.1-9.52,3.13-13.66.8-3-1.68-5.1-4.95-8.27-5.9a6.55,6.55,0,0,0-.9-.21l-1.32,5.69v.06h0A17.53,17.53,0,0,0,31,31.23c-1,.93-2.07,2.06-3.46,2.12a5,5,0,0,1-2.37-.69l-9.9-4.73v-.39a20.85,20.85,0,0,0,16.56,1.38,34.53,34.53,0,0,0,7.92-4.24c2.45-1.64,5-3.61,5.68-6.48a3,3,0,0,1,.6-1.51c.85-.83,2.24-.08,3.13.67,3.64,3.06,7.56,6.41,12.3,6.58,3,.1,5.82-1.09,8.56-2.25l22-9.36a1.41,1.41,0,0,0,.82-.62c.21-.47-.13-1-.5-1.35a10.51,10.51,0,0,0-4.91-2.09L73.37,5A72.17,72.17,0,0,0,62.21,3c-5.49-.42-11,.39-16.42,1.21L37.72,5.4,38.83,5l3.28-1.3A47.89,47.89,0,0,1,55.79.08a34,34,0,0,1,6.54.19C67.71.93,73,2.68,78.17,4.43l21.58,7.26Z"/></g><path class="cls-7" d="M32.94,16.08c0,2-4,3.6-8.9,3.6s-8.9-1.61-8.9-3.6,4-3.59,8.9-3.59S32.94,14.1,32.94,16.08Z"/><circle class="cls-8" cx="21.06" cy="10.69" r="3.98"/><path class="cls-8" d="M31.07,11.23a4,4,0,1,1-4-4A4,4,0,0,1,31.07,11.23Z"/><path class="cls-8" d="M31,14.64c0,2.2-3.24,4-7.24,4s-7.24-1.78-7.24-4,3.24-4,7.24-4S31,12.44,31,14.64Z"/><path class="cls-9" d="M28.42,8.39c-1.76-4.15-7.27-3.9-8.48.92s1.58,9.1,6.09,8.4S30.2,12.58,28.42,8.39Z"/><path class="cls-8" d="M26.34,11.71a6.5,6.5,0,0,0-3-2,6.33,6.33,0,0,0-3.45-.25c-1.14,4.78,1.64,9,6.11,8.28a4.48,4.48,0,0,0,2.49-1.13A10.25,10.25,0,0,0,26.34,11.71Z"/><path class="cls-10" d="M24.47,11.48c-2.08-2.76-7.56-2.29-8.38,1.1s2.29,6.18,6.73,5.45S26.58,14.27,24.47,11.48Z"/><path class="cls-11" d="M23.24,11.33c-.58-2.33-6.35-2.15-7.15,1.25C15.64,14.47,24.16,15,23.24,11.33Z"/><path class="cls-11" d="M28,7.57a4.23,4.23,0,0,0-7.27-.08C19.3,9.9,29.06,9.21,28,7.57Z"/><path class="cls-9" d="M31.74,11.58c1.13,1.72.16,4.36-2.16,5.88s-5.13,1.37-6.26-.35-.17-4.35,2.16-5.88S30.6,9.86,31.74,11.58Z"/><path class="cls-11" d="M31.67,11.71c1.13,1.73-2.08,2.27-4.11,2.62-3.31.58-4.47-1.44-2.15-3S30.54,10,31.67,11.71Z"/><path class="cls-8" d="M29.88,15.9c-2.66,1.75-5.74,1.77-6.87,0a2.69,2.69,0,0,1-.16-.29,2.87,2.87,0,0,0,.47,1.45c1.13,1.72,3.93,1.88,6.26.35a5.59,5.59,0,0,0,2.6-3.8A8.08,8.08,0,0,1,29.88,15.9Z"/><ellipse class="cls-7" cx="11.86" cy="21.61" rx="10.41" ry="4.2"/><path class="cls-8" d="M13,15.3a4.65,4.65,0,1,1-4.65-4.65A4.65,4.65,0,0,1,13,15.3Z"/><path class="cls-8" d="M20.08,15.93a4.65,4.65,0,1,1-4.65-4.65A4.65,4.65,0,0,1,20.08,15.93Z"/><path class="cls-8" d="M20,19.92c0,2.57-3.79,4.65-8.46,4.65S3.1,22.49,3.1,19.92s3.79-4.65,8.46-4.65S20,17.35,20,19.92Z"/><path class="cls-9" d="M17,12.61c-2.05-4.85-8.49-4.56-9.91,1.08s1.85,10.64,7.12,9.82S19.07,17.52,17,12.61Z"/><path class="cls-8" d="M14.56,16.49a7.86,7.86,0,0,0-3.48-2.37,7.5,7.5,0,0,0-4-.29C5.72,19.42,9,24.33,14.19,23.51a5.27,5.27,0,0,0,2.91-1.32A12.12,12.12,0,0,0,14.56,16.49Z"/><path class="cls-10" d="M12.36,16.23C9.93,13,3.53,13.55,2.57,17.51s2.67,7.23,7.87,6.37S14.83,19.49,12.36,16.23Z"/><path class="cls-11" d="M10.93,16.05c-.69-2.72-7.42-2.51-8.36,1.46C2,19.73,12,20.29,10.93,16.05Z"/><path class="cls-11" d="M16.49,11.66a5,5,0,0,0-8.5-.1C6.32,14.38,17.73,13.57,16.49,11.66Z"/><path class="cls-9" d="M20.86,16.34c1.32,2,.19,5.1-2.53,6.88s-6,1.6-7.31-.41-.2-5.09,2.52-6.88S19.53,14.33,20.86,16.34Z"/><path class="cls-11" d="M20.78,16.5c1.32,2-2.43,2.65-4.8,3.06-3.88.68-5.23-1.68-2.52-3.47S19.45,14.49,20.78,16.5Z"/><path class="cls-8" d="M18.68,21.4c-3.1,2-6.7,2.07-8,.05a3.54,3.54,0,0,1-.19-.33A3.42,3.42,0,0,0,11,22.81c1.32,2,4.6,2.2,7.31.41a6.56,6.56,0,0,0,3.05-4.45A9.56,9.56,0,0,1,18.68,21.4Z"/></g></g></g></svg>