<svg xmlns="http://www.w3.org/2000/svg" viewBox="0 0 36 36"><defs><style>.cls-1{fill:#fff;}.cls-2{fill:#90f;}</style></defs><title>Asset 7</title><g id="Layer_2" data-name="Layer 2"><g id="Layer_1-2" data-name="Layer 1"><circle class="cls-1" cx="18" cy="18" r="18"/><path class="cls-2" d="M21.86,15.43h-.65V14.14a3.21,3.21,0,0,0-6.42,0v1.29h-.65a1.29,1.29,0,0,0-1.28,1.28v6.43a1.29,1.29,0,0,0,1.28,1.29h7.72a1.29,1.29,0,0,0,1.28-1.29V16.71A1.29,1.29,0,0,0,21.86,15.43ZM18,21.21a1.29,1.29,0,1,1,1.29-1.28A1.28,1.28,0,0,1,18,21.21Zm2-5.78H16V14.14a2,2,0,1,1,4,0Z"/></g></g></svg>