<svg xmlns="http://www.w3.org/2000/svg" viewBox="0 0 27.9 22.27"><defs><style>.cls-1{fill:#9f6;}.cls-2{fill:#00811d;}.cls-3{fill:#50ed3a;}</style></defs><title>Asset 25</title><g id="Layer_2" data-name="Layer 2"><g id="Layer_4" data-name="Layer 4"><path class="cls-1" d="M21.17,15.34c6.66-2.71,6.84-8.91,6.7-11.29a.87.87,0,0,0-1.07-.79C21.72,4.67,19.32-.17,14.08,0,6.69.26,6.27,7.71,6.27,7.71l0,0A6.34,6.34,0,0,0,8,12.81c2.12,2.21,6.48,5.27,13.21,2.53"/><path class="cls-2" d="M7.94,8a.21.21,0,0,0,0-.16.53.53,0,0,0-.44-.58A11,11,0,0,0,.24,9.2a.51.51,0,0,0-.15.73.51.51,0,0,0,.72.15A9.78,9.78,0,0,1,7.36,8.34.64.64,0,0,0,7.94,8"/><path class="cls-2" d="M10.37,21.18a9.27,9.27,0,0,0,4.24,1.08,6.28,6.28,0,0,0,1.23-.16c.68-.1,1.32-.22,2-.37-3.46-.38-6.53-2.41-9-4.85A16.68,16.68,0,0,1,4,9.06a2,2,0,0,0-.24-.65c-.13-.18-.4-.32-.58-.19s-.12.11-.19.13a3.32,3.32,0,0,0-.78,2.19,8.53,8.53,0,0,0,.36,2.38,9.29,9.29,0,0,0,.84,2.46,9.53,9.53,0,0,0,1.75,2.14A20.61,20.61,0,0,0,7,19.22a16.39,16.39,0,0,0,3.38,2"/><path class="cls-3" d="M12.25,1.56c-.06.45,5.62,1.25,5.68.8s-1.16-1-2.73-1.22-2.88,0-2.95.42"/></g></g></svg>