<svg xmlns="http://www.w3.org/2000/svg" viewBox="0 0 20.93 26.62"><defs><style>.cls-1{fill:#ffce00;}.cls-2{fill:#00811d;}.cls-3{fill:#ffe504;}</style></defs><title>Asset 23</title><g id="Layer_2" data-name="Layer 2"><g id="Layer_4" data-name="Layer 4"><path class="cls-1" d="M2.93,14.18c-2,7,2.71,10.93,4.65,12.3a.88.88,0,0,0,1.28-.36c2-4.91,7.29-3.82,10.39-8.09,4.37-6-1.16-11-1.16-11l0-.05a6.24,6.24,0,0,0-5-1.76C10,5.57,5,7.15,2.93,14.18"/><path class="cls-2" d="M16.82,8.21a.22.22,0,0,0,.1.12.53.53,0,0,0,.73,0,11.1,11.1,0,0,0,3-7A.51.51,0,0,0,20.18.8a.51.51,0,0,0-.57.48,9.93,9.93,0,0,1-2.7,6.27.63.63,0,0,0-.09.66"/><path class="cls-2" d="M5.05,2A9.37,9.37,0,0,0,1.59,4.7,6.82,6.82,0,0,0,1,5.77C.62,6.37.32,7,0,7.61A15.53,15.53,0,0,1,9.32,3.48a16.41,16.41,0,0,1,9.1,1,2.07,2.07,0,0,0,.65.21c.22,0,.5-.11.51-.34,0-.07,0-.16,0-.23a3.31,3.31,0,0,0-1.21-2A8.71,8.71,0,0,0,16.3.93,8.86,8.86,0,0,0,13.86.08a9.06,9.06,0,0,0-2.75.07A19.38,19.38,0,0,0,8.67.53,16.57,16.57,0,0,0,5.05,2"/><path class="cls-3" d="M19.17,15.62c-.31-.33-4.45,3.68-4.13,4s1.49-.3,2.63-1.41,1.81-2.27,1.5-2.6"/></g></g></svg>