<svg xmlns="http://www.w3.org/2000/svg" viewBox="0 0 22.1 28.22"><defs><style>.cls-1{fill:#e57917;}.cls-2{fill:#00811d;}.cls-3{fill:#f49727;}</style></defs><title>Asset 21</title><g id="Layer_2" data-name="Layer 2"><g id="Layer_4" data-name="Layer 4"><path class="cls-1" d="M15.23,21.41C12.54,28.15,6.4,28.33,4,28.2a.9.9,0,0,1-.8-1.09C4.64,22-.17,19.55,0,14.25.25,6.78,7.64,6.34,7.64,6.34l0,0a6.22,6.22,0,0,1,5,1.73c2.2,2.14,5.23,6.54,2.52,13.36"/><path class="cls-2" d="M7.94,8a.17.17,0,0,1-.16,0,.52.52,0,0,1-.57-.44A11.14,11.14,0,0,1,9.11.24.51.51,0,0,1,9.84.09.51.51,0,0,1,10,.82,10.07,10.07,0,0,0,8.27,7.45.66.66,0,0,1,7.94,8"/><path class="cls-2" d="M21,10.48a9.7,9.7,0,0,1,1.08,4.29A8.41,8.41,0,0,1,21.94,16c-.1.69-.23,1.33-.37,2A15.9,15.9,0,0,0,16.74,9,16.42,16.42,0,0,0,9,4.07a2.35,2.35,0,0,1-.64-.24c-.18-.14-.33-.41-.19-.59s.11-.12.13-.19a3.26,3.26,0,0,1,2.16-.8,8.86,8.86,0,0,1,2.37.37,8.69,8.69,0,0,1,2.45.85,9.2,9.2,0,0,1,2.12,1.77,19.28,19.28,0,0,1,1.69,1.82A17.13,17.13,0,0,1,21,10.48"/><path class="cls-3" d="M1.55,12.4c.44-.06,1.25,5.68.8,5.74s-1-1.17-1.22-2.75,0-2.92.42-3"/></g></g></svg>