<svg xmlns="http://www.w3.org/2000/svg" viewBox="0 0 25.86 21.42"><defs><style>.cls-1{fill:#50ed3a;}.cls-2{fill:#00811d;}.cls-3{fill:#9f6;}</style></defs><title>Asset 20</title><g id="Layer_2" data-name="Layer 2"><g id="Layer_4" data-name="Layer 4"><path class="cls-1" d="M13.06,19.12c6.67,2.71,11.06-1.63,12.6-3.45a.89.89,0,0,0-.23-1.33c-4.64-2.53-3-7.72-6.94-11.26-5.51-5-10.94.08-10.94.08l0,0A6.31,6.31,0,0,0,5.26,8c0,3.08,1,8.34,7.8,11.08"/><path class="cls-2" d="M8.54,4.55a.17.17,0,0,0,.13-.09.53.53,0,0,0,.08-.73A11,11,0,0,0,2.17,0a.52.52,0,0,0-.61.42A.52.52,0,0,0,2,1.05,9.81,9.81,0,0,1,7.9,4.39a.62.62,0,0,0,.64.16"/><path class="cls-2" d="M1.24,15.77a9.53,9.53,0,0,0,2.32,3.76,7.73,7.73,0,0,0,1,.74c.57.4,1.11.76,1.72,1.15-2.23-2.7-3-6.32-3.14-9.8A16.81,16.81,0,0,1,5,2.57a2.53,2.53,0,0,0,.28-.63c0-.23-.07-.52-.29-.56s-.16,0-.23,0a3.29,3.29,0,0,0-2.07,1,8.44,8.44,0,0,0-1.37,2A9.07,9.07,0,0,0,.22,6.72,9.21,9.21,0,0,0,0,9.49,18.53,18.53,0,0,0,.15,12a17.06,17.06,0,0,0,1.09,3.79"/><path class="cls-3" d="M16.1,2.92c-.36.29,3.19,4.84,3.54,4.56S19.49,6,18.52,4.69,16.45,2.64,16.1,2.92"/></g></g></svg>