<svg xmlns="http://www.w3.org/2000/svg" viewBox="0 0 33.48 42.3"><defs><style>.cls-1{fill:#f90;}.cls-2{fill:#00811d;}.cls-3{fill:#ffce00;}</style></defs><title>Asset 12</title><g id="Layer_2" data-name="Layer 2"><g id="Layer_4" data-name="Layer 4"><path class="cls-1" d="M23.06,32.09C19,42.19,9.67,42.47,6.09,42.26a1.34,1.34,0,0,1-1.2-1.63C7,32.93-.26,29.29,0,21.35.39,10.15,11.58,9.5,11.58,9.5l.07,0a9.51,9.51,0,0,1,7.61,2.61c3.33,3.21,7.92,9.82,3.8,20"/><path class="cls-2" d="M12,12a.27.27,0,0,1-.24,0,.8.8,0,0,1-.87-.67,16.63,16.63,0,0,1,2.89-11,.79.79,0,1,1,1.33.87,14.91,14.91,0,0,0-2.61,9.93A1,1,0,0,1,12,12"/><path class="cls-2" d="M31.84,15.73a14.19,14.19,0,0,1,1.63,6.42A10.29,10.29,0,0,1,33.23,24c-.15,1-.34,2-.56,3.07-.58-5.25-3.62-9.9-7.3-13.61-3.22-3.34-7.19-6.29-11.75-7.37a3.44,3.44,0,0,1-1-.36c-.28-.21-.49-.61-.29-.89,0-.11.17-.18.2-.28a4.92,4.92,0,0,1,3.28-1.19,13.07,13.07,0,0,1,3.58.55A13.79,13.79,0,0,1,23.13,5.2a14.39,14.39,0,0,1,3.21,2.66,32.74,32.74,0,0,1,2.56,2.73,25,25,0,0,1,2.94,5.14"/><path class="cls-3" d="M2.35,18.58c.68-.1,1.88,8.51,1.2,8.6s-1.5-1.75-1.83-4.13-.06-4.38.63-4.47"/></g></g></svg>