<svg xmlns="http://www.w3.org/2000/svg" viewBox="0 0 22.05 28.16"><defs><style>.cls-1{fill:#ffe600;}.cls-2{fill:#00811d;}.cls-3{fill:#ff6;}</style></defs><title>Asset 26</title><g id="Layer_2" data-name="Layer 2"><g id="Layer_4" data-name="Layer 4"><path class="cls-1" d="M6.86,21.35c2.67,6.73,8.81,6.92,11.16,6.78a.88.88,0,0,0,.79-1.08c-1.39-5.12,3.41-7.54,3.24-12.83-.24-7.45-7.62-7.9-7.62-7.9l0,0A6.21,6.21,0,0,0,9.37,8c-2.19,2.13-5.22,6.53-2.51,13.32"/><path class="cls-2" d="M14.13,8a.2.2,0,0,0,.16,0,.54.54,0,0,0,.57-.45A11.09,11.09,0,0,0,13,.24a.5.5,0,0,0-.72-.15.52.52,0,0,0-.15.73A10,10,0,0,1,13.8,7.43a.65.65,0,0,0,.33.58"/><path class="cls-2" d="M1.09,10.45A9.4,9.4,0,0,0,0,14.73,6.38,6.38,0,0,0,.17,16c.1.68.22,1.33.36,2A15.8,15.8,0,0,1,5.35,9a16.4,16.4,0,0,1,7.75-4.9,2.41,2.41,0,0,0,.63-.24c.19-.13.33-.41.2-.59s-.12-.12-.14-.19a3.21,3.21,0,0,0-2.15-.79,8.47,8.47,0,0,0-2.37.36,8.94,8.94,0,0,0-2.44.85A9.15,9.15,0,0,0,4.72,5.22,22.08,22.08,0,0,0,3,7a16.54,16.54,0,0,0-1.94,3.41"/><path class="cls-3" d="M20.51,12.37c-.45-.06-1.25,5.67-.8,5.73s1-1.16,1.21-2.75,0-2.91-.41-3"/></g></g></svg>