<svg xmlns="http://www.w3.org/2000/svg" viewBox="0 0 24.86 22.29"><defs><style>.cls-1{fill:#f90;}.cls-2{fill:#00811d;}.cls-3{fill:#d87e25;}</style></defs><title>Asset 24</title><g id="Layer_2" data-name="Layer 2"><g id="Layer_4" data-name="Layer 4"><path class="cls-1" d="M11.59,20.63c6.15,3.75,11.16.18,13-1.36a.89.89,0,0,0,0-1.35c-4.16-3.25-1.77-8.1-5.05-12.22C14.85-.11,8.7,4,8.7,4h0a6.28,6.28,0,0,0-3,4.43c-.49,3-.29,8.38,5.92,12.18"/><path class="cls-2" d="M9.46,5.54a.17.17,0,0,0,.14-.07.54.54,0,0,0,.19-.71A11,11,0,0,0,3.9,0a.51.51,0,0,0-.67.31A.53.53,0,0,0,3.54,1,9.81,9.81,0,0,1,8.85,5.28a.62.62,0,0,0,.61.26"/><path class="cls-2" d="M.48,15.41a9.66,9.66,0,0,0,1.69,4.08,7.26,7.26,0,0,0,.86.89c.49.49,1,.93,1.51,1.41-1.77-3-2-6.71-1.54-10.16A16.71,16.71,0,0,1,6.28,3a2.17,2.17,0,0,0,.36-.58c.07-.22,0-.52-.19-.59s-.16,0-.22-.06A3.22,3.22,0,0,0,4,2.45,8.59,8.59,0,0,0,2.36,4.18,9,9,0,0,0,.91,6.33,9.67,9.67,0,0,0,.27,9,19,19,0,0,0,0,11.51a16.77,16.77,0,0,0,.47,3.9"/><path class="cls-3" d="M17.16,5.16c-.4.22,2.37,5.28,2.77,5.06s.1-1.53-.67-2.93-1.71-2.35-2.1-2.13"/></g></g></svg>