<svg xmlns="http://www.w3.org/2000/svg" viewBox="0 0 22.08 28.19"><defs><style>.cls-1{fill:#ff6;}.cls-2{fill:#00811d;}.cls-3{fill:#ffe600;}</style></defs><title>Asset 22</title><g id="Layer_2" data-name="Layer 2"><g id="Layer_4" data-name="Layer 4"><path class="cls-1" d="M6.86,21.38c2.69,6.74,8.83,6.92,11.19,6.79a.9.9,0,0,0,.79-1.09c-1.4-5.13,3.41-7.55,3.23-12.84-.24-7.47-7.62-7.91-7.62-7.91l0,0A6.2,6.2,0,0,0,9.39,8c-2.2,2.13-5.23,6.54-2.53,13.34"/><path class="cls-2" d="M14.15,8a.19.19,0,0,0,.15,0,.54.54,0,0,0,.58-.45A11.11,11.11,0,0,0,13,.24a.5.5,0,0,0-.72-.15.52.52,0,0,0-.15.73,10,10,0,0,1,1.71,6.62.64.64,0,0,0,.33.58"/><path class="cls-2" d="M1.09,10.47A9.4,9.4,0,0,0,0,14.75,6.38,6.38,0,0,0,.17,16c.1.69.22,1.33.37,2A15.77,15.77,0,0,1,5.36,9a16.47,16.47,0,0,1,7.75-4.91,1.84,1.84,0,0,0,.64-.24c.18-.13.33-.4.19-.59s-.11-.11-.13-.18a3.26,3.26,0,0,0-2.16-.8,8.07,8.07,0,0,0-2.36.37,8.88,8.88,0,0,0-2.45.84A9.46,9.46,0,0,0,4.72,5.23,20.69,20.69,0,0,0,3,7.05a16.36,16.36,0,0,0-1.94,3.42"/><path class="cls-3" d="M20.54,12.39c-.45-.06-1.25,5.67-.81,5.73s1-1.16,1.22-2.75,0-2.92-.41-3"/></g></g></svg>