<svg xmlns="http://www.w3.org/2000/svg" xmlns:xlink="http://www.w3.org/1999/xlink" viewBox="0 0 101.65 68.11"><defs><style>.cls-1{isolation:isolate;}.cls-2{fill:#ed1849;}.cls-14,.cls-3,.cls-9{fill:#fff;}.cls-3{opacity:0.3;}.cls-4,.cls-5{fill:#d11242;}.cls-11,.cls-12,.cls-13,.cls-17,.cls-18,.cls-19,.cls-5{mix-blend-mode:multiply;}.cls-6{fill:#ab0634;}.cls-7{fill:#fd0;}.cls-8{fill:#f9b01a;}.cls-11,.cls-12,.cls-13,.cls-17,.cls-18,.cls-19,.cls-9{opacity:0.6;}.cls-10{fill:url(#linear-gradient);}.cls-11{fill:url(#linear-gradient-2);}.cls-12{fill:url(#linear-gradient-3);}.cls-13{fill:url(#linear-gradient-4);}.cls-14{opacity:0;}.cls-15{fill:url(#linear-gradient-5);}.cls-16{fill:url(#linear-gradient-6);}.cls-17{fill:url(#linear-gradient-7);}.cls-18{fill:url(#linear-gradient-8);}.cls-19{fill:url(#linear-gradient-9);}.cls-20{fill:url(#linear-gradient-10);}</style><linearGradient id="linear-gradient" x1="1107.1" y1="-1259.05" x2="1157.9" y2="-1259.05" gradientTransform="matrix(0.98, -0.19, 0.19, 0.98, -845.63, 1465.89)" gradientUnits="userSpaceOnUse"><stop offset="0" stop-color="#007e3d"/><stop offset="0.5" stop-color="#55b948"/><stop offset="1" stop-color="#a3cd39"/></linearGradient><linearGradient id="linear-gradient-2" x1="1130.33" y1="-1259.05" x2="1157.9" y2="-1259.05" xlink:href="#linear-gradient"/><linearGradient id="linear-gradient-3" x1="1116.55" y1="-1255.88" x2="1132.17" y2="-1255.88" gradientTransform="matrix(0.98, -0.19, 0.19, 0.98, -845.63, 1465.89)" gradientUnits="userSpaceOnUse"><stop offset="0" stop-color="#005826"/><stop offset="0.5" stop-color="#00a651"/><stop offset="1" stop-color="#72bf44"/></linearGradient><linearGradient id="linear-gradient-4" x1="1107.1" y1="-1260.77" x2="1122.85" y2="-1260.77" xlink:href="#linear-gradient-3"/><linearGradient id="linear-gradient-5" x1="1131.07" y1="-1270.61" x2="1137.21" y2="-1273.52" xlink:href="#linear-gradient-3"/><linearGradient id="linear-gradient-6" x1="18518.46" y1="6701.03" x2="18555.21" y2="6701.03" gradientTransform="matrix(-0.81, -0.59, -0.59, 0.81, 19013.97, 5528.99)" xlink:href="#linear-gradient"/><linearGradient id="linear-gradient-7" x1="18534.07" y1="6701.03" x2="18555.21" y2="6701.03" gradientTransform="matrix(-0.81, -0.59, -0.59, 0.81, 19013.97, 5528.99)" xlink:href="#linear-gradient"/><linearGradient id="linear-gradient-8" x1="18524.41" y1="6703.61" x2="18535.42" y2="6703.61" gradientTransform="matrix(-0.81, -0.59, -0.59, 0.81, 19013.97, 5528.99)" xlink:href="#linear-gradient-3"/><linearGradient id="linear-gradient-9" x1="18518.46" y1="6700.19" x2="18528.86" y2="6700.19" gradientTransform="matrix(-0.81, -0.59, -0.59, 0.81, 19013.97, 5528.99)" xlink:href="#linear-gradient-3"/><linearGradient id="linear-gradient-10" x1="18534.72" y1="6691.58" x2="18539.31" y2="6689.41" gradientTransform="matrix(-0.81, -0.59, -0.59, 0.81, 19013.97, 5528.99)" xlink:href="#linear-gradient-3"/></defs><title>Asset 3</title><g class="cls-1"><g id="Layer_2" data-name="Layer 2"><g id="Layer_1-2" data-name="Layer 1"><path class="cls-2" d="M53,13.92c-8.94-5.82-13-2.24-16.67-.6A35.5,35.5,0,0,1,28.7,15.6a35.18,35.18,0,0,1-7.94.74c-4-.14-9.12-1.93-15.24,6.81C-1.81,33.62,6.07,44.37,9,47.65S21.28,58.81,28.21,62.86C33.93,66.19,38.3,65,38.3,65s3.75-.23,8.55-5.77C52.11,53.17,57.56,42.05,59,37.92S63.73,20.88,53,13.92Z"/><path class="cls-3" d="M18.22,23.07s-5.49-1.42-7.41,4.76-1.24,11,3.47,16.49,6.45,7,7.43,6C22.9,49,17.31,42,16.84,38,15.87,29.59,24.53,25.14,18.22,23.07Z"/><path class="cls-4" d="M36.34,13.32A35.5,35.5,0,0,1,28.7,15.6a35.18,35.18,0,0,1-7.94.74,36.11,36.11,0,0,0-5.32-.18h0s8.77,1.13,11.21,4.56c0,0,5.61-6,13.33-6.65s19.61,1.6,15.84,19.24c-2.74,12.84-13.27,21-15.8,27.17C36.86,68.15,14.3,52.21,9.49,48.22A108.43,108.43,0,0,0,28.21,62.86C33.93,66.19,38.3,65,38.3,65s3.75-.23,8.55-5.77C52.11,53.17,57.56,42.05,59,37.92s4.72-17-6-24C44.07,8.1,40,11.68,36.34,13.32Z"/><path class="cls-5" d="M53,13.92c-8.94-5.82-13-2.24-16.67-.6A35.5,35.5,0,0,1,28.7,15.6a35.18,35.18,0,0,1-7.94.74c-4-.14-9.12-1.93-15.24,6.81C-1.81,33.62,6.07,44.37,9,47.65S21.28,58.81,28.21,62.86C33.93,66.19,38.3,65,38.3,65s3.75-.23,8.55-5.77C52.11,53.17,57.56,42.05,59,37.92S63.73,20.88,53,13.92ZM49.77,38.33C46.71,42,44.07,49.85,40.2,54.66c-3.54,4.39-6.34,4.53-6.34,4.53s-3.26.91-7.57-1.83C21.06,54,12,47.25,9.82,44.59S1.14,32.2,7.83,24.9c3.83-4.18,9.86-6.35,12.86-6.19s7,8.59,7,8.59,2.91-7.4,5.63-8.68,4.28-5,11-.24C52.41,24.08,53.43,34,49.77,38.33Z"/><path class="cls-6" d="M33.83,25.86c.27,1.42-.22,3.1-.91,3.23s-1.9-1.21-2.17-2.63.43-2,1.13-2.11A1.61,1.61,0,0,1,33.83,25.86Z"/><path class="cls-7" d="M33.6,25.66c.24,1.23-.24,2.7-.9,2.83s-1.76-1-2-2.27a1.4,1.4,0,0,1,1.09-1.86A1.46,1.46,0,0,1,33.6,25.66Z"/><path class="cls-8" d="M31.79,24.36a1.25,1.25,0,0,1,1.43,1c.2,1-.34,2.21-1,2.34a1.47,1.47,0,0,1-1.11-.45c.45.75,1.13,1.31,1.58,1.22.66-.13,1.14-1.6.9-2.83A1.46,1.46,0,0,0,31.79,24.36Z"/><path class="cls-9" d="M31.64,25.78c0,.4-.18.72-.38.72s-.37-.33-.36-.73.17-.72.37-.72S31.64,25.38,31.64,25.78Z"/><path class="cls-6" d="M23.85,36.4c.28,1.42-.22,3.1-.91,3.24S21.05,38.42,20.77,37s.44-2,1.13-2.11A1.62,1.62,0,0,1,23.85,36.4Z"/><path class="cls-7" d="M23.63,36.2c.24,1.23-.25,2.71-.9,2.83s-1.76-1-2-2.26a1.39,1.39,0,0,1,1.09-1.86A1.46,1.46,0,0,1,23.63,36.2Z"/><path class="cls-8" d="M21.82,34.91a1.24,1.24,0,0,1,1.43,1c.19,1-.34,2.21-1,2.33a1.41,1.41,0,0,1-1.11-.45c.45.76,1.13,1.31,1.59,1.22.65-.12,1.14-1.6.9-2.83A1.46,1.46,0,0,0,21.82,34.91Z"/><path class="cls-9" d="M21.66,36.32c0,.4-.17.72-.37.72s-.37-.33-.37-.73.17-.72.38-.71S21.67,35.92,21.66,36.32Z"/><path class="cls-6" d="M16.22,45.81c.28,1.42-.22,3.09-.91,3.23s-1.89-1.22-2.17-2.63.44-2,1.13-2.11A1.61,1.61,0,0,1,16.22,45.81Z"/><path class="cls-7" d="M16,45.61c.24,1.23-.25,2.7-.9,2.83s-1.77-1-2-2.27a1.4,1.4,0,0,1,1.09-1.86A1.47,1.47,0,0,1,16,45.61Z"/><path class="cls-8" d="M14.19,44.31a1.26,1.26,0,0,1,1.43,1c.19,1-.35,2.21-1,2.34a1.46,1.46,0,0,1-1.11-.46c.45.76,1.13,1.31,1.59,1.23.65-.13,1.14-1.6.9-2.83A1.46,1.46,0,0,0,14.19,44.31Z"/><path class="cls-9" d="M14,45.73c0,.39-.17.72-.38.71s-.36-.32-.36-.72.17-.72.37-.72S14,45.33,14,45.73Z"/><path class="cls-6" d="M36.14,50.62c.27,1.42-.22,3.1-.91,3.23s-1.9-1.21-2.17-2.63.44-2,1.13-2.11A1.61,1.61,0,0,1,36.14,50.62Z"/><path class="cls-7" d="M35.92,50.42c.24,1.23-.25,2.7-.91,2.83s-1.76-1-2-2.27a1.38,1.38,0,0,1,1.09-1.85A1.46,1.46,0,0,1,35.92,50.42Z"/><path class="cls-8" d="M34.1,49.12a1.28,1.28,0,0,1,1.44,1c.19,1-.35,2.21-1,2.34A1.48,1.48,0,0,1,33.43,52c.45.76,1.13,1.3,1.58,1.22.66-.13,1.15-1.6.91-2.83A1.48,1.48,0,0,0,34.1,49.12Z"/><path class="cls-9" d="M34,50.54c0,.4-.17.72-.38.72s-.37-.33-.36-.73.17-.72.37-.72S34,50.14,34,50.54Z"/><path class="cls-6" d="M44.71,49.75c.28,1.41-.22,3.09-.91,3.23s-1.89-1.22-2.17-2.63.44-2,1.13-2.11A1.61,1.61,0,0,1,44.71,49.75Z"/><path class="cls-7" d="M44.49,49.54c.24,1.24-.25,2.71-.9,2.83s-1.76-1-2-2.26a1.39,1.39,0,0,1,1.08-1.86A1.47,1.47,0,0,1,44.49,49.54Z"/><path class="cls-8" d="M42.68,48.25a1.25,1.25,0,0,1,1.43,1c.19,1-.35,2.21-1,2.34A1.46,1.46,0,0,1,42,51.15c.45.76,1.13,1.31,1.59,1.22.65-.12,1.14-1.59.9-2.83A1.46,1.46,0,0,0,42.68,48.25Z"/><path class="cls-9" d="M42.52,49.66c0,.4-.17.73-.38.73s-.36-.33-.36-.73.17-.72.38-.72S42.53,49.27,42.52,49.66Z"/><path class="cls-6" d="M47.48,28.89c.27,1.42-.22,3.1-.92,3.23s-1.89-1.21-2.17-2.63.44-2,1.13-2.11A1.63,1.63,0,0,1,47.48,28.89Z"/><path class="cls-7" d="M47.25,28.69c.24,1.23-.25,2.7-.9,2.83s-1.76-1-2-2.27a1.38,1.38,0,0,1,1.09-1.85A1.45,1.45,0,0,1,47.25,28.69Z"/><path class="cls-8" d="M45.44,27.4a1.24,1.24,0,0,1,1.43,1c.19,1-.34,2.21-1,2.33a1.48,1.48,0,0,1-1.11-.45c.45.76,1.13,1.31,1.59,1.22.65-.13,1.14-1.6.9-2.83A1.46,1.46,0,0,0,45.44,27.4Z"/><path class="cls-9" d="M45.28,28.81c0,.4-.17.72-.37.72s-.37-.33-.37-.73.17-.72.38-.72S45.29,28.41,45.28,28.81Z"/><path class="cls-6" d="M41.8,19.14c.27,1.42-.22,3.1-.92,3.23S39,21.16,38.71,19.74s.44-2,1.13-2.11A1.62,1.62,0,0,1,41.8,19.14Z"/><path class="cls-7" d="M41.57,18.94c.24,1.23-.25,2.7-.9,2.83s-1.76-1-2-2.27a1.39,1.39,0,0,1,1.09-1.85A1.46,1.46,0,0,1,41.57,18.94Z"/><path class="cls-8" d="M39.76,17.65a1.24,1.24,0,0,1,1.43,1c.2,1-.34,2.21-1,2.33a1.45,1.45,0,0,1-1.12-.45c.46.76,1.13,1.31,1.59,1.22.65-.13,1.14-1.6.9-2.83A1.46,1.46,0,0,0,39.76,17.65Z"/><path class="cls-9" d="M39.6,19.06c0,.4-.17.72-.37.72s-.37-.33-.37-.73.18-.72.38-.72S39.61,18.66,39.6,19.06Z"/><path class="cls-6" d="M39,57.36c.27,1.42-.22,3.1-.92,3.23S36.23,59.38,36,58s.43-2,1.12-2.11A1.62,1.62,0,0,1,39,57.36Z"/><path class="cls-7" d="M38.81,57.16c.24,1.23-.24,2.7-.9,2.83s-1.76-1-2-2.27A1.38,1.38,0,0,1,37,55.87,1.45,1.45,0,0,1,38.81,57.16Z"/><path class="cls-8" d="M37,55.87a1.24,1.24,0,0,1,1.43,1c.2,1-.34,2.21-1,2.33a1.43,1.43,0,0,1-1.11-.45c.45.76,1.13,1.31,1.58,1.22.66-.13,1.14-1.6.9-2.83A1.46,1.46,0,0,0,37,55.87Z"/><path class="cls-9" d="M36.84,57.28c0,.4-.17.72-.37.72s-.37-.33-.37-.73.18-.72.38-.72S36.85,56.88,36.84,57.28Z"/><path class="cls-6" d="M38.46,40.48c.21,1-.16,2.27-.66,2.37s-1.39-.89-1.59-1.93.32-1.45.82-1.54A1.18,1.18,0,0,1,38.46,40.48Z"/><path class="cls-7" d="M38.3,40.33c.18.91-.18,2-.66,2.08s-1.29-.76-1.47-1.66.32-1.27.8-1.36A1.07,1.07,0,0,1,38.3,40.33Z"/><path class="cls-8" d="M37,39.39a.92.92,0,0,1,1.05.75c.14.72-.25,1.61-.73,1.7a1,1,0,0,1-.81-.33c.33.56.83,1,1.16.9s.84-1.17.66-2.08A1.07,1.07,0,0,0,37,39.39Z"/><path class="cls-9" d="M36.86,40.42c0,.29-.13.53-.28.53s-.27-.24-.26-.53.12-.53.27-.53S36.86,40.13,36.86,40.42Z"/><path class="cls-6" d="M29.55,56.27c.2,1-.17,2.26-.67,2.36s-1.39-.89-1.59-1.93.32-1.44.83-1.54A1.19,1.19,0,0,1,29.55,56.27Z"/><path class="cls-7" d="M29.38,56.12c.18.9-.18,2-.66,2.07s-1.29-.76-1.46-1.66a1,1,0,0,1,.79-1.36A1.07,1.07,0,0,1,29.38,56.12Z"/><path class="cls-8" d="M28.06,55.17a.91.91,0,0,1,1,.75c.15.73-.25,1.62-.73,1.71a1.12,1.12,0,0,1-.81-.33c.33.55.83,1,1.16.89.48-.09.84-1.17.66-2.07A1.06,1.06,0,0,0,28.06,55.17Z"/><path class="cls-9" d="M27.94,56.21c0,.29-.13.52-.27.52s-.27-.24-.27-.53.13-.53.27-.53S27.94,55.91,27.94,56.21Z"/><path class="cls-6" d="M50.57,43.93c.2,1-.16,2.26-.67,2.36s-1.38-.89-1.59-1.93.32-1.44.83-1.54A1.18,1.18,0,0,1,50.57,43.93Z"/><path class="cls-7" d="M50.41,43.78c.17.9-.19,2-.66,2.07s-1.29-.76-1.47-1.66a1,1,0,0,1,.8-1.36A1.08,1.08,0,0,1,50.41,43.78Z"/><path class="cls-8" d="M49.08,42.83a.92.92,0,0,1,1.05.75c.14.73-.25,1.62-.73,1.71a1.08,1.08,0,0,1-.82-.33c.33.55.83,1,1.17.89s.83-1.17.66-2.07A1.07,1.07,0,0,0,49.08,42.83Z"/><path class="cls-9" d="M49,43.87c0,.29-.12.52-.27.52s-.27-.24-.27-.53.13-.53.28-.53S49,43.57,49,43.87Z"/><path class="cls-6" d="M55.73,34.88c.2,1-.16,2.27-.67,2.37s-1.39-.89-1.59-1.93.32-1.45.83-1.55A1.19,1.19,0,0,1,55.73,34.88Z"/><path class="cls-7" d="M55.56,34.73c.18.9-.18,2-.66,2.07s-1.29-.75-1.46-1.65a1,1,0,0,1,.8-1.36A1.06,1.06,0,0,1,55.56,34.73Z"/><path class="cls-8" d="M54.24,33.79a.92.92,0,0,1,1,.74c.14.73-.26,1.62-.73,1.71a1,1,0,0,1-.82-.33c.33.56.83,1,1.16.89.48-.09.84-1.17.66-2.07A1.05,1.05,0,0,0,54.24,33.79Z"/><path class="cls-9" d="M54.12,34.82c0,.29-.12.53-.27.53s-.27-.24-.27-.53.13-.53.28-.53S54.13,34.53,54.12,34.82Z"/><path class="cls-6" d="M39.74,30.33c.2,1-.16,2.26-.67,2.36s-1.38-.89-1.58-1.93.31-1.44.82-1.54A1.18,1.18,0,0,1,39.74,30.33Z"/><path class="cls-7" d="M39.58,30.18c.17.9-.19,2-.66,2.07s-1.29-.76-1.47-1.66a1,1,0,0,1,.8-1.36A1.07,1.07,0,0,1,39.58,30.18Z"/><path class="cls-8" d="M38.25,29.23a.92.92,0,0,1,1,.75c.14.73-.25,1.61-.73,1.71a1.09,1.09,0,0,1-.81-.33c.32.55.82,1,1.16.89s.83-1.17.66-2.07A1.08,1.08,0,0,0,38.25,29.23Z"/><path class="cls-9" d="M38.14,30.27c0,.29-.13.53-.28.52s-.27-.24-.27-.53.13-.53.28-.52S38.14,30,38.14,30.27Z"/><path class="cls-6" d="M50.32,16.61c.2,1-.16,2.27-.66,2.37s-1.39-.89-1.59-1.93.32-1.45.82-1.55A1.19,1.19,0,0,1,50.32,16.61Z"/><path class="cls-7" d="M50.16,16.46c.17.9-.18,2-.66,2.07s-1.29-.75-1.47-1.66a1,1,0,0,1,.8-1.35A1.07,1.07,0,0,1,50.16,16.46Z"/><path class="cls-8" d="M48.83,15.52a.91.91,0,0,1,1.05.74c.14.73-.25,1.62-.73,1.71a1,1,0,0,1-.81-.33c.33.56.82,1,1.16.89s.83-1.17.66-2.07A1.07,1.07,0,0,0,48.83,15.52Z"/><path class="cls-9" d="M48.72,16.55c0,.29-.13.53-.28.53s-.27-.24-.26-.53.12-.53.27-.53S48.72,16.26,48.72,16.55Z"/><path class="cls-6" d="M32,33.56c.35,1.84-.29,4-1.19,4.2S28.38,36.18,28,34.34s.57-2.56,1.46-2.74A2.11,2.11,0,0,1,32,33.56Z"/><path class="cls-7" d="M31.74,33.3c.31,1.6-.33,3.51-1.17,3.67S28.28,35.63,28,34a1.81,1.81,0,0,1,1.41-2.41A1.91,1.91,0,0,1,31.74,33.3Z"/><path class="cls-8" d="M29.39,31.62a1.62,1.62,0,0,1,1.85,1.32c.26,1.3-.44,2.87-1.29,3a1.88,1.88,0,0,1-1.44-.59c.58,1,1.46,1.7,2.06,1.58.84-.16,1.48-2.07,1.17-3.67A1.9,1.9,0,0,0,29.39,31.62Z"/><path class="cls-9" d="M29.18,33.46c0,.51-.22.93-.49.93s-.48-.42-.47-.94.22-.94.49-.94S29.19,32.94,29.18,33.46Z"/><path class="cls-6" d="M47.18,37.14c.36,1.85-.28,4-1.18,4.2s-2.46-1.58-2.82-3.42.57-2.56,1.47-2.74A2.1,2.1,0,0,1,47.18,37.14Z"/><path class="cls-7" d="M46.89,36.88c.31,1.6-.32,3.51-1.17,3.67s-2.29-1.34-2.6-2.94a1.81,1.81,0,0,1,1.42-2.41A1.9,1.9,0,0,1,46.89,36.88Z"/><path class="cls-8" d="M44.54,35.2a1.62,1.62,0,0,1,1.86,1.33c.25,1.29-.45,2.86-1.3,3A1.91,1.91,0,0,1,43.66,39c.59,1,1.47,1.7,2.06,1.58.85-.16,1.48-2.07,1.17-3.67A1.9,1.9,0,0,0,44.54,35.2Z"/><path class="cls-9" d="M44.34,37c0,.51-.23.93-.49.93s-.48-.42-.48-.94.23-.94.49-.94S44.34,36.52,44.34,37Z"/><path class="cls-6" d="M55.28,23.55c.36,1.84-.28,4-1.18,4.19s-2.46-1.57-2.82-3.41.57-2.57,1.47-2.74A2.09,2.09,0,0,1,55.28,23.55Z"/><path class="cls-7" d="M55,23.28c.31,1.6-.32,3.51-1.17,3.68s-2.29-1.34-2.6-2.95a1.79,1.79,0,0,1,1.42-2.4A1.89,1.89,0,0,1,55,23.28Z"/><path class="cls-8" d="M52.64,21.61a1.62,1.62,0,0,1,1.86,1.32c.25,1.29-.45,2.87-1.3,3a1.87,1.87,0,0,1-1.44-.59c.59,1,1.47,1.7,2.06,1.59.85-.17,1.48-2.08,1.17-3.68A1.88,1.88,0,0,0,52.64,21.61Z"/><path class="cls-9" d="M52.44,23.44c0,.52-.23.94-.49.93s-.48-.42-.48-.94.23-.94.49-.93S52.44,22.92,52.44,23.44Z"/><path class="cls-6" d="M18.92,26c.36,1.84-.28,4-1.18,4.19s-2.46-1.57-2.82-3.42.57-2.56,1.47-2.73A2.08,2.08,0,0,1,18.92,26Z"/><path class="cls-7" d="M18.63,25.71c.32,1.6-.32,3.51-1.17,3.68s-2.29-1.34-2.6-2.94A1.8,1.8,0,0,1,16.28,24,1.89,1.89,0,0,1,18.63,25.71Z"/><path class="cls-8" d="M16.28,24a1.62,1.62,0,0,1,1.86,1.32c.25,1.29-.45,2.87-1.29,3a1.88,1.88,0,0,1-1.45-.59c.59,1,1.47,1.7,2.06,1.59.85-.17,1.49-2.08,1.17-3.68A1.88,1.88,0,0,0,16.28,24Z"/><path class="cls-9" d="M16.08,25.87c0,.52-.22.94-.49.93s-.48-.42-.47-.94.22-.93.48-.93S16.08,25.35,16.08,25.87Z"/><path class="cls-6" d="M12,36.84c.36,1.84-.28,4-1.18,4.2S8.35,39.46,8,37.62s.57-2.56,1.47-2.74A2.1,2.1,0,0,1,12,36.84Z"/><path class="cls-7" d="M11.7,36.58c.31,1.6-.32,3.51-1.17,3.67s-2.29-1.34-2.6-2.94A1.81,1.81,0,0,1,9.35,34.9,1.9,1.9,0,0,1,11.7,36.58Z"/><path class="cls-8" d="M9.35,34.9a1.62,1.62,0,0,1,1.86,1.32c.25,1.3-.45,2.87-1.3,3a1.91,1.91,0,0,1-1.44-.59c.59,1,1.47,1.7,2.06,1.58.85-.16,1.48-2.07,1.17-3.67A1.9,1.9,0,0,0,9.35,34.9Z"/><path class="cls-9" d="M9.14,36.74c0,.51-.22.93-.48.93s-.48-.42-.48-.94.23-.94.49-.94S9.15,36.22,9.14,36.74Z"/><path class="cls-6" d="M26.69,47.42c.36,1.84-.28,4-1.18,4.19S23.05,50,22.69,48.19s.57-2.56,1.47-2.73A2.08,2.08,0,0,1,26.69,47.42Z"/><path class="cls-7" d="M26.4,47.15c.31,1.6-.32,3.51-1.17,3.68s-2.29-1.35-2.6-2.95a1.79,1.79,0,0,1,1.42-2.4A1.89,1.89,0,0,1,26.4,47.15Z"/><path class="cls-8" d="M24.05,45.48a1.62,1.62,0,0,1,1.86,1.32c.25,1.29-.45,2.87-1.29,3a1.88,1.88,0,0,1-1.45-.59c.59,1,1.47,1.7,2.06,1.59.85-.17,1.48-2.08,1.17-3.68A1.88,1.88,0,0,0,24.05,45.48Z"/><path class="cls-9" d="M23.85,47.31c0,.52-.22.94-.49.93s-.48-.42-.47-.94.22-.94.48-.93S23.85,46.79,23.85,47.31Z"/><path class="cls-10" d="M32.7,14.61s.33,3.81-2.2,5.24S25.89,25,26.6,28c0,0-4.93-6.8-2.83-11.08,0,0-2.93.7-6.23,1.61s-6.13,4.94-6.13,4.94-1.78-5,3.2-6.91c0,0-12.72,6.08-14.61-2.24,0,0,4.51,3.26,8.68-.09A12.25,12.25,0,0,1,19.27,11.6c2.11.53,5.19-1.54,4.3-4S21.28,2,21.28,2a3.46,3.46,0,0,1,3-1.91C26.49-.1,27,.6,26.64,2s-.17,7.39,3.05,6.76,8-2,11.66-.53,8.24.41,8.8-2.24c0,0-.09,6.44-7.84,6.47a5,5,0,0,1,3.26,5.79S41.61,12.34,32.7,14.61Z"/><path class="cls-11" d="M30.5,19.85c2.53-1.43,2.2-5.24,2.2-5.24,8.91-2.27,12.87,3.65,12.87,3.65a5,5,0,0,0-3.26-5.79c7.75,0,7.84-6.47,7.84-6.47-.56,2.65-5.17,3.68-8.8,2.24s-8.44-.09-11.66.53S26.24,3.42,26.64,2,26.49-.1,24.25.07a3.46,3.46,0,0,0-3,1.91s1.1,2.2,4.17.8c0,0-1,5.78,3.29,6.42s6-1.86,10.71-.41C43.43,10,45,12.18,40.66,12c0,0-3.12-.26-10,2.15,0,0,1.09,1.09.15,3.15S24.37,20.64,26.6,28C25.89,25,28,21.28,30.5,19.85Z"/><path class="cls-12" d="M24.63,16.44a4,4,0,0,0,.81-2.7,5.59,5.59,0,0,1-3.62,2.71c-2.79.81-8.39.16-10.41,7,0,0,2.83-4,6.13-4.94s6.23-1.61,6.23-1.61a5.62,5.62,0,0,0-.51,2.67A9.78,9.78,0,0,1,24.63,16.44Z"/><path class="cls-13" d="M13.45,17s2.48-1.28,2.64-2.52c0,0-3.61,3.91-10.38,3.18C1.24,17.18,0,14.28,0,14.28,1.54,21.06,10.27,18.28,13.45,17Z"/><path class="cls-14" d="M23.08,5.58s1.67,1.89.93,3.68S21.36,12.51,19.37,12a6.39,6.39,0,0,0-5,.39,16.55,16.55,0,0,1,4.62.23c1.39.49,5.68-.07,5.73-3.27S23.08,5.58,23.08,5.58Z"/><path class="cls-15" d="M26.55.6s-.54-1-3-.41-2.69,2-1.62,2.49S27.45,2.89,26.55.6Z"/><path class="cls-2" d="M67.21,22.34c8.68-1.28,10.21,2.87,12.12,5.34a23.84,23.84,0,0,0,4.3,4.18,22,22,0,0,0,4.86,3c2.56,1.09,6.3,1.32,7.05,9.23.88,9.24-7.42,15-10.34,16.66a91.18,91.18,0,0,1-18.31,6.91C61.49,69,58.66,67,58.66,67s-2.77-1.08-4.35-6.73c-1.76-6.32-1.69-17-1.2-20.8S56.16,24,67.21,22.34Z"/><path class="cls-3" d="M87.78,40.5s3.91.54,3,5.51A14.56,14.56,0,0,1,83,57.06c-5,2.88-6.71,3.63-7,2.62-.36-1.25,5.84-5.06,7.55-7.92C87,45.9,83,40.19,87.78,40.5Z"/><path class="cls-4" d="M79.33,27.68a23.84,23.84,0,0,0,4.3,4.18,22,22,0,0,0,4.86,3,21.16,21.16,0,0,1,3.39,1.45h0s-5.92-1.81-8.71,0c0,0-1.6-6.19-6.62-9.26-5.23-3.2-15-5.72-19.06,9.74C54.56,48,59.54,57.47,59.1,63c-.55,6.82,21.1-.14,25.58-2a93.6,93.6,0,0,1-17.79,6.62C61.49,69,58.66,67,58.66,67s-2.77-1.08-4.35-6.73c-1.76-6.32-1.69-17-1.2-20.8s3-15.5,14.1-17.13C75.89,21.06,77.42,25.21,79.33,27.68Z"/><path class="cls-5" d="M53.11,39.47c-.49,3.82-.56,14.48,1.2,20.8C55.89,65.92,58.66,67,58.66,67s2.83,2,8.23.67A91.18,91.18,0,0,0,85.2,60.76c2.92-1.69,11.22-7.42,10.34-16.66-.75-7.91-4.49-8.14-7.05-9.23a22,22,0,0,1-4.86-3,23.84,23.84,0,0,1-4.3-4.18c-1.91-2.47-3.44-6.62-12.12-5.34C56.16,24,53.6,35.63,53.11,39.47ZM71.88,28.86c6.51-1.36,6.22,2,7.61,3.8s.67,8.22.67,8.22,5.59-5.05,7.56-4.27,4.94,4.07,5.86,8.1C95.15,51.61,88,57,85.71,58.34s-10.65,4.3-15.45,5.57c-4.07,1.08-6.1-.4-6.1-.4s-2-.8-3-5.15c-1.08-4.83,0-11.83-1-15.64C59.09,38.09,63.73,30.56,71.88,28.86Z"/><path class="cls-6" d="M76.49,38c-.7,1-1,2.4-.55,2.71s1.74-.35,2.44-1.33.42-1.62,0-1.93S77.2,37,76.49,38Z"/><path class="cls-7" d="M76.72,37.86c-.61.86-.81,2.12-.41,2.41s1.58-.25,2.19-1.1.32-1.43-.07-1.73A1.14,1.14,0,0,0,76.72,37.86Z"/><path class="cls-8" d="M78.43,37.44a1,1,0,0,0-1.35.33c-.5.69-.57,1.77-.16,2.06a1,1,0,0,0,.92,0c-.58.43-1.25.65-1.53.44s-.2-1.55.41-2.41A1.14,1.14,0,0,1,78.43,37.44Z"/><path class="cls-9" d="M78,38.55c-.14.3-.14.59,0,.65s.37-.13.51-.43.14-.59,0-.66S78.16,38.25,78,38.55Z"/><path class="cls-6" d="M79.46,48.74c-.69,1-.95,2.37-.54,2.65S80.61,51,81.29,50s.4-1.57,0-1.86S80.15,47.76,79.46,48.74Z"/><path class="cls-7" d="M79.68,48.65c-.6.85-.79,2.08-.4,2.35s1.53-.3,2.12-1.15.32-1.4-.06-1.67S80.28,47.8,79.68,48.65Z"/><path class="cls-8" d="M81.34,48.18a1,1,0,0,0-1.31.37c-.48.69-.55,1.74-.16,2a1,1,0,0,0,.89,0c-.57.45-1.21.68-1.48.49s-.2-1.5.4-2.35S81,47.91,81.34,48.18Z"/><path class="cls-9" d="M80.94,49.27c-.14.3-.14.58,0,.63s.35-.14.49-.44.14-.57,0-.63S81.08,49,80.94,49.27Z"/><path class="cls-6" d="M81.18,57.68c-.67,1-.93,2.34-.53,2.6s1.65-.44,2.32-1.41.4-1.56,0-1.82S81.86,56.7,81.18,57.68Z"/><path class="cls-7" d="M81.4,57.58c-.59.85-.78,2.06-.4,2.31s1.5-.34,2.08-1.19.32-1.37-.06-1.62S82,56.74,81.4,57.58Z"/><path class="cls-8" d="M83,57.08a1,1,0,0,0-1.28.4c-.47.68-.54,1.7-.16,2a1,1,0,0,0,.87-.06c-.55.45-1.18.69-1.45.52s-.19-1.46.4-2.31S82.64,56.83,83,57.08Z"/><path class="cls-9" d="M82.63,58.15c-.13.29-.14.57,0,.62s.35-.15.48-.44.14-.57,0-.62S82.77,57.86,82.63,58.15Z"/><path class="cls-6" d="M65.71,56.26c-.73,1-1,2.47-.54,2.75s1.83-.46,2.55-1.48.42-1.64,0-1.92S66.45,55.23,65.71,56.26Z"/><path class="cls-7" d="M66,56.16c-.63.9-.83,2.17-.4,2.44s1.66-.35,2.29-1.24.33-1.45-.09-1.72A1.27,1.27,0,0,0,66,56.16Z"/><path class="cls-8" d="M67.74,55.64a1.1,1.1,0,0,0-1.41.41c-.51.73-.57,1.81-.15,2.07a1.2,1.2,0,0,0,1-.06c-.6.47-1.3.72-1.6.54s-.23-1.54.4-2.44A1.26,1.26,0,0,1,67.74,55.64Z"/><path class="cls-9" d="M67.33,56.77c-.14.31-.14.6,0,.66s.38-.16.53-.47.14-.6,0-.65S67.48,56.46,67.33,56.77Z"/><path class="cls-6" d="M59.66,53.27c-.76,1-1,2.52-.56,2.81s1.91-.45,2.66-1.49.42-1.68,0-2S60.41,52.22,59.66,53.27Z"/><path class="cls-7" d="M59.9,53.17c-.65.91-.85,2.21-.4,2.49s1.73-.34,2.38-1.25.33-1.48-.11-1.76A1.33,1.33,0,0,0,59.9,53.17Z"/><path class="cls-8" d="M61.77,52.65a1.13,1.13,0,0,0-1.47.41c-.53.74-.59,1.84-.15,2.12a1.24,1.24,0,0,0,1-.06c-.63.48-1.36.73-1.67.54s-.25-1.58.4-2.49A1.33,1.33,0,0,1,61.77,52.65Z"/><path class="cls-9" d="M61.35,53.81c-.15.31-.15.61,0,.67s.4-.16.55-.48.14-.61,0-.67S61.5,53.49,61.35,53.81Z"/><path class="cls-6" d="M65.59,36c-.75,1-1,2.5-.56,2.82s1.87-.35,2.61-1.37.42-1.67,0-2S66.34,35,65.59,36Z"/><path class="cls-7" d="M65.83,35.9c-.65.89-.85,2.2-.41,2.51s1.7-.25,2.34-1.14.33-1.48-.09-1.79A1.24,1.24,0,0,0,65.83,35.9Z"/><path class="cls-8" d="M67.66,35.48a1.06,1.06,0,0,0-1.44.33c-.52.72-.59,1.84-.15,2.15a1.2,1.2,0,0,0,1,0c-.62.45-1.33.66-1.64.45s-.24-1.62.41-2.51A1.24,1.24,0,0,1,67.66,35.48Z"/><path class="cls-9" d="M67.24,36.63c-.15.31-.14.62,0,.68s.39-.14.54-.45.15-.62,0-.68S67.39,36.32,67.24,36.63Z"/><path class="cls-6" d="M73.39,30.29c-.72,1-1,2.45-.55,2.78s1.79-.32,2.5-1.31.42-1.65,0-2S74.12,29.29,73.39,30.29Z"/><path class="cls-7" d="M73.63,30.21c-.63.86-.83,2.15-.42,2.46s1.63-.21,2.25-1.07.33-1.46-.08-1.77A1.14,1.14,0,0,0,73.63,30.21Z"/><path class="cls-8" d="M75.38,29.82a1,1,0,0,0-1.38.31c-.51.69-.58,1.8-.16,2.11a1.07,1.07,0,0,0,1,0c-.6.44-1.28.64-1.58.42s-.21-1.6.42-2.46A1.16,1.16,0,0,1,75.38,29.82Z"/><path class="cls-9" d="M75,31c-.14.31-.14.61,0,.67s.38-.13.52-.43.15-.61,0-.67S75.11,30.65,75,31Z"/><path class="cls-6" d="M61,60.79c-.75,1.05-1,2.49-.55,2.77s1.87-.49,2.61-1.53.42-1.65,0-1.93S61.77,59.74,61,60.79Z"/><path class="cls-7" d="M61.27,60.69c-.65.91-.84,2.19-.4,2.45s1.7-.38,2.34-1.28.33-1.46-.1-1.73A1.33,1.33,0,0,0,61.27,60.69Z"/><path class="cls-8" d="M63.11,60.13a1.14,1.14,0,0,0-1.45.44c-.53.73-.58,1.82-.15,2.08a1.21,1.21,0,0,0,1-.08c-.62.48-1.33.75-1.64.57s-.25-1.54.4-2.45A1.33,1.33,0,0,1,63.11,60.13Z"/><path class="cls-9" d="M62.69,61.28c-.15.31-.15.6,0,.65s.39-.16.54-.47.14-.61,0-.66S62.84,61,62.69,61.28Z"/><path class="cls-6" d="M67.82,47.76c-.54.75-.73,1.81-.4,2s1.33-.3,1.86-1,.31-1.2,0-1.42S68.36,47,67.82,47.76Z"/><path class="cls-7" d="M68,47.7c-.46.64-.6,1.58-.29,1.79s1.21-.23,1.67-.87.24-1.07-.06-1.28A.92.92,0,0,0,68,47.7Z"/><path class="cls-8" d="M69.3,47.34a.78.78,0,0,0-1,.28c-.37.52-.42,1.32-.11,1.53a.85.85,0,0,0,.71,0c-.44.34-1,.51-1.17.37s-.17-1.15.29-1.79A.91.91,0,0,1,69.3,47.34Z"/><path class="cls-9" d="M69,48.17c-.11.23-.11.45,0,.49s.28-.11.39-.34.11-.44,0-.48S69.11,48,69,48.17Z"/><path class="cls-6" d="M68.36,62.29c-.52.75-.72,1.78-.39,2s1.31-.35,1.83-1.1.3-1.18,0-1.38S68.89,61.54,68.36,62.29Z"/><path class="cls-7" d="M68.53,62.22c-.45.65-.59,1.56-.29,1.74s1.19-.27,1.65-.91.23-1-.07-1.23S69,61.57,68.53,62.22Z"/><path class="cls-8" d="M69.82,61.82a.78.78,0,0,0-1,.31c-.37.53-.42,1.3-.12,1.49a.85.85,0,0,0,.7-.06c-.43.34-.94.54-1.15.4s-.16-1.09.29-1.74S69.51,61.63,69.82,61.82Z"/><path class="cls-9" d="M69.52,62.63c-.1.23-.1.44,0,.47s.28-.12.39-.34.1-.43,0-.47S69.63,62.41,69.52,62.63Z"/><path class="cls-6" d="M57.41,47c-.57.77-.77,1.86-.41,2.09s1.42-.31,2-1.08.32-1.24,0-1.47S58,46.17,57.41,47Z"/><path class="cls-7" d="M57.59,46.88c-.49.67-.63,1.64-.29,1.85s1.29-.23,1.78-.9.24-1.1-.09-1.31A1,1,0,0,0,57.59,46.88Z"/><path class="cls-8" d="M59,46.51a.85.85,0,0,0-1.1.29c-.4.54-.44,1.37-.1,1.58a.89.89,0,0,0,.75,0c-.47.34-1,.52-1.24.37s-.2-1.18.29-1.85A1,1,0,0,1,59,46.51Z"/><path class="cls-9" d="M58.68,47.37c-.11.24-.11.46,0,.5s.3-.11.42-.34.1-.46,0-.5S58.79,47.14,58.68,47.37Z"/><path class="cls-6" d="M56.93,38.07c-.57.77-.77,1.88-.4,2.12s1.43-.27,2-1,.32-1.26,0-1.5S57.51,37.3,56.93,38.07Z"/><path class="cls-7" d="M57.12,38c-.49.68-.64,1.66-.3,1.89s1.31-.2,1.81-.86.24-1.12-.09-1.35A1,1,0,0,0,57.12,38Z"/><path class="cls-8" d="M58.54,37.68a.84.84,0,0,0-1.12.26c-.4.54-.44,1.38-.1,1.61a.93.93,0,0,0,.77,0c-.48.34-1,.51-1.27.35s-.19-1.21.3-1.89A1,1,0,0,1,58.54,37.68Z"/><path class="cls-9" d="M58.22,38.54c-.11.24-.11.47,0,.51s.3-.1.41-.34.11-.46,0-.51S58.33,38.31,58.22,38.54Z"/><path class="cls-6" d="M70.7,39.54c-.54.74-.74,1.8-.41,2s1.32-.27,1.85-1,.31-1.21,0-1.44S71.23,38.8,70.7,39.54Z"/><path class="cls-7" d="M70.87,39.48c-.46.64-.61,1.58-.3,1.79s1.2-.19,1.66-.83.24-1.06-.06-1.28A.88.88,0,0,0,70.87,39.48Z"/><path class="cls-8" d="M72.16,39.16a.75.75,0,0,0-1,.25c-.37.52-.42,1.32-.11,1.53a.8.8,0,0,0,.7,0c-.44.33-1,.49-1.16.33s-.16-1.15.3-1.79A.87.87,0,0,1,72.16,39.16Z"/><path class="cls-9" d="M71.86,40c-.11.22-.1.44,0,.48s.28-.1.39-.32.1-.45,0-.49S72,39.76,71.86,40Z"/><path class="cls-6" d="M68.17,25.41c-.54.74-.74,1.83-.41,2.08s1.36-.21,1.9-.95.32-1.23,0-1.48S68.72,24.67,68.17,25.41Z"/><path class="cls-7" d="M68.35,25.35c-.47.65-.62,1.61-.3,1.85s1.23-.14,1.71-.78.24-1.09-.07-1.33A.88.88,0,0,0,68.35,25.35Z"/><path class="cls-8" d="M69.69,25.09a.75.75,0,0,0-1.06.21c-.38.51-.43,1.35-.11,1.59a.87.87,0,0,0,.72,0c-.45.32-1,.46-1.19.29s-.17-1.2.3-1.85A.88.88,0,0,1,69.69,25.09Z"/><path class="cls-9" d="M69.38,25.93c-.11.23-.11.45,0,.51s.29-.1.4-.33.11-.45,0-.5S69.49,25.7,69.38,25.93Z"/><path class="cls-6" d="M74.93,44.31c-.92,1.3-1.27,3.13-.7,3.52s2.26-.51,3.16-1.79.54-2.09,0-2.48S75.85,43,74.93,44.31Z"/><path class="cls-7" d="M75.23,44.19c-.8,1.13-1.06,2.76-.53,3.12s2-.37,2.84-1.49S78,44,77.45,43.61A1.5,1.5,0,0,0,75.23,44.19Z"/><path class="cls-8" d="M77.45,43.61a1.29,1.29,0,0,0-1.75.46c-.65.91-.74,2.3-.21,2.66a1.37,1.37,0,0,0,1.2,0c-.76.58-1.62.88-2,.62-.53-.36-.27-2,.53-3.12A1.51,1.51,0,0,1,77.45,43.61Z"/><path class="cls-9" d="M76.92,45.05c-.18.39-.18.76,0,.84s.48-.18.66-.58.19-.76,0-.83S77.11,44.66,76.92,45.05Z"/><path class="cls-6" d="M62.64,42.57c-1,1.35-1.33,3.27-.72,3.67s2.45-.51,3.41-1.85.56-2.17,0-2.58S63.62,41.23,62.64,42.57Z"/><path class="cls-7" d="M63,42.45c-.85,1.17-1.11,2.87-.53,3.26s2.23-.38,3.07-1.54.43-1.93-.14-2.31A1.65,1.65,0,0,0,63,42.45Z"/><path class="cls-8" d="M65.36,41.86a1.42,1.42,0,0,0-1.89.47c-.69.94-.77,2.39-.19,2.78a1.59,1.59,0,0,0,1.3,0c-.82.6-1.75.9-2.15.64-.58-.39-.32-2.09.53-3.26A1.65,1.65,0,0,1,65.36,41.86Z"/><path class="cls-9" d="M64.81,43.35c-.19.41-.19.8,0,.88s.51-.19.71-.59.19-.8,0-.88S65,43,64.81,43.35Z"/><path class="cls-6" d="M61.75,29.14c-1,1.35-1.36,3.31-.73,3.75s2.49-.42,3.47-1.75.57-2.22,0-2.67S62.75,27.81,61.75,29.14Z"/><path class="cls-7" d="M62.08,29c-.87,1.16-1.13,2.9-.54,3.32s2.27-.29,3.12-1.45.44-2-.14-2.38A1.63,1.63,0,0,0,62.08,29Z"/><path class="cls-8" d="M64.52,28.53a1.4,1.4,0,0,0-1.93.4c-.69.94-.78,2.43-.19,2.85a1.53,1.53,0,0,0,1.32,0c-.82.59-1.77.85-2.18.56-.59-.42-.33-2.16.54-3.32A1.63,1.63,0,0,1,64.52,28.53Z"/><path class="cls-9" d="M64,30c-.19.41-.19.82,0,.91s.53-.17.72-.58.2-.82,0-.91S64.16,29.63,64,30Z"/><path class="cls-6" d="M86.33,42.42c-.87,1.24-1.21,3-.7,3.39s2.11-.47,3-1.71.52-2,0-2.39S87.19,41.18,86.33,42.42Z"/><path class="cls-7" d="M86.61,42.31c-.76,1.08-1,2.65-.53,3S88,45,88.74,43.9s.41-1.78-.07-2.14S87.36,41.23,86.61,42.31Z"/><path class="cls-8" d="M88.67,41.76a1.17,1.17,0,0,0-1.63.43c-.6.87-.7,2.22-.22,2.57a1.2,1.2,0,0,0,1.11,0c-.71.56-1.51.83-1.85.59s-.23-1.93.53-3S88.19,41.4,88.67,41.76Z"/><path class="cls-9" d="M88.17,43.14c-.17.38-.18.75,0,.82s.44-.18.62-.55.18-.74,0-.82S88.34,42.77,88.17,43.14Z"/><path class="cls-6" d="M87,52.19c-.86,1.24-1.2,3-.69,3.33s2.07-.53,2.91-1.76.51-2,0-2.34S87.84,51,87,52.19Z"/><path class="cls-7" d="M87.26,52.07c-.75,1.08-1,2.62-.52,3s1.88-.4,2.61-1.47.41-1.75-.06-2.09S88,51,87.26,52.07Z"/><path class="cls-8" d="M89.29,51.46a1.19,1.19,0,0,0-1.6.48c-.6.87-.7,2.19-.23,2.52a1.24,1.24,0,0,0,1.1-.07c-.7.57-1.49.87-1.82.63s-.23-1.87.52-3S88.82,51.13,89.29,51.46Z"/><path class="cls-9" d="M88.8,52.83c-.17.38-.18.73,0,.8s.44-.19.61-.56.18-.73,0-.8S89,52.46,88.8,52.83Z"/><path class="cls-6" d="M73.59,56.26c-.92,1.3-1.26,3.11-.7,3.47s2.25-.59,3.15-1.88.53-2.06,0-2.42S74.5,55,73.59,56.26Z"/><path class="cls-7" d="M73.88,56.13c-.79,1.13-1,2.74-.52,3.07s2-.44,2.83-1.56.42-1.83-.09-2.17S74.68,55,73.88,56.13Z"/><path class="cls-8" d="M76.09,55.47a1.32,1.32,0,0,0-1.74.52c-.64.91-.72,2.28-.2,2.61a1.38,1.38,0,0,0,1.19-.08c-.75.6-1.61.92-2,.68s-.27-1.94.52-3.07S75.58,55.13,76.09,55.47Z"/><path class="cls-9" d="M75.58,56.9c-.18.39-.19.76,0,.82s.48-.2.66-.59.18-.75,0-.82S75.76,56.51,75.58,56.9Z"/><path class="cls-16" d="M81.33,29.84s-1.6,2.75-.41,4.62a7,7,0,0,1-.29,7.22s5.61-3.57,5.76-7.34c0,0,1.63,1.4,3.39,3s2.12,5.3,2.12,5.3,2.75-3.07.37-5.86c0,0,5.59,7.86,9.38,2.58,0,0-3.67,1-5-2.5a7.52,7.52,0,0,0-5.57-5,2.69,2.69,0,0,1-1.3-4.28c1.42-1.52,3.35-3.28,3.35-3.28A2.69,2.69,0,0,0,91.92,22c-1.36-.88-1.94-.56-2.18.61S87.27,28,85.4,26.5s-4.66-4.19-7.66-4.37-6-2.65-5.4-4.9c0,0-2.38,5,3.17,7.78A4.27,4.27,0,0,0,71,28.34S76,25.15,81.33,29.84Z"/><path class="cls-17" d="M80.92,34.46c-1.19-1.87.41-4.62.41-4.62C76,25.15,71,28.34,71,28.34A4.27,4.27,0,0,1,75.51,25c-5.55-2.76-3.17-7.78-3.17-7.78-.6,2.25,2.32,4.71,5.4,4.9S83.5,25,85.4,26.5s4.09-2.78,4.34-3.94.82-1.49,2.18-.61a2.69,2.69,0,0,1,1.19,2.37s-1.44,1.22-2.88-.81c0,0-1.39,4.53-4.37,3.62s-3.29-3.39-7-3.92c-3.23-.46-5.12.65-2,2,0,0,2.25.86,6,4.94a2.48,2.48,0,0,0-1.22,2.29c-.11,1.83,3,4.5-1,9.26A7,7,0,0,0,80.92,34.46Z"/><path class="cls-18" d="M86,33.76a3.52,3.52,0,0,1,.42-2.23,4.19,4.19,0,0,0,1.37,3.1c1.49,1.42,5.18,2.61,4.12,8,0,0-.38-3.68-2.12-5.3s-3.39-3-3.39-3a5.11,5.11,0,0,1-.61,2.11A8.38,8.38,0,0,0,86,33.76Z"/><path class="cls-19" d="M92.81,37.52s-1.08-1.65-.76-2.59a7.82,7.82,0,0,0,5.19,5.25,4.35,4.35,0,0,0,4.41-.78C98.57,43.7,94.32,39.33,92.81,37.52Z"/><path class="cls-14" d="M90.75,26.32a3.5,3.5,0,0,0-1.87,2.38c-.15,1.53.56,3.2,2,3.44a3.86,3.86,0,0,1,3,1.81,9.81,9.81,0,0,0-2.93-1.24c-1-.07-3.56-1.81-2.48-4.16S90.75,26.32,90.75,26.32Z"/><path class="cls-20" d="M90.28,21.56s.7-.55,2,.72,1,2.34.16,2.34S88.92,22.92,90.28,21.56Z"/></g></g></g></svg>