<?xml version="1.0" encoding="UTF-8" standalone="no"?>
<!-- Created with Inkscape (http://www.inkscape.org/) -->

<svg
   xmlns:dc="http://purl.org/dc/elements/1.1/"
   xmlns:cc="http://creativecommons.org/ns#"
   xmlns:rdf="http://www.w3.org/1999/02/22-rdf-syntax-ns#"
   xmlns:svg="http://www.w3.org/2000/svg"
   xmlns="http://www.w3.org/2000/svg"
   xmlns:sodipodi="http://sodipodi.sourceforge.net/DTD/sodipodi-0.dtd"
   xmlns:inkscape="http://www.inkscape.org/namespaces/inkscape"
   width="51.27129mm"
   height="37.235394mm"
   viewBox="0 0 51.27129 37.235394"
   version="1.1"
   id="svg1765"
   inkscape:version="0.92.2 (5c3e80d, 2017-08-06)">
  <defs
     id="defs1759">
    <clipPath
       clipPathUnits="userSpaceOnUse"
       id="clipPath605">
      <path
         d="M 456.084,142.196 H 569 V 122.451 H 456.084 Z"
         id="path603"
         inkscape:connector-curvature="0" />
    </clipPath>
    <clipPath
       clipPathUnits="userSpaceOnUse"
       id="clipPath633">
      <path
         d="m 490.205,176.17 c -0.04,-0.002 -0.08,-0.003 -0.121,-0.004 v 0 c -1.337,-0.05 -2.664,-0.561 -3.724,-1.54 v 0 c -5.438,-5.026 -7.426,-10.224 -7.963,-14.346 v 0 c -0.14,-1.077 -0.182,-2.081 -0.159,-2.988 v 0 c 10e-4,-0.039 0.002,-0.077 0.003,-0.115 v 0 c 0.068,-2.215 0.511,-3.842 0.797,-4.551 v 0 c 0.93,-2.298 3.162,-3.678 5.501,-3.634 v 0 c 0.035,0.001 0.069,0.002 0.103,0.003 v 0 c 0.657,0.024 1.32,0.161 1.965,0.421 v 0 c 0.817,0.331 1.518,0.826 2.08,1.432 v 0 c 1.486,1.602 2.003,3.978 1.13,6.136 v 0 c -2.144,5.302 1.151,6.062 4.434,9.105 v 0 c 2.356,2.179 2.502,5.856 0.323,8.214 v 0 c -1.145,1.239 -2.705,1.868 -4.269,1.868 v 0 c -0.034,0 -0.067,-0.001 -0.1,-0.001"
         id="path631"
         inkscape:connector-curvature="0" />
    </clipPath>
    <clipPath
       clipPathUnits="userSpaceOnUse"
       id="clipPath659">
      <path
         d="m 525.286,151.389 c -3.175,-4.097 -8.294,-7.019 -13.436,-7.671 v 0 c -0.047,-0.006 -0.096,-0.009 -0.144,-0.014 v 0 c -0.048,-0.006 -0.096,-0.016 -0.143,-0.023 v 0 c -4.92,-0.622 -11.084,0.815 -14.925,4.078 v 0 c -0.707,0.6 -1.388,1.242 -2.036,1.92 v 0 c -0.081,-0.054 -0.179,-0.102 -0.303,-0.125 v 0 c -1.573,-0.292 -2.901,-1.147 -3.81,-2.319 v 0 c -0.879,-1.134 -1.366,-2.563 -1.31,-4.065 v 0 c 0,-0.009 0,-0.016 0,-0.024 v 0 c 0.012,-0.293 0.045,-0.589 0.1,-0.886 v 0 c 0.631,-3.402 3.898,-5.647 7.296,-5.018 v 0 c 3.954,0.731 7.28,3.278 9.151,6.528 v 0 c 1.33,-0.253 2.702,-0.373 4.101,-0.342 v 0 c 1.474,0.031 2.911,0.226 4.292,0.574 v 0 c 0.705,-0.979 1.167,-2.273 1.281,-3.66 v 0 c 0.284,-3.323 3.118,-5.816 6.413,-5.725 v 0 c 0.047,0.002 0.093,0.004 0.14,0.005 v 0 c 0.074,0.004 0.148,0.009 0.222,0.015 v 0 c 3.445,0.295 6,3.326 5.704,6.773 v 0 c -0.286,3.36 -1.368,6.53 -3.114,9.2 v 0 z"
         id="path657"
         inkscape:connector-curvature="0" />
    </clipPath>
    <clipPath
       clipPathUnits="userSpaceOnUse"
       id="clipPath683">
      <path
         d="M 0,768 H 1024 V 0 H 0 Z"
         id="path681"
         inkscape:connector-curvature="0" />
    </clipPath>
    <clipPath
       clipPathUnits="userSpaceOnUse"
       id="clipPath699">
      <path
         d="m 518.468,173.227 c -3.033,-1.725 -7.041,-2.691 -11.287,-2.724 v 0 c -4.158,-0.03 -8.215,0.824 -11.425,2.406 v 0 c -0.72,0.355 -1.536,-0.096 -1.822,-1.006 v 0 c -0.063,-0.203 -0.095,-0.412 -0.099,-0.618 v 0 c 0,-0.005 0,-0.01 0,-0.014 v 0 c -0.007,-0.713 0.329,-1.387 0.885,-1.662 v 0 c 3.324,-1.638 7.441,-2.567 11.669,-2.643 v 0 c 0.068,-0.001 0.136,-0.002 0.204,-0.003 v 0 c 0.196,-0.001 0.391,-0.002 0.587,0 v 0 c 4.629,0.034 9.043,1.113 12.427,3.037 v 0 c 0.507,0.288 0.814,0.907 0.833,1.561 v 0 c 10e-4,0.024 10e-4,0.047 10e-4,0.07 v 0 c 0,0.239 -0.039,0.48 -0.12,0.711 v 0 c -0.232,0.655 -0.74,1.042 -1.275,1.042 v 0 c -0.193,0 -0.39,-0.05 -0.578,-0.157"
         id="path697"
         inkscape:connector-curvature="0" />
    </clipPath>
    <mask
       maskUnits="userSpaceOnUse"
       x="0"
       y="0"
       width="1"
       height="1"
       id="mask713">
      <g
         id="g751">
        <g
           clip-path="url(#clipPath707)"
           id="g749">
          <g
             id="g747">
            <g
               clip-path="url(#clipPath711)"
               id="g745">
              <g
                 id="g743">
                <g
                   transform="scale(1,-1)"
                   id="g741">
                  <g
                     id="g739">
                    <path
                       d="m 493.777,-167.14258 c 8.8656,0.12402 17.73108,0.24756 26.59669,0.37158 0,0 0,0 0,0 -8.86561,-0.12402 -17.73109,-0.24756 -26.59669,-0.37158 0,0 0,0 0,0 z"
                       style="fill:#000000;fill-opacity:1;fill-rule:nonzero;stroke:none"
                       id="path715"
                       inkscape:connector-curvature="0" />
                    <path
                       d="m 493.777,-167.14258 c 8.8656,0.12402 17.73108,0.24756 26.59669,0.37158 10e-4,-0.10645 0.003,-0.21143 0.004,-0.31445 -8.8656,-0.12403 -17.73108,-0.24756 -26.59669,-0.37158 -0.001,0.10351 -0.003,0.208 -0.004,0.31445 z"
                       style="fill:#000000;fill-opacity:1;fill-rule:nonzero;stroke:none"
                       id="path717"
                       inkscape:connector-curvature="0" />
                    <path
                       d="m 493.78139,-167.45703 c 8.86561,0.12402 17.73109,0.24755 26.59669,0.37158 0.001,-0.10352 0.003,-0.20557 0.004,-0.30664 -8.8656,-0.12354 -17.73108,-0.24756 -26.59668,-0.3711 -10e-4,0.10108 -0.003,0.20313 -0.004,0.30616 z"
                       style="fill:#030303;fill-opacity:1;fill-rule:nonzero;stroke:none"
                       id="path719"
                       inkscape:connector-curvature="0" />
                    <path
                       d="m 493.78567,-167.76319 c 8.8656,0.12354 17.73108,0.24756 26.59668,0.3711 0.003,-0.20215 0.006,-0.40088 0.008,-0.59961 -8.86549,-0.12354 -17.73109,-0.24756 -26.59657,-0.3711 -0.003,0.19873 -0.006,0.39698 -0.008,0.59961 z"
                       style="fill:#0b0b0b;fill-opacity:1;fill-rule:nonzero;stroke:none"
                       id="path721"
                       inkscape:connector-curvature="0" />
                    <path
                       d="m 493.79409,-168.3628 c 8.86548,0.12354 17.73108,0.24756 26.59657,0.3711 0.003,-0.19824 0.006,-0.39697 0.008,-0.59912 -8.86561,-0.12403 -17.73109,-0.24756 -26.59669,-0.37158 -0.003,0.20214 -0.005,0.40087 -0.008,0.5996 z"
                       style="fill:#282828;fill-opacity:1;fill-rule:nonzero;stroke:none"
                       id="path723"
                       inkscape:connector-curvature="0" />
                    <path
                       d="m 493.80239,-168.9624 c 8.8656,0.12402 17.73108,0.24755 26.59669,0.37158 0.003,-0.20264 0.006,-0.40821 0.009,-0.6211 -8.86561,-0.12353 -17.73109,-0.24756 -26.59669,-0.37158 -0.003,0.21289 -0.006,0.41895 -0.009,0.6211 z"
                       style="fill:#515151;fill-opacity:1;fill-rule:nonzero;stroke:none"
                       id="path725"
                       inkscape:connector-curvature="0" />
                    <path
                       d="m 493.81106,-169.5835 c 8.8656,0.12402 17.73108,0.24805 26.59669,0.37158 0.003,-0.21289 0.006,-0.4331 0.009,-0.66357 -8.8656,-0.12402 -17.73108,-0.24756 -26.59668,-0.37158 -0.003,0.23095 -0.006,0.45068 -0.009,0.66357 z"
                       style="fill:#808080;fill-opacity:1;fill-rule:nonzero;stroke:none"
                       id="path727"
                       inkscape:connector-curvature="0" />
                    <path
                       d="m 493.82034,-170.24707 c 8.8656,0.12402 17.73108,0.24756 26.59668,0.37158 0.003,-0.23096 0.007,-0.47217 0.0101,-0.72754 -8.86548,-0.12402 -17.73108,-0.24756 -26.59656,-0.37158 -0.004,0.25586 -0.007,0.49707 -0.0102,0.72754 z"
                       style="fill:#aeaeae;fill-opacity:1;fill-rule:nonzero;stroke:none"
                       id="path729"
                       inkscape:connector-curvature="0" />
                    <path
                       d="m 493.83059,-170.97461 c 8.86548,0.12402 17.73108,0.24756 26.59656,0.37158 0.004,-0.25586 0.007,-0.52588 0.0114,-0.81347 -8.86548,-0.12354 -17.73109,-0.24756 -26.59657,-0.3711 -0.004,0.2876 -0.008,0.55762 -0.0114,0.81299 z"
                       style="fill:#d7d7d7;fill-opacity:1;fill-rule:nonzero;stroke:none"
                       id="path731"
                       inkscape:connector-curvature="0" />
                    <path
                       d="m 493.84194,-171.7876 c 8.86548,0.12354 17.73109,0.24756 26.59657,0.3711 0.002,-0.14356 0.004,-0.292 0.006,-0.44532 -8.8656,-0.12353 -17.73108,-0.24756 -26.59668,-0.37109 -0.002,0.15283 -0.004,0.30127 -0.006,0.44531 z"
                       style="fill:#f4f4f4;fill-opacity:1;fill-rule:nonzero;stroke:none"
                       id="path733"
                       inkscape:connector-curvature="0" />
                    <path
                       d="m 493.84805,-172.23291 c 8.8656,0.12353 17.73108,0.24756 26.59668,0.37109 0.002,-0.15332 0.004,-0.31103 0.007,-0.47461 -8.86548,-0.12353 -17.73108,-0.24755 -26.59656,-0.37158 -0.002,0.16358 -0.005,0.32178 -0.007,0.4751 z"
                       style="fill:#fcfcfc;fill-opacity:1;fill-rule:nonzero;stroke:none"
                       id="path735"
                       inkscape:connector-curvature="0" />
                    <path
                       d="m 493.85476,-172.70801 c 8.86548,0.12403 17.73108,0.24805 26.59656,0.37158 0.005,-0.34277 0.01,-0.68554 0.0144,-1.02832 -8.8656,-0.12353 -17.73109,-0.24755 -26.59669,-0.37109 -0.005,0.34277 -0.01,0.68555 -0.0143,1.02783 z"
                       style="fill:#ffffff;fill-opacity:1;fill-rule:nonzero;stroke:none"
                       id="path737"
                       inkscape:connector-curvature="0" />
                  </g>
                </g>
              </g>
            </g>
          </g>
        </g>
      </g>
    </mask>
    <clipPath
       clipPathUnits="userSpaceOnUse"
       id="clipPath707">
      <path
         d="m 493.777,173.736 h 26.689 v -6.965 h -26.689 z"
         id="path705"
         inkscape:connector-curvature="0" />
    </clipPath>
    <clipPath
       clipPathUnits="userSpaceOnUse"
       id="clipPath711">
      <path
         d="m 493.777,173.736 h 26.689 v -6.965 h -26.689 z"
         id="path709"
         inkscape:connector-curvature="0" />
    </clipPath>
    <clipPath
       clipPathUnits="userSpaceOnUse"
       id="clipPath771">
      <path
         d="M 0,768 H 1024 V 0 H 0 Z"
         id="path769"
         inkscape:connector-curvature="0" />
    </clipPath>
    <clipPath
       clipPathUnits="userSpaceOnUse"
       id="clipPath795">
      <path
         d="m 505.132,195.031 h 7.768 v -5.954 h -7.768 z"
         id="path793"
         inkscape:connector-curvature="0" />
    </clipPath>
    <clipPath
       clipPathUnits="userSpaceOnUse"
       id="clipPath799">
      <path
         d="m 509.786,194.413 c -0.934,-0.312 -1.869,-0.624 -2.803,-0.936 v 0 c -1.011,-0.362 -1.556,-1.462 -1.226,-2.487 v 0 c 0.004,-0.012 0.008,-0.024 0.012,-0.037 v 0 c 0.354,-1.035 1.478,-1.592 2.518,-1.245 v 0 l 2.721,0.909 c 1.045,0.349 1.609,1.479 1.26,2.523 v 0 c -0.279,0.835 -1.057,1.363 -1.891,1.363 v 0 c -0.196,0 -0.395,-0.029 -0.591,-0.09"
         id="path797"
         inkscape:connector-curvature="0" />
    </clipPath>
    <mask
       maskUnits="userSpaceOnUse"
       x="0"
       y="0"
       width="1"
       height="1"
       id="mask809">
      <g
         id="g841">
        <g
           clip-path="url(#clipPath803)"
           id="g839">
          <g
             id="g837">
            <g
               clip-path="url(#clipPath807)"
               id="g835">
              <g
                 id="g833">
                <g
                   transform="scale(1,-1)"
                   id="g831">
                  <g
                     id="g829">
                    <path
                       d="m 506.39518,-189.077 c 2.16821,-0.72412 4.33642,-1.44824 6.50476,-2.17236 0,0 0,0 0,0 -2.16834,0.72412 -4.33655,1.44824 -6.50476,2.17236 0,0 0,0 0,0 z"
                       style="fill:#000000;fill-opacity:1;fill-rule:nonzero;stroke:none"
                       id="path811"
                       inkscape:connector-curvature="0" />
                    <path
                       d="m 506.39518,-189.077 c 2.16821,-0.72412 4.33642,-1.44824 6.50476,-2.17236 -0.0527,-0.15723 -0.10535,-0.31495 -0.15796,-0.47266 -2.16821,0.72412 -4.33642,1.44824 -6.50463,2.17236 0.0526,0.15772 0.10522,0.31494 0.15783,0.47266 z"
                       style="fill:#000000;fill-opacity:1;fill-rule:nonzero;stroke:none"
                       id="path813"
                       inkscape:connector-curvature="0" />
                    <path
                       d="m 506.23735,-189.54966 c 2.16821,-0.72412 4.33642,-1.44824 6.50463,-2.17236 -0.0526,-0.15772 -0.10523,-0.31494 -0.15784,-0.47266 -2.16833,0.72412 -4.33654,1.44825 -6.50475,2.17188 0.0526,0.15771 0.10522,0.31543 0.15796,0.47314 z"
                       style="fill:#040404;fill-opacity:1;fill-rule:nonzero;stroke:none"
                       id="path815"
                       inkscape:connector-curvature="0" />
                    <path
                       d="m 506.07939,-190.0228 c 2.16821,-0.72363 4.33642,-1.44776 6.50475,-2.17188 -0.0527,-0.15771 -0.10534,-0.31543 -0.15796,-0.47314 -2.16821,0.72412 -4.33642,1.44824 -6.50463,2.17236 0.0526,0.15772 0.10523,0.31543 0.15784,0.47266 z"
                       style="fill:#101010;fill-opacity:1;fill-rule:nonzero;stroke:none"
                       id="path817"
                       inkscape:connector-curvature="0" />
                    <path
                       d="m 505.92155,-190.49546 c 2.16821,-0.72412 4.33642,-1.44824 6.50463,-2.17236 -0.0526,-0.15723 -0.10522,-0.31494 -0.15783,-0.47266 -2.16834,0.72412 -4.33655,1.44824 -6.50476,2.17237 0.0526,0.15771 0.10523,0.31494 0.15796,0.47265 z"
                       style="fill:#242424;fill-opacity:1;fill-rule:nonzero;stroke:none"
                       id="path819"
                       inkscape:connector-curvature="0" />
                    <path
                       d="m 505.76359,-190.96811 c 2.16821,-0.72413 4.33642,-1.44825 6.50476,-2.17237 -0.0527,-0.15771 -0.10535,-0.31494 -0.15796,-0.47265 -2.16821,0.72412 -4.33642,1.44824 -6.50464,2.17187 0.0526,0.15772 0.10523,0.31543 0.15784,0.47315 z"
                       style="fill:#404040;fill-opacity:1;fill-rule:nonzero;stroke:none"
                       id="path821"
                       inkscape:connector-curvature="0" />
                    <path
                       d="m 505.60575,-191.44126 c 2.16822,-0.72363 4.33643,-1.44775 6.50464,-2.17187 -0.0526,-0.15772 -0.10523,-0.31544 -0.15784,-0.47315 -2.16821,0.72412 -4.33654,1.44824 -6.50475,2.17236 0.0526,0.15772 0.10522,0.31543 0.15795,0.47266 z"
                       style="fill:#646464;fill-opacity:1;fill-rule:nonzero;stroke:none"
                       id="path823"
                       inkscape:connector-curvature="0" />
                    <path
                       d="m 505.4478,-191.91392 c 2.16821,-0.72412 4.33654,-1.44824 6.50475,-2.17236 -0.0526,-0.15723 -0.10535,-0.31494 -0.15796,-0.47266 -2.16821,0.72413 -4.33642,1.44825 -6.50463,2.17237 0.0526,0.15771 0.10522,0.31494 0.15784,0.47265 z"
                       style="fill:#8f8f8f;fill-opacity:1;fill-rule:nonzero;stroke:none"
                       id="path825"
                       inkscape:connector-curvature="0" />
                    <path
                       d="m 505.28996,-192.38657 c 2.16821,-0.72412 4.33642,-1.44824 6.50463,-2.17237 -0.0526,-0.15771 -0.10522,-0.31494 -0.15783,-0.47265 -2.16822,0.72412 -4.33655,1.44824 -6.50476,2.17187 0.0526,0.15772 0.10535,0.31543 0.15796,0.47315 z"
                       style="fill:#c3c3c3;fill-opacity:1;fill-rule:nonzero;stroke:none"
                       id="path827"
                       inkscape:connector-curvature="0" />
                  </g>
                </g>
              </g>
            </g>
          </g>
        </g>
      </g>
    </mask>
    <clipPath
       clipPathUnits="userSpaceOnUse"
       id="clipPath803">
      <path
         d="m 505.132,195.031 h 7.768 v -5.954 h -7.768 z"
         id="path801"
         inkscape:connector-curvature="0" />
    </clipPath>
    <clipPath
       clipPathUnits="userSpaceOnUse"
       id="clipPath807">
      <path
         d="m 505.132,195.031 h 7.768 v -5.955 h -7.768 z"
         id="path805"
         inkscape:connector-curvature="0" />
    </clipPath>
  </defs>
  <sodipodi:namedview
     id="base"
     pagecolor="#ffffff"
     bordercolor="#666666"
     borderopacity="1.0"
     inkscape:pageopacity="0.0"
     inkscape:pageshadow="2"
     inkscape:zoom="0.35"
     inkscape:cx="382.60492"
     inkscape:cy="61.794656"
     inkscape:document-units="mm"
     inkscape:current-layer="layer1"
     showgrid="false"
     fit-margin-top="0"
     fit-margin-left="0"
     fit-margin-right="0"
     fit-margin-bottom="0"
     inkscape:window-width="960"
     inkscape:window-height="600"
     inkscape:window-x="0"
     inkscape:window-y="23"
     inkscape:window-maximized="0" />
  <metadata
     id="metadata1762">
    <rdf:RDF>
      <cc:Work
         rdf:about="">
        <dc:format>image/svg+xml</dc:format>
        <dc:type
           rdf:resource="http://purl.org/dc/dcmitype/StillImage" />
        <dc:title></dc:title>
      </cc:Work>
    </rdf:RDF>
  </metadata>
  <g
     inkscape:label="Layer 1"
     inkscape:groupmode="layer"
     id="layer1"
     transform="translate(110.30231,-127.94778)">
    <g
       id="g1283"
       transform="matrix(0.35277777,0,0,-0.35277777,-259.76155,208.38116)">
      <g
         id="g599">
        <g
           id="g601" />
        <g
           id="g613">
          <g
             style="opacity:0.30000299"
             id="g611"
             clip-path="url(#clipPath605)">
            <g
               id="g609"
               transform="translate(496.7856,129.436)">
              <path
                 inkscape:connector-curvature="0"
                 id="path607"
                 style="fill:#a9a9a9;fill-opacity:1;fill-rule:nonzero;stroke:none"
                 d="m 0,0 c -0.016,-0.081 -0.016,-0.163 -0.008,-0.244 0.276,-4.738 16.669,-7.648 36.605,-6.485 19.945,1.154 35.882,5.933 35.614,10.679 -0.041,0.634 -0.358,1.227 -0.935,1.788 0.122,0.171 0.179,0.349 0.179,0.52 0,3.593 -25.105,6.502 -56.078,6.502 -30.973,0 -56.079,-2.909 -56.079,-6.502 C -40.702,3.284 -23.496,0.78 0,0" />
            </g>
          </g>
        </g>
      </g>
      <g
         transform="translate(525.2238,164.1753)"
         id="g615">
        <path
           inkscape:connector-curvature="0"
           id="path617"
           style="fill:#e88a1b;fill-opacity:1;fill-rule:nonzero;stroke:none"
           d="m 0,0 c -2.522,-0.319 -5.026,1.114 -5.96,3.597 -1.093,2.904 0.375,6.144 3.279,7.237 8.394,3.16 9.755,4.279 12.13,9.982 2.538,6.095 -0.558,13.649 -2.63,17.61 -1.438,2.75 -0.375,6.145 2.375,7.583 2.751,1.436 6.144,0.374 7.582,-2.375 5.151,-9.848 6.233,-19.487 3.046,-27.138 C 17.807,11.657 15.786,8.692 12.85,6.261 9.909,3.827 6.38,2.238 1.277,0.318 0.856,0.16 0.428,0.054 0,0" />
      </g>
      <g
         transform="translate(511.7538,145.7705)"
         id="g619">
        <path
           inkscape:connector-curvature="0"
           id="path621"
           style="fill:#e57917;fill-opacity:1;fill-rule:nonzero;stroke:none"
           d="M 0,0 C -0.118,0.948 -0.296,2.382 -1.711,3.42 -3.672,4.858 -7.464,5.274 -20.295,2.921 l -0.348,-0.065 c -25.406,-4.659 -32.235,-5.91 -46.063,1.181 -10.24,5.251 -17.436,19.712 -15.714,31.578 0.418,2.885 1.513,6.911 4.349,9.711 2.51,2.479 6.219,3.455 9.014,2.373 1.011,-0.385 2.136,0.112 2.524,1.117 0.389,1.005 -0.111,2.135 -1.117,2.524 -4.246,1.641 -9.54,0.343 -13.163,-3.236 -2.856,-2.819 -4.747,-6.944 -5.47,-11.928 -1.972,-13.593 6.011,-29.569 17.796,-35.613 15.009,-7.697 22.784,-6.271 48.548,-1.545 l 0.348,0.063 c 13.135,2.41 15.251,1.512 15.586,1.18 0.05,-0.09 0.099,-0.483 0.131,-0.742 C -3.717,-1.748 0.125,-1.005 0,0" />
      </g>
      <g
         transform="translate(511.7538,145.7705)"
         id="g623">
        <path
           inkscape:connector-curvature="0"
           id="path625"
           style="fill:none;stroke:#e57917;stroke-width:3;stroke-linecap:butt;stroke-linejoin:miter;stroke-miterlimit:10;stroke-dasharray:none;stroke-opacity:1"
           d="M 0,0 C -0.118,0.948 -0.296,2.382 -1.711,3.42 -3.672,4.858 -7.464,5.274 -20.295,2.921 l -0.348,-0.065 c -25.406,-4.659 -32.235,-5.91 -46.063,1.181 -10.24,5.251 -17.436,19.712 -15.714,31.578 0.418,2.885 1.513,6.911 4.349,9.711 2.51,2.479 6.219,3.455 9.014,2.373 1.011,-0.385 2.136,0.112 2.524,1.117 0.389,1.005 -0.111,2.135 -1.117,2.524 -4.246,1.641 -9.54,0.343 -13.163,-3.236 -2.856,-2.819 -4.747,-6.944 -5.47,-11.928 -1.972,-13.593 6.011,-29.569 17.796,-35.613 15.009,-7.697 22.784,-6.271 48.548,-1.545 l 0.348,0.063 c 13.135,2.41 15.251,1.512 15.586,1.18 0.05,-0.09 0.099,-0.483 0.131,-0.742 C -3.717,-1.748 0.125,-1.005 0,0 Z" />
      </g>
      <g
         id="g627">
        <g
           clip-path="url(#clipPath633)"
           id="g629">
          <g
             id="g635">
            <g
               transform="scale(1,-1)"
               id="g637">
              <g
                 id="g639">
                <path
                   inkscape:connector-curvature="0"
                   id="path641"
                   style="fill:#ef9419;fill-opacity:1;fill-rule:nonzero;stroke:none"
                   d="m 478.46938,-148.826 c -0.24646,-9.00098 -0.49292,-18.00146 -0.73938,-27.00244 0,0 0,0 0,0 0.24646,9.00098 0.49292,18.00146 0.73938,27.00244 0,0 0,0 0,0 z" />
                <path
                   inkscape:connector-curvature="0"
                   id="path643"
                   style="fill:#ef9419;fill-opacity:1;fill-rule:nonzero;stroke:none"
                   d="m 478.46938,-148.826 c -0.24646,-9.00098 -0.49292,-18.00146 -0.73938,-27.00244 4.22985,-0.11572 7.20898,-0.19727 9.35436,-0.25635 0.24646,9.00098 0.49292,18.00195 0.73938,27.00293 -2.14538,0.0586 -5.12451,0.14014 -9.35436,0.25586 z" />
                <path
                   inkscape:connector-curvature="0"
                   id="path645"
                   style="fill:#eb8b19;fill-opacity:1;fill-rule:nonzero;stroke:none"
                   d="m 487.82374,-149.08186 c -0.24646,-9.00098 -0.49292,-18.00195 -0.73938,-27.00293 2.14539,-0.0586 3.45691,-0.0942 4.35168,-0.11914 0.24646,9.00098 0.49292,18.00195 0.73926,27.00293 -0.89465,0.0244 -2.2063,0.0601 -4.35156,0.11914 z" />
                <path
                   inkscape:connector-curvature="0"
                   id="path647"
                   style="fill:#e27819;fill-opacity:1;fill-rule:nonzero;stroke:none"
                   d="m 492.1753,-149.201 c -0.24634,-9.00098 -0.4928,-18.00195 -0.73926,-27.00293 0.89465,-0.0244 1.37256,-0.0376 1.85034,-0.0503 0.24646,9.00049 0.49292,18.00146 0.73926,27.00244 -0.47778,0.0132 -0.95557,0.0259 -1.85034,0.0508 z" />
                <path
                   inkscape:connector-curvature="0"
                   id="path649"
                   style="fill:#d96519;fill-opacity:1;fill-rule:nonzero;stroke:none"
                   d="m 494.02564,-149.25178 c -0.24634,-9.00098 -0.4928,-18.00195 -0.73926,-27.00244 0.47778,-0.0132 0.95557,-0.0264 1.85034,-0.0508 0.24646,9.00097 0.4928,18.00146 0.73926,27.00244 -0.89465,0.0244 -1.37244,0.0376 -1.85034,0.0508 z" />
                <path
                   inkscape:connector-curvature="0"
                   id="path651"
                   style="fill:#d55c19;fill-opacity:1;fill-rule:nonzero;stroke:none"
                   d="m 495.87598,-149.30256 c -0.24646,-9.00098 -0.4928,-18.00147 -0.73926,-27.00244 0.27332,-0.007 0.54675,-0.0151 0.82019,-0.0225 0.24646,9.00097 0.49292,18.00146 0.73938,27.00244 -0.27344,0.007 -0.54687,0.0151 -0.82031,0.0225 z" />
              </g>
            </g>
          </g>
        </g>
      </g>
      <g
         id="g653">
        <g
           clip-path="url(#clipPath659)"
           id="g655">
          <g
             id="g661">
            <g
               transform="scale(1,-1)"
               id="g663">
              <g
                 id="g665">
                <path
                   inkscape:connector-curvature="0"
                   id="path667"
                   style="fill:#d56e19;fill-opacity:1;fill-rule:nonzero;stroke:none"
                   d="m 527.49565,-151.47389 c -12.86022,0.49854 -25.72043,0.99707 -38.58065,1.49561 0.0342,0.88378 0.0539,1.39208 0.0736,1.90038 12.86021,-0.49853 25.72055,-0.99755 38.58077,-1.49609 -0.0197,-0.50781 -0.0394,-1.01611 -0.0737,-1.8999 z" />
                <path
                   inkscape:connector-curvature="0"
                   id="path669"
                   style="fill:#e07f19;fill-opacity:1;fill-rule:nonzero;stroke:none"
                   d="m 527.56938,-149.57399 c -12.86022,0.49854 -25.72056,0.99756 -38.58077,1.49609 0.0198,0.5083 0.0394,1.01612 0.0737,1.8999 12.86022,-0.49853 25.72043,-0.99706 38.58065,-1.4956 -0.0342,-0.88379 -0.054,-1.39209 -0.0736,-1.90039 z" />
                <path
                   inkscape:connector-curvature="0"
                   id="path671"
                   style="fill:#e98a19;fill-opacity:1;fill-rule:nonzero;stroke:none"
                   d="m 527.64299,-147.6736 c -12.86022,0.49854 -25.72043,0.99707 -38.58065,1.4956 0.0342,0.88379 0.083,2.14307 0.16101,4.15332 12.86022,-0.49902 25.72043,-0.99756 38.58065,-1.49609 -0.0779,-2.01025 -0.12671,-3.26904 -0.16101,-4.15283 z" />
                <path
                   inkscape:connector-curvature="0"
                   id="path673"
                   style="fill:#ed9219;fill-opacity:1;fill-rule:nonzero;stroke:none"
                   d="m 527.804,-143.52077 c -12.86022,0.49853 -25.72043,0.99707 -38.58065,1.49609 0.0779,2.00976 0.18494,4.77099 0.33569,8.65868 12.86022,-0.49853 25.72044,-0.99707 38.58078,-1.49609 -0.15076,-3.8872 -0.25782,-6.64843 -0.33582,-8.65868 z" />
                <path
                   inkscape:connector-curvature="0"
                   id="path675"
                   style="fill:#ef9419;fill-opacity:1;fill-rule:nonzero;stroke:none"
                   d="m 528.13982,-134.86209 c -12.86034,0.49902 -25.72056,0.99756 -38.58078,1.49609 0,0 0,0 0,0 12.86022,-0.49853 25.72044,-0.99707 38.58078,-1.49609 0,0 0,0 0,0 z" />
              </g>
            </g>
          </g>
        </g>
      </g>
      <g
         id="g677">
        <g
           clip-path="url(#clipPath683)"
           id="g679">
          <g
             transform="translate(518.8439,167.3096)"
             id="g685">
            <path
               inkscape:connector-curvature="0"
               id="path687"
               style="fill:#f39619;fill-opacity:1;fill-rule:nonzero;stroke:none"
               d="m 0,0 c 2.864,-5.183 1.639,-11.619 -2.655,-14.988 l -0.003,-0.002 c -0.332,-0.259 -0.681,-0.5 -1.046,-0.721 -3.539,-2.137 -7.808,-1.841 -11.126,0.378 -0.043,-0.062 -0.089,-0.12 -0.128,-0.181 -0.204,0.278 -0.43,0.539 -0.675,0.775 -0.204,0.161 -0.4,0.33 -0.593,0.51 -0.002,0.007 -0.007,0.007 -0.009,0.009 -0.903,0.839 -1.7,1.844 -2.34,3.006 -3.086,5.582 -1.427,12.617 3.702,15.713 C -9.743,7.593 -3.083,5.581 0,0 m -7.12,20.729 c -11.864,1.247 -22.611,-8.48 -24.001,-21.726 -0.717,-6.813 1.181,-13.227 4.812,-18.021 -0.107,-0.085 4.255,-5.123 10.129,-7.363 1.287,-0.419 2.633,-0.71 4.025,-0.855 1.466,-0.155 2.916,-0.141 4.33,0.03 2.78,0.098 8.715,2.559 11.393,5.218 4.455,3.934 7.573,9.753 8.279,16.477 1.391,13.247 -7.101,24.996 -18.967,26.24" />
          </g>
          <g
             transform="translate(503.3945,172.439)"
             id="g689">
            <path
               inkscape:connector-curvature="0"
               id="path691"
               style="fill:#ffe504;fill-opacity:1;fill-rule:nonzero;stroke:none"
               d="m 0,0 c -5.388,-3.253 -7.131,-10.645 -3.89,-16.509 0.673,-1.221 1.511,-2.277 2.46,-3.158 0.002,-0.002 0.006,-0.002 0.009,-0.009 0.203,-0.189 0.408,-0.367 0.623,-0.536 0.273,-0.224 0.556,-0.429 0.844,-0.625 3.485,-2.331 7.97,-2.642 11.689,-0.397 0.383,0.233 0.75,0.486 1.099,0.757 l 0.003,0.003 c 4.512,3.54 5.799,10.302 2.79,15.747 C 12.387,1.136 5.391,3.251 0,0" />
          </g>
        </g>
      </g>
      <g
         id="g693">
        <g
           clip-path="url(#clipPath699)"
           id="g695">
          <g
             id="g701">
            <g
               id="g703" />
            <g
               mask="url(#mask713)"
               id="g753">
              <g
                 transform="scale(1,-1)"
                 id="g755">
                <g
                   id="g757">
                  <path
                     inkscape:connector-curvature="0"
                     id="path759"
                     style="fill:#f39619;fill-opacity:1;fill-rule:nonzero;stroke:none"
                     d="m 493.777,-167.14258 c 8.8656,0.12402 17.73108,0.24756 26.59669,0.37158 0,0 0,0 0,0 -8.86561,-0.12402 -17.73109,-0.24756 -26.59669,-0.37158 0,0 0,0 0,0 z" />
                  <path
                     inkscape:connector-curvature="0"
                     id="path761"
                     style="fill:#f39619;fill-opacity:1;fill-rule:nonzero;stroke:none"
                     d="m 493.777,-167.14258 c 8.8656,0.12402 17.73108,0.24756 26.59669,0.37158 0.0238,-1.70312 0.0411,-2.95068 0.0776,-5.56543 -8.86548,-0.12353 -17.73108,-0.24755 -26.59656,-0.37158 -0.0365,2.61523 -0.054,3.8623 -0.0778,5.56543 z" />
                  <path
                     inkscape:connector-curvature="0"
                     id="path763"
                     style="fill:#f39619;fill-opacity:1;fill-rule:nonzero;stroke:none"
                     d="m 493.85476,-172.70801 c 8.86548,0.12403 17.73108,0.24805 26.59656,0.37158 0.005,-0.34277 0.01,-0.68554 0.0144,-1.02832 -8.8656,-0.12353 -17.73109,-0.24755 -26.59669,-0.37109 -0.005,0.34277 -0.01,0.68555 -0.0143,1.02783 z" />
                </g>
              </g>
            </g>
          </g>
        </g>
      </g>
      <g
         id="g765">
        <g
           clip-path="url(#clipPath771)"
           id="g767">
          <g
             transform="translate(480.5151,188.0024)"
             id="g773">
            <path
               inkscape:connector-curvature="0"
               id="path775"
               style="fill:#ffe504;fill-opacity:1;fill-rule:nonzero;stroke:none"
               d="M 0,0 C 4.627,-13.855 20.361,-21.087 35.142,-16.151 49.92,-11.216 58.151,4.019 53.524,17.874 48.896,31.732 33.163,38.964 18.384,34.029 3.603,29.093 -4.628,13.858 0,0" />
          </g>
          <g
             transform="translate(480.5151,188.0024)"
             id="g777">
            <path
               inkscape:connector-curvature="0"
               id="path779"
               style="fill:#f39619;fill-opacity:1;fill-rule:nonzero;stroke:none"
               d="m 0,0 c 1.119,-3.35 2.885,-6.314 5.134,-8.81 0.025,0.012 0.054,0.021 0.083,0.031 l 0.027,0.008 c 3.885,1.298 0.265,15.784 0.265,15.784 -1.347,4.034 0.553,8.317 4.855,9.754 0.175,0.058 0.445,0.142 0.626,0.19 3.884,1.031 7.958,-0.807 9.563,-4.263 0.035,-0.124 0.073,-0.248 0.114,-0.37 0.856,-2.343 3.543,-3.563 6.083,-2.715 2.583,0.863 4.002,3.526 3.194,5.946 l 0.115,-0.344 c -1.347,4.034 0.912,8.437 5.216,9.875 0.175,0.058 0.442,0.141 0.624,0.188 4.163,1.106 8.143,-1.226 9.464,-5.182 0,0 5.932,-13.39 9.025,-12.357 0.119,0.04 0.228,0.063 0.328,0.074 0.056,0.608 0.085,1.22 0.091,1.831 0.038,2.738 -0.375,5.514 -1.283,8.234 -2.83,8.476 -9.811,14.471 -18.191,16.723 -5.324,1.43 -11.208,1.349 -16.949,-0.568 C 12.606,32.1 7.828,28.597 4.426,24.214 -0.867,17.39 -2.819,8.44 0,0" />
          </g>
          <g
             transform="translate(491.2899,194.8057)"
             id="g781">
            <path
               inkscape:connector-curvature="0"
               id="path783"
               style="fill:#603a33;fill-opacity:1;fill-rule:nonzero;stroke:none"
               d="M 0,0 C 0.06,-1.236 1.167,-2.153 2.472,-2.048 3.777,-1.943 4.786,-0.855 4.726,0.381 4.666,1.617 3.559,2.534 2.254,2.429 0.949,2.324 -0.06,1.236 0,0" />
          </g>
          <g
             transform="translate(516.7748,203.3164)"
             id="g785">
            <path
               inkscape:connector-curvature="0"
               id="path787"
               style="fill:#603a33;fill-opacity:1;fill-rule:nonzero;stroke:none"
               d="M 0,0 C 0.06,-1.236 1.167,-2.153 2.472,-2.048 3.777,-1.943 4.786,-0.855 4.726,0.381 4.666,1.617 3.559,2.534 2.254,2.429 0.949,2.324 -0.06,1.236 0,0" />
          </g>
          <g
             id="g789">
            <g
               id="g791" />
            <g
               id="g863">
              <g
                 style="opacity:0.60000598"
                 id="g861"
                 clip-path="url(#clipPath795)">
                <g
                   id="g859">
                  <g
                     id="g857"
                     clip-path="url(#clipPath799)">
                    <g
                       id="g855">
                      <g
                         id="g843" />
                      <g
                         id="g853"
                         mask="url(#mask809)">
                        <g
                           id="g851"
                           transform="scale(1,-1)">
                          <g
                             id="g849">
                            <path
                               inkscape:connector-curvature="0"
                               id="path845"
                               style="fill:#f39619;fill-opacity:1;fill-rule:nonzero;stroke:none"
                               d="m 506.39518,-189.077 c 2.16821,-0.72412 4.33642,-1.44824 6.50476,-2.17236 0,0 0,0 0,0 -2.16834,0.72412 -4.33655,1.44824 -6.50476,2.17236 0,0 0,0 0,0 z" />
                            <path
                               inkscape:connector-curvature="0"
                               id="path847"
                               style="fill:#f39619;fill-opacity:1;fill-rule:nonzero;stroke:none"
                               d="m 506.39518,-189.077 c 2.16821,-0.72412 4.33642,-1.44824 6.50476,-2.17236 -0.42114,-1.26075 -0.84216,-2.52149 -1.26318,-3.78223 -2.16822,0.72412 -4.33655,1.44824 -6.50476,2.17187 0.42102,1.26123 0.84216,2.52198 1.26318,3.78272 z" />
                          </g>
                        </g>
                      </g>
                    </g>
                  </g>
                </g>
              </g>
            </g>
          </g>
          <g
             transform="translate(519.8455,188.9243)"
             id="g865">
            <path
               inkscape:connector-curvature="0"
               id="path867"
               style="fill:#fff9ec;fill-opacity:1;fill-rule:nonzero;stroke:none"
               d="m 0,0 c 1.07,0.357 2.217,-0.27 2.338,-1.323 0.552,-4.778 -2.523,-9.547 -7.56,-11.229 -5.038,-1.682 -10.36,0.282 -12.791,4.433 -0.535,0.915 0.004,2.105 1.075,2.462 z" />
          </g>
          <g
             transform="translate(482.8104,198.5981)"
             id="g869">
            <path
               inkscape:connector-curvature="0"
               id="path871"
               style="fill:#cc0066;fill-opacity:1;fill-rule:nonzero;stroke:none"
               d="m 0,0 c 0.01,10.707 7.999,20.492 18.344,23.288 9.161,2.477 20.679,-1.136 26.793,-9.535 l 1.111,-1.104 3.427,3.24 -1.794,2.263 C 40.453,27.441 28.321,31.455 16.966,28.385 4.14,24.918 -4.827,13.224 -4.841,-0.054 Z" />
          </g>
          <g
             transform="translate(530.2655,217.1914)"
             id="g873">
            <path
               inkscape:connector-curvature="0"
               id="path875"
               style="fill:#ff0066;fill-opacity:1;fill-rule:nonzero;stroke:none"
               d="m 0,0 v 0 c -2.032,-0.771 -3.063,-3.065 -2.291,-5.097 l 4.49,-11.82 c 0.771,-2.032 3.065,-3.063 5.097,-2.291 2.031,0.771 3.062,3.064 2.291,5.096 L 5.097,-2.291 C 4.325,-0.259 2.032,0.772 0,0" />
          </g>
          <g
             transform="translate(543.4788,211.6797)"
             id="g877">
            <path
               inkscape:connector-curvature="0"
               id="path879"
               style="fill:#cc0066;fill-opacity:1;fill-rule:nonzero;stroke:none"
               d="M 0,0 C -1.326,3.491 -4.987,5.339 -8.722,3.92 L -3.92,-8.722 C -0.185,-7.303 1.326,-3.491 0,0" />
          </g>
          <g
             transform="translate(538.8981,202.2783)"
             id="g881">
            <path
               inkscape:connector-curvature="0"
               id="path883"
               style="fill:#ff6699;fill-opacity:1;fill-rule:nonzero;stroke:none"
               d="M 0,0 C 0.018,0.005 0.036,0.011 0.054,0.018 0.349,0.13 0.497,0.459 0.385,0.754 L -4.401,13.355 C -4.512,13.65 -4.844,13.798 -5.137,13.686 -5.432,13.574 -5.58,13.245 -5.468,12.95 L -0.682,0.349 C -0.577,0.072 -0.28,-0.076 0,0" />
          </g>
          <g
             transform="translate(478.2781,203.1387)"
             id="g885">
            <path
               inkscape:connector-curvature="0"
               id="path887"
               style="fill:#ff0066;fill-opacity:1;fill-rule:nonzero;stroke:none"
               d="m 0,0 v 0 c 2.144,0.357 4.19,-1.104 4.547,-3.249 l 2.077,-12.472 c 0.357,-2.144 -1.105,-4.19 -3.249,-4.547 -2.143,-0.357 -4.189,1.105 -4.546,3.248 L -3.249,-4.547 C -3.606,-2.403 -2.144,-0.357 0,0" />
          </g>
          <g
             transform="translate(469.6414,191.7207)"
             id="g889">
            <path
               inkscape:connector-curvature="0"
               id="path891"
               style="fill:#cc0066;fill-opacity:1;fill-rule:nonzero;stroke:none"
               d="M 0,0 C -0.614,3.684 1.618,7.124 5.559,7.781 L 7.781,-5.559 C 3.839,-6.215 0.613,-3.684 0,0" />
          </g>
          <g
             transform="translate(478.4536,185.644)"
             id="g893">
            <path
               inkscape:connector-curvature="0"
               id="path895"
               style="fill:#ff6699;fill-opacity:1;fill-rule:nonzero;stroke:none"
               d="m 0,0 c -0.018,-0.005 -0.037,-0.009 -0.056,-0.012 -0.311,-0.052 -0.605,0.158 -0.657,0.469 l -2.214,13.296 c -0.052,0.311 0.16,0.606 0.469,0.657 0.311,0.052 0.605,-0.158 0.657,-0.469 L 0.413,0.645 C 0.462,0.353 0.28,0.076 0,0" />
          </g>
        </g>
      </g>
    </g>
  </g>
</svg>
