<?xml version="1.0" encoding="UTF-8" standalone="no"?>
<!-- Created with Inkscape (http://www.inkscape.org/) -->

<svg
   xmlns:dc="http://purl.org/dc/elements/1.1/"
   xmlns:cc="http://creativecommons.org/ns#"
   xmlns:rdf="http://www.w3.org/1999/02/22-rdf-syntax-ns#"
   xmlns:svg="http://www.w3.org/2000/svg"
   xmlns="http://www.w3.org/2000/svg"
   xmlns:sodipodi="http://sodipodi.sourceforge.net/DTD/sodipodi-0.dtd"
   xmlns:inkscape="http://www.inkscape.org/namespaces/inkscape"
   width="44.55658mm"
   height="35.789093mm"
   viewBox="0 0 44.556579 35.789093"
   version="1.1"
   id="svg12392"
   inkscape:version="0.92.2 (5c3e80d, 2017-08-06)">
  <defs
     id="defs12386">
    <clipPath
       clipPathUnits="userSpaceOnUse"
       id="clipPath11707">
      <path
         d="M 0,768 H 1024 V 0 H 0 Z"
         id="path11705"
         inkscape:connector-curvature="0" />
    </clipPath>
    <clipPath
       clipPathUnits="userSpaceOnUse"
       id="clipPath11715">
      <path
         d="M 453.084,142.196 H 566 V 122.451 H 453.084 Z"
         id="path11713"
         inkscape:connector-curvature="0" />
    </clipPath>
    <linearGradient
       x1="0"
       y1="0"
       x2="1"
       y2="0"
       gradientUnits="userSpaceOnUse"
       gradientTransform="matrix(27.171972,0,0,-27.171972,528.00073,168.81802)"
       spreadMethod="pad"
       id="linearGradient11751">
      <stop
         style="stop-opacity:1;stop-color:#d55c19"
         offset="0"
         id="stop11745" />
      <stop
         style="stop-opacity:1;stop-color:#ef9419"
         offset="0.33832704"
         id="stop11747" />
      <stop
         style="stop-opacity:1;stop-color:#ef9419"
         offset="1"
         id="stop11749" />
    </linearGradient>
    <linearGradient
       x1="0"
       y1="0"
       x2="1"
       y2="0"
       gradientUnits="userSpaceOnUse"
       gradientTransform="matrix(-25.74719,25.74719,25.74719,25.74719,512.9342,155.44969)"
       spreadMethod="pad"
       id="linearGradient11773">
      <stop
         style="stop-opacity:1;stop-color:#d55c19"
         offset="0"
         id="stop11767" />
      <stop
         style="stop-opacity:1;stop-color:#ef9419"
         offset="0.33832704"
         id="stop11769" />
      <stop
         style="stop-opacity:1;stop-color:#ef9419"
         offset="1"
         id="stop11771" />
    </linearGradient>
    <clipPath
       clipPathUnits="userSpaceOnUse"
       id="clipPath11783">
      <path
         d="M 0,768 H 1024 V 0 H 0 Z"
         id="path11781"
         inkscape:connector-curvature="0" />
    </clipPath>
    <clipPath
       clipPathUnits="userSpaceOnUse"
       id="clipPath11799">
      <path
         d="m 508.25,170.138 c -0.294,-0.8 -0.02,-1.751 0.615,-2.123 v 0 c 3.03,-1.78 7,-2.809 11.178,-2.899 v 0 c 0.203,-0.004 0.405,-0.007 0.606,-0.007 v 0 c 3.855,0 7.625,0.789 10.674,2.24 v 0 c 0.654,0.312 0.986,1.234 0.738,2.059 v 0 c -0.247,0.826 -0.976,1.244 -1.632,0.931 v 0 c -2.916,-1.387 -6.59,-2.107 -10.342,-2.026 v 0 c -3.832,0.082 -7.438,1.005 -10.154,2.6 v 0 c -0.173,0.101 -0.355,0.149 -0.534,0.149 v 0 c -0.478,0 -0.935,-0.342 -1.149,-0.924"
         id="path11797"
         inkscape:connector-curvature="0" />
    </clipPath>
    <mask
       maskUnits="userSpaceOnUse"
       x="0"
       y="0"
       width="1"
       height="1"
       id="mask11819">
      <g
         id="g11829">
        <g
           id="g11827">
          <g
             id="g11825">
            <g
               id="g11823">
              <path
                 d="M -32768,32767 H 32767 V -32768 H -32768 Z"
                 style="fill:url(#linearGradient11817);stroke:none"
                 id="path11821"
                 inkscape:connector-curvature="0" />
            </g>
          </g>
        </g>
      </g>
    </mask>
    <linearGradient
       x1="0"
       y1="0"
       x2="1"
       y2="0"
       gradientUnits="userSpaceOnUse"
       gradientTransform="matrix(0,5.9525523,5.9525523,0,520.13757,165.10994)"
       spreadMethod="pad"
       id="linearGradient11817">
      <stop
         style="stop-opacity:0;stop-color:#ffffff"
         offset="0"
         id="stop11809" />
      <stop
         style="stop-opacity:1;stop-color:#ffffff"
         offset="0.7047357"
         id="stop11811" />
      <stop
         style="stop-opacity:1;stop-color:#ffffff"
         offset="0.844069"
         id="stop11813" />
      <stop
         style="stop-opacity:1;stop-color:#ffffff"
         offset="1"
         id="stop11815" />
    </linearGradient>
    <linearGradient
       x1="0"
       y1="0"
       x2="1"
       y2="0"
       gradientUnits="userSpaceOnUse"
       gradientTransform="matrix(0,5.9525523,5.9525523,0,520.13757,165.10994)"
       spreadMethod="pad"
       id="linearGradient11843">
      <stop
         style="stop-opacity:1;stop-color:#f39619"
         offset="0"
         id="stop11835" />
      <stop
         style="stop-opacity:1;stop-color:#f39619"
         offset="0.7047357"
         id="stop11837" />
      <stop
         style="stop-opacity:1;stop-color:#f39619"
         offset="0.844069"
         id="stop11839" />
      <stop
         style="stop-opacity:1;stop-color:#f39619"
         offset="1"
         id="stop11841" />
    </linearGradient>
    <clipPath
       clipPathUnits="userSpaceOnUse"
       id="clipPath11853">
      <path
         d="M 0,768 H 1024 V 0 H 0 Z"
         id="path11851"
         inkscape:connector-curvature="0" />
    </clipPath>
    <clipPath
       clipPathUnits="userSpaceOnUse"
       id="clipPath11905">
      <path
         d="m 516.27,192.754 h 7.205 v -4.19 h -7.205 z"
         id="path11903"
         inkscape:connector-curvature="0" />
    </clipPath>
    <clipPath
       clipPathUnits="userSpaceOnUse"
       id="clipPath11909">
      <path
         d="m 521.434,188.564 h -3.124 c -1.127,0 -2.04,0.914 -2.04,2.04 v 0.109 c 0,1.127 0.913,2.041 2.04,2.041 h 3.124 c 1.127,0 2.041,-0.914 2.041,-2.041 v -0.109 c 0,-1.126 -0.914,-2.04 -2.041,-2.04"
         id="path11907"
         inkscape:connector-curvature="0" />
    </clipPath>
    <mask
       maskUnits="userSpaceOnUse"
       x="0"
       y="0"
       width="1"
       height="1"
       id="mask11921">
      <g
         id="g11931">
        <g
           id="g11929">
          <g
             id="g11927">
            <g
               id="g11925">
              <path
                 d="M -32768,32767 H 32767 V -32768 H -32768 Z"
                 style="fill:url(#linearGradient11919);stroke:none"
                 id="path11923"
                 inkscape:connector-curvature="0" />
            </g>
          </g>
        </g>
      </g>
    </mask>
    <linearGradient
       x1="0"
       y1="0"
       x2="1"
       y2="0"
       gradientUnits="userSpaceOnUse"
       gradientTransform="matrix(0,4.1899385,4.1899385,0,519.87219,188.56403)"
       spreadMethod="pad"
       id="linearGradient11919">
      <stop
         style="stop-opacity:0;stop-color:#ffffff"
         offset="0"
         id="stop11915" />
      <stop
         style="stop-opacity:1;stop-color:#ffffff"
         offset="1"
         id="stop11917" />
    </linearGradient>
    <linearGradient
       x1="0"
       y1="0"
       x2="1"
       y2="0"
       gradientUnits="userSpaceOnUse"
       gradientTransform="matrix(0,4.1899385,4.1899385,0,519.87219,188.56403)"
       spreadMethod="pad"
       id="linearGradient11937">
      <stop
         style="stop-opacity:1;stop-color:#f39619"
         offset="0"
         id="stop11933" />
      <stop
         style="stop-opacity:1;stop-color:#f39619"
         offset="1"
         id="stop11935" />
    </linearGradient>
  </defs>
  <sodipodi:namedview
     id="base"
     pagecolor="#ffffff"
     bordercolor="#666666"
     borderopacity="1.0"
     inkscape:pageopacity="0.0"
     inkscape:pageshadow="2"
     inkscape:zoom="0.35"
     inkscape:cx="267.05853"
     inkscape:cy="-69.509911"
     inkscape:document-units="mm"
     inkscape:current-layer="layer1"
     showgrid="false"
     fit-margin-top="0"
     fit-margin-left="0"
     fit-margin-right="0"
     fit-margin-bottom="0"
     inkscape:window-width="960"
     inkscape:window-height="600"
     inkscape:window-x="0"
     inkscape:window-y="23"
     inkscape:window-maximized="0" />
  <metadata
     id="metadata12389">
    <rdf:RDF>
      <cc:Work
         rdf:about="">
        <dc:format>image/svg+xml</dc:format>
        <dc:type
           rdf:resource="http://purl.org/dc/dcmitype/StillImage" />
        <dc:title></dc:title>
      </cc:Work>
    </rdf:RDF>
  </metadata>
  <g
     inkscape:label="Layer 1"
     inkscape:groupmode="layer"
     id="layer1"
     transform="translate(79.730665,-94.653076)">
    <g
       id="g12122"
       transform="matrix(0.35277777,0,0,-0.35277777,-234.84628,173.64016)">
      <g
         id="g11701">
        <g
           clip-path="url(#clipPath11707)"
           id="g11703">
          <g
             id="g11709">
            <g
               id="g11711" />
            <g
               id="g11723">
              <g
                 style="opacity:0.30000299"
                 id="g11721"
                 clip-path="url(#clipPath11715)">
                <g
                   id="g11719"
                   transform="translate(493.7856,129.436)">
                  <path
                     inkscape:connector-curvature="0"
                     id="path11717"
                     style="fill:#a9a9a9;fill-opacity:1;fill-rule:nonzero;stroke:none"
                     d="m 0,0 c -0.016,-0.081 -0.016,-0.163 -0.008,-0.244 0.276,-4.738 16.669,-7.648 36.605,-6.485 19.945,1.154 35.882,5.933 35.614,10.679 -0.041,0.634 -0.357,1.227 -0.935,1.788 0.122,0.171 0.179,0.349 0.179,0.52 0,3.593 -25.105,6.502 -56.078,6.502 -30.973,0 -56.079,-2.909 -56.079,-6.502 C -40.702,3.284 -23.496,0.78 0,0" />
                </g>
              </g>
            </g>
          </g>
          <g
             transform="translate(518.8608,141.0747)"
             id="g11725">
            <path
               inkscape:connector-curvature="0"
               id="path11727"
               style="fill:#e57917;fill-opacity:1;fill-rule:nonzero;stroke:none"
               d="m 0,0 c 0.776,0 1.554,0.276 2.175,0.836 1.332,1.202 1.438,3.256 0.236,4.588 -5.11,5.664 -13.288,8.356 -24.307,8.006 -2.248,-0.072 -4.507,-0.24 -6.693,-0.402 -5.631,-0.417 -10.951,-0.812 -16.046,0.312 -10.438,2.304 -19.742,10.996 -28.442,26.575 -0.875,1.566 -2.854,2.127 -4.421,1.252 -1.566,-0.875 -2.127,-2.854 -1.252,-4.42 9.658,-17.293 20.359,-27.024 32.715,-29.751 6.025,-1.33 12.076,-0.881 17.927,-0.447 2.118,0.157 4.308,0.32 6.419,0.387 9.027,0.29 15.506,-1.685 19.276,-5.863 C -1.772,0.362 -0.887,0 0,0" />
          </g>
          <g
             transform="translate(513.5486,136.6816)"
             id="g11729">
            <path
               inkscape:connector-curvature="0"
               id="path11731"
               style="fill:#f39619;fill-opacity:1;fill-rule:nonzero;stroke:none"
               d="M 0,0 C 2.42,1.039 4.006,3.478 5.102,5.626 2.926,7.761 -0.364,8.938 -3.503,8.481 -3.705,8.452 -3.919,8.411 -4.067,8.279 -4.186,8.172 -4.244,8.022 -4.298,7.877 -4.971,6.065 -5.542,4.221 -6.006,2.354 -6.055,2.157 -6.099,1.934 -5.981,1.764 -5.881,1.62 -5.693,1.557 -5.517,1.503 -3.871,1 -3.72,0.955 -2.074,0.452 Z" />
          </g>
        </g>
      </g>
      <g
         id="g11733">
        <g
           id="g11735">
          <g
             id="g11741">
            <g
               id="g11743">
              <path
                 inkscape:connector-curvature="0"
                 id="path11753"
                 style="fill:url(#linearGradient11751);stroke:none"
                 d="m 528.596,164.614 c -1.328,-2.523 -0.359,-5.645 2.164,-6.973 v 0 c 0.693,-0.364 1.43,-0.556 2.164,-0.589 v 0 c 1.937,-0.089 3.844,0.923 4.808,2.753 v 0 c 2.365,4.494 7.7,10.912 11.647,10.431 v 0 c 2.829,-0.347 5.405,1.663 5.754,4.493 v 0 c 0.349,2.829 -1.662,5.405 -4.491,5.754 v 0 c -0.587,0.073 -1.164,0.107 -1.733,0.107 v 0 c -11.562,0 -19.417,-14.274 -20.313,-15.976" />
            </g>
          </g>
        </g>
      </g>
      <g
         id="g11755">
        <g
           id="g11757">
          <g
             id="g11763">
            <g
               id="g11765">
              <path
                 inkscape:connector-curvature="0"
                 id="path11775"
                 style="fill:url(#linearGradient11773);stroke:none"
                 d="m 489.346,181.382 c -2.849,-0.092 -5.084,-2.476 -4.992,-5.326 v 0 c 0.092,-2.849 2.477,-5.088 5.325,-4.993 v 0 c 0.303,0.009 3.178,-0.087 9.47,-6.482 v 0 c 3.753,-3.814 6.61,-7.762 6.637,-7.799 v 0 c 1.008,-1.403 2.591,-2.149 4.196,-2.149 v 0 c 1.043,0 2.097,0.315 3.009,0.97 v 0 c 2.315,1.664 2.842,4.889 1.178,7.204 v 0 c -0.131,0.184 -3.28,4.545 -7.564,8.918 v 0 c -6.37,6.497 -11.891,9.663 -16.882,9.663 v 0 c -0.126,0 -0.252,-0.002 -0.377,-0.006" />
            </g>
          </g>
        </g>
      </g>
      <g
         id="g11777">
        <g
           clip-path="url(#clipPath11783)"
           id="g11779">
          <g
             transform="translate(538.6838,157.6733)"
             id="g11785">
            <path
               inkscape:connector-curvature="0"
               id="path11787"
               style="fill:#f39619;fill-opacity:1;fill-rule:nonzero;stroke:none"
               d="m 0,0 c 0,-10.72 -8.504,-19.41 -18.994,-19.41 -10.491,0 -18.995,8.69 -18.995,19.41 0,10.72 8.504,19.41 18.995,19.41 C -8.504,19.41 0,10.72 0,0" />
          </g>
          <g
             transform="translate(529.9763,156.1284)"
             id="g11789">
            <path
               inkscape:connector-curvature="0"
               id="path11791"
               style="fill:#ffe504;fill-opacity:1;fill-rule:nonzero;stroke:none"
               d="m 0,0 c -1.624,-7.177 -7.527,-11.958 -13.185,-10.678 -5.659,1.28 -8.93,8.136 -7.306,15.313 1.624,7.178 7.527,11.959 13.185,10.678 C -1.647,14.034 1.624,7.178 0,0" />
          </g>
        </g>
      </g>
      <g
         id="g11793">
        <g
           clip-path="url(#clipPath11799)"
           id="g11795">
          <g
             id="g11801">
            <g
               id="g11803" />
            <g
               mask="url(#mask11819)"
               id="g11831">
              <g
                 id="g11833">
                <path
                   inkscape:connector-curvature="0"
                   id="path11845"
                   style="fill:url(#linearGradient11843);stroke:none"
                   d="m 508.25,170.138 c -0.294,-0.8 -0.02,-1.751 0.615,-2.123 v 0 c 3.03,-1.78 7,-2.809 11.178,-2.899 v 0 c 0.203,-0.004 0.405,-0.007 0.606,-0.007 v 0 c 3.855,0 7.625,0.789 10.674,2.24 v 0 c 0.654,0.312 0.986,1.234 0.738,2.059 v 0 c -0.247,0.826 -0.976,1.244 -1.632,0.931 v 0 c -2.916,-1.387 -6.59,-2.107 -10.342,-2.026 v 0 c -3.832,0.082 -7.438,1.005 -10.154,2.6 v 0 c -0.173,0.101 -0.355,0.149 -0.534,0.149 v 0 c -0.478,0 -0.935,-0.342 -1.149,-0.924" />
              </g>
            </g>
          </g>
        </g>
      </g>
      <g
         id="g11847">
        <g
           clip-path="url(#clipPath11853)"
           id="g11849">
          <g
             transform="translate(511.7131,141.5229)"
             id="g11855">
            <path
               inkscape:connector-curvature="0"
               id="path11857"
               style="fill:#ee851f;fill-opacity:1;fill-rule:nonzero;stroke:none"
               d="M 0,0 -3.993,1.979" />
          </g>
          <g
             transform="translate(511.7092,136.3594)"
             id="g11859">
            <path
               inkscape:connector-curvature="0"
               id="path11861"
               style="fill:#ee851f;fill-opacity:1;fill-rule:nonzero;stroke:none"
               d="m 0,0 c -0.77,0 -1.552,0.173 -2.288,0.539 l -3.993,1.978 c -2.555,1.266 -3.599,4.363 -2.334,6.918 1.266,2.554 4.364,3.599 6.918,2.333 L 2.296,9.789 C 4.851,8.523 5.895,5.426 4.629,2.872 3.728,1.054 1.9,0 0,0" />
          </g>
          <g
             transform="translate(528.9558,136.7949)"
             id="g11863">
            <path
               inkscape:connector-curvature="0"
               id="path11865"
               style="fill:#f39619;fill-opacity:1;fill-rule:nonzero;stroke:none"
               d="M 0,0 C 2.098,0.221 -1.897,-0.517 -2.086,-0.436 -4.506,0.603 -6.092,3.042 -7.187,5.19 -5.011,7.325 -1.722,8.502 1.418,8.046 1.62,8.017 1.834,7.976 1.981,7.843 2.1,7.736 2.158,7.586 2.212,7.441 2.886,5.629 3.456,3.785 3.92,1.919 3.969,1.721 4.013,1.498 3.896,1.328 3.796,1.184 3.607,1.121 3.431,1.067 1.786,0.564 1.634,0.52 -0.012,0.016" />
          </g>
          <g
             transform="translate(529.4534,140.8154)"
             id="g11867">
            <path
               inkscape:connector-curvature="0"
               id="path11869"
               style="fill:#ee851f;fill-opacity:1;fill-rule:nonzero;stroke:none"
               d="M 0,0 1.379,4.244" />
          </g>
          <g
             transform="translate(528.9653,135.6753)"
             id="g11871">
            <path
               inkscape:connector-curvature="0"
               id="path11873"
               style="fill:#ee851f;fill-opacity:1;fill-rule:nonzero;stroke:none"
               d="m 0,0 c -0.369,0.035 -0.74,0.111 -1.107,0.231 -2.712,0.881 -4.195,3.793 -3.314,6.504 l 1.379,4.244 c 0.881,2.711 3.793,4.196 6.505,3.314 C 6.174,13.412 7.658,10.5 6.777,7.789 L 5.397,3.544 C 4.635,1.201 2.356,-0.226 0,0" />
          </g>
          <g
             transform="translate(541.6953,212.4868)"
             id="g11875">
            <path
               inkscape:connector-curvature="0"
               id="path11877"
               style="fill:#e57917;fill-opacity:1;fill-rule:nonzero;stroke:none"
               d="M 0,0 C 0.221,-2.5 2.601,-4.353 5.314,-4.142 8.028,-3.93 10.048,-1.733 9.826,0.767 9.604,3.266 7.224,5.119 4.511,4.907 1.798,4.696 -0.222,2.499 0,0" />
          </g>
          <g
             transform="translate(488.8291,212.4868)"
             id="g11879">
            <path
               inkscape:connector-curvature="0"
               id="path11881"
               style="fill:#e57917;fill-opacity:1;fill-rule:nonzero;stroke:none"
               d="M 0,0 C 0.222,-2.5 2.601,-4.353 5.315,-4.142 8.029,-3.93 10.048,-1.733 9.826,0.767 9.604,3.266 7.224,5.119 4.511,4.907 1.798,4.696 -0.221,2.499 0,0" />
          </g>
          <g
             transform="translate(549.6235,196.1064)"
             id="g11883">
            <path
               inkscape:connector-curvature="0"
               id="path11885"
               style="fill:#ffe504;fill-opacity:1;fill-rule:nonzero;stroke:none"
               d="m 0,0 c 0,-15.347 -13.273,-27.791 -29.646,-27.791 -16.37,0 -29.643,12.444 -29.643,27.791 0,15.351 13.273,27.794 29.643,27.794 C -13.273,27.794 0,15.351 0,0" />
          </g>
          <g
             transform="translate(549.6235,196.1064)"
             id="g11887">
            <path
               inkscape:connector-curvature="0"
               id="path11889"
               style="fill:#f39619;fill-opacity:1;fill-rule:nonzero;stroke:none"
               d="m 0,0 c 0,-3.71 -0.774,-7.252 -2.184,-10.488 -0.029,0.003 -0.061,0.003 -0.094,0.003 h -0.029 c -4.304,0 -5.516,15.641 -5.516,15.641 0,4.468 -3.32,8.104 -8.086,8.104 -0.193,0 -0.49,-0.007 -0.687,-0.019 -4.213,-0.265 -7.662,-3.452 -8.111,-7.43 0.007,-0.136 0.01,-0.271 0.01,-0.407 -0.074,-2.62 -2.345,-4.73 -5.159,-4.73 -2.862,0 -5.162,2.181 -5.162,4.863 V 5.156 c 0,4.468 -3.716,8.104 -8.485,8.104 -0.193,0 -0.487,-0.007 -0.684,-0.019 -4.517,-0.284 -7.707,-3.933 -7.707,-8.314 0,0 -1.455,-15.319 -4.882,-15.319 -0.132,0 -0.248,-0.013 -0.351,-0.035 -0.258,0.587 -0.491,1.187 -0.7,1.794 -0.949,2.716 -1.462,5.62 -1.462,8.633 0,9.389 4.962,17.687 12.563,22.719 4.83,3.198 10.721,5.075 17.08,5.075 6.401,0 12.327,-1.9 17.177,-5.136 C -4.923,17.619 0,9.35 0,0" />
          </g>
          <g
             transform="translate(536.2844,199.3306)"
             id="g11891">
            <path
               inkscape:connector-curvature="0"
               id="path11893"
               style="fill:#603a33;fill-opacity:1;fill-rule:nonzero;stroke:none"
               d="M 0,0 C 0.352,-1.252 -0.446,-2.534 -1.782,-2.864 -3.118,-3.193 -4.485,-2.445 -4.837,-1.193 -5.188,0.059 -4.39,1.341 -3.055,1.67 -1.719,2 -0.351,1.252 0,0" />
          </g>
          <g
             transform="translate(508.0547,199.3306)"
             id="g11895">
            <path
               inkscape:connector-curvature="0"
               id="path11897"
               style="fill:#603a33;fill-opacity:1;fill-rule:nonzero;stroke:none"
               d="M 0,0 C 0.352,-1.252 -0.446,-2.534 -1.782,-2.864 -3.118,-3.193 -4.485,-2.445 -4.837,-1.193 -5.188,0.059 -4.39,1.341 -3.055,1.67 -1.719,2 -0.351,1.252 0,0" />
          </g>
          <g
             id="g11899">
            <g
               id="g11901" />
            <g
               id="g11955">
              <g
                 style="opacity:0.60000598"
                 id="g11953"
                 clip-path="url(#clipPath11905)">
                <g
                   id="g11951">
                  <g
                     id="g11949"
                     clip-path="url(#clipPath11909)">
                    <g
                       id="g11947">
                      <g
                         id="g11939" />
                      <g
                         id="g11945"
                         mask="url(#mask11921)">
                        <g
                           id="g11943">
                          <path
                             inkscape:connector-curvature="0"
                             id="path11941"
                             style="fill:url(#linearGradient11937);stroke:none"
                             d="m 521.434,188.564 h -3.124 c -1.127,0 -2.04,0.914 -2.04,2.04 v 0.109 c 0,1.127 0.913,2.041 2.04,2.041 h 3.124 c 1.127,0 2.041,-0.914 2.041,-2.041 v -0.109 c 0,-1.126 -0.914,-2.04 -2.041,-2.04" />
                        </g>
                      </g>
                    </g>
                  </g>
                </g>
              </g>
            </g>
          </g>
          <g
             transform="translate(510.1216,183.936)"
             id="g11957">
            <path
               inkscape:connector-curvature="0"
               id="path11959"
               style="fill:#ffffff;fill-opacity:1;fill-rule:nonzero;stroke:none"
               d="m 0,0 c -1.186,0 -2.12,-1.006 -1.89,-2.097 1.04,-4.945 5.691,-8.674 11.271,-8.674 5.58,0 10.231,3.729 11.272,8.674 C 20.882,-1.006 19.948,0 18.763,0 Z" />
          </g>
        </g>
      </g>
    </g>
  </g>
</svg>
