<svg xmlns="http://www.w3.org/2000/svg" viewBox="0 0 102.2 142"><defs><style>.cls-1{fill:#fdcc9b;}.cls-2{fill:#fcbc85;}.cls-3{fill:#3b2519;}.cls-4{fill:#fff;}.cls-5{fill:#51362a;}.cls-6{fill:#f7945e;}.cls-7{fill:#f7941e;}.cls-8{fill:#f36c21;}</style></defs><title>Asset 12</title><g id="Layer_2" data-name="Layer 2"><g id="Layer_1-2" data-name="Layer 1"><rect class="cls-1" x="40.58" y="106.04" width="21.03" height="23.55"/><path class="cls-2" d="M40.58,108.82a35.28,35.28,0,0,0,21,4.32V106h-21Z"/><ellipse class="cls-2" cx="10.26" cy="69.52" rx="10.26" ry="11.71"/><ellipse class="cls-2" cx="91.93" cy="69.52" rx="10.26" ry="11.71"/><path class="cls-1" d="M91.89,47.16c0-17.24-12.61-29.86-40.79-29.86S10.3,29.92,10.3,47.16s-2.94,62.67,40.8,62.67S91.89,64.4,91.89,47.16Z"/><ellipse class="cls-3" cx="31.23" cy="66.72" rx="4.42" ry="4.84"/><path class="cls-4" d="M30.62,64.58a1.32,1.32,0,1,1-1.32-1.32A1.32,1.32,0,0,1,30.62,64.58Z"/><path class="cls-5" d="M24.16,54.73c2.09,1.05,5.44-3.55,13.12.45,1.4.73,2.23-6.23-6-6.23C24.16,49,22.9,54.1,24.16,54.73Z"/><ellipse class="cls-3" cx="71.51" cy="66.72" rx="4.42" ry="4.84"/><circle class="cls-4" cx="69.59" cy="64.58" r="1.32"/><path class="cls-5" d="M78,54.73c-2.09,1.05-5.44-3.55-13.11.45-1.4.73-2.24-6.23,6-6.23C78,49,79.29,54.1,78,54.73Z"/><path class="cls-2" d="M51.1,83.73c-4.37,0-7-3.26-7-1.68s1.26,4.57,7,4.57,7-3,7-4.57S55.46,83.73,51.1,83.73Z"/><path class="cls-2" d="M51.1,98.23c-1.51,0-2.42-1.13-2.42-.58s.44,1.58,2.42,1.58,2.42-1,2.42-1.58S52.61,98.23,51.1,98.23Z"/><path class="cls-6" d="M51.1,94.21C44.18,94.21,40,91.4,40,92.11s2,3.52,11.09,3.52,11.08-2.81,11.08-3.52S58,94.21,51.1,94.21Z"/><path class="cls-7" d="M51.1,115.5V142H0C0,131.28,26.92,115.5,51.1,115.5Z"/><path class="cls-7" d="M51.1,115.5V142h51.1C102.2,131.28,75.28,115.5,51.1,115.5Z"/><path class="cls-8" d="M51.1,115.5a66.78,66.78,0,0,0-15.52,2,20.81,20.81,0,0,0,15.52,7.31c9.12,0,15.19-6.22,16.07-7.18A67.28,67.28,0,0,0,51.1,115.5Z"/><path class="cls-1" d="M40.58,116.42s3.08,3.82,10.52,3.82,10.51-3.82,10.51-3.82S50.7,112.45,40.58,116.42Z"/><path class="cls-5" d="M84.64,13.62S69.5-5.62,38,1.63,4.2,27.82,5.15,46.23,8.62,75.44,11.6,74.11,13,60.62,13.35,57.81s3.16-15.49,22.29-13.59a79.22,79.22,0,0,0,35.27-5S77.4,47.38,81.67,49C90.21,52.09,87.41,73,90.76,73S110.5,24.66,84.64,13.62Z"/></g></g></svg>