<svg xmlns="http://www.w3.org/2000/svg" xmlns:xlink="http://www.w3.org/1999/xlink" viewBox="0 0 171.04 124.12"><defs><style>.cls-1{fill:#ee851f;}.cls-2,.cls-3{fill:#e57917;}.cls-2{stroke:#e57917;stroke-miterlimit:10;stroke-width:3px;}.cls-4{fill:url(#linear-gradient);}.cls-5{fill:url(#linear-gradient-2);}.cls-6{fill:#f39619;}.cls-7{fill:#ffe504;}.cls-8{fill:url(#linear-gradient-3);}.cls-9{opacity:0.6;fill:url(#linear-gradient-4);}.cls-10{fill:#603a33;}.cls-11{fill:#fff;}</style><linearGradient id="linear-gradient" x1="2827.06" y1="1151.67" x2="2864.84" y2="1151.67" gradientTransform="matrix(-0.02, 1, 1, 0.02, -953.35, -2802.09)" gradientUnits="userSpaceOnUse"><stop offset="0" stop-color="#ef9419"/><stop offset="0.51" stop-color="#ed9219"/><stop offset="0.73" stop-color="#e88b19"/><stop offset="0.89" stop-color="#df7e19"/><stop offset="1" stop-color="#d57119"/></linearGradient><linearGradient id="linear-gradient-2" x1="-3067.38" y1="-67.42" x2="-3041.41" y2="-67.42" gradientTransform="matrix(-1, -0.1, -0.1, 1, -2958.69, -149.49)" gradientUnits="userSpaceOnUse"><stop offset="0.1" stop-color="#d55c19"/><stop offset="0.14" stop-color="#d86219"/><stop offset="0.31" stop-color="#e27819"/><stop offset="0.5" stop-color="#e98819"/><stop offset="0.71" stop-color="#ee9119"/><stop offset="1" stop-color="#ef9419"/></linearGradient><linearGradient id="linear-gradient-3" x1="-2519.91" y1="192.96" x2="-2519.91" y2="185.02" gradientTransform="matrix(-1, 0.08, 0.08, 1, -2414.17, 100.02)" gradientUnits="userSpaceOnUse"><stop offset="0" stop-color="#f39619" stop-opacity="0"/><stop offset="0.11" stop-color="#f39619" stop-opacity="0.15"/><stop offset="0.38" stop-color="#f39619" stop-opacity="0.51"/><stop offset="0.6" stop-color="#f39619" stop-opacity="0.77"/><stop offset="0.76" stop-color="#f39619" stop-opacity="0.94"/><stop offset="0.84" stop-color="#f39619"/></linearGradient><linearGradient id="linear-gradient-4" x1="-2520.26" y1="165.11" x2="-2520.26" y2="159.52" gradientTransform="matrix(1, 0, 0, -1, 2631.04, 210.2)" gradientUnits="userSpaceOnUse"><stop offset="0" stop-color="#f39619" stop-opacity="0"/><stop offset="1" stop-color="#f39619"/></linearGradient></defs><title>Asset 31</title><g id="Layer_2" data-name="Layer 2"><g id="Layer_3" data-name="Layer 3"><line class="cls-1" x1="103.62" y1="116.83" x2="98.55" y2="114.35"/><path class="cls-1" d="M103.66,123.37a6.51,6.51,0,0,1-2.9-.67l-5.08-2.47a6.54,6.54,0,0,1,5.74-11.76l5.07,2.48a6.54,6.54,0,0,1-2.83,12.42Z"/><line class="cls-1" x1="126.11" y1="117.58" x2="127.82" y2="112.19"/><path class="cls-1" d="M125.53,124.1a6.23,6.23,0,0,1-1.4-.29,6.52,6.52,0,0,1-4.25-8.21l1.71-5.39a6.54,6.54,0,1,1,12.47,4l-1.72,5.38A6.53,6.53,0,0,1,125.53,124.1Z"/><path class="cls-2" d="M121.6,103.53a6.23,6.23,0,0,0-2.4-4.72c-2.72-2-8-2.51-25.71.86l-.48.09c-35.12,6.67-44.56,8.46-63.76-1.24C15,91.35,5,71.4,7.23,55c.55-4,2-9.58,5.93-13.48,3.46-3.45,8.58-4.83,12.46-3.36a2.7,2.7,0,1,0,1.91-5c-5.89-2.24-13.2-.39-18.19,4.59-3.92,3.93-6.5,9.65-7.46,16.56C-.73,73,10.45,95.08,26.81,103.35c20.84,10.52,31.59,8.48,67.2,1.72l.49-.1c18.15-3.44,21.09-2.22,21.56-1.76a4.89,4.89,0,0,1,.18,1C116.47,106,121.78,104.92,121.6,103.53Z"/><path class="cls-3" d="M79,17.91A6.4,6.4,0,0,1,72.41,24a6.25,6.25,0,0,1-6.56-6,6.43,6.43,0,0,1,6.6-6.11A6.26,6.26,0,0,1,79,17.91Z"/><path class="cls-3" d="M149.28,11.92a6.42,6.42,0,0,1-6.6,6.11,6.26,6.26,0,0,1-6.55-6,6.41,6.41,0,0,1,6.6-6.1A6.24,6.24,0,0,1,149.28,11.92Z"/><path class="cls-4" d="M120.75,72.7c2.78-7,6.67-5.28,15.23-7.89,23.3-7,21.12-20.8,29.16-18.54a8.06,8.06,0,0,1,5.6,9.92c-2.13,7.66-10,12.84-23,19.46A133.3,133.3,0,0,1,131,82.75a8.06,8.06,0,0,1-10.22-10Z"/><path class="cls-5" d="M101.52,71.62a6.73,6.73,0,0,0-1.22-2.74,6.88,6.88,0,0,0-9.63-1.42c-2.16,1.6-21,16.14-16.41,32.31A6.89,6.89,0,0,0,87.51,96c-1.44-5.11,5.93-13.45,11.37-17.49A6.89,6.89,0,0,0,101.52,71.62Z"/><ellipse class="cls-6" cx="114.46" cy="88.28" rx="25.34" ry="25.9" transform="translate(-7.08 10.03) rotate(-4.87)"/><ellipse class="cls-7" cx="114.32" cy="87.26" rx="14.01" ry="17.78" transform="translate(-21.04 38.68) rotate(-17.61)"/><path class="cls-8" d="M112.34,78.5l.81-.08a31.34,31.34,0,0,0,14.53-5.11,2.41,2.41,0,0,0,.58-2.9,1.57,1.57,0,0,0-2.33-.84,28.36,28.36,0,0,1-13.2,4.61,31.31,31.31,0,0,1-14-1.52,1.6,1.6,0,0,0-2.06,1.42,2.32,2.32,0,0,0,1.21,2.65A33.57,33.57,0,0,0,112.34,78.5Z"/><path class="cls-7" d="M71.21,46.2c4.65,19.94,25.66,32.09,46.93,27.13s34.75-25.15,30.1-45.09S122.58-3.85,101.31,1.11,66.56,26.26,71.21,46.2Z"/><path class="cls-6" d="M71.21,46.2a34.93,34.93,0,0,0,6,13l.12,0h0c5.59-1.31,2.43-22,2.43-22a10.57,10.57,0,0,1,8-13c.25-.06.64-.14.9-.18a11.5,11.5,0,0,1,12.79,7.2c0,.18.07.35.11.53A6.9,6.9,0,0,0,115,28.4l.12.5a11,11,0,0,1,8.57-13.1l.89-.19a10.9,10.9,0,0,1,12.53,8.47s6.53,19.46,11,18.43a2.16,2.16,0,0,1,.47-.06c.16-.85.28-1.7.37-2.55a35,35,0,0,0-.72-11.66C145.4,16,136.44,6.77,125,2.53A41.75,41.75,0,0,0,80.55,13C72.27,21.82,68.38,34.05,71.21,46.2Z"/><rect class="cls-9" x="105.97" y="45.09" width="9.61" height="5.59" rx="1.74" ry="1.74" transform="translate(225.22 86.2) rotate(175.13)"/><ellipse class="cls-10" cx="91.28" cy="35.56" rx="3.34" ry="3.13" transform="translate(-2.69 7.87) rotate(-4.87)"/><ellipse class="cls-10" cx="128.8" cy="32.37" rx="3.34" ry="3.13" transform="translate(-2.28 11.05) rotate(-4.87)"/><path class="cls-11" d="M120.06,53.63A1.68,1.68,0,0,1,122,55.41a10.74,10.74,0,0,1-20.69,1.76,1.68,1.68,0,0,1,1.57-2.07Z"/></g></g></svg>