<?xml version="1.0" encoding="utf-8"?>
<!-- Generator: Adobe Illustrator 22.0.1, SVG Export Plug-In . SVG Version: 6.00 Build 0)  -->
<svg version="1.1" id="Layer_1" xmlns="http://www.w3.org/2000/svg" xmlns:xlink="http://www.w3.org/1999/xlink" x="0px" y="0px"
	 viewBox="0 0 68.8 125.6" style="enable-background:new 0 0 68.8 125.6;" xml:space="preserve">
<style type="text/css">
	.st0{fill:#E57917;}
	.st1{clip-path:url(#SVGID_2_);}
	.st2{clip-path:url(#SVGID_4_);}
	.st3{fill:#F39619;}
	.st4{fill:#FFE504;}
	.st5{opacity:0.5;}
	.st6{clip-path:url(#SVGID_6_);}
	.st7{fill:#F6EB66;}
	.st8{clip-path:url(#SVGID_8_);}
	.st9{fill:#603A33;}
	.st10{fill:#663917;}
	.st11{fill:#563515;}
	.st12{fill:#FFF9EC;}
	.st13{clip-path:url(#SVGID_10_);}
</style>
<title>Asset 11</title>
<g id="Layer_2_1_">
	<g id="Layer_4">
		<path class="st0" d="M27.1,112.3c-2.5,0-5.1-0.4-7.5-1.3c-6.5-2.4-11.7-8-13.4-14.2C2.6,85.5,2.8,75.1,6.6,64.9
			c1.7-4.3,3.8-8.5,6.4-12.3c2.4-3.8,5.1-7.3,7.6-10.7c6.6-8.8,12.4-16.4,11.9-25c0-0.1-0.1-0.3-0.1-0.4c-0.4-3.4-2.2-6.5-5-8.6
			s-6.3-3-9.7-2.5L17,5.5c-3.5,0.4-6.6,2.2-8.7,5c-2.1,2.7-3.1,6.2-2.6,9.6c0.2,1.5-0.8,2.8-2.3,3s-2.8-0.8-3-2.3
			C-0.2,16,1.1,11.1,4.1,7.2s7.4-6.4,12.2-7L17,0.1c4.8-0.7,9.7,0.6,13.6,3.6c3.2,2.4,5.5,5.7,6.6,9.5c0.2,0.3,0.3,0.6,0.4,1
			c2,11.6-5.1,21-12.7,30.9c-5,6.7-10.3,13.5-13.3,21.6C10,70.8,9.1,75.2,9,79.6C8.8,85,9.6,90.2,11.3,95.2c0,0,0,0.1,0,0.2
			c0.7,2.3,1.9,4.4,3.5,6.2c1.8,2,4.1,3.5,6.6,4.5c2.4,0.9,5,1.2,7.5,0.9c3.1-0.4,6-1.6,8.6-3.4c0.4-0.3,0.9-0.4,1.4-0.4
			c5.1-1.8,8-7.3,6.5-12.5c-0.4-1.4,0.5-2.9,1.9-3.3s2.9,0.5,3.3,1.9c2.2,8.3-2.6,16.8-10.8,19.2c-3.1,2-6.6,3.3-10.2,3.8
			C28.7,112.3,27.9,112.4,27.1,112.3z"/>
		<g>
			<g>
				<defs>
					<path id="SVGID_1_" d="M30.2,101.9c-0.7,0-1.4-0.3-2-0.7l-9.7-6.4c-0.8-0.5-1.4-1.3-1.7-2.2l-0.1-0.4c-0.4-1.5,0-3.1,1.2-4.2
						l4.6-4.1c1.7-1.5,4.2-1.3,5.7,0.3c1.5,1.7,1.3,4.2-0.3,5.7l-0.8,0.7l5.6,3.7c1.9,1.1,2.5,3.6,1.4,5.5
						C33.2,101.3,31.8,102,30.2,101.9L30.2,101.9z"/>
				</defs>
				<use xlink:href="#SVGID_1_"  style="overflow:visible;fill:#F39619;"/>
				<clipPath id="SVGID_2_">
					<use xlink:href="#SVGID_1_"  style="overflow:visible;"/>
				</clipPath>
				<g class="st1">
				</g>
			</g>
		</g>
		<g>
			<g>
				<defs>
					<path id="SVGID_3_" d="M65.1,106.4c-1.4,0-2.8-0.7-3.5-2c-2-3.5-6.5-4.7-10-2.7l0,0c-1.9,1.1-4.4,0.4-5.5-1.5s-0.4-4.4,1.5-5.5
						c7.4-4.2,16.8-1.6,21,5.7c1.1,1.9,0.5,4.4-1.4,5.5h-0.1C66.4,106.2,65.8,106.4,65.1,106.4z"/>
				</defs>
				<use xlink:href="#SVGID_3_"  style="overflow:visible;fill:#F39619;"/>
				<clipPath id="SVGID_4_">
					<use xlink:href="#SVGID_3_"  style="overflow:visible;"/>
				</clipPath>
				<g class="st2">
				</g>
			</g>
		</g>
		<ellipse class="st3" cx="57.6" cy="117.8" rx="4.9" ry="5"/>
		<path class="st3" d="M57.8,123c-0.6,0-1.3-0.2-1.8-0.5l-10.1-6c-1.9-1.3-2.6-3.7-1.6-5.8c0.8-1.9,2.9-2.8,4.8-2
			c0.1,0.1,0.3,0.1,0.4,0.2l10.1,6c1.9,1.3,2.6,3.7,1.6,5.8C60.6,122.1,59.3,123,57.8,123z"/>
		<ellipse class="st3" cx="42" cy="102.7" rx="15.3" ry="15.6"/>
		<path class="st3" d="M30.7,124.3c-2.3,0.5-4.5-1-5-3.2c-0.6-2.9-0.1-5.9,1.5-8.4c0.7-1.2,1.6-2.2,2.6-3.1l5.6,6.4l0,0
			c0,0-1.8,1.7-1.4,3.2C34.5,121.5,33.1,123.8,30.7,124.3C30.8,124.3,30.8,124.3,30.7,124.3L30.7,124.3z"/>
		
			<ellipse transform="matrix(0.2207 -0.9753 0.9753 0.2207 -67.8355 121.4491)" class="st4" cx="42.1" cy="103.2" rx="9.7" ry="7.7"/>
		<g class="st5">
			<g>
				<g>
					<defs>
						<path id="SVGID_5_" d="M43,99.5h-0.6c-3.7,0-7.3-0.9-10.5-2.7c-0.6-0.4-0.9-1.3-0.6-2c0.1-0.6,0.7-1,1.3-0.8
							c0.1,0,0.2,0.1,0.2,0.1c2.9,1.6,6.2,2.4,9.5,2.4c3.3,0.1,6.6-0.6,9.7-2c0.6-0.2,1.2,0,1.5,0.6c0,0.1,0.1,0.2,0.1,0.2
							c0.3,0.7,0,1.5-0.7,1.9C49.8,98.7,46.4,99.5,43,99.5z"/>
					</defs>
					<clipPath id="SVGID_6_">
						<use xlink:href="#SVGID_5_"  style="overflow:visible;"/>
					</clipPath>
					<g class="st6">
					</g>
				</g>
			</g>
		</g>
		<path class="st0" d="M60.5,61.3c0.3,2.1,2.2,3.6,4.3,3.3c2.1-0.1,3.7-1.8,3.6-3.9v-0.1c-0.3-2.1-2.2-3.6-4.3-3.3
			C62.1,57.4,60.4,59.1,60.5,61.3C60.5,61.2,60.5,61.2,60.5,61.3z"/>
		<path class="st0" d="M18,61.3c0.3,2.1,2.2,3.6,4.3,3.3c2.1-0.1,3.7-1.8,3.6-3.9v-0.1c-0.3-2.1-2.2-3.6-4.3-3.3
			C19.5,57.4,17.9,59.1,18,61.3C18,61.2,18,61.2,18,61.3z"/>
		<ellipse class="st7" cx="43.2" cy="74.4" rx="23.9" ry="22.4"/>
		<g>
			<g>
				<defs>
					<ellipse id="SVGID_7_" cx="43.2" cy="74.4" rx="23.9" ry="22.4"/>
				</defs>
				<clipPath id="SVGID_8_">
					<use xlink:href="#SVGID_7_"  style="overflow:visible;"/>
				</clipPath>
				<g class="st8">
					<ellipse class="st9" cx="44" cy="126" rx="40.1" ry="37.6"/>
					<ellipse class="st4" cx="43.2" cy="76.4" rx="34.7" ry="32.5"/>
					<path class="st3" d="M77.8,73.4c0.6,6.9-1.1,13.8-4.8,19.6l0,0c-0.8-2.6-3.2-5-8.4-4.1l0,0c5-41.7-22-27.6-22-27.6
						c-26.2-13-21.8,27.5-21.8,27.6l0,0c0,0-6.1-1-7.5,4.1l0,0c-3.2-5-4.9-10.8-4.9-16.7c0-19.1,17.4-34.3,38.2-32.5
						C62.3,45.2,76.5,58.6,77.8,73.4z"/>
					<path class="st10" d="M8.3,46.3c0.3,2.1,2.2,3.6,4.3,3.3c2.1-0.1,3.7-1.8,3.6-3.9v-0.1C16,43.5,14.1,42,12,42.3
						C9.9,42.3,8.2,44.1,8.3,46.3C8.3,46.2,8.3,46.2,8.3,46.3z"/>
					<path class="st10" d="M-42.7,43.5c-1.3,1.4-1.2,3.7,0.3,5c0.1,0.1,0.2,0.1,0.2,0.2c1.7,1.4,4.1,1.2,5.6-0.4
						c1.3-1.4,1.2-3.7-0.3-5c-0.1-0.1-0.2-0.1-0.2-0.2C-38.8,41.8-41.2,42-42.7,43.5z"/>
					<path class="st3" d="M39.2,70.2c0-7.9,6.7-14.3,15.1-14.3c7.9-0.2,14.6,6.1,14.8,14c0,0.1,0,0.2,0,0.3v14.9
						c-0.1,2.2-1.9,4-4.1,3.9l0,0c-2.3,0,3.8-6.2,0.3-6.2s-4.5-12.6-4.5-12.6c0.1-3.5-2.7-6.4-6.3-6.5c-0.1,0-0.2,0-0.3,0h-0.6
						c-3.6,0.2-6.5,3.1-6.6,6.7"/>
					<path class="st3" d="M32.1,55.9c8-0.2,14.6,6.1,14.8,14.1c0,0.1,0,0.2,0,0.3V70c-0.3,2.2-2.4,3.7-4.6,3.4
						c-1.7-0.3-3.1-1.6-3.4-3.4v0.3c-0.1-3.7-3.2-6.6-6.9-6.5l0,0h-0.6c-3.5,0.2-6.3,3.2-6.2,6.7c0,0-1.2,12.3-3.9,12.3
						s2.4,6.3,0.1,6.3c-2.1,0-3.8-1.6-3.8-3.7c0-0.1,0-0.2,0-0.2v-15c-0.1-7.8,6.1-14.2,13.9-14.4C31.7,55.9,31.9,55.9,32.1,55.9z"
						/>
				</g>
			</g>
		</g>
		<ellipse class="st9" cx="54.7" cy="72.3" rx="2" ry="1.9"/>
		<path class="st11" d="M33.3,73.4c-0.2,0-0.4-0.2-0.4-0.4l0,0c-0.1-0.6-0.6-1.1-1.3-1c-0.6,0.1-1,0.5-1,1c0,0.2-0.2,0.4-0.5,0.3
			c-0.2,0-0.3-0.2-0.3-0.3c0.2-1.1,1.3-1.8,2.4-1.6c0.8,0.2,1.4,0.8,1.6,1.6C33.7,73.3,33.5,73.5,33.3,73.4
			C33.3,73.5,33.3,73.5,33.3,73.4z"/>
		<path class="st12" d="M39.7,84.8c-0.4,0-0.7,0.3-0.8,0.7c0,0.1,0,0.1,0,0.1c0.6,2.5,3.2,3.9,5.6,3.3c1.6-0.4,2.9-1.7,3.3-3.3
			c0.1-0.4-0.2-0.8-0.6-0.8h-0.1C47.1,84.8,39.7,84.8,39.7,84.8z"/>
		<g class="st5">
			<circle class="st7" cx="55" cy="81.7" r="3.9"/>
		</g>
		<g class="st5">
			<circle class="st7" cx="32.5" cy="81.7" r="3.9"/>
		</g>
		<g>
			<g>
				<defs>
					<path id="SVGID_9_" d="M21.4,96.7l-4.6-4.4c-0.4-1.5,0-3.1,1.2-4.2l4.6-4.1c1.7-1.5,4.2-1.3,5.7,0.3c1.5,1.7,1.3,4.2-0.3,5.7
						c0,0,0.2-0.2-0.8,0.7c-0.2,0.2-3.5-2.5-4-1.9C21.4,91,21.6,97.4,21.4,96.7z"/>
				</defs>
				<use xlink:href="#SVGID_9_"  style="overflow:visible;fill:#F39619;"/>
				<clipPath id="SVGID_10_">
					<use xlink:href="#SVGID_9_"  style="overflow:visible;"/>
				</clipPath>
				<g class="st13">
				</g>
			</g>
		</g>
	</g>
</g>
</svg>
