<?xml version="1.0" encoding="utf-8"?>
<!-- Generator: Adobe Illustrator 22.0.1, SVG Export Plug-In . SVG Version: 6.00 Build 0)  -->
<svg version="1.1" xmlns="http://www.w3.org/2000/svg" xmlns:xlink="http://www.w3.org/1999/xlink" x="0px" y="0px"
	 viewBox="0 0 171.2 132.9" style="enable-background:new 0 0 171.2 132.9;" xml:space="preserve">
<style type="text/css">
	.st0{display:none;}
	.st1{display:inline;}
	.st2{fill:#E1E1E1;}
	.st3{clip-path:url(#SVGID_2_);}
	.st4{clip-path:url(#SVGID_4_);}
	.st5{clip-path:url(#SVGID_6_);}
	.st6{fill:#F39619;}
	.st7{fill:#FFE504;}
	.st8{fill:#663917;}
	.st9{fill:none;}
	.st10{opacity:0.5;}
	.st11{clip-path:url(#SVGID_8_);}
	.st12{clip-path:url(#SVGID_10_);}
	.st13{fill:#E57917;}
	.st14{fill:#EB5F62;}
	.st15{fill:#563515;}
</style>
<g id="Layer_1" class="st0">
	<title>Asset 24</title>
	<g id="Layer_2_1_" class="st1">
		<g id="Layer_1-2">
			<ellipse class="st2" cx="75" cy="95.4" rx="74" ry="8.6"/>
			
				<ellipse transform="matrix(5.791251e-02 -0.9983 0.9983 5.791251e-02 -56.1717 142.8989)" class="st2" cx="47.6" cy="101.2" rx="11.3" ry="47.7"/>
			<g>
				<defs>
					<path id="SVGID_1_" d="M78.4,50.4c0.7-1,1.6-1.7,2.6-2.2c10.1-4.6,17.2-3.2,26.1,0.7c3.3,1.3,5,5.1,3.6,8.4s-5.1,5-8.4,3.6
						c-0.2-0.1-0.3-0.1-0.5-0.2c-5.6-2.5-8.7-3.2-13.2-1.7l0.3,0.7c-0.7-1.2-1.6-2.3-2.4-3.4L78.4,50.4z"/>
				</defs>
				<clipPath id="SVGID_2_">
					<use xlink:href="#SVGID_1_"  style="overflow:visible;"/>
				</clipPath>
				<g class="st3">
					
						<image style="overflow:visible;enable-background:new    ;" width="36" height="37" xlink:href="7A78A04C81F9AA1.png"  transform="matrix(1 0 0 1 77.93 34.5)">
					</image>
				</g>
			</g>
			<g>
				<defs>
					<path id="SVGID_3_" d="M51.1,75.3c-0.4-2-0.6-4.1-0.4-6.2c0.1-1.5,0.4-3,0.8-4.4c-3.3-0.5-6.4-1.4-9.5-2.7
						c-5-2.1-9.7-5-13.6-8.8c-4-3.8-7.2-8.2-9.5-13.1c-2.4-5.1-3.7-10.6-4-16.2c-0.2-3-2.6-5.3-5.6-5.3c-1.2,0-2.4,0.5-3.3,1.3
						c-1.2,1-1.8,2.5-1.7,4.1c0.3,7.1,2.1,14,5.1,20.4c2.9,6.2,7,11.8,12,16.5c4.9,4.7,10.7,8.5,17.1,11.1
						C42.4,73.5,46.7,74.7,51.1,75.3z"/>
				</defs>
				<clipPath id="SVGID_4_">
					<use xlink:href="#SVGID_3_"  style="overflow:visible;"/>
				</clipPath>
				<g class="st4">
					
						<image style="overflow:visible;enable-background:new    ;" width="52" height="72" xlink:href="7A78A04C81F9AA2.png"  transform="matrix(1 0 0 1 1.93 11.5)">
					</image>
				</g>
			</g>
			<g>
				<defs>
					<path id="SVGID_5_" d="M40.5,91.5c0.3-2.5,1.7-4.7,3.8-5.9c0.5-0.5,1-0.8,1.6-1.1l9.1-4.3c0.2,0.7,0.4,1.4,0.6,2.2
						c0.8,3.2,2.4,6.2,4.5,8.7c-0.1,0.1-5,2.4-5,2.4c-0.6,4-4.3,6.9-8.3,6.3C42.8,99.2,39.9,95.5,40.5,91.5L40.5,91.5z"/>
				</defs>
				<clipPath id="SVGID_6_">
					<use xlink:href="#SVGID_5_"  style="overflow:visible;"/>
				</clipPath>
				<g class="st5">
					
						<image style="overflow:visible;enable-background:new    ;" width="24" height="23" xlink:href="7A78A04C81F9AA3.png"  transform="matrix(1 0 0 1 37.93 79.5)">
					</image>
				</g>
			</g>
			<path class="st6" d="M75.3,92.5c0.6-0.2,1.3-0.4,1.9-0.6c5.8-2.1,10.5-6.6,13-12.3c1.1-2.5,1.8-5.3,2-8.1
				c0.2-3.4-0.3-6.7-1.4-9.9c-0.4-1.1-0.8-2.2-1.4-3.2c-2.7-4.7-8.2-9.3-10.9-10.3c-11.4-5.4-25-0.4-30.4,11
				c-0.7,1.4-1.2,2.9-1.5,4.4c0,0-1.5,7.3,0.4,12.9c1.5,5,0.2,0.8,0.4,1.2c0.7,2,1.7,4,3,5.7c2.6,3,5,6.1,9.2,7.7
				c0.8,0.4,1.6,0.7,2.4,1C62,92.1,69.9,94.5,75.3,92.5z M59.7,76.7c-0.4-0.5-0.8-1.1-1.2-1.6c-0.4-0.7-0.8-1.4-1.2-2.1
				c-1.2-2.3-1.7-4.9-1.7-7.5c-0.1-3.6,1.6-7,4.6-9.1c5.4-3.5,13.3-0.8,17.8,6c1.1,1.7,1.9,3.6,2.4,5.6c0.7,2.7,0.6,5.5-0.2,8.1
				c-0.7,2.1-2.1,3.9-3.9,5.1c-0.7,0.4-1.4,0.8-2.1,1c-2.2,0.7-4.6,0.7-6.9-0.1c-1.3-0.4-2.6-1.1-3.8-1.9
				C62,79.2,60.8,78.1,59.7,76.7z"/>
			
				<ellipse transform="matrix(0.9383 -0.3458 0.3458 0.9383 -8.0801 20.8095)" class="st7" cx="54.3" cy="33.1" rx="33.4" ry="31.3"/>
			<path class="st8" d="M57.3,73c0.4-0.9,0.6-1.9,0.5-2.9c-0.1-1.8-0.9-3.5-2.2-4.7C55.6,68.1,56.2,70.7,57.3,73z"/>
			<path class="st8" d="M63.5,80.2c-0.3-0.7-0.8-1.4-1.4-2c-0.7-0.7-1.5-1.2-2.4-1.5C60.8,78.1,62,79.2,63.5,80.2z"/>
			<path class="st8" d="M67.3,82.1c2.2,0.8,4.6,0.8,6.9,0.1l-1.9-3.7C70.4,79.4,68.8,80.6,67.3,82.1L67.3,82.1z"/>
			<path class="st7" d="M63.5,80.2c1.2,0.8,2.5,1.4,3.8,1.9c2.2,0.8,4.6,0.8,6.9,0.1c0.7-0.2,1.5-0.6,2.1-1c1.8-1.2,3.2-3,3.9-5.1
				c0.9-2.6,1-5.4,0.2-8.1c-0.5-2-1.3-3.8-2.4-5.5c-4.4-6.8-10.6-10.7-15.9-7.2c-3,1.9-6.4,6.5-6.4,10.3c0,2.6,0.5,5.2,1.7,7.5
				c0.3,0.7,0.7,1.4,1.2,2.1c0.4,0.6,0.8,1.1,1.2,1.6C60.8,78.1,62,79.2,63.5,80.2z"/>
			<path class="st9" d="M29.3,54.8c3.4,3.5,7.6,6.2,12.3,7.9l0.4,0.1l0,0c1.4,0.5,2.9,0.9,4.4,1.1c2.6,0.5,5.3,0.7,7.9,0.6l0,0
				c3.7-0.2,7.3-0.9,10.8-2.2C71.7,60,77.4,55.7,81.5,50c0.4-0.6,0.8-1.2,1.2-1.8c2.8-4.5,4.4-9.6,4.7-14.9h-0.1
				c-3.6,1.3-11.1-14.3-11.1-14.3c-1.6-4.7-6.7-7.2-11.4-5.8L64,13.6c-4.9,1.7-7.6,7-5.9,11.9l1.9,5.1c0.9,3.1-0.8,6.4-3.9,7.3
				c-2.9,0.9-5.9-0.6-7.1-3.3l-1.8-4.8c-1.9-4.7-7.1-7.1-11.9-5.6c-0.2,0.1-0.5,0.2-0.8,0.3c-4.7,1.6-7.2,6.7-5.6,11.4
				c0,0.1,0.1,0.3,0.1,0.4C29.1,36.1,33.9,53.1,29.3,54.8L29.3,54.8z"/>
			<g class="st10">
				<g>
					<defs>
						<path id="SVGID_7_" d="M79.8,58.2c0.4-0.4,0.9-0.8,1.3-1.2c0.7-0.7,0.7-1.8,0-2.5c-0.7-0.7-2.2-1-2.9-0.3
							c-3.6,3.5-7.8,6.3-12.5,8.1c-4.7,1.8-9.7,2.7-14.8,2.6c-1.1,0.1-1.9,0.9-2,2c0,1,0.8,1.8,1.8,1.8c5.6,0,11.1-1,16.3-3
							C71.6,63.9,76,61.4,79.8,58.2z"/>
					</defs>
					<clipPath id="SVGID_8_">
						<use xlink:href="#SVGID_7_"  style="overflow:visible;"/>
					</clipPath>
					<g class="st11">
						
							<image style="overflow:visible;enable-background:new    ;" width="36" height="20" xlink:href="7A78A04C81F9AA0.png"  transform="matrix(1 0 0 1 47.93 52.5)">
						</image>
					</g>
				</g>
			</g>
			<g>
				<defs>
					<circle id="SVGID_9_" cx="79.2" cy="95.5" r="6.8"/>
				</defs>
				<clipPath id="SVGID_10_">
					<use xlink:href="#SVGID_9_"  style="overflow:visible;"/>
				</clipPath>
				<g class="st12">
					
						<image style="overflow:visible;enable-background:new    ;" width="15" height="15" xlink:href="7A78A04C81F9AAD.png"  transform="matrix(1 0 0 1 71.93 88.5)">
					</image>
				</g>
			</g>
			<path class="st13" d="M17.2,30.4c1.3,0.6,2.7,0.7,4,0.3h0.1c0.4-3,1.2-6,2.4-8.7c-0.7-0.6-1.5-1-2.3-1.2c-1-0.2-2-0.2-2.9,0.1
				c-2.9,0.7-4.6,3.6-4,6.5C14.9,28.7,15.9,29.8,17.2,30.4z"/>
			<path class="st13" d="M70.3,4.8c2.7,1.3,5.3,3,7.5,5.1c1.4-0.6,2.5-1.7,3.1-3.1c0.4-1,0.5-2.1,0.2-3.1c-0.9-2.8-3.8-4.3-6.6-3.5
				c0,0,0,0-0.1,0c-1.2,0.3-2.2,1-3,2C70.8,3,70.4,3.9,70.3,4.8z"/>
			<path class="st6" d="M29.3,54.8L29.3,54.8c4.6-1.7-0.2-18.7-0.2-18.7c-1.8-4.6,0.5-9.8,5-11.6c0.1,0,0.2-0.1,0.4-0.1
				c0.2-0.1,0.5-0.2,0.8-0.3c4.8-1.5,10,0.9,11.9,5.6l1.8,4.8c1.3,3,4.7,4.4,7.7,3.1c2.8-1.2,4.2-4.2,3.3-7.1l-1.9-5.1
				c-1.7-4.9,0.9-10.3,5.9-11.9c0,0,0,0,0,0l0.8-0.3c4.7-1.4,9.8,1.1,11.4,5.8c0,0,7.5,15.6,11.1,14.3h0.1
				c0.5-8.9-3.1-17.5-9.6-23.5c-2.2-2-4.8-3.8-7.5-5.1c-2.2-1.1-4.5-1.9-6.9-2.4c-13.6-3.1-27.7,2.2-36,13.3l0,0
				c-1.4,1.9-2.6,4-3.6,6.2c-1.2,2.8-2,5.7-2.4,8.7C20.3,39.5,23.2,48.4,29.3,54.8L29.3,54.8z"/>
			<path class="st14" d="M60.9,52.4l-0.5,3.4c0,0-0.8,2.5-3,2.1c-1.5-0.1-2.6-1.4-2.5-2.8l0.5-3.6L60.9,52.4z"/>
			<path class="st8" d="M64.9,50.5c0.8-0.7,1.5-1.6,2-2.6c0.1-0.3,0-0.6-0.3-0.7c-0.3-0.1-0.6,0-0.7,0.3c-1.9,3.8-6.6,5.4-10.5,3.4
				c-0.3-0.1-0.6,0-0.7,0.2c0,0,0,0,0,0c-0.1,0.3,0,0.6,0.2,0.7c0,0,0,0,0,0c2.1,1.1,4.5,1.3,6.8,0.5C62.9,51.9,64,51.3,64.9,50.5z"
				/>
			<path class="st15" d="M66.1,25.1c0.3-0.1,0.5-0.4,0.4-0.8c0,0,0,0,0,0c-0.2-0.9,0.3-1.9,1.3-2.1c0.8-0.2,1.6,0.2,2,0.9
				c0.1,0.3,0.5,0.4,0.8,0.3c0.3-0.1,0.4-0.4,0.3-0.7c-0.8-1.5-2.6-2-4.1-1.2c-1.1,0.6-1.8,1.9-1.5,3.2
				C65.4,25.1,65.8,25.3,66.1,25.1z"/>
			<path class="st15" d="M36.5,35.3c0.3-0.1,0.5-0.4,0.4-0.8c-0.2-0.9,0.3-1.9,1.3-2.1c0.8-0.2,1.7,0.2,2,1c0.1,0.3,0.4,0.5,0.8,0.4
				c0,0,0,0,0,0c0.3-0.1,0.5-0.4,0.4-0.8c-0.8-1.5-2.6-2.1-4-1.3c-1.2,0.6-1.8,1.9-1.6,3.2C35.8,35.3,36.2,35.5,36.5,35.3z"/>
		</g>
	</g>
</g>
<g id="Layer_2">
	<g>
		<g>
			<ellipse class="st2" cx="75" cy="115" rx="74" ry="8.6"/>
			
				<ellipse transform="matrix(5.794141e-02 -0.9983 0.9983 5.794141e-02 -75.7071 161.3274)" class="st2" cx="47.6" cy="120.8" rx="11.3" ry="47.7"/>
		</g>
		<g>
			<g>
				<path class="st13" d="M155.8,2c8.1,3.1,13.5,10.4,15,20.1c1.6,10.5-1.9,21.2-8.8,26.6c-5.6,4.5-13,5.2-20.7,2.1
					c-0.6-0.2-4-1.6-6.8-4.7c-4-4.5-5-10.4-2.8-16.7c1.3-5,4.7-8.9,9.1-10.5c3.7-1.3,7.5-0.8,10.5,1.5c1.9,1.4,2.3,4.1,0.9,6.1
					c-1.4,1.9-4.1,2.3-6.1,0.9c-0.3-0.2-1.1-0.8-2.4-0.3c-1.3,0.5-3,2-3.7,4.7c0,0.2-0.1,0.3-0.1,0.5c-1.6,4.3-0.3,6.6,0.9,8
					c1.5,1.8,3.6,2.6,3.6,2.6c0.1,0,0,0,0.1,0c4.8,1.9,8.9,1.7,12.1-0.9c4.5-3.5,6.8-11.2,5.6-18.5c-0.5-3.1-2.4-10.5-9.5-13.3
					c-6.8-2.3-12.3-1.8-16.8,1.4c-6.2,4.5-10.7,14.6-13.2,29.1c-2.2,13-3,21.6-2.9,26.4c0.2,8.7-1,14-5,22c-4,8-19.9,13.2-26.5,17.8
					c-2,1.4-4.7,0.9-6-1.1c-1.4-2-0.9-4.7,1.1-6c5.7-3.9,29.2-5.9,28.6-28.3c-0.3-12.2,0.1-53.1,18.8-66.8c6.9-5,15.2-5.9,24.7-2.6
					C155.7,2,155.8,2,155.8,2z"/>
			</g>
		</g>
		<g>
			<g>
				<g>
					<defs>
						<path id="SVGID_11_" d="M78.4,69.9c0.6-0.9,1.5-1.7,2.6-2.2c10.1-4.6,17.2-3.2,26.1,0.7c3.3,1.4,4.8,5.3,3.3,8.6
							c-0.4,0.9-0.9,1.6-1.6,2.2c-1.8,1.7-4.6,2.2-7,1.1c-5.6-2.5-8.7-3.2-13.2-1.7l0.3,0.7c-0.7-1.2-1.6-2.3-2.4-3.4L78.4,69.9z"/>
					</defs>
					<use xlink:href="#SVGID_11_"  style="overflow:visible;fill:#F39619;"/>
					<clipPath id="SVGID_12_">
						<use xlink:href="#SVGID_11_"  style="overflow:visible;"/>
					</clipPath>
					<g style="display:none;clip-path:url(#SVGID_12_);">
						
							<image style="display:inline;overflow:visible;" width="36" height="37" xlink:href="7A78A04C81F9AAE.png"  transform="matrix(1 0 0 1 78 53.87)">
						</image>
					</g>
				</g>
			</g>
			<g>
				<g>
					<defs>
						<path id="SVGID_13_" d="M51.1,94.8c-0.4-2.1-0.6-4.2-0.4-6.2c0.1-1.5,0.4-3,0.8-4.4c-3.2-0.5-6.4-1.4-9.5-2.6
							c-5-2-9.6-5-13.6-8.8c-4-3.8-7.2-8.2-9.5-13.2c-2.4-5.1-3.8-10.6-4-16.2c-0.1-3-2.7-5.3-5.6-5.3c-1.2,0-2.4,0.5-3.3,1.3
							c-1.1,1-1.7,2.5-1.7,4c0.3,7.1,2.1,13.9,5.1,20.4c2.9,6.2,7,11.8,12,16.6c5,4.8,10.8,8.5,17.1,11.1
							C42.5,93.1,46.7,94.2,51.1,94.8z"/>
					</defs>
					<use xlink:href="#SVGID_13_"  style="overflow:visible;fill:#F39619;"/>
					<clipPath id="SVGID_14_">
						<use xlink:href="#SVGID_13_"  style="overflow:visible;"/>
					</clipPath>
					<g style="display:none;clip-path:url(#SVGID_14_);">
						
							<image style="display:inline;overflow:visible;" width="52" height="72" xlink:href="7A78A04C81F9AAF.png"  transform="matrix(1 0 0 1 2 30.87)">
						</image>
					</g>
				</g>
			</g>
			<g>
				<g>
					<g>
						<defs>
							<path id="SVGID_15_" d="M40.5,111c0.3-2.6,1.8-4.7,3.9-5.9c0.5-0.5,1-0.8,1.6-1.1l9.1-4.3c0-0.2,0.4,1.3,0.6,2.2
								c0.7,3.1,2.4,6.1,4.5,8.7c-0.1,0.1-5,2.4-5,2.4c-0.6,4-4.2,6.8-8.1,6.4C43,118.9,40.1,115.2,40.5,111z"/>
						</defs>
						<use xlink:href="#SVGID_15_"  style="overflow:visible;fill:#F39619;"/>
						<clipPath id="SVGID_16_">
							<use xlink:href="#SVGID_15_"  style="overflow:visible;"/>
						</clipPath>
						<g style="display:none;clip-path:url(#SVGID_16_);">
							
								<image style="display:inline;overflow:visible;" width="24" height="23" xlink:href="7A78A04C81F9AAA.png"  transform="matrix(1 0 0 1 38 98.87)">
							</image>
						</g>
					</g>
				</g>
			</g>
			<g>
				<g>
					<path class="st6" d="M75.3,112c0.6-0.2,1.3-0.4,1.9-0.6c6-2.2,10.6-6.8,13-12.3c1.1-2.5,1.8-5.2,2-8.1c0.2-3.2-0.2-6.6-1.4-9.9
						c-0.4-1.1-0.8-2.2-1.4-3.2c-2.7-4.7-8.2-9.3-10.9-10.3C73,65.3,66.8,64.9,60.9,67c-7.4,2.7-12.5,8.9-14.3,16.1
						c0,0-1.5,7.3,0.4,12.9c1.5,5,0.3,0.8,0.4,1.2c0.8,2.1,1.8,4,3,5.7c2.6,3,5,6.1,9.3,7.7c0.8,0.4,1.6,0.7,2.4,1
						C62,111.6,69.9,114.1,75.3,112z M59.7,96.3c-0.4-0.5-0.8-1.1-1.2-1.6c-0.4-0.7-0.8-1.4-1.2-2.1c-1.2-2.5-1.8-5.1-1.7-7.5
						c0.1-3.8,1.6-7.2,4.6-9.1c5.4-3.5,13.3-0.8,17.8,6c1.2,1.8,2,3.7,2.4,5.5c0.7,2.8,0.6,5.7-0.2,8.1c-0.7,2.1-2,3.9-3.9,5.1
						c-0.7,0.4-1.4,0.8-2.1,1c-2.1,0.7-4.5,0.7-6.9-0.1c-1.3-0.4-2.6-1-3.8-1.9C62.1,98.9,60.8,97.7,59.7,96.3z"/>
				</g>
			</g>
			<g>
				
					<ellipse transform="matrix(0.9383 -0.3457 0.3457 0.9383 -14.847 22.0113)" class="st7" cx="54.3" cy="52.6" rx="33.4" ry="31.3"/>
			</g>
			<g>
				<g>
					<path class="st8" d="M57.3,92.6c0.4-0.9,0.6-1.8,0.5-2.9c-0.1-1.8-0.9-3.5-2.2-4.7C55.6,87.5,56.1,90.1,57.3,92.6z"/>
				</g>
			</g>
			<g>
				<g>
					<path class="st8" d="M63.5,99.8c-0.3-0.7-0.8-1.4-1.4-2c-0.7-0.7-1.6-1.2-2.4-1.5C60.8,97.7,62.1,98.9,63.5,99.8z"/>
				</g>
			</g>
			<g>
				<g>
					<path class="st8" d="M67.3,101.6c2.3,0.7,4.7,0.8,6.9,0.1L72.3,98C71.8,98.2,69.6,99.4,67.3,101.6
						C67.3,101.6,67.3,101.6,67.3,101.6z"/>
				</g>
			</g>
			<g>
				<path class="st7" d="M63.5,99.8c1.2,0.8,2.5,1.4,3.8,1.9c2.3,0.7,4.7,0.8,6.9,0.1c0.7-0.2,1.5-0.6,2.1-1c1.9-1.2,3.2-3,3.9-5.1
					c0.9-2.4,0.9-5.2,0.2-8.1c-0.5-1.9-1.3-3.8-2.4-5.5c-4.4-6.8-10.6-10.7-15.9-7.2c-3,1.9-6.4,6.5-6.4,10.3
					c-0.1,2.4,0.5,5,1.7,7.5c0.3,0.7,0.7,1.4,1.2,2.1c0.4,0.6,0.8,1.1,1.2,1.6C60.8,97.7,62.1,98.9,63.5,99.8z"/>
			</g>
			<g>
				<path class="st9" d="M29.3,74.4c3.4,3.5,7.6,6.2,12.3,7.9c0.1,0,0.3,0.1,0.4,0.1c0,0,0,0,0,0c1.4,0.5,2.9,0.9,4.4,1.2
					c2.6,0.5,5.2,0.7,7.9,0.6l0,0c3.6-0.2,7.2-0.9,10.8-2.2c6.9-2.5,12.5-7,16.4-12.5c0.4-0.6,0.8-1.2,1.2-1.8
					c2.8-4.5,4.4-9.6,4.7-14.9c0,0,0,0-0.1,0c-3.6,1.3-11.1-14.3-11.1-14.3c-1.7-4.6-6.5-7.2-11.4-5.8c-0.2,0.1-0.6,0.2-0.8,0.3
					c-5,1.9-7.7,7.2-5.9,11.9l1.9,5.1c1,2.8-0.6,6-3.6,7.2c-3,1.1-6.3-0.3-7.4-3.1l-1.8-4.8c-1.7-4.6-7-7.1-11.9-5.6
					c-0.2,0.1-0.5,0.2-0.8,0.3c-5,1.9-7.2,7-5.4,11.7C29.1,55.7,33.9,72.7,29.3,74.4C29.3,74.4,29.3,74.4,29.3,74.4z"/>
			</g>
			<g>
				<g>
					<defs>
						<circle id="SVGID_17_" cx="79.2" cy="115.1" r="6.7"/>
					</defs>
					<use xlink:href="#SVGID_17_"  style="overflow:visible;fill:#F39618;"/>
					<clipPath id="SVGID_18_">
						<use xlink:href="#SVGID_17_"  style="overflow:visible;"/>
					</clipPath>
					<g style="display:none;clip-path:url(#SVGID_18_);">
						
							<image style="display:inline;overflow:visible;" width="15" height="15" xlink:href="7A78A04C81F9AAB.png"  transform="matrix(1 0 0 1 72 107.87)">
						</image>
					</g>
				</g>
			</g>
			<g>
				<path class="st13" d="M17.2,50c1.2,0.5,2.6,0.7,4,0.3c0,0,0.1,0,0.1,0c0.4-3,1.2-5.9,2.4-8.7c-0.6-0.6-1.5-1-2.3-1.2
					c-0.9-0.2-1.9-0.2-2.9,0.1c-3,0.8-4.7,3.7-4,6.4C14.9,48.3,15.9,49.4,17.2,50z"/>
			</g>
			<path class="st13" d="M70.3,24.4c2.7,1.3,5.3,3,7.5,5.1c1.5-0.6,2.6-1.8,3.1-3.1c0.4-1,0.5-2.1,0.2-3.1c-0.7-2.7-3.7-4.3-6.7-3.4
				c-1.3,0.4-2.3,1.1-3,2C70.8,22.6,70.4,23.4,70.3,24.4z"/>
			<g>
				<path class="st6" d="M29.3,74.4C29.3,74.4,29.3,74.4,29.3,74.4c4.6-1.7-0.2-18.7-0.2-18.7c-1.7-4.7,0.4-9.9,5.4-11.7
					c0.2-0.1,0.5-0.2,0.8-0.3c4.9-1.5,10.2,1,11.9,5.6l1.8,4.8c1,2.8,4.4,4.2,7.4,3.1c3-1.1,4.6-4.3,3.6-7.2L58.1,45
					C56.3,40.3,59,35,64,33.1c0.2-0.1,0.6-0.2,0.8-0.3c4.9-1.5,9.7,1.1,11.4,5.8c0,0,7.5,15.6,11.1,14.3c0,0,0,0,0.1,0
					c0.2-3.9-0.4-7.9-1.8-11.8c-1.7-4.6-4.4-8.5-7.8-11.6c-2.2-2-4.8-3.7-7.5-5.1c-2.2-1.1-4.5-1.9-6.9-2.4
					c-6.3-1.5-13.3-1.2-20,1.3c-6.7,2.5-12.2,6.8-16.1,12l0,0c-1.4,2-2.6,4-3.6,6.2c-1.2,2.8-2,5.7-2.4,8.7c-0.6,4.6-0.1,9.4,1.6,14
					C24.4,68.1,26.6,71.5,29.3,74.4z"/>
			</g>
			<g>
				<path class="st14" d="M60.9,72l-0.5,3.4c0,0-0.8,2.4-3,2.1c-2.5-0.2-2.5-2.8-2.5-2.8l0.5-3.6L60.9,72z"/>
			</g>
			<g>
				<g>
					<path class="st8" d="M64.9,70.1c0.8-0.7,1.5-1.6,2-2.6c0.1-0.3,0-0.6-0.2-0.7c-0.3-0.1-0.6,0-0.7,0.2
						c-1.9,3.8-6.6,5.4-10.5,3.4c-0.3-0.1-0.6,0-0.7,0.2c-0.1,0.3,0,0.6,0.2,0.7c2.1,1.1,4.5,1.3,6.8,0.5
						C62.9,71.5,64,70.9,64.9,70.1z"/>
				</g>
			</g>
			<g>
				<g>
					<path class="st15" d="M66.1,44.7c0.3-0.1,0.5-0.5,0.4-0.8c-0.3-0.8,0.2-1.8,1.1-2.1c0.9-0.3,1.9,0.1,2.2,0.9
						c0.1,0.3,0.5,0.5,0.8,0.3c0.3-0.1,0.5-0.5,0.4-0.8c-0.5-1.4-2.2-2.2-3.7-1.6c-1.5,0.6-2.4,2.2-1.8,3.6
						C65.4,44.7,65.8,44.8,66.1,44.7z"/>
				</g>
			</g>
			<g>
				<g>
					<path class="st15" d="M36.5,54.9c0.3-0.1,0.5-0.4,0.4-0.7c-0.3-0.8,0.2-1.8,1.1-2.1c0.9-0.3,1.9,0.1,2.2,1
						c0.1,0.3,0.4,0.5,0.8,0.3c0.3-0.1,0.5-0.4,0.4-0.7c-0.5-1.5-2.2-2.2-3.7-1.7c-1.5,0.5-2.4,2.1-1.9,3.6
						C35.8,54.9,36.1,55,36.5,54.9z"/>
				</g>
			</g>
		</g>
	</g>
</g>
</svg>
