<svg xmlns="http://www.w3.org/2000/svg" xmlns:xlink="http://www.w3.org/1999/xlink" viewBox="0 0 129.37 95.68"><defs><style>.cls-1{fill:#e1e1e1;}.cls-2,.cls-3{fill:#e57917;}.cls-2{stroke:#e57917;stroke-miterlimit:10;stroke-width:4px;}.cls-4{fill:url(#linear-gradient);}.cls-5{fill:url(#linear-gradient-2);}.cls-6{fill:#f39619;}.cls-7{fill:#ffe504;}.cls-8{fill:url(#linear-gradient-3);}.cls-9{opacity:0.6;fill:url(#linear-gradient-4);}.cls-10{fill:#603a33;}.cls-11{fill:#fff;}.cls-12{fill:#ee851f;}</style><linearGradient id="linear-gradient" x1="-333.56" y1="4175.14" x2="-307.99" y2="4175.14" gradientTransform="matrix(-0.02, 1, 1, 0.02, -4082.23, 261.51)" gradientUnits="userSpaceOnUse"><stop offset="0" stop-color="#ef9419"/><stop offset="0.51" stop-color="#ed9219"/><stop offset="0.73" stop-color="#e88b19"/><stop offset="0.89" stop-color="#df7e19"/><stop offset="1" stop-color="#d57119"/></linearGradient><linearGradient id="linear-gradient-2" x1="-190.08" y1="42.04" x2="-172.51" y2="42.04" gradientTransform="matrix(-0.99, -0.11, -0.11, 0.99, -115.85, -3.18)" gradientUnits="userSpaceOnUse"><stop offset="0.1" stop-color="#d55c19"/><stop offset="0.14" stop-color="#d86219"/><stop offset="0.31" stop-color="#e27819"/><stop offset="0.5" stop-color="#e98819"/><stop offset="0.71" stop-color="#ee9119"/><stop offset="1" stop-color="#ef9419"/></linearGradient><linearGradient id="linear-gradient-3" x1="-445.12" y1="70.11" x2="-445.12" y2="64.73" gradientTransform="matrix(-1, 0.08, 0.08, 1, -371.87, 18.19)" gradientUnits="userSpaceOnUse"><stop offset="0" stop-color="#f39619" stop-opacity="0"/><stop offset="0.11" stop-color="#f39619" stop-opacity="0.15"/><stop offset="0.38" stop-color="#f39619" stop-opacity="0.51"/><stop offset="0.6" stop-color="#f39619" stop-opacity="0.77"/><stop offset="0.76" stop-color="#f39619" stop-opacity="0.94"/><stop offset="0.84" stop-color="#f39619"/></linearGradient><linearGradient id="linear-gradient-4" x1="-445.36" y1="51.27" x2="-445.36" y2="47.49" gradientTransform="matrix(1, 0, 0, -1, 521.35, 81.78)" gradientUnits="userSpaceOnUse"><stop offset="0" stop-color="#f39619" stop-opacity="0"/><stop offset="1" stop-color="#f39619"/></linearGradient></defs><title>Asset 18</title><g id="Layer_2" data-name="Layer 2"><g id="Layer_1-2" data-name="Layer 1"><ellipse class="cls-1" cx="74.9" cy="82.81" rx="54.46" ry="6.31"/><ellipse class="cls-1" cx="54.78" cy="87.09" rx="8.35" ry="35.12" transform="translate(-35.34 136.73) rotate(-86.68)"/><path class="cls-2" d="M83.08,70.1a4.21,4.21,0,0,0-1.6-3.2c-1.84-1.35-5.39-1.74-17.41.46l-.32.06C40,71.79,33.56,73,20.61,66.32,11,61.4,4.29,47.86,5.9,36.75c.39-2.7,1.41-6.47,4.07-9.1,2.35-2.32,5.82-3.23,8.44-2.22A1.83,1.83,0,1,0,19.73,22c-4-1.53-8.93-.32-12.33,3A19.42,19.42,0,0,0,2.28,36.22C.43,49,7.91,63.91,18.94,69.57,33,76.78,40.28,75.44,64.41,71l.32-.06C77,68.7,79,69.54,79.33,69.85a4.67,4.67,0,0,1,.12.7C79.6,71.73,83.19,71,83.08,70.1Z"/><path class="cls-3" d="M54.62,12a4.34,4.34,0,0,1-4.49,4.11A4.24,4.24,0,0,1,45.72,12a4.34,4.34,0,0,1,4.49-4.11A4.24,4.24,0,0,1,54.62,12Z"/><path class="cls-3" d="M102.19,8.23a4.34,4.34,0,0,1-4.49,4.1,4.22,4.22,0,0,1-4.4-4.09,4.34,4.34,0,0,1,4.49-4.11A4.22,4.22,0,0,1,102.19,8.23Z"/><path class="cls-4" d="M82.63,49.23C84.54,44.53,87.17,45.69,93,44c15.8-4.65,14.38-14,19.81-12.42a5.46,5.46,0,0,1,3.75,6.74c-1.48,5.17-6.81,8.64-15.62,13.06a93,93,0,0,1-11.4,4.74,5.46,5.46,0,0,1-6.88-6.85Z"/><path class="cls-5" d="M69.63,48.42a4.67,4.67,0,0,0-7.33-2.86C60.83,46.64,48,56.39,51.06,67.35a4.66,4.66,0,1,0,9-2.49c-.95-3.46,4.07-9.07,7.77-11.78A4.65,4.65,0,0,0,69.63,48.42Z"/><ellipse class="cls-6" cx="78.31" cy="59.75" rx="17.15" ry="17.52" transform="matrix(1, -0.08, 0.08, 1, -4.46, 6.34)"/><ellipse class="cls-7" cx="78.22" cy="59.05" rx="9.48" ry="12.03" transform="translate(-14 25.86) rotate(-17.26)"/><path class="cls-8" d="M76.92,53.12l.55,0a21,21,0,0,0,9.85-3.4,1.62,1.62,0,0,0,.4-2,1.06,1.06,0,0,0-1.57-.58,19.24,19.24,0,0,1-9,3.06,21.11,21.11,0,0,1-9.45-1.09,1.09,1.09,0,0,0-1.4,1,1.57,1.57,0,0,0,.81,1.81A22.83,22.83,0,0,0,76.92,53.12Z"/><path class="cls-7" d="M49.22,31.09C52.29,44.6,66.45,52.91,80.87,49.65s23.61-16.87,20.55-30.38S84.19-2.56,69.78.71,46.16,17.58,49.22,31.09Z"/><path class="cls-6" d="M49.22,31.09a23.59,23.59,0,0,0,4,8.8l.08,0h0C57.14,39,55.08,25,55.08,25a7.14,7.14,0,0,1,5.51-8.74,6,6,0,0,1,.61-.12,7.78,7.78,0,0,1,8.62,4.92c0,.12,0,.24.07.36A4.67,4.67,0,0,0,79,19.23l.08.34a7.45,7.45,0,0,1,5.85-8.83l.61-.12a7.37,7.37,0,0,1,8.44,5.79s4.34,13.19,7.35,12.51a1.27,1.27,0,0,1,.32,0c.11-.57.19-1.14.26-1.72a23.69,23.69,0,0,0-.44-7.89A24.63,24.63,0,0,0,85.83,1.77,28.25,28.25,0,0,0,55.68,8.66,24.66,24.66,0,0,0,49.22,31.09Z"/><rect class="cls-9" x="72.74" y="30.51" width="6.5" height="3.78" rx="1.89" ry="1.89" transform="translate(154.29 58.72) rotate(175.49)"/><ellipse class="cls-10" cx="62.85" cy="23.98" rx="2.26" ry="2.12" transform="translate(-1.69 5.02) rotate(-4.51)"/><ellipse class="cls-10" cx="88.25" cy="21.98" rx="2.26" ry="2.12" transform="matrix(1, -0.08, 0.08, 1, -1.45, 7.01)"/><path class="cls-11" d="M82.24,39.26a1.14,1.14,0,0,1,1.28,1.21,7.27,7.27,0,0,1-14,1.1,1.14,1.14,0,0,1,1.08-1.39Z"/><line class="cls-12" x1="86.61" y1="77.74" x2="90.3" y2="75.91"/><path class="cls-12" d="M86.61,82.51a4.74,4.74,0,0,0,2.12-.5l3.68-1.83a4.77,4.77,0,1,0-4.23-8.54l-3.69,1.83a4.77,4.77,0,0,0,2.12,9Z"/><line class="cls-12" x1="70.23" y1="78.39" x2="68.95" y2="74.47"/><path class="cls-12" d="M70.68,83.14a4.63,4.63,0,0,0,1-.21,4.78,4.78,0,0,0,3.06-6L73.49,73a4.77,4.77,0,0,0-9.07,3l1.27,3.92A4.78,4.78,0,0,0,70.68,83.14Z"/></g></g></svg>