<svg xmlns="http://www.w3.org/2000/svg" viewBox="0 0 82.99 45.29"><defs><style>.cls-1{fill:#43b9c0;}.cls-2{fill:#97d64c;}.cls-3{fill:#167593;}.cls-4{fill:#f47774;}.cls-5{fill:#8ef2f4;}</style></defs><title>Asset 4</title><g id="Layer_2" data-name="Layer 2"><g id="Layer_1-2" data-name="Layer 1"><path class="cls-1" d="M34.51.63c-2-1.41-8.8,0-8.8,0L38,17.18s15.61,3.19,17.68,0S35.71,1.49,34.51.63Z"/><path class="cls-2" d="M27.87.27c-1.25.17-2.16.36-2.16.36L38,17.18s1,.2,2.42.44Z"/><path class="cls-3" d="M.35,21V20.8c0,.07,0,.14,0,.21a3,3,0,0,1,2.36-1.54,3.71,3.71,0,0,1,.67-.07S46,13.51,70.23,14.51c3.1.93,8,3,10.35,5h0a3,3,0,0,1-.57,5.9H3a3,3,0,0,1-3-3A3,3,0,0,1,.35,21Z"/><path class="cls-4" d="M81,19.64a3,3,0,0,1,0,5.6s-1.26-.24-1.26-2.8S81,19.64,81,19.64Z"/><rect class="cls-5" x="60.04" y="16.52" width="4.76" height="6.35" rx="0.64" ry="0.64"/><path class="cls-5" d="M67.71,16.79a.64.64,0,0,1,.63-.64h6.58s3.52,1.89,6,3.6H68.34a.63.63,0,0,1-.63-.63Z"/><path class="cls-1" d="M30.93,44.52c-2.43,1.73-10.8,0-10.8,0l15-20.32s19.16-3.92,21.7,0S32.41,43.46,30.93,44.52Z"/><path class="cls-2" d="M22.78,45c-1.53-.21-2.65-.44-2.65-.44l15-20.32s1.17-.24,3-.54Z"/><path class="cls-2" d="M12.3,23.66c.63,1.76-6.78,9.53-10.16,8.69s1.37-8.69,1.37-8.69Z"/><path class="cls-2" d="M12.76,18.25C13.19,16.43,5,9.53,1.68,10.76S4,19.24,4,19.24Z"/><path class="cls-5" d="M52.52,18.69a1.59,1.59,0,1,0,1.59-1.59A1.59,1.59,0,0,0,52.52,18.69Z"/><path class="cls-5" d="M44.21,19.21a1.59,1.59,0,1,0,1.59-1.59A1.59,1.59,0,0,0,44.21,19.21Z"/><path class="cls-5" d="M35.9,19.73a1.59,1.59,0,1,0,1.59-1.59A1.59,1.59,0,0,0,35.9,19.73Z"/><path class="cls-5" d="M27.59,20.24a1.59,1.59,0,1,0,1.59-1.58A1.59,1.59,0,0,0,27.59,20.24Z"/><path class="cls-5" d="M19.28,20.76a1.59,1.59,0,1,0,1.58-1.59A1.59,1.59,0,0,0,19.28,20.76Z"/></g></g></svg>