<svg xmlns="http://www.w3.org/2000/svg" viewBox="0 0 82.76 82.76"><defs><style>.cls-1{fill:#a988d8;}.cls-2{fill:#8262bf;}.cls-3{fill:#fdffff;opacity:0.3;}</style></defs><title>Asset 5</title><g id="Layer_2" data-name="Layer 2"><g id="Layer_1-2" data-name="Layer 1"><path class="cls-1" d="M72.9,14.57A41.38,41.38,0,1,1,14.57,9.86,41.38,41.38,0,0,1,72.9,14.57Z"/><path class="cls-2" d="M18.6,33.71A5.42,5.42,0,1,1,11,33.1,5.41,5.41,0,0,1,18.6,33.71Z"/><path class="cls-2" d="M22.94,55.53a3.76,3.76,0,1,1-5.3-.43A3.75,3.75,0,0,1,22.94,55.53Z"/><path class="cls-2" d="M42.86,35.05a6.64,6.64,0,1,1-6.08-7.15A6.64,6.64,0,0,1,42.86,35.05Z"/><path class="cls-2" d="M48.34,62a6.64,6.64,0,1,1-6.08-7.15A6.64,6.64,0,0,1,48.34,62Z"/><path class="cls-2" d="M53.14,10.08a5.42,5.42,0,1,1-7.63-.62A5.41,5.41,0,0,1,53.14,10.08Z"/><path class="cls-2" d="M29.46,10.5a3.76,3.76,0,1,1-5.3-.43A3.75,3.75,0,0,1,29.46,10.5Z"/><path class="cls-2" d="M65.47,35.48a3.76,3.76,0,1,1-5.3-.43A3.77,3.77,0,0,1,65.47,35.48Z"/><path class="cls-2" d="M67.87,55.64a3.76,3.76,0,1,1-5.3-.43A3.77,3.77,0,0,1,67.87,55.64Z"/><path class="cls-3" d="M14.71,9.75l-.14.11a41.38,41.38,0,0,0,53.62,63l.14-.13Z"/></g></g></svg>