<svg xmlns="http://www.w3.org/2000/svg" viewBox="0 0 42.49 42.49"><defs><style>.cls-1{fill:#90f;}.cls-2{fill:#fff;}</style></defs><title>Asset 29</title><g id="Layer_2" data-name="Layer 2"><g id="Layer_4" data-name="Layer 4"><circle class="cls-1" cx="21.25" cy="21.25" r="21.25"/><g id="b"><path class="cls-2" d="M27.35,30.62a2.34,2.34,0,0,1-1.68-.7L13.21,17.45a2.37,2.37,0,1,1,3.35-3.35L29,26.57a2.36,2.36,0,0,1,0,3.35A2.33,2.33,0,0,1,27.35,30.62Z"/></g><g id="a"><path class="cls-2" d="M14.89,30.61a2.38,2.38,0,0,1-1.68-4.05L25.68,14.09A2.37,2.37,0,0,1,29,17.45L16.56,29.91A2.33,2.33,0,0,1,14.89,30.61Z"/></g></g></g></svg>