<svg xmlns="http://www.w3.org/2000/svg" viewBox="0 0 94.59 100.81"><defs><style>.cls-1{opacity:0.1;}.cls-2{fill:#57a345;}.cls-3{fill:#4c913d;}.cls-4{opacity:0.3;}.cls-5{fill:#fff;}</style></defs><title>Asset 11</title><g id="Layer_2" data-name="Layer 2"><g id="Layer_6" data-name="Layer 6"><path class="cls-1" d="M10,26.61,40,6A13.47,13.47,0,0,1,52.13,5.1L84.86,20.83a13.55,13.55,0,0,1,6.9,10.1l2.8,36.3a13.54,13.54,0,0,1-5.26,11L59.37,98.83a13.41,13.41,0,0,1-12.16.94L14.47,84a13.53,13.53,0,0,1-6.89-10.1l-2.8-36.3A13.48,13.48,0,0,1,10,26.61Z"/><path class="cls-2" d="M5.29,22.54,35.22,2A13.47,13.47,0,0,1,47.38,1L80.11,16.76A13.55,13.55,0,0,1,87,26.86l2.8,36.3a13.57,13.57,0,0,1-5.26,11L54.62,94.76a13.41,13.41,0,0,1-12.16.94L9.72,80A13.52,13.52,0,0,1,2.83,69.88L0,33.58A13.53,13.53,0,0,1,5.29,22.54Z"/><path class="cls-3" d="M80.11,16.76,47.38,1a12.45,12.45,0,0,0-6.19-1l7.46,96.65a12.39,12.39,0,0,0,6-1.93L84.55,74.2a13.57,13.57,0,0,0,5.26-11L87,26.86A13.55,13.55,0,0,0,80.11,16.76Z"/><g class="cls-4"><path d="M55.85,36,35.74,39A.87.87,0,1,0,36,40.73l20.12-3A.88.88,0,1,0,55.85,36Z"/><path d="M56.45,40,36.34,43a.87.87,0,1,0,.26,1.71l20.11-3A.87.87,0,1,0,56.45,40Z"/><path d="M47.68,47.09a.87.87,0,1,0-.25-1.71L36.94,47a.87.87,0,1,0,.26,1.71Z"/><path d="M58.25,29.21l-26.81,4A2.88,2.88,0,0,0,29,36.55l5.27,34.81a2.88,2.88,0,0,0,3.28,2.42l26.81-4.06a2.88,2.88,0,0,0,2.42-3.28L61.53,31.63A2.88,2.88,0,0,0,58.25,29.21Zm6.63,37.52a.94.94,0,0,1-.79,1.07L37.28,71.86a.94.94,0,0,1-1.07-.79L30.94,36.26a.94.94,0,0,1,.79-1.07l26.81-4.06a.94.94,0,0,1,1.07.79Z"/><rect x="44.69" y="57.1" width="4.04" height="9.44" transform="translate(-8.73 7.69) rotate(-8.61)"/><rect x="39.86" y="62.14" width="4.04" height="5.17" transform="matrix(0.99, -0.15, 0.15, 0.99, -9.22, 7)"/><rect x="50" y="58.35" width="4.04" height="7.41" transform="translate(-8.7 8.49) rotate(-8.61)"/><rect x="54.92" y="54.36" width="4.04" height="10.64" transform="translate(-8.29 9.2) rotate(-8.61)"/><polygon points="50.81 54.87 45.01 51.4 38.59 59.76 39.68 60.6 45.36 53.21 51.16 56.68 57.44 48.52 56.35 47.68 50.81 54.87"/></g><path class="cls-5" d="M52.13,33.23,32,36.28A.87.87,0,1,0,32.28,38l20.11-3a.88.88,0,1,0-.26-1.72Z"/><path class="cls-5" d="M52.73,37.21l-20.11,3A.87.87,0,1,0,32.88,42l20.11-3a.87.87,0,1,0-.26-1.71Z"/><path class="cls-5" d="M44,44.35a.87.87,0,1,0-.26-1.71L33.22,44.23a.87.87,0,1,0,.26,1.71Z"/><path class="cls-5" d="M54.53,26.46,27.72,30.52a2.88,2.88,0,0,0-2.42,3.29l5.27,34.81A2.89,2.89,0,0,0,33.86,71L60.66,67a2.88,2.88,0,0,0,2.42-3.29l-5.27-34.8A2.89,2.89,0,0,0,54.53,26.46ZM61.16,64a.94.94,0,0,1-.79,1.07L33.56,69.12a.94.94,0,0,1-1.07-.79L27.22,33.52A.93.93,0,0,1,28,32.45l26.81-4.06a.94.94,0,0,1,1.07.79Z"/><rect class="cls-5" x="40.97" y="54.36" width="4.04" height="9.44" transform="translate(-8.36 7.1) rotate(-8.61)"/><rect class="cls-5" x="36.14" y="59.4" width="4.04" height="5.17" transform="translate(-8.85 6.41) rotate(-8.61)"/><rect class="cls-5" x="46.28" y="55.61" width="4.04" height="7.41" transform="translate(-8.34 7.9) rotate(-8.61)"/><rect class="cls-5" x="51.2" y="51.62" width="4.04" height="10.64" transform="translate(-7.92 8.61) rotate(-8.61)"/><polygon class="cls-5" points="47.09 52.13 41.29 48.66 34.87 57.02 35.96 57.86 41.64 50.47 47.44 53.94 53.72 45.78 52.63 44.94 47.09 52.13"/></g></g></svg>