<svg xmlns="http://www.w3.org/2000/svg" viewBox="0 0 20 20"><defs><style>.cls-1{fill:#09f;}</style></defs><title>Asset 5</title><g id="Layer_2" data-name="Layer 2"><g id="Layer_4" data-name="Layer 4"><path class="cls-1" d="M7,9.75A1.25,1.25,0,1,0,8.25,11,1.25,1.25,0,0,0,7,9.75m6,0A1.25,1.25,0,1,0,14.25,11,1.25,1.25,0,0,0,13,9.75M10,0A10,10,0,1,0,20,10,10,10,0,0,0,10,0m0,18a8,8,0,0,1-8-8,8.11,8.11,0,0,1,0-.86A10.06,10.06,0,0,0,7.26,3.77,10,10,0,0,0,15.42,8a9.76,9.76,0,0,0,2.25-.26A8,8,0,0,1,10,18"/></g></g></svg>