<svg xmlns="http://www.w3.org/2000/svg" viewBox="0 0 90.15 93.56"><defs><style>.cls-1{opacity:0.1;}.cls-2{fill:#179bd7;}.cls-3{fill:#1789bd;}.cls-4{opacity:0.3;}.cls-5{fill:#fff;}</style></defs><title>Asset 13</title><g id="Layer_2" data-name="Layer 2"><g id="Layer_6" data-name="Layer 6"><path class="cls-1" d="M9,26.58,35.87,5.78A12.59,12.59,0,0,1,47.16,4.25L78.54,17.17a12.68,12.68,0,0,1,7,9l4.56,33.72a12.67,12.67,0,0,1-4.32,10.58L58.94,91.31a12.53,12.53,0,0,1-11.29,1.53L16.26,79.92a12.63,12.63,0,0,1-7-9L4.72,37.16A12.69,12.69,0,0,1,9,26.58Z"/><path class="cls-2" d="M4.39,23,31.22,2.24A12.59,12.59,0,0,1,42.51.71L73.89,13.63a12.68,12.68,0,0,1,7,9L85.43,56.4A12.67,12.67,0,0,1,81.11,67L54.29,87.77A12.53,12.53,0,0,1,43,89.3L11.61,76.38a12.63,12.63,0,0,1-7-9L.08,33.62A12.66,12.66,0,0,1,4.39,23Z"/><path class="cls-3" d="M73.89,13.63,42.51.71A11.61,11.61,0,0,0,36.68.13L48.83,89.89a11.51,11.51,0,0,0,5.46-2.12L81.11,67A12.67,12.67,0,0,0,85.43,56.4L80.87,22.68A12.68,12.68,0,0,0,73.89,13.63Z"/><path class="cls-4" d="M63.55,37,37.92,30.13a3.3,3.3,0,0,0-4,2.35L26.12,61.3l8.13-4.68,22.42,6a3.33,3.33,0,0,0,4.07-2.34l5.15-19.22A3.32,3.32,0,0,0,63.55,37ZM34.91,41.34l6.41,1.72-.86,3.2-6.41-1.72Zm9.61,2.58,6.41,1.72-.86,3.2-6.41-1.72Zm9.61,2.58,6.41,1.72-.86,3.2L53.27,49.7Z"/><path class="cls-5" d="M60.55,34,34.92,27.13a3.3,3.3,0,0,0-4,2.35L23.12,58.3l8.13-4.68,22.42,6a3.33,3.33,0,0,0,4.07-2.34l5.15-19.22A3.32,3.32,0,0,0,60.55,34ZM31.91,38.34l6.41,1.72-.86,3.2-6.41-1.72Zm9.61,2.58,6.41,1.72-.86,3.2-6.41-1.72Zm9.61,2.58,6.41,1.72-.86,3.2L50.27,46.7Z"/></g></g></svg>