<svg xmlns="http://www.w3.org/2000/svg" viewBox="0 0 95.56 101.67"><defs><style>.cls-1{opacity:0.1;}.cls-2{fill:#ee404a;}.cls-3{fill:#cf3740;}.cls-4{opacity:0.3;}.cls-5{fill:#fff;}</style></defs><title>Asset 12</title><g id="Layer_2" data-name="Layer 2"><g id="Layer_6" data-name="Layer 6"><path class="cls-1" d="M16.16,19.72l33.66-14A13.54,13.54,0,0,1,62,7.37L90.82,29.62A13.58,13.58,0,0,1,95.48,41l-4.8,36.22a13.62,13.62,0,0,1-7.46,9.74l-33.66,14a13.5,13.5,0,0,1-12.14-1.61L8.56,77A13.62,13.62,0,0,1,3.89,65.68L8.7,29.46A13.57,13.57,0,0,1,16.16,19.72Z"/><path class="cls-2" d="M12.34,14.74,46,.78A13.49,13.49,0,0,1,58.14,2.39L87,24.64A13.62,13.62,0,0,1,91.67,36L86.86,72.21a13.54,13.54,0,0,1-7.46,9.73l-33.66,14A13.51,13.51,0,0,1,33.61,94.3L4.74,72A13.55,13.55,0,0,1,.08,60.7l4.8-36.22A13.62,13.62,0,0,1,12.34,14.74Z"/><path class="cls-3" d="M87,24.64,58.14,2.39A12.51,12.51,0,0,0,52.27.13L39.48,96.56a12.47,12.47,0,0,0,6.26-.65l33.66-14a13.54,13.54,0,0,0,7.46-9.73L91.67,36A13.62,13.62,0,0,0,87,24.64Z"/><g class="cls-4"><path d="M54.92,61.89c-7.66,9.64-17.84,7-21.65,5.57a1.51,1.51,0,0,1-.78-2.15c4.78-7.66-2-14,.89-22.47,4-12,16.35-9.12,16.35-9.12l.09,0A10.71,10.71,0,0,1,57.23,39c2.58,4.54,5.43,13.18-2.31,22.92"/><path d="M49.42,36.61a.32.32,0,0,1-.28,0,.89.89,0,0,1-.72-1,18.71,18.71,0,0,1,6.68-11,.88.88,0,0,1,1.26.11.86.86,0,0,1-.11,1.25,16.81,16.81,0,0,0-6,9.94,1.1,1.1,0,0,1-.82.78"/><path d="M69.69,47c.32,2.5.57,5.11-.3,7.49a13,13,0,0,1-.85,1.94c-.5,1.07-1,2.05-1.6,3.14C68,53.67,66.2,47.65,63.4,42.45,61,37.79,57.62,33.32,53,30.68a3.5,3.5,0,0,1-.93-.7c-.24-.31-.34-.82,0-1.06.07-.1.24-.13.3-.23a5.62,5.62,0,0,1,3.94-.24A14.59,14.59,0,0,1,60,30.2a15,15,0,0,1,3.6,2.57,15.73,15.73,0,0,1,2.63,3.9,38.32,38.32,0,0,1,1.9,3.79A28.88,28.88,0,0,1,69.69,47"/><path d="M36.81,40.59c.76.11-.69,9.83-1.46,9.72s-1.06-2.39-.66-5.07,1.35-4.77,2.12-4.65"/></g><path class="cls-5" d="M52.47,58.43C44.8,68.07,34.62,65.38,30.81,64A1.51,1.51,0,0,1,30,61.85c4.78-7.66-2-14,.89-22.46,4-12,16.36-9.13,16.36-9.13l.08,0a10.71,10.71,0,0,1,7.41,5.27c2.58,4.54,5.43,13.18-2.3,22.92"/><path class="cls-5" d="M47,33.15a.3.3,0,0,1-.27,0,.89.89,0,0,1-.73-1,18.77,18.77,0,0,1,6.68-11,.87.87,0,0,1,1.26.11.86.86,0,0,1-.11,1.25,16.81,16.81,0,0,0-6,9.94,1.1,1.1,0,0,1-.82.78"/><path class="cls-5" d="M67.24,43.51c.31,2.5.56,5.11-.3,7.49a12,12,0,0,1-.86,1.94c-.5,1.07-1,2.05-1.6,3.14C65.54,50.21,63.74,44.19,61,39c-2.42-4.65-5.78-9.13-10.37-11.77a3.55,3.55,0,0,1-.94-.7c-.24-.31-.34-.82,0-1.05.07-.11.24-.14.31-.24A5.59,5.59,0,0,1,53.85,25a14.43,14.43,0,0,1,3.71,1.75,15.26,15.26,0,0,1,3.61,2.57,15.84,15.84,0,0,1,2.62,3.91A33.4,33.4,0,0,1,65.69,37a28.89,28.89,0,0,1,1.55,6.51"/><path class="cls-5" d="M34.35,37.13c.77.12-.69,9.83-1.46,9.72s-1.06-2.39-.66-5.07,1.35-4.76,2.12-4.65"/></g></g></svg>