<?xml version="1.0" encoding="utf-8"?>
<!-- Generator: Adobe Illustrator 22.0.1, SVG Export Plug-In . SVG Version: 6.00 Build 0)  -->
<svg version="1.1" id="Layer_1" xmlns="http://www.w3.org/2000/svg" xmlns:xlink="http://www.w3.org/1999/xlink" x="0px" y="0px"
	 viewBox="0 0 292 352.8" style="enable-background:new 0 0 292 352.8;" xml:space="preserve">
<style type="text/css">
	.st0{opacity:0.5;}
	.st1{clip-path:url(#SVGID_2_);}
	.st2{fill:#C00514;}
	.st3{fill:#FF4E00;}
	.st4{fill:#FFAD00;}
	.st5{fill:#FFDA00;}
	.st6{fill:#00C400;}
	.st7{fill:#00B4F0;}
	.st8{fill:#004171;}
</style>
<title>Asset 22</title>
<g id="Layer_2_1_">
	<g id="Layer_1-2">
		<g class="st0">
			<g>
				<defs>
					<rect id="SVGID_1_" x="1" y="-30.5" width="340" height="426"/>
				</defs>
				<clipPath id="SVGID_2_">
					<use xlink:href="#SVGID_1_"  style="overflow:visible;"/>
				</clipPath>
				<g class="st1">
					<path class="st2" d="M-226.7,352.8c-8.1-25.8-11.7-53.3-11.7-81.4c0.1-143,116-258.8,259-258.7C89.2,12.7,155,40,203.5,88.5
						c69.1,69.2,93.4,171.4,62.8,264.3h13.2c8.3-26.4,12.5-53.8,12.5-81.5C292,121.3,170.5,0,20.5,0S-251,121.4-251,271.3
						c0,28.4,3.5,55.7,11.1,81.4L-226.7,352.8z"/>
					<path class="st3" d="M-213.3,352.8c-8.6-25.8-12.4-53.2-12.4-81.4c0-136,110.3-246.2,246.3-246.1c65.3,0,127.9,26,174,72.1
						c66.9,66.9,89.5,166.1,58.4,255.4h13.4C311.2,217,237.6,70.6,101.8,25.7s-282.2,28.8-327.1,164.6
						c-8.6,26.2-13.1,53.5-13.1,81.1c0,28.1,3.5,55.6,11.6,81.4L-213.3,352.8z"/>
					<path class="st4" d="M-199.9,352.8c-9.1-25.7-13.2-53.1-13.2-81.4c0.1-129,104.7-233.5,233.7-233.4
						c61.9,0,121.3,24.7,165.1,68.4c64.6,64.6,85.6,160.8,53.8,246.5H253C297.9,224.4,230.1,84,101.8,39.1S-167.1,62-211.9,190.4
						c-9.1,26-13.8,53.4-13.8,81c0,28.2,3.8,55.7,12.4,81.4L-199.9,352.8z"/>
					<path class="st5" d="M-186.3,352.8c-9.8-25.7-14.2-53-14.2-81.4c0.1-122,99-220.9,221.1-220.8c58.6,0,114.7,23.3,156.1,64.7
						c62.3,62.3,81.6,155.6,49.2,237.5h13.6c44.9-120.9-16.8-255.4-137.7-300.3C16.2,20.7-80.1,41.8-144.7,106.3
						c-43.9,43.6-68.6,103.1-68.4,165c0,28.3,4.1,55.7,13.2,81.4L-186.3,352.8z"/>
					<path class="st6" d="M-172.6,352.8c-10.4-25.4-15.2-52.9-15.2-81.4c0.1-115,93.4-208.3,208.4-208.2c55.2,0,108.2,22,147.2,61
						c60,60,77.6,150.4,44.5,228.6h13.6C270.8,239.3,215.2,110.9,101.8,66C19.9,33.6-73.5,53-135.7,115.3
						c-41.6,41.3-64.9,97.5-64.7,156.1c0,28.4,4.4,55.8,14.2,81.4L-172.6,352.8z"/>
					<path class="st7" d="M-158.8,352.8c-11.2-25.3-16.4-52.8-16.4-81.4c0.1-108.1,87.7-195.6,195.8-195.6
						c51.9,0,101.6,20.7,138.3,57.3c57.8,57.7,73.6,145.4,39.5,219.6h13.9c44.9-105.9-4.6-228.2-110.6-273.1
						C23.6,46.6-66.8,64.2-126.8,124.2c-39.2,38.9-61.2,91.9-61,147.1c0,28.5,4.8,56,15.2,81.4L-158.8,352.8z"/>
					<path class="st8" d="M-144.8,352.8c-12.1-25-17.8-52.6-17.8-81.4c0-101.1,82-183,183-183c48.6,0,95.1,19.3,129.4,53.7
						c55.6,55.5,69.5,140.4,34.5,210.7h14c44.9-98.3,1.7-214.3-96.6-259.2c-74.3-34-161.9-18.2-219.7,39.6
						c-36.8,36.5-57.5,86.3-57.3,138.2c0,28.7,5.2,56.1,16.4,81.4L-144.8,352.8z"/>
				</g>
			</g>
		</g>
	</g>
</g>
</svg>
