<svg xmlns="http://www.w3.org/2000/svg" viewBox="0 0 30.7 29.41"><defs><style>.cls-1{fill:#5a3c0d;}.cls-2{fill:#efc80b;}.cls-3{fill:#ef900b;}.cls-4{fill:#f5de6d;}.cls-5{fill:#f7ca8a;}.cls-6{fill:#fcf4ce;}</style></defs><title>Asset 1</title><g id="Layer_2" data-name="Layer 2"><g id="Layer_1-2" data-name="Layer 1"><path class="cls-1" d="M28.9,9.65,21.24,8.53a.76.76,0,0,1-.58-.42L17.24,1.17a2.11,2.11,0,0,0-3.78,0L10,8.11a.75.75,0,0,1-.58.42L1.8,9.65A2.09,2.09,0,0,0,.1,11.08a2.12,2.12,0,0,0,.54,2.16l5.54,5.4a.77.77,0,0,1,.22.68L5.09,26.94a2.1,2.1,0,0,0,.46,1.71,2.14,2.14,0,0,0,1.62.76,2,2,0,0,0,1-.25L15,25.56a.73.73,0,0,1,.35-.09.74.74,0,0,1,.36.09l6.85,3.6a2,2,0,0,0,1,.25,2.1,2.1,0,0,0,1.61-.76,2.07,2.07,0,0,0,.46-1.71L24.3,19.32a.75.75,0,0,1,.23-.68l5.54-5.4a2.11,2.11,0,0,0,.53-2.16A2.08,2.08,0,0,0,28.9,9.65Zm.7,3.11-5.54,5.4a1.43,1.43,0,0,0-.42,1.27L25,27.06a1.43,1.43,0,0,1-2.08,1.51L16,25a1.44,1.44,0,0,0-1.34,0l-6.85,3.6a1.43,1.43,0,0,1-2.08-1.51l1.31-7.63a1.45,1.45,0,0,0-.41-1.27l-5.54-5.4a1.43,1.43,0,0,1,.79-2.45L9.56,9.19a1.42,1.42,0,0,0,1.08-.78l3.42-6.94a1.44,1.44,0,0,1,2.58,0l3.42,6.94a1.43,1.43,0,0,0,1.09.78l7.65,1.12A1.44,1.44,0,0,1,29.6,12.76Z"/><path class="cls-2" d="M28.8,10.31,21.15,9.19a1.43,1.43,0,0,1-1.09-.78L16.64,1.47a1.44,1.44,0,0,0-2.58,0L10.64,8.41a1.42,1.42,0,0,1-1.08.78L1.9,10.31a1.43,1.43,0,0,0-.79,2.45l5.54,5.4a1.45,1.45,0,0,1,.41,1.27L5.75,27.06a1.43,1.43,0,0,0,2.08,1.51L14.68,25A1.44,1.44,0,0,1,16,25l6.85,3.6A1.43,1.43,0,0,0,25,27.06l-1.31-7.63a1.43,1.43,0,0,1,.42-1.27l5.54-5.4A1.44,1.44,0,0,0,28.8,10.31Z"/><path class="cls-3" d="M27.37,13.59C26,14.76,24.21,15.61,23,17c-1.55,1.7.4,6.21-1.38,7.16-1.52.81-3.76-1.5-5-2.12-1.79-.91-3.08,0-4.7,1-1.09.65-1.75,1.35-2.63.12s-.53-2.45-.54-3.8c0-2.62-1.65-3.11-3.66-4.25-1.5-.85-2.9-2.5-4.36-3.22a1.4,1.4,0,0,0,.42.9l5.54,5.41a1.42,1.42,0,0,1,.41,1.27l-1.3,7.62a1.43,1.43,0,0,0,2.08,1.52L14.68,25A1.42,1.42,0,0,1,16,25l6.85,3.6A1.44,1.44,0,0,0,25,27.06l-1.31-7.62a1.42,1.42,0,0,1,.41-1.27l5.54-5.41a1.42,1.42,0,0,0,.13-1.9A13.52,13.52,0,0,1,27.37,13.59Z"/><path class="cls-4" d="M21.14,9.19a1.42,1.42,0,0,1-1.08-.78L16.63,1.47a1.43,1.43,0,0,0-2.57,0L10.63,8.41a1.42,1.42,0,0,1-1.08.78L1.89,10.31a1.39,1.39,0,0,0-1,.62,8.22,8.22,0,0,0,3.78.57,14.94,14.94,0,0,0,6-1,4.12,4.12,0,0,0,1.92-1.7c.74-1.09,1-2.4,1.75-3.47s1.62-.55,2,.57c.55,1.56.61,3,1.91,4.18,1.74,1.61,4.36,1,6.5,1,1.48,0,3.27-.56,4.81-.37a1.31,1.31,0,0,0-.77-.38Z"/><path class="cls-2" d="M23.78,20.28c-.43,1.85.52,3.82.5,5.68,0,.52,0,1.68-.51,2s-5.33-2.45-6.17-2.94a3.48,3.48,0,0,0-3.43-.3c-2.08.79-4,2.08-6.09,2.75s-1.61-1.75-1.61-3.19.31-2.72.44-4.1L5.74,27.06a1.43,1.43,0,0,0,2.08,1.51L14.67,25A1.44,1.44,0,0,1,16,25l6.85,3.6a1.43,1.43,0,0,0,2.08-1.51Z"/><path class="cls-4" d="M26.38,13.91a.51.51,0,0,0,0,1A.51.51,0,0,0,26.38,13.91Z"/><path class="cls-4" d="M29.06,11.52c-.48-.12-.91.42-1.2.76a3.19,3.19,0,0,0-.44.6,1,1,0,0,0-.08.64.07.07,0,0,0,.07.07,1,1,0,0,0,.54-.1,3.31,3.31,0,0,0,.62-.5c.33-.31.85-.72.75-1.21A.36.36,0,0,0,29.06,11.52Z"/><path class="cls-4" d="M4.78,14.6a.51.51,0,0,0,0,1A.51.51,0,0,0,4.78,14.6Z"/><path class="cls-4" d="M3.31,13c-.29-.34-.72-.87-1.21-.76a.36.36,0,0,0-.25.26c-.1.49.42.9.75,1.21a3.31,3.31,0,0,0,.62.5,1,1,0,0,0,.53.1s.07,0,.08-.07a1,1,0,0,0-.09-.64A2.75,2.75,0,0,0,3.31,13Z"/><path class="cls-5" d="M7.31,26.47a.51.51,0,0,0,1,.32A.51.51,0,0,0,7.31,26.47Z"/><path class="cls-5" d="M11.22,24.66c-.44-.25-1,.13-1.39.34a3.64,3.64,0,0,0-.67.43,1,1,0,0,0-.26.48.07.07,0,0,0,0,.09.94.94,0,0,0,.64.12,3.22,3.22,0,0,0,.71-.22c.4-.17,1.05-.41,1.09-.91A.38.38,0,0,0,11.22,24.66Z"/><path class="cls-5" d="M22.71,26.94a.51.51,0,0,0,1-.32A.51.51,0,0,0,22.71,26.94Z"/><path class="cls-5" d="M21.83,25.59a3.37,3.37,0,0,0-.67-.44c-.4-.21-.95-.58-1.39-.33a.36.36,0,0,0-.16.32c0,.5.69.74,1.1.91a3,3,0,0,0,.71.23.93.93,0,0,0,.63-.13.07.07,0,0,0,0-.09A1,1,0,0,0,21.83,25.59Z"/><path class="cls-6" d="M17.27,7.08a.8.8,0,0,0,1.48.61A.8.8,0,0,0,17.27,7.08Z"/><path class="cls-6" d="M17.26,3.35C17,2.69,16.73,1.69,16,1.54a.56.56,0,0,0-.53.21c-.46.64.06,1.59.37,2.21a4.65,4.65,0,0,0,.62,1,1.49,1.49,0,0,0,.88.5.12.12,0,0,0,.14-.06,1.54,1.54,0,0,0,.18-.84A5.22,5.22,0,0,0,17.26,3.35Z"/></g></g></svg>