<?xml version="1.0" encoding="utf-8"?>
<!-- Generator: Adobe Illustrator 22.0.1, SVG Export Plug-In . SVG Version: 6.00 Build 0)  -->
<svg version="1.1" id="Layer_1" xmlns="http://www.w3.org/2000/svg" xmlns:xlink="http://www.w3.org/1999/xlink" x="0px" y="0px"
	 viewBox="0 0 96.6 102.7" style="enable-background:new 0 0 96.6 102.7;" xml:space="preserve">
<style type="text/css">
	.st0{opacity:0.1;enable-background:new    ;}
	.st1{fill:#57A345;}
	.st2{clip-path:url(#SVGID_2_);}
</style>
<title>Asset 14</title>
<g id="Layer_2_1_">
	<g id="Layer_2-2">
		<path class="st0" d="M11.4,27.4L41.4,6.8c3.7-2.2,8.2-2.6,12.2-0.9l32.7,15.7c3.8,2.1,6.3,5.8,6.9,10.1L96,68
			c0.1,4.3-1.9,8.4-5.3,11L60.8,99.6c-3.7,2.2-8.2,2.6-12.2,0.9L15.9,84.8C12.1,82.7,9.5,79,9,74.7L6.2,38.4
			C6.1,34.1,8,30,11.4,27.4z"/>
		<path class="st1" d="M6.7,23.3L36.6,2.7c3.7-2.2,8.2-2.6,12.2-0.9l32.7,15.7c3.8,2.1,6.3,5.8,6.9,10.1l2.8,36.3
			c0.1,4.3-1.9,8.4-5.3,11L56,95.5c-3.7,2.2-8.2,2.6-12.2,0.9L11.1,80.7c-3.8-2.1-6.3-5.8-6.9-10.1L1.4,34.3
			C1.3,30,3.3,25.9,6.7,23.3z"/>
		<g>
			<defs>
				<path id="SVGID_1_" d="M6.7,23.3L36.6,2.7c3.7-2.2,8.2-2.6,12.2-0.9l32.7,15.7c3.8,2.1,6.3,5.8,6.9,10.1l2.8,36.3
					c0.1,4.3-1.9,8.4-5.3,11L56,95.5c-3.7,2.2-8.2,2.6-12.2,0.9L11.1,80.7c-3.8-2.1-6.3-5.8-6.9-10.1L1.4,34.3
					C1.3,30,3.3,25.9,6.7,23.3z"/>
			</defs>
			<clipPath id="SVGID_2_">
				<use xlink:href="#SVGID_1_"  style="overflow:visible;"/>
			</clipPath>
			<g class="st2">
				<g id="_4N3waA.tif">
					
						<image style="overflow:visible;enable-background:new    ;" width="541" height="962" id="Layer_0" xlink:href="E78E2C33836AA1D1.png"  transform="matrix(0.1796 0 0 0.1796 0.3333 -15)">
					</image>
				</g>
				<g id="GVtjXU.tif">
					
						<image style="overflow:visible;enable-background:new    ;" width="722" height="962" id="Layer_0-2" xlink:href="E78E2C33836AA1D3.png"  transform="matrix(0.2094 0 0 0.2094 -7.3079 -1.9302)">
					</image>
				</g>
			</g>
		</g>
	</g>
</g>
</svg>
