<svg xmlns="http://www.w3.org/2000/svg" viewBox="0 0 30.64 29.35"><defs><style>.cls-1{fill:#3c3c3b;}.cls-2{fill:#777876;}.cls-3{fill:#595a59;}.cls-4{fill:#adaead;}.cls-5{fill:#c9c9c8;}.cls-6{fill:#9b9c9b;}.cls-7{fill:#fff;}</style></defs><title>Asset 2</title><g id="Layer_2" data-name="Layer 2"><g id="Layer_1-2" data-name="Layer 1"><path class="cls-1" d="M28.84,9.63,21.2,8.51a.76.76,0,0,1-.58-.41L17.21,1.17a2.1,2.1,0,0,0-3.77,0L10,8.1a.79.79,0,0,1-.58.42L1.8,9.63A2.08,2.08,0,0,0,.1,11.06a2.1,2.1,0,0,0,.54,2.15L6.17,18.6a.78.78,0,0,1,.22.68L5.08,26.89a2.11,2.11,0,0,0,2.07,2.46,2,2,0,0,0,1-.25L15,25.51a.73.73,0,0,1,.35-.09.77.77,0,0,1,.36.09l6.83,3.59a2,2,0,0,0,1,.25,2.1,2.1,0,0,0,1.61-.76,2.05,2.05,0,0,0,.46-1.7l-1.3-7.61a.75.75,0,0,1,.22-.68L30,13.21a2.11,2.11,0,0,0,.53-2.16A2.08,2.08,0,0,0,28.84,9.63Zm.7,3.1L24,18.12a1.43,1.43,0,0,0-.41,1.27L24.9,27a1.43,1.43,0,0,1-2.08,1.51L16,24.92a1.44,1.44,0,0,0-1.34,0L7.82,28.51A1.43,1.43,0,0,1,5.74,27l1.31-7.61a1.47,1.47,0,0,0-.42-1.27L1.1,12.73a1.43,1.43,0,0,1,.8-2.44L9.54,9.18a1.43,1.43,0,0,0,1.08-.79L14,1.47a1.43,1.43,0,0,1,2.57,0L20,8.39a1.44,1.44,0,0,0,1.08.79l7.65,1.11A1.43,1.43,0,0,1,29.54,12.73Z"/><path class="cls-2" d="M28.75,10.29,21.1,9.18A1.44,1.44,0,0,1,20,8.39L16.61,1.47a1.43,1.43,0,0,0-2.57,0L10.62,8.39a1.43,1.43,0,0,1-1.08.79L1.9,10.29a1.43,1.43,0,0,0-.8,2.44l5.53,5.39a1.47,1.47,0,0,1,.42,1.27L5.74,27a1.43,1.43,0,0,0,2.08,1.51l6.83-3.59a1.44,1.44,0,0,1,1.34,0l6.83,3.59A1.43,1.43,0,0,0,24.9,27l-1.3-7.61A1.43,1.43,0,0,1,24,18.12l5.53-5.39A1.43,1.43,0,0,0,28.75,10.29Z"/><path class="cls-3" d="M27.32,13.56c-1.41,1.17-3.16,2-4.4,3.38-1.55,1.69.4,6.19-1.38,7.14-1.52.81-3.76-1.49-5-2.12-1.79-.9-3.08,0-4.69,1-1.09.65-1.75,1.35-2.63.13s-.53-2.45-.53-3.8c0-2.62-1.65-3.1-3.66-4.24-1.49-.85-2.89-2.5-4.35-3.22a1.4,1.4,0,0,0,.42.91l5.53,5.39A1.42,1.42,0,0,1,7,19.4L5.73,27a1.43,1.43,0,0,0,2.08,1.51l6.84-3.59a1.42,1.42,0,0,1,1.33,0l6.84,3.59A1.43,1.43,0,0,0,24.9,27L23.59,19.4A1.45,1.45,0,0,1,24,18.13l5.53-5.39a1.42,1.42,0,0,0,.13-1.9A14,14,0,0,1,27.32,13.56Z"/><path class="cls-4" d="M21.1,9.18A1.43,1.43,0,0,1,20,8.39L16.6,1.47a1.43,1.43,0,0,0-2.57,0L10.61,8.39a1.43,1.43,0,0,1-1.08.79L1.89,10.29a1.39,1.39,0,0,0-1,.62,8.16,8.16,0,0,0,3.77.57,14.89,14.89,0,0,0,6-1,4.17,4.17,0,0,0,1.92-1.7c.74-1.08,1-2.39,1.74-3.46s1.61-.55,2,.57c.55,1.56.6,3,1.9,4.17,1.74,1.61,4.35,1,6.49,1,1.48,0,3.27-.56,4.8-.38a1.36,1.36,0,0,0-.77-.37Z"/><path class="cls-2" d="M23.73,20.24c-.43,1.84.52,3.81.5,5.67,0,.51,0,1.67-.5,2S18.4,25.49,17.57,25a3.48,3.48,0,0,0-3.43-.3c-2.07.79-4,2.08-6.08,2.75s-1.6-1.75-1.6-3.19a39.94,39.94,0,0,1,.44-4.09L5.73,27a1.43,1.43,0,0,0,2.08,1.51l6.83-3.59a1.44,1.44,0,0,1,1.34,0l6.83,3.59A1.43,1.43,0,0,0,24.89,27Z"/><path class="cls-5" d="M26.33,13.88a.51.51,0,0,0,0,1A.51.51,0,0,0,26.33,13.88Z"/><path class="cls-5" d="M29,11.5c-.49-.12-.92.42-1.21.75a2.92,2.92,0,0,0-.43.61.87.87,0,0,0-.08.63s0,.08.07.07a.9.9,0,0,0,.53-.1,3.26,3.26,0,0,0,.62-.49c.33-.32.85-.72.75-1.22A.35.35,0,0,0,29,11.5Z"/><path class="cls-5" d="M4.77,14.57a.51.51,0,0,0,0,1A.51.51,0,0,0,4.77,14.57Z"/><path class="cls-5" d="M3.3,12.94c-.29-.33-.71-.87-1.2-.75a.36.36,0,0,0-.26.25c-.1.5.43.9.75,1.22a3.26,3.26,0,0,0,.62.49.92.92,0,0,0,.54.1s.07,0,.07-.07a.92.92,0,0,0-.08-.63A3,3,0,0,0,3.3,12.94Z"/><path class="cls-6" d="M7.29,26.42a.51.51,0,0,0,1,.32A.51.51,0,0,0,7.29,26.42Z"/><path class="cls-6" d="M11.2,24.61c-.44-.25-1,.13-1.39.34a3.64,3.64,0,0,0-.67.43c-.17.16-.17.28-.26.48a.08.08,0,0,0,0,.09,1,1,0,0,0,.63.12,3.86,3.86,0,0,0,.71-.22c.4-.18,1.05-.41,1.09-.91A.38.38,0,0,0,11.2,24.61Z"/><path class="cls-6" d="M22.67,26.89a.51.51,0,0,0,1-.32A.51.51,0,0,0,22.67,26.89Z"/><path class="cls-6" d="M21.78,25.54a3.3,3.3,0,0,0-.66-.44c-.4-.21-.95-.58-1.39-.33a.36.36,0,0,0-.16.32c0,.5.69.74,1.09.91a3.07,3.07,0,0,0,.71.22A.9.9,0,0,0,22,26.1a.07.07,0,0,0,.05-.09C22,25.81,22,25.69,21.78,25.54Z"/><path class="cls-7" d="M17.24,7.07a.8.8,0,0,0,1.48.61A.8.8,0,0,0,17.24,7.07Z"/><path class="cls-7" d="M17.22,3.35c-.26-.66-.53-1.67-1.3-1.82a.59.59,0,0,0-.53.22c-.46.64.06,1.58.37,2.2a4.65,4.65,0,0,0,.62,1,1.51,1.51,0,0,0,.87.5c.06,0,.13,0,.15-.06a1.63,1.63,0,0,0,.17-.84A5,5,0,0,0,17.22,3.35Z"/></g></g></svg>