<svg xmlns="http://www.w3.org/2000/svg" xmlns:xlink="http://www.w3.org/1999/xlink" viewBox="0 0 281 80.18"><defs><style>.cls-1{fill:url(#linear-gradient);}.cls-2{fill:url(#linear-gradient-2);}.cls-3{fill:url(#linear-gradient-3);}.cls-4{fill:url(#linear-gradient-4);}.cls-5{fill:url(#linear-gradient-5);}.cls-6{fill:#fff;}</style><linearGradient id="linear-gradient" x1="48.5" y1="-7229.44" x2="5.4" y2="-7220.33" gradientTransform="matrix(1, 0, 0, -1, 0, -7190.24)" gradientUnits="userSpaceOnUse"><stop offset="0" stop-color="#bfbfbf"/><stop offset="1" stop-color="#f2f2f2"/></linearGradient><linearGradient id="linear-gradient-2" x1="49.45" y1="62.27" x2="49.45" y2="70.36" gradientUnits="userSpaceOnUse"><stop offset="0" stop-color="#575757"/><stop offset="0.17" stop-color="#626262"/><stop offset="0.46" stop-color="#7f7f7f"/><stop offset="0.84" stop-color="#afafaf"/><stop offset="1" stop-color="#c4c4c4"/></linearGradient><linearGradient id="linear-gradient-3" x1="11745.6" y1="-7229.35" x2="11702.56" y2="-7220.25" gradientTransform="translate(11978.27 -7190.24) rotate(180)" xlink:href="#linear-gradient"/><linearGradient id="linear-gradient-4" x1="232.03" y1="61.79" x2="232.03" y2="69.75" xlink:href="#linear-gradient-2"/><linearGradient id="linear-gradient-5" x1="26.64" y1="40.17" x2="253.36" y2="40.17" gradientUnits="userSpaceOnUse"><stop offset="0" stop-color="#e6e6e6"/><stop offset="0.23" stop-color="#f0f0f0"/><stop offset="0.52" stop-color="#f7f7f7"/><stop offset="0.78" stop-color="#f0f0f0"/><stop offset="1" stop-color="#e6e6e6"/></linearGradient></defs><title>Asset 3</title><g id="Layer_2" data-name="Layer 2"><g id="Layer_1-2" data-name="Layer 1"><path class="cls-1" d="M0,35.84c.06,0,7,5.75,17,14.1,10,8,23,18.6,34.13,20.43,4.32-32.78,9.14-46.54,9.59-59.2,0-.08-22.95-4.49-34.46-6.89,1.5,7,0,12.69-1.94,19.59A127.36,127.36,0,0,1,0,35.84Z"/><path class="cls-2" d="M71,10.28c-7.35,8.19-17.61,17.28-29.7,27.6-4.4,1.58-8.91,3-13.45,4.14a213.65,213.65,0,0,1,23.3,28.34C59.89,38.26,68,23.34,71,10.28Z"/><path class="cls-3" d="M281,35.21c-.07,0-7.05,5.7-17.05,14-10,8-22.92,18.57-34,20.49-4.08-32.36-8.58-45.86-8.87-58.21.05-.07,23.08-4.32,34.69-6.63-1.58,6.69-.25,12.22,1.46,18.92A120.05,120.05,0,0,0,281,35.21Z"/><path class="cls-4" d="M210.75,10.62c7.28,8,17.38,16.92,29.26,27a136.36,136.36,0,0,0,13.3,4A208.28,208.28,0,0,0,229.89,69.7C221.44,38.05,213.63,23.39,210.75,10.62Z"/><path class="cls-5" d="M253.36,41.66c-.2.5-4.64,3.83-20.88,13.52-16.24,8.71-44.28,23.76-91.84,25C93.07,79.27,65,64.31,48.74,55.63,32.49,46,28.08,42.57,27.88,42.09,37.88,23.92,47.71,13.68,47.71.17c.17,0,31.06,7.15,93.15,7.51C203,7.75,234.1.89,234.25.9,234.25,14,243.69,23.91,253.36,41.66Z"/><path class="cls-6" d="M140.86,7.52C78.77,7.17,47.88,0,47.71,0c0,.37,0,.73,0,1.09.13,0,30.87,7.15,93.17,7.55,62.3,0,93.3-6.89,93.41-6.85,0-.35,0-.7,0-1.06C234.1.73,203,7.6,140.86,7.52Z"/></g></g></svg>