<svg xmlns="http://www.w3.org/2000/svg" viewBox="0 0 17.11 18"><defs><style>.cls-1{fill:#ee404a;}</style></defs><title>Asset 3</title><g id="Layer_2" data-name="Layer 2"><g id="Layer_1-2" data-name="Layer 1"><path class="cls-1" d="M8.28,11.32a3.44,3.44,0,0,1,1.89.57S13,9.07,13.1,9V.84A.86.86,0,0,0,12.23,0H.78A.79.79,0,0,0,0,.84V16.47a.76.76,0,0,0,.78.8h5.5L5.93,17a3.23,3.23,0,0,1-1-2.33,3.3,3.3,0,0,1,1-2.35A3.37,3.37,0,0,1,8.28,11.32Zm-4-9a.83.83,0,0,1,.84-.84h5.67a.83.83,0,0,1,.83.84v.34a.84.84,0,0,1-.83.84H5.16a.84.84,0,0,1-.84-.84Zm0,3.16a.83.83,0,0,1,.84-.83h5.67a.83.83,0,0,1,.83.83v.35a.83.83,0,0,1-.83.83H5.16a.83.83,0,0,1-.84-.83Zm-2,4.25a1,1,0,1,1,1-1A1,1,0,0,1,2.32,9.69Zm0-3.21a1,1,0,1,1,1-1A1,1,0,0,1,2.32,6.48Zm0-3.08a1,1,0,1,1,1-1A1,1,0,0,1,2.32,3.4Zm2,5.41V8.47a.84.84,0,0,1,.84-.84h5.67a.84.84,0,0,1,.83.84v.34a.84.84,0,0,1-.83.84H5.16A.84.84,0,0,1,4.32,8.81Z"/><path class="cls-1" d="M9.24,17.58a1.42,1.42,0,0,0,1,.42,1.38,1.38,0,0,0,1-.42l5.42-5.41a1.44,1.44,0,0,0,.05-2,1.41,1.41,0,0,0-2,0L10.84,14a.83.83,0,0,1-1.18,0l-.5-.5a1.42,1.42,0,0,0-2,2Z"/></g></g></svg>