<svg xmlns="http://www.w3.org/2000/svg" viewBox="0 0 78 78"><defs><style>.cls-1{opacity:0.2;}.cls-2{fill:#fff;}.cls-3{fill:#7ad06d;}</style></defs><title>Asset 7</title><g id="Layer_2" data-name="Layer 2"><g id="Layer_4" data-name="Layer 4"><g class="cls-1"><rect x="3" y="3" width="75" height="75" rx="18" ry="18"/></g><rect class="cls-2" width="75" height="75" rx="18" ry="18"/><path class="cls-3" d="M36.57,18.37a19,19,0,0,0-18.07,19A18.82,18.82,0,0,0,20.57,46l-2,9.8a.73.73,0,0,0,.9.86L29,54.36a18.81,18.81,0,0,0,8.16,2,19,19,0,1,0-.63-38ZM48,47.86a14.89,14.89,0,0,1-17.14,2.81L29.54,50,23.66,51.4l1.24-6-.66-1.29A14.87,14.87,0,0,1,27,26.83a14.87,14.87,0,1,1,21,21Z"/><path class="cls-3" d="M46.72,41.47,43,40.41a1.38,1.38,0,0,0-1.36.36l-.9.91a1.33,1.33,0,0,1-1.45.31A19.44,19.44,0,0,1,33,36.4a1.33,1.33,0,0,1,.1-1.48l.79-1a1.37,1.37,0,0,0,.17-1.39L32.5,29a1.37,1.37,0,0,0-2.14-.49A6.2,6.2,0,0,0,28,32.16c-.26,2.58.85,5.83,5,9.74,4.83,4.51,8.7,5.1,11.22,4.49a6.18,6.18,0,0,0,3.29-2.87A1.37,1.37,0,0,0,46.72,41.47Z"/></g></g></svg>