<svg xmlns="http://www.w3.org/2000/svg" viewBox="0 0 78 78"><defs><style>.cls-1{opacity:0.2;}.cls-2{fill:#fff;}.cls-3{fill:#e88a1b;}</style></defs><title>Asset 8</title><g id="Layer_2" data-name="Layer 2"><g id="Layer_4" data-name="Layer 4"><g class="cls-1"><rect x="3" y="3" width="75" height="75" rx="18" ry="18"/></g><rect class="cls-2" width="75" height="75" rx="18" ry="18"/><path class="cls-3" d="M52.18,58.5l-11.4-9.35H25.1a9.5,9.5,0,0,1-9.38-9.58V30.08A9.5,9.5,0,0,1,25.1,20.5H49.9a9.5,9.5,0,0,1,9.38,9.58v9.49a9.55,9.55,0,0,1-7.1,9.29ZM25.1,23.22a6.77,6.77,0,0,0-6.66,6.86v9.49a6.76,6.76,0,0,0,6.66,6.85H41.75l7.7,6.32V46.52l1.21-.14a6.79,6.79,0,0,0,5.9-6.81V30.08a6.77,6.77,0,0,0-6.66-6.86Z"/><path class="cls-3" d="M23.48,36.44a5.23,5.23,0,0,0,2.27.64c.8,0,1.13-.28,1.13-.71s-.26-.65-1.25-1c-1.75-.59-2.43-1.54-2.41-2.54,0-1.58,1.35-2.78,3.45-2.78a5.66,5.66,0,0,1,2.39.49l-.46,1.82a4.13,4.13,0,0,0-1.84-.49c-.64,0-1,.26-1,.69s.33.61,1.37,1c1.61.55,2.29,1.37,2.31,2.61,0,1.58-1.25,2.74-3.68,2.74A6.1,6.1,0,0,1,23,38.33Z"/><path class="cls-3" d="M31,33c0-1.06,0-2-.07-2.71h2.22l.12,1.15h.06a2.93,2.93,0,0,1,2.56-1.34,2.42,2.42,0,0,1,2.33,1.44h0a3.74,3.74,0,0,1,1.09-1A3.05,3.05,0,0,1,41,30.07c1.63,0,2.86,1.15,2.86,3.68v5H41.27V34.13c0-1.23-.4-1.94-1.25-1.94a1.28,1.28,0,0,0-1.21.92,2.13,2.13,0,0,0-.1.67v5H36.14V34c0-1.08-.38-1.8-1.22-1.8a1.35,1.35,0,0,0-1.23,1,1.89,1.89,0,0,0-.1.66v4.94H31V33Z"/><path class="cls-3" d="M45.92,36.44a5.19,5.19,0,0,0,2.27.64c.8,0,1.13-.28,1.13-.71s-.26-.65-1.25-1c-1.75-.59-2.43-1.54-2.41-2.54,0-1.58,1.35-2.78,3.45-2.78a5.66,5.66,0,0,1,2.39.49L51,32.38a4.13,4.13,0,0,0-1.84-.49c-.64,0-1,.26-1,.69s.33.61,1.37,1c1.61.55,2.29,1.37,2.31,2.61,0,1.58-1.25,2.74-3.68,2.74a6.1,6.1,0,0,1-2.74-.58Z"/></g></g></svg>