<svg xmlns="http://www.w3.org/2000/svg" viewBox="0 0 78 78"><defs><style>.cls-1{opacity:0.2;}.cls-2{fill:#fff;}.cls-3{fill:#09f;}</style></defs><title>Asset 9</title><g id="Layer_2" data-name="Layer 2"><g id="Layer_4" data-name="Layer 4"><g class="cls-1"><rect x="3" y="3" width="75" height="75" rx="18" ry="18"/></g><rect class="cls-2" width="75" height="75" rx="18" ry="18"/><path class="cls-3" d="M51.13,23.29A18.35,18.35,0,0,0,38.21,18.5,19.28,19.28,0,0,0,24.38,24a18,18,0,0,0-5.71,13.57A18.57,18.57,0,0,0,24.1,50.9q5.46,5.6,14.67,5.6a27.38,27.38,0,0,0,10.9-2.29,2.32,2.32,0,0,0,1.26-3h0A2.32,2.32,0,0,0,47.86,50a23,23,0,0,1-9.1,2q-7.07,0-10.95-4.31a14.6,14.6,0,0,1-3.88-10.11A14.39,14.39,0,0,1,28.09,27,13.72,13.72,0,0,1,38.28,22.8a13.55,13.55,0,0,1,9.41,3.47A11.24,11.24,0,0,1,51.53,35a9.83,9.83,0,0,1-1.76,6c-1.17,1.6-2.39,2.39-3.65,2.39-.69,0-1-.36-1-1.1s0-1.29.13-2.1l1.45-11.79h-5l-.32,1.15A6.46,6.46,0,0,0,37.23,28a8,8,0,0,0-6.13,2.86,10.56,10.56,0,0,0-2.55,7.34,10.6,10.6,0,0,0,2.26,7.07,6.9,6.9,0,0,0,5.45,2.69,6.17,6.17,0,0,0,4.87-2.38,5.06,5.06,0,0,0,4.49,2.28A9.54,9.54,0,0,0,53.16,44a13.8,13.8,0,0,0,3.17-9.15A15.18,15.18,0,0,0,51.13,23.29ZM39.71,41.13a3.85,3.85,0,0,1-3.14,1.77,2.25,2.25,0,0,1-2-1.3,6.19,6.19,0,0,1-.77-3.24,6.42,6.42,0,0,1,1.07-3.86A3.18,3.18,0,0,1,37.52,33,3.29,3.29,0,0,1,40,34.13,4,4,0,0,1,41,37.07,6.78,6.78,0,0,1,39.71,41.13Z"/></g></g></svg>