<svg xmlns="http://www.w3.org/2000/svg" viewBox="0 0 78 78"><defs><style>.cls-1{opacity:0.2;}.cls-2{fill:#fff;}.cls-3{fill:#3b5999;}</style></defs><title>Asset 6</title><g id="Layer_2" data-name="Layer 2"><g id="Layer_4" data-name="Layer 4"><g class="cls-1"><rect x="3" y="3" width="75" height="75" rx="18" ry="18"/></g><rect class="cls-2" width="75" height="75" rx="18" ry="18"/><path class="cls-3" d="M47.47,17.57H42.3c-5.81,0-9.57,3.85-9.57,9.82V31.9h-5.2a.81.81,0,0,0-.81.81v6.56a.81.81,0,0,0,.81.81h5.2V56.63a.82.82,0,0,0,.82.81h6.78a.81.81,0,0,0,.81-.81V40.08h6.08a.82.82,0,0,0,.82-.81V32.71a.82.82,0,0,0-.82-.81H41.14V28.06c0-1.84.44-2.78,2.84-2.78h3.49a.81.81,0,0,0,.81-.81V18.38A.81.81,0,0,0,47.47,17.57Z"/></g></g></svg>