<svg xmlns="http://www.w3.org/2000/svg" viewBox="0 0 15.33 17.7"><defs><style>.cls-1{fill:#fff;}</style></defs><title>Asset 26</title><g id="Layer_2" data-name="Layer 2"><g id="Layer_1-2" data-name="Layer 1"><path class="cls-1" d="M11.93,16a1.57,1.57,0,0,1-.65-.13,3,3,0,0,1-1.46-2,5,5,0,0,0-2-2.55,6.38,6.38,0,0,1-2-2.16,5.35,5.35,0,0,1-.7-2.5,4.26,4.26,0,0,1,8.52,0h1.7a5.9,5.9,0,0,0-6-6,5.9,5.9,0,0,0-6,6A7,7,0,0,0,4.32,10a8.11,8.11,0,0,0,2.43,2.68A3.4,3.4,0,0,1,8.2,14.38a4.61,4.61,0,0,0,2.33,3,3.32,3.32,0,0,0,1.4.3,3.4,3.4,0,0,0,3.4-3.41h-1.7A1.71,1.71,0,0,1,11.93,16ZM4,1.21,2.74,0a9.38,9.38,0,0,0,0,13.25l1.2-1.2A7.67,7.67,0,0,1,4,1.21ZM7.24,6.63A2.13,2.13,0,1,0,9.37,4.5,2.13,2.13,0,0,0,7.24,6.63Z"/></g></g></svg>