<svg xmlns="http://www.w3.org/2000/svg" viewBox="0 0 45.13 51.66"><defs><style>.cls-1{fill:#89612c;}.cls-2{fill:#fff;}</style></defs><title>Asset 13</title><g id="Layer_2" data-name="Layer 2"><g id="Layer_4" data-name="Layer 4"><path class="cls-1" d="M35.73,47a4.53,4.53,0,0,1-1.79-.35c-1.67-.87-2.84-2.07-4-5.6s-3.46-5.38-5.62-7A17.94,17.94,0,0,1,18.86,28a14.64,14.64,0,0,1-1.93-6.9,11.75,11.75,0,0,1,23.5,0h4.7A16.26,16.26,0,0,0,28.68,4.67,16.26,16.26,0,0,0,12.23,21.12a19.47,19.47,0,0,0,2.52,9.16,22.58,22.58,0,0,0,6.69,7.4c1.91,1.45,3.27,2.51,4,4.81,1.41,4.28,3.22,6.68,6.42,8.34a9.39,9.39,0,0,0,13.25-8.57h-4.7A4.72,4.72,0,0,1,35.73,47Zm-22-40.79L10.4,2.84a25.87,25.87,0,0,0,0,36.55l3.31-3.31a21.17,21.17,0,0,1,0-29.91Zm9.07,15a5.87,5.87,0,1,0,5.87-5.88A5.87,5.87,0,0,0,22.81,21.12Z"/><path class="cls-2" d="M32.89,44.12a4.47,4.47,0,0,1-1.78-.35c-1.67-.87-2.85-2.07-4-5.59s-3.46-5.38-5.62-7A17.9,17.9,0,0,1,16,25.19a14.81,14.81,0,0,1-1.92-6.91,11.75,11.75,0,1,1,23.49,0h4.7A16.26,16.26,0,0,0,25.84,1.83,16.26,16.26,0,0,0,9.4,18.28a19.45,19.45,0,0,0,2.51,9.16,22.28,22.28,0,0,0,6.7,7.4c1.9,1.46,3.26,2.51,4,4.82C24,43.93,25.84,46.33,29,48a9.41,9.41,0,0,0,13.25-8.58h-4.7A4.71,4.71,0,0,1,32.89,44.12ZM10.9,3.34,7.56,0a25.88,25.88,0,0,0,0,36.56l3.32-3.32a21.15,21.15,0,0,1,0-29.9ZM20,18.28a5.88,5.88,0,1,0,5.87-5.88A5.87,5.87,0,0,0,20,18.28Z"/></g></g></svg>