<svg xmlns="http://www.w3.org/2000/svg" viewBox="0 0 9.19 8.94"><defs><style>.cls-1{fill:#ffe600;}.cls-2{fill:#ff6;}</style></defs><title>Asset 2</title><g id="Layer_2" data-name="Layer 2"><g id="Layer_1-2" data-name="Layer 1"><path class="cls-1" d="M5,7.6,6.65,8.81a.67.67,0,0,0,1-.75L7.05,6.12a.66.66,0,0,1,.24-.75L8.91,4.22A.67.67,0,0,0,8.52,3h-2a.67.67,0,0,1-.64-.46L5.23.46A.67.67,0,0,0,4,.46L3.29,2.54A.67.67,0,0,1,2.65,3h-2A.67.67,0,0,0,.28,4.22l2,1.43L1.51,8.06a.67.67,0,0,0,1,.75L4.2,7.6A.68.68,0,0,1,5,7.6Z"/><path class="cls-2" d="M4.57,0A.59.59,0,0,0,4,.46L3.28,2.53A.65.65,0,0,1,2.65,3h-2A.67.67,0,0,0,.28,4.2l2,1.44L1.51,8.06a.67.67,0,0,0,1,.75L4.19,7.6a1.37,1.37,0,0,1,.38-.13Z"/></g></g></svg>