<svg xmlns="http://www.w3.org/2000/svg" xmlns:xlink="http://www.w3.org/1999/xlink" viewBox="0 0 887.69 214.77"><defs><style>.cls-1{isolation:isolate;}.cls-2{fill:url(#radial-gradient);}.cls-3,.cls-5{fill:#262262;}.cls-26,.cls-3,.cls-4{opacity:0.3;mix-blend-mode:multiply;}.cls-6{fill:url(#radial-gradient-2);}.cls-7{fill:url(#radial-gradient-3);}.cls-8{fill:url(#radial-gradient-4);}.cls-9{fill:url(#radial-gradient-5);}.cls-10{fill:url(#radial-gradient-6);}.cls-11{fill:url(#radial-gradient-7);}.cls-12{fill:url(#radial-gradient-8);}.cls-13{fill:url(#radial-gradient-9);}.cls-14{fill:url(#radial-gradient-10);}.cls-15{fill:url(#radial-gradient-11);}.cls-16{fill:url(#radial-gradient-12);}.cls-17{fill:url(#radial-gradient-13);}.cls-18,.cls-26{fill:#1e2857;}.cls-19{fill:url(#radial-gradient-14);}.cls-20{fill:url(#radial-gradient-15);}.cls-21{fill:url(#radial-gradient-16);}.cls-22{fill:url(#radial-gradient-17);}.cls-23{fill:url(#radial-gradient-18);}.cls-24{fill:url(#radial-gradient-19);}.cls-25{fill:url(#radial-gradient-20);}.cls-27{fill:url(#radial-gradient-21);}.cls-28{fill:url(#radial-gradient-22);}.cls-29{fill:url(#radial-gradient-23);}.cls-30{fill:url(#radial-gradient-24);}</style><radialGradient id="radial-gradient" cx="716.36" cy="1349.81" r="11.84" gradientTransform="matrix(0.24, -0.97, -0.97, -0.24, 1446.91, 1217.71)" gradientUnits="userSpaceOnUse"><stop offset="0" stop-color="#a6ce39"/><stop offset="0.51" stop-color="#8a5d3b"/><stop offset="1" stop-color="#3c2415"/></radialGradient><radialGradient id="radial-gradient-2" cx="-761.56" cy="172.25" r="11.84" gradientTransform="matrix(0.77, -0.64, -0.64, -0.77, 1003.66, -143.41)" xlink:href="#radial-gradient"/><radialGradient id="radial-gradient-3" cx="-1171.04" cy="-2128.89" r="9.47" gradientTransform="matrix(0.99, 0.12, 0.12, -0.99, 1701.91, -1767.06)" xlink:href="#radial-gradient"/><radialGradient id="radial-gradient-4" cx="220.13" cy="1526.4" r="16.25" gradientTransform="matrix(0.86, 0.52, -0.52, 0.86, 897.33, -1217.44)" gradientUnits="userSpaceOnUse"><stop offset="0" stop-color="#fed09e"/><stop offset="0.51" stop-color="#f68c59"/><stop offset="1" stop-color="#496841"/></radialGradient><radialGradient id="radial-gradient-5" cx="2589.04" cy="8.19" r="15.77" gradientTransform="matrix(-0.57, -0.82, -0.82, 0.57, 2363.79, 2146.99)" xlink:href="#radial-gradient"/><radialGradient id="radial-gradient-6" cx="1538.31" cy="204.9" r="15.77" gradientTransform="matrix(0.03, -1, -1, -0.03, 1045.47, 1589.49)" xlink:href="#radial-gradient"/><radialGradient id="radial-gradient-7" cx="395.51" cy="-451.62" r="12.61" gradientTransform="matrix(0.74, -0.67, -0.67, -0.74, 278.38, -3.68)" xlink:href="#radial-gradient"/><radialGradient id="radial-gradient-8" cx="950.12" cy="-653.56" r="21.81" gradientTransform="translate(164.64 963.97) rotate(-17.82)" xlink:href="#radial-gradient-4"/><radialGradient id="radial-gradient-9" cx="483.46" cy="-2932.34" r="14.79" gradientTransform="translate(2449.81 1814.6) rotate(-64.53)" xlink:href="#radial-gradient"/><radialGradient id="radial-gradient-10" cx="1596.29" cy="-3412.26" r="14.79" gradientTransform="matrix(-0.19, -0.98, 0.98, -0.19, 3658.15, 1049.14)" xlink:href="#radial-gradient"/><radialGradient id="radial-gradient-11" cx="3043.54" cy="-2918.21" r="11.82" gradientTransform="translate(4154.26 -648.47) rotate(-147.07)" xlink:href="#radial-gradient"/><radialGradient id="radial-gradient-12" cx="-92.1" cy="494" r="18.92" gradientTransform="translate(183.81 -338.06) rotate(8.4)" xlink:href="#radial-gradient-4"/><radialGradient id="radial-gradient-13" cx="3566.32" cy="-918.2" r="61.95" gradientTransform="matrix(-0.63, 1.05, 0.89, 0.53, 3800.34, -3152.79)" gradientUnits="userSpaceOnUse"><stop offset="0" stop-color="#fed09e"/><stop offset="0.51" stop-color="#f68c59"/><stop offset="0.59" stop-color="#f28b59"/><stop offset="0.67" stop-color="#e88957"/><stop offset="0.74" stop-color="#d58554"/><stop offset="0.81" stop-color="#bc8051"/><stop offset="0.88" stop-color="#9b794c"/><stop offset="0.94" stop-color="#737147"/><stop offset="1" stop-color="#496841"/></radialGradient><radialGradient id="radial-gradient-14" cx="926.5" cy="363.63" r="87.39" gradientTransform="matrix(1.35, 0.34, -0.23, 0.9, -584.76, -527.41)" xlink:href="#radial-gradient-13"/><radialGradient id="radial-gradient-15" cx="4775.87" cy="150.76" r="49.47" gradientTransform="matrix(-1, 0, 0, 1, 4906.64, 0)" xlink:href="#radial-gradient-13"/><radialGradient id="radial-gradient-16" cx="2814.75" cy="331.74" r="14.97" gradientTransform="matrix(-0.57, -0.82, -0.82, 0.57, 2363.79, 2146.99)" xlink:href="#radial-gradient"/><radialGradient id="radial-gradient-17" cx="1528.38" cy="599.62" r="14.97" gradientTransform="matrix(0.03, -1, -1, -0.03, 1045.47, 1589.49)" xlink:href="#radial-gradient"/><radialGradient id="radial-gradient-18" cx="105.24" cy="-184.57" r="11.97" gradientTransform="matrix(0.74, -0.67, -0.67, -0.74, 278.38, -3.68)" xlink:href="#radial-gradient"/><radialGradient id="radial-gradient-19" cx="575.26" cy="-775.32" r="20.71" gradientTransform="translate(164.64 963.97) rotate(-17.82)" xlink:href="#radial-gradient-4"/><radialGradient id="radial-gradient-20" cx="363.83" cy="78.92" r="40.93" gradientTransform="matrix(1, 0, 0, 1, 0, 0)" xlink:href="#radial-gradient-4"/><radialGradient id="radial-gradient-21" cx="2410.28" cy="747.02" r="10.68" gradientTransform="matrix(-0.47, -0.88, -0.88, 0.47, 2145.25, 1876.54)" xlink:href="#radial-gradient"/><radialGradient id="radial-gradient-22" cx="1169.46" cy="-2978.7" r="13.22" gradientTransform="matrix(0.15, -0.99, 0.99, 0.15, 3088.48, 1715.37)" xlink:href="#radial-gradient"/><radialGradient id="radial-gradient-23" cx="366.78" cy="-2494.09" r="12.84" gradientTransform="translate(2108.81 1874.76) rotate(-53.26)" xlink:href="#radial-gradient"/><radialGradient id="radial-gradient-24" cx="337.35" cy="100.84" r="18.2" gradientTransform="matrix(1, 0, 0, 1, 0, 0)" xlink:href="#radial-gradient-4"/></defs><title>Asset 28</title><g class="cls-1"><g id="Layer_2" data-name="Layer 2"><g id="Layer_1-2" data-name="Layer 1"><path class="cls-2" d="M307.57,189.14a3.51,3.51,0,0,0-3.46,2l-.33.7a1.43,1.43,0,0,0,.05,1.24,4.77,4.77,0,0,0,2.93,2.86,7.63,7.63,0,0,0,2.82.1l.7-.07,5.17-.47c-.46-2.08-2.16-3.65-3.95-4.82l-.59-.38A7.16,7.16,0,0,0,307.57,189.14Z"/><path class="cls-3" d="M304.76,191.88l.43.1,1.14.24c.94.2,2.19.45,3.41.76.31.07.61.16.91.24l.87.26.8.28c.25.1.49.19.7.29l.31.14.27.14c.17.09.32.17.44.25l.27.17.1.07-.07-.1c0-.05-.11-.15-.21-.25a4.65,4.65,0,0,0-.38-.36,6.58,6.58,0,0,0-.53-.41,7.4,7.4,0,0,0-.69-.41c-.25-.13-.52-.26-.8-.38l-.43-.17-.46-.16c-.3-.1-.62-.18-.93-.27l-1-.2L308,192a15.09,15.09,0,0,0-1.65-.13c-.49,0-.89,0-1.18,0Z"/><g class="cls-4"><path class="cls-5" d="M307.57,189.14a3.51,3.51,0,0,0-3.46,2l-.33.7a1.43,1.43,0,0,0,.05,1.24,4.77,4.77,0,0,0,2.93,2.86,7.63,7.63,0,0,0,2.82.1l.7-.07a7.86,7.86,0,0,1-1.66-.32,4.34,4.34,0,0,1-3.18-3.11,1.79,1.79,0,0,1,.05-.8,2.44,2.44,0,0,1,1.15-1.18,4.05,4.05,0,0,1,1.27-.52,6.11,6.11,0,0,1,2,.1l1,.16A7.16,7.16,0,0,0,307.57,189.14Z"/></g><path class="cls-6" d="M305.15,200.45a3.5,3.5,0,0,0-4-.45l-.68.36a1.45,1.45,0,0,0-.69,1,4.72,4.72,0,0,0,.66,4,7.37,7.37,0,0,0,2.2,1.75l.6.37,4.44,2.7c.87-1.95.43-4.23-.3-6.23-.08-.22-.17-.44-.26-.65A7.09,7.09,0,0,0,305.15,200.45Z"/><path class="cls-3" d="M301.25,201l.3.33c.18.22.45.52.77.87.64.72,1.49,1.67,2.29,2.64.2.24.4.49.59.74s.37.48.54.72l.48.7c.14.23.28.45.39.65s.11.2.17.3.09.19.13.27.15.33.21.46.08.24.11.31l0,.11V209a2.19,2.19,0,0,0,0-.33,4.26,4.26,0,0,0-.09-.51,3.86,3.86,0,0,0-.19-.65c-.08-.23-.18-.48-.3-.74a8.58,8.58,0,0,0-.42-.78l-.25-.4a4.56,4.56,0,0,0-.27-.39c-.18-.26-.39-.52-.59-.77s-.42-.5-.64-.73-.44-.46-.66-.67c-.44-.42-.87-.79-1.25-1.09s-.72-.53-1-.69S301.25,201,301.25,201Z"/><g class="cls-4"><path class="cls-5" d="M305.15,200.45a3.5,3.5,0,0,0-4-.45l-.68.36a1.45,1.45,0,0,0-.69,1,4.72,4.72,0,0,0,.66,4,7.37,7.37,0,0,0,2.2,1.75l.6.37a8.46,8.46,0,0,1-1.14-1.25,4.35,4.35,0,0,1-.71-4.39,1.71,1.71,0,0,1,.52-.61,2.38,2.38,0,0,1,1.63-.27,4.21,4.21,0,0,1,1.33.34,6.21,6.21,0,0,1,1.57,1.29c.23.23.46.47.68.71A7.09,7.09,0,0,0,305.15,200.45Z"/></g><path class="cls-7" d="M295.85,207.86a2.8,2.8,0,0,0-1.94-2.53l-.59-.19a1.15,1.15,0,0,0-1,.16,3.83,3.83,0,0,0-2,2.63,6.1,6.1,0,0,0,.21,2.24c0,.18.08.37.13.55l.9,4.05a6.69,6.69,0,0,0,3.42-3.63l.24-.51A5.71,5.71,0,0,0,295.85,207.86Z"/><path class="cls-3" d="M293.39,205.92s0,.13,0,.35,0,.55-.07.93c-.06.76-.13,1.78-.25,2.78,0,.25-.06.5-.09.75l-.12.71c0,.23-.09.46-.14.67s-.1.4-.15.58-.06.18-.09.26a1.55,1.55,0,0,1-.08.23,2.81,2.81,0,0,1-.15.37,1.94,1.94,0,0,1-.11.24l0,.08.07-.06c0-.05.11-.11.18-.2a3.58,3.58,0,0,0,.24-.33,4.91,4.91,0,0,0,.27-.47,6.29,6.29,0,0,0,.26-.58,6,6,0,0,0,.21-.68,2.37,2.37,0,0,0,.09-.36c0-.12.06-.25.08-.38s.09-.51.12-.77.05-.51.06-.77,0-.51,0-.75a10.42,10.42,0,0,0-.07-1.32,8.64,8.64,0,0,0-.13-.93C293.42,206,293.39,205.92,293.39,205.92Z"/><g class="cls-4"><path class="cls-5" d="M295.85,207.86a2.8,2.8,0,0,0-1.94-2.53l-.59-.19a1.15,1.15,0,0,0-1,.16,3.83,3.83,0,0,0-2,2.63,6.1,6.1,0,0,0,.21,2.24c0,.18.08.37.13.55a6.13,6.13,0,0,1,.08-1.35,3.46,3.46,0,0,1,2.13-2.84,1.45,1.45,0,0,1,.65-.05,1.94,1.94,0,0,1,1.05.79,3.13,3.13,0,0,1,.54,1,4.86,4.86,0,0,1,.14,1.62l0,.78A5.71,5.71,0,0,0,295.85,207.86Z"/></g><path class="cls-8" d="M300.55,201.26a12.43,12.43,0,0,1-4.34,3.52,6.71,6.71,0,0,1-5.46.17,5.65,5.65,0,0,1-1.73-1.24,7.6,7.6,0,0,1-1.69-3,10.94,10.94,0,0,1-.45-3.68,9.28,9.28,0,0,1,1.48-4.85,1.78,1.78,0,0,1,1.07-.82,1.38,1.38,0,0,1,1.4,1.08,4,4,0,0,1-.09,1.92,9.71,9.71,0,0,0-.24,3.9,4,4,0,0,0,.6,1.43h0A3,3,0,0,0,293,201c1.57.32,3.05-.88,4-2.17,3.11-4.16,3.52-9.62,3.56-14.88a12.35,12.35,0,0,1,3.69-3.55l.47-.23a26.25,26.25,0,0,0-.42,5.26c0,3.86.37,7.78-1,11.35A16,16,0,0,1,300.55,201.26Z"/><g class="cls-4"><path class="cls-5" d="M298.24,200.53a5.68,5.68,0,0,1-3.59,1.18,6.76,6.76,0,0,1-3.52-.73,3.7,3.7,0,0,1-1.95-2.9,18,18,0,0,0,.06-1.94c-.1-.65-.65-1.31-1.28-1.16s-.86,1.14-.82,1.89c.06,1.28.13,2.56.19,3.84a10.94,10.94,0,0,1-.45-3.68,9.28,9.28,0,0,1,1.48-4.85,1.78,1.78,0,0,1,1.07-.82,1.38,1.38,0,0,1,1.4,1.08,4,4,0,0,1-.09,1.92,9.71,9.71,0,0,0-.24,3.9,4,4,0,0,0,.6,1.43h0A3,3,0,0,0,293,201c1.57.32,3.05-.88,4-2.17,3.11-4.16,3.52-9.62,3.56-14.88a12.35,12.35,0,0,1,3.69-3.55l.47-.23a26.25,26.25,0,0,0-.42,5.26,2.7,2.7,0,0,0-1.79.92,7.3,7.3,0,0,0-1.11,3.89,39.76,39.76,0,0,1-1.44,7.07A6.7,6.7,0,0,1,298.24,200.53Z"/></g><path class="cls-9" d="M867.1,28.51a4.66,4.66,0,0,0-1,5.22l.41,1a1.94,1.94,0,0,0,1.29,1,6.36,6.36,0,0,0,5.44-.45,10.15,10.15,0,0,0,2.56-2.74l.55-.77,4-5.6c-2.49-1.36-5.56-1-8.3-.25l-.89.27A9.42,9.42,0,0,0,867.1,28.51Z"/><path class="cls-3" d="M867.39,33.73l.48-.35,1.24-.94c1-.77,2.36-1.8,3.74-2.76.34-.24.69-.48,1-.7s.69-.45,1-.65.66-.39,1-.56.61-.32.9-.46l.41-.18.38-.15a5.38,5.38,0,0,1,.63-.22l.41-.13.15,0h-.15a3.15,3.15,0,0,0-.44,0,4.71,4.71,0,0,0-.69.06,5.51,5.51,0,0,0-.88.18,7.89,7.89,0,0,0-1,.33,11.05,11.05,0,0,0-1.08.47c-.19.09-.37.19-.55.29l-.56.32c-.37.21-.73.46-1.09.7s-.7.51-1,.77-.66.54-1,.81a21.09,21.09,0,0,0-1.57,1.55,14.28,14.28,0,0,0-1,1.19C867.51,33.55,867.39,33.73,867.39,33.73Z"/><g class="cls-4"><path class="cls-5" d="M867.1,28.51a4.66,4.66,0,0,0-1,5.22l.41,1a1.94,1.94,0,0,0,1.29,1,6.36,6.36,0,0,0,5.44-.45,10.15,10.15,0,0,0,2.56-2.74l.55-.77a10.92,10.92,0,0,1-1.78,1.39c-1.82,1.13-4.25,1.55-5.9.48a2.4,2.4,0,0,1-.76-.76,3.17,3.17,0,0,1-.19-2.18,5.74,5.74,0,0,1,.6-1.73,8.07,8.07,0,0,1,1.87-2l1-.82A9.42,9.42,0,0,0,867.1,28.51Z"/></g><path class="cls-10" d="M875.62,41.05a4.67,4.67,0,0,0-3.93,3.6l-.23,1a1.94,1.94,0,0,0,.43,1.6,6.33,6.33,0,0,0,4.64,2.87,10.06,10.06,0,0,0,3.69-.69l.89-.28,6.58-2.1c-1.19-2.58-3.87-4.13-6.52-5.14-.29-.11-.58-.22-.87-.31A9.53,9.53,0,0,0,875.62,41.05Z"/><path class="cls-3" d="M872.75,45.43h.59l1.55,0c1.28,0,3,0,4.65,0l1.25.05c.42,0,.82,0,1.21.09l1.12.13,1,.17.44.1.39.1.64.2a3.45,3.45,0,0,1,.41.15l.15.05-.12-.1c-.09-.06-.19-.16-.36-.27a5.42,5.42,0,0,0-.59-.35,6.19,6.19,0,0,0-.81-.38,9.93,9.93,0,0,0-1-.34c-.36-.1-.75-.19-1.15-.26l-.61-.1-.64-.07c-.42,0-.86-.06-1.29-.08s-.87,0-1.29,0-.85,0-1.25.07a19.55,19.55,0,0,0-2.19.31,14.59,14.59,0,0,0-1.52.36A5.71,5.71,0,0,0,872.75,45.43Z"/><g class="cls-4"><path class="cls-5" d="M875.62,41.05a4.67,4.67,0,0,0-3.93,3.6l-.23,1a1.94,1.94,0,0,0,.43,1.6,6.33,6.33,0,0,0,4.64,2.87,10.06,10.06,0,0,0,3.69-.69l.89-.28a11.29,11.29,0,0,1-2.25.06c-2.14-.18-4.34-1.29-5-3.13a2.41,2.41,0,0,1-.17-1.06,3.2,3.2,0,0,1,1.15-1.86,5.64,5.64,0,0,1,1.51-1,8,8,0,0,1,2.67-.46c.43,0,.87,0,1.31-.06A9.53,9.53,0,0,0,875.62,41.05Z"/></g><path class="cls-11" d="M873.69,56.56a3.73,3.73,0,0,0-4.25-.26l-.71.42a1.53,1.53,0,0,0-.68,1.13,5.1,5.1,0,0,0,.92,4.27,8,8,0,0,0,2.44,1.74l.66.36,4.86,2.62c.82-2.12.23-4.51-.66-6.6-.09-.23-.2-.46-.3-.68A7.72,7.72,0,0,0,873.69,56.56Z"/><path class="cls-3" d="M869.58,57.34l.33.34.86.88c.72.73,1.68,1.69,2.58,2.68L874,62l.61.74c.2.25.38.49.55.72l.46.67c.07.11.12.21.18.31a2.79,2.79,0,0,1,.16.28c.1.18.18.34.25.48s.1.24.14.32l0,.11V65.5a1.93,1.93,0,0,0,0-.35,2.68,2.68,0,0,0-.12-.54,4.55,4.55,0,0,0-.23-.68c-.1-.24-.22-.5-.36-.77s-.31-.54-.49-.81l-.29-.4c-.1-.14-.2-.28-.31-.41s-.44-.53-.67-.79-.47-.5-.72-.74-.49-.46-.73-.68a15.69,15.69,0,0,0-1.4-1.08,11.58,11.58,0,0,0-1-.68A4.56,4.56,0,0,0,869.58,57.34Z"/><g class="cls-4"><path class="cls-5" d="M873.69,56.56a3.73,3.73,0,0,0-4.25-.26l-.71.42a1.53,1.53,0,0,0-.68,1.13,5.1,5.1,0,0,0,.92,4.27,8,8,0,0,0,2.44,1.74l.66.36A8.54,8.54,0,0,1,870.79,63c-1.09-1.33-1.67-3.21-1-4.63a1.82,1.82,0,0,1,.52-.68,2.55,2.55,0,0,1,1.71-.37,4.44,4.44,0,0,1,1.43.29,6.39,6.39,0,0,1,1.75,1.29l.76.71A7.72,7.72,0,0,0,873.69,56.56Z"/></g><path class="cls-12" d="M872.5,47.85a12,12,0,0,1-.44,6.31,8.82,8.82,0,0,1-7.08,5,10.2,10.2,0,0,1-1.83.08c-3.64-.18-7-2.12-9.67-4.6a19.92,19.92,0,0,1-2.85-3.23,14.91,14.91,0,0,1-1.86-3.56c-.31-.92-.37-2.21.53-2.57s1.64.46,2.19,1.16c2.38,3,5.22,5.84,8.88,6.91a4.48,4.48,0,0,0,2.61.12h0c1.63-.56,2.41-2.47,2.46-4.2.1-3-1.33-5.84-2.82-8.45-2-3.58-4.42-7.19-7.55-9.79l-.51-7a18.46,18.46,0,0,1,6.09,3.35q1,.76,1.86,1.59A32.39,32.39,0,0,1,872.5,47.85Z"/><g class="cls-4"><path class="cls-5" d="M867.21,44a13.94,13.94,0,0,1,.23,9.36,3,3,0,0,1-3.24,2.31,13.6,13.6,0,0,1-9.39-3.41A7.51,7.51,0,0,0,853,50.82a1.86,1.86,0,0,0-2.16.34,1.67,1.67,0,0,0-.16.24,14.91,14.91,0,0,1-1.86-3.56c-.31-.92-.37-2.21.53-2.57s1.64.46,2.19,1.16c2.38,3,5.22,5.84,8.88,6.91a4.48,4.48,0,0,0,2.61.12h0c1.63-.56,2.41-2.47,2.46-4.2.1-3-1.33-5.84-2.82-8.45-2-3.58-4.42-7.19-7.55-9.79l-.51-7a18.46,18.46,0,0,1,6.09,3.35q1,.76,1.86,1.59a5,5,0,0,0-.8.4,3,3,0,0,0-1,3.25,9.63,9.63,0,0,0,1.73,3.15A33.17,33.17,0,0,1,867.21,44Z"/></g><path class="cls-13" d="M18.86,115.88a4.39,4.39,0,0,1,1.74,4.68l-.24.94a1.78,1.78,0,0,1-1,1.15,6,6,0,0,1-5.1.42,9.53,9.53,0,0,1-2.79-2.15l-.63-.62-4.6-4.56c2.1-1.65,5-1.8,7.64-1.51l.87.11A9,9,0,0,1,18.86,115.88Z"/><path class="cls-3" d="M19.39,120.76l-.5-.26-1.29-.67c-1.06-.55-2.46-1.31-3.88-2-.36-.17-.72-.34-1.07-.49s-.7-.31-1-.44-.68-.26-1-.37-.62-.21-.9-.29l-.41-.1-.37-.09L8.31,116l-.4,0-.15,0,.14,0a3.72,3.72,0,0,1,.41-.08,5.79,5.79,0,0,1,.65,0,6.21,6.21,0,0,1,.84,0,9.78,9.78,0,0,1,1,.15q.53.1,1.08.27l.55.18c.19.06.37.14.56.21.38.14.75.31,1.12.48l1.07.56c.35.19.69.39,1,.6a19,19,0,0,1,1.7,1.19,13.94,13.94,0,0,1,1.12,1C19.25,120.61,19.39,120.76,19.39,120.76Z"/><g class="cls-4"><path class="cls-5" d="M18.86,115.88a4.39,4.39,0,0,1,1.74,4.68l-.24.94a1.78,1.78,0,0,1-1,1.15,6,6,0,0,1-5.1.42,9.53,9.53,0,0,1-2.79-2.15l-.63-.62a10.78,10.78,0,0,0,1.86,1c1.86.77,4.17.78,5.53-.46a2.08,2.08,0,0,0,.59-.82,3,3,0,0,0-.16-2,5.1,5.1,0,0,0-.82-1.5,7.33,7.33,0,0,0-2-1.53l-1.06-.61A9,9,0,0,1,18.86,115.88Z"/></g><path class="cls-14" d="M10.25,127.42a4.37,4.37,0,0,1,4.18,2.73l.37.89a1.76,1.76,0,0,1-.15,1.54A5.93,5.93,0,0,1,10.8,136a9.48,9.48,0,0,1-3.52-.07l-.87-.13L0,134.82c.71-2.57,2.94-4.41,5.24-5.76l.77-.42A8.92,8.92,0,0,1,10.25,127.42Z"/><path class="cls-3" d="M13.58,131l-.55.09-1.44.22c-1.18.19-2.76.41-4.3.71l-1.15.24-1.1.27c-.36.1-.7.19-1,.3s-.62.2-.9.31-.26.1-.39.15l-.35.16a5.81,5.81,0,0,0-.56.28,3.87,3.87,0,0,0-.35.2l-.13.07.09-.11c.07-.07.16-.18.29-.3a6.06,6.06,0,0,1,.49-.42,6.06,6.06,0,0,1,.7-.48,6.55,6.55,0,0,1,.88-.46q.48-.22,1-.42l.56-.19.57-.16c.39-.11.79-.19,1.18-.28s.81-.14,1.2-.19l1.17-.12c.75-.05,1.46-.07,2.07-.05s1.11.06,1.46.1S13.58,131,13.58,131Z"/><g class="cls-4"><path class="cls-5" d="M10.25,127.42a4.37,4.37,0,0,1,4.18,2.73l.37.89a1.76,1.76,0,0,1-.15,1.54A5.93,5.93,0,0,1,10.8,136a9.48,9.48,0,0,1-3.52-.07l-.87-.13a9.75,9.75,0,0,0,2.09-.29c2-.49,3.82-1.85,4.18-3.66a2.3,2.3,0,0,0,0-1,3,3,0,0,0-1.35-1.55,5.16,5.16,0,0,0-1.56-.72,7.46,7.46,0,0,0-2.54,0L6,128.64A8.92,8.92,0,0,1,10.25,127.42Z"/></g><path class="cls-15" d="M13.21,139.82a3.51,3.51,0,0,1,3.89-.89l.72.28a1.45,1.45,0,0,1,.8.94,4.76,4.76,0,0,1-.19,4.09,7.68,7.68,0,0,1-2,2l-.56.43-4.09,3.17c-1.09-1.83-.91-4.14-.41-6.21l.18-.67A7.22,7.22,0,0,1,13.21,139.82Z"/><path class="cls-3" d="M17.13,139.91l-.25.37-.67.95c-.55.78-1.29,1.81-2,2.87-.17.27-.34.53-.5.8s-.32.52-.46.78l-.39.75c-.12.24-.23.47-.32.69s-.09.21-.13.31a2,2,0,0,0-.1.29,3.52,3.52,0,0,0-.15.47c0,.14-.06.25-.08.32l0,.11v-.11a1.52,1.52,0,0,1,0-.33,3.33,3.33,0,0,1,0-.52,6.47,6.47,0,0,1,.11-.66c.06-.24.13-.5.22-.77a7.81,7.81,0,0,1,.33-.82c.06-.14.13-.28.2-.42s.15-.29.23-.43.32-.56.49-.83.37-.54.56-.8.38-.5.58-.73A12.57,12.57,0,0,1,15.92,141a10.16,10.16,0,0,1,.86-.79Z"/><g class="cls-4"><path class="cls-5" d="M13.21,139.82a3.51,3.51,0,0,1,3.89-.89l.72.28a1.45,1.45,0,0,1,.8.94,4.76,4.76,0,0,1-.19,4.09,7.68,7.68,0,0,1-2,2l-.56.43a8.44,8.44,0,0,0,1-1.37,4.32,4.32,0,0,0,.2-4.43,1.72,1.72,0,0,0-.58-.56,2.44,2.44,0,0,0-1.65-.08,4,4,0,0,0-1.27.5,5.76,5.76,0,0,0-1.42,1.45l-.6.78A7.22,7.22,0,0,1,13.21,139.82Z"/></g><path class="cls-16" d="M37.37,132.51a9.15,9.15,0,0,1-2.29,2.75l-.38.34c-2.87,2.56-6.1,4.9-9.87,5.58a10.07,10.07,0,0,1-1.55.17c-3.53.1-7.21-1.53-8.6-4.73C13,132.81,15,128.45,17.31,125a34.81,34.81,0,0,1,4.4-5.47,19.88,19.88,0,0,1,5.18-3.79c.13.25.25.49.36.74a18,18,0,0,1,.92,2.34c-4.48,2.73-8.17,6.84-9.16,11.92a5.18,5.18,0,0,0,.51,4c1,1.44,3,1.75,4.79,1.65a12.07,12.07,0,0,0,2.05-.3c3.12-.7,6-2.59,7-5.57a4.6,4.6,0,0,1,.77-1.78,2.13,2.13,0,0,1,3.13.34A3.44,3.44,0,0,1,37.37,132.51Z"/><g class="cls-4"><path class="cls-5" d="M37.37,132.51a9.15,9.15,0,0,1-2.29,2.75l-.38.34a4.81,4.81,0,0,0,.17-1.73c0-.33-.13-.72-.45-.83a1,1,0,0,0-.82.23c-2.92,2-5.65,4.37-9,5.44a7,7,0,0,1-3.26.34c-3.26-.58-5-4.52-4.44-7.79s2.58-6,4.34-8.86c.54-.87,1-2.13.48-2.89a19.88,19.88,0,0,1,5.18-3.79c.13.25.25.49.36.74a18,18,0,0,1,.92,2.34c-4.48,2.73-8.17,6.84-9.16,11.92a5.18,5.18,0,0,0,.51,4c1,1.44,3,1.75,4.79,1.65a12.07,12.07,0,0,0,2.05-.3c3.12-.7,6-2.59,7-5.57a4.6,4.6,0,0,1,.77-1.78,2.13,2.13,0,0,1,3.13.34A3.44,3.44,0,0,1,37.37,132.51Z"/></g><path class="cls-17" d="M682,87.44q8.85,5.19,18.14,9.6,5.18,2.44,10.46,4.65,3,1.23,6,2.38a28.44,28.44,0,0,0,9.28,2.35c4.09.14,8.28-1.25,12.35-2.8a48.07,48.07,0,0,0,11.6-5.85c4.67-3.41,8.42-8.2,11.7-13.16C770.75,70.67,777,54.26,777,38.35S770.08,7.27,757.59.56c-1.44-.76-3.85-1-4.43.84-.49,1.52,1,2.53,2.31,3l.7.38,2,1.06a85.41,85.41,0,0,1,8.89,9.61A30.32,30.32,0,0,1,773,28.25c.06.35.12.7.17,1,.64,4.5.08,9.27-.67,14a90.72,90.72,0,0,1-4.42,18A86.71,86.71,0,0,1,764,70.4c-5.1,10-11.83,20.18-21.36,25.09-8.88,4.57-18.68,3.8-27.41,1.52A81.08,81.08,0,0,1,684.64,81.6a70,70,0,0,0-7.83-6,19.31,19.31,0,0,0-2.92-1.44,1.72,1.72,0,0,0-1.59,0c-.8.5-.79,1.72-.54,2.59C673.21,81.89,677.71,84.91,682,87.44Z"/><g class="cls-4"><path class="cls-18" d="M710.63,101.69q3,1.23,6,2.38a28.44,28.44,0,0,0,9.28,2.35c4.09.14,8.28-1.25,12.35-2.8a48.07,48.07,0,0,0,11.6-5.85c4.67-3.41,8.42-8.2,11.7-13.16C770.75,70.67,777,54.26,777,38.35S770.08,7.27,757.59.56c-1.44-.76-3.85-1-4.43.84-.49,1.52,1,2.53,2.31,3l.7.38a3.56,3.56,0,0,1,3.45-1.56c1.87.48,2.87,2.44,3.72,4.24,1.24,2.66,2.48,5.33,3.73,8A30.32,30.32,0,0,1,773,28.25c1.88,4.21,3.48,8.7,3,13.63a68,68,0,0,1-1.84,8c-.88,3.66-1.23,7.38-2.19,11-1.93,7.26-6.17,13.84-10.32,20.23-3.19,4.9-6.48,9.93-11,13.46-7.13,5.6-16,6.48-24.23,7.12C721.13,102.19,715.66,102.57,710.63,101.69Z"/></g><g class="cls-4"><path class="cls-18" d="M682,87.44q8.85,5.19,18.14,9.6c-2.79-2.21-5.27-4.88-8.12-7-4.73-3.59-10.58-5.89-13.95-11a6.78,6.78,0,0,1-1.29-3.43,19.31,19.31,0,0,0-2.92-1.44,1.72,1.72,0,0,0-1.59,0c-.8.5-.79,1.72-.54,2.59C673.21,81.89,677.71,84.91,682,87.44Z"/></g><path class="cls-19" d="M636.41,62.78a231.49,231.49,0,0,1-8.09,24.62q-2.62,6.75-5.7,13.34-1.71,3.7-3.55,7.35c-1.83,3.61-3.79,7.24-7.16,10.12-4.19,3.59-10.3,5.79-16.45,7.73a83,83,0,0,1-19.26,4.15c-9,.65-18.61-.81-27.94-2.84-26.21-5.68-52.18-16.26-70.86-31.66s-29.1-35.92-23.66-53c.63-2,3-4.2,5.71-2.94,2.3,1,1.87,3.31,1.07,4.87l-.31,1-.89,2.73a91.49,91.49,0,0,0,1.8,16.8,39.11,39.11,0,0,0,8.68,17.42c.33.38.68.77,1,1.15,4.6,4.88,10.8,9,17.1,12.93a177.52,177.52,0,0,0,25.83,13.66c4.93,2,10,3.77,15.19,5.38,17.25,5.41,36.32,9.52,52.25,6.21,14.85-3.09,24.41-12.12,31-21.71a81.38,81.38,0,0,0,14.51-40.75c.3-4.16.29-8.43,1.32-12.42a19.38,19.38,0,0,1,1.42-3.85,2.18,2.18,0,0,1,1.66-1.39c1.45-.19,2.86,1,3.62,2C639.3,50,638.05,56.68,636.41,62.78Z"/><g class="cls-4"><path class="cls-18" d="M622.62,100.74q-1.71,3.7-3.55,7.35c-1.83,3.61-3.79,7.24-7.16,10.12-4.19,3.59-10.3,5.79-16.45,7.73a83,83,0,0,1-19.26,4.15c-9,.65-18.61-.81-27.94-2.84-26.21-5.68-52.18-16.26-70.86-31.66s-29.1-35.92-23.66-53c.63-2,3-4.2,5.71-2.94,2.3,1,1.87,3.31,1.07,4.87l-.31,1c-2.1-.41-4.61.12-5.51,1.41-1.42,2-.2,4.79,1,7.25L461.12,65a39.11,39.11,0,0,0,8.68,17.42c2.94,5.66,6.49,11.35,12.85,15.67,3.48,2.36,7.58,4.16,11.41,6.22,5.24,2.81,10,6.11,15.31,8.83,10.58,5.4,22.84,8.18,34.78,10.85,9.15,2,18.57,4.12,27.5,3.74,14.19-.61,24.66-7.23,34.22-13.59C612,110.11,618.29,105.84,622.62,100.74Z"/></g><g class="cls-4"><path class="cls-18" d="M636.41,62.78a231.49,231.49,0,0,1-8.09,24.62c.39-4.5-.09-9.18.4-13.67.83-7.48,4.37-14.65,2-22.41a9.33,9.33,0,0,0-2.65-4.41,19.38,19.38,0,0,1,1.42-3.85,2.18,2.18,0,0,1,1.66-1.39c1.45-.19,2.86,1,3.62,2C639.3,50,638.05,56.68,636.41,62.78Z"/></g><path class="cls-20" d="M114.68,111.72q.07,7.91.74,15.79c.24,2.93.55,5.84.91,8.75.21,1.64.43,3.26.67,4.89a25.14,25.14,0,0,0,1.82,7.06,23.89,23.89,0,0,0,5.72,7,31.12,31.12,0,0,0,7.18,5.34,28.6,28.6,0,0,0,11.31,2.5c10.91.55,22.21-1.83,31.11-8.15S189.2,138,188.75,127.11c-.05-1.25-.75-2.93-2-2.6-1,.28-1.07,1.69-.9,2.73l0,.61.08,1.75a75.12,75.12,0,0,1-2.38,9.68,23.92,23.92,0,0,1-5.16,9c-.17.18-.35.35-.53.52a29.92,29.92,0,0,1-8,5.1,53.36,53.36,0,0,1-11.55,4.23,49.55,49.55,0,0,1-6.53.91c-7.35.62-15.28.2-21.24-4.14-5.55-4-8.42-10.83-10.08-17.49a73.54,73.54,0,0,1-1.66-26.31,62,62,0,0,0,.71-7.55,17.37,17.37,0,0,0-.17-2.49,1.41,1.41,0,0,0-.51-1.07c-.56-.33-1.23.16-1.64.67C114.82,103.69,114.64,107.87,114.68,111.72Z"/><g class="cls-4"><path class="cls-18" d="M116.33,136.26c.21,1.64.43,3.26.67,4.89a25.14,25.14,0,0,0,1.82,7.06,23.89,23.89,0,0,0,5.72,7,31.12,31.12,0,0,0,7.18,5.34,28.6,28.6,0,0,0,11.31,2.5c10.91.55,22.21-1.83,31.11-8.15S189.2,138,188.75,127.11c-.05-1.25-.75-2.93-2-2.6-1,.28-1.07,1.69-.9,2.73l0,.61a2.4,2.4,0,0,1,2,1.66c.35,1.43-.4,2.87-1.13,4.14l-3.21,5.63a23.92,23.92,0,0,1-5.16,9c-1.73,2.91-3.7,5.75-6.63,7.36a39.65,39.65,0,0,1-5.13,2c-2.34.88-4.54,2.13-6.91,2.94-4.72,1.61-9.83,1.43-14.81,1.22-3.81-.15-7.73-.33-11.22-1.89-5.54-2.49-9-8-12.15-13.17A52.42,52.42,0,0,1,116.33,136.26Z"/></g><g class="cls-4"><path class="cls-18" d="M114.68,111.72q.07,7.91.74,15.79c.29-2.72,1-5.42,1.2-8.15.42-4.56-.26-9.33,1.44-13.57a5.15,5.15,0,0,1,1.48-2.22,17.37,17.37,0,0,0-.17-2.49,1.41,1.41,0,0,0-.51-1.07c-.56-.33-1.23.16-1.64.67C114.82,103.69,114.64,107.87,114.68,111.72Z"/></g><path class="cls-21" d="M473.07,28.43a4.42,4.42,0,0,0-1,5l.39.9a1.82,1.82,0,0,0,1.22,1,6,6,0,0,0,5.17-.43,9.58,9.58,0,0,0,2.43-2.6c.17-.24.34-.49.52-.73l3.84-5.32c-2.37-1.29-5.29-1-7.88-.24-.29.08-.57.16-.85.26A9,9,0,0,0,473.07,28.43Z"/><path class="cls-3" d="M473.35,33.39l.45-.33,1.18-.89c1-.73,2.24-1.71,3.55-2.63l1-.66c.33-.22.66-.43,1-.61s.63-.38.93-.54.58-.31.85-.43a4.34,4.34,0,0,1,.4-.17L483,27l.6-.21.4-.12.14,0H484a2.87,2.87,0,0,0-.42,0,4.23,4.23,0,0,0-.65.06,6.13,6.13,0,0,0-.83.17,8.19,8.19,0,0,0-1,.31c-.34.13-.68.28-1,.45-.18.08-.35.18-.53.27l-.52.3c-.35.21-.69.44-1,.67s-.66.48-1,.74-.62.5-.91.76a20.91,20.91,0,0,0-1.49,1.47c-.42.45-.75.85-1,1.13S473.35,33.39,473.35,33.39Z"/><g class="cls-4"><path class="cls-5" d="M473.07,28.43a4.42,4.42,0,0,0-1,5l.39.9a1.82,1.82,0,0,0,1.22,1,6,6,0,0,0,5.17-.43,9.58,9.58,0,0,0,2.43-2.6c.17-.24.34-.49.52-.73a10.81,10.81,0,0,1-1.69,1.32c-1.73,1.07-4,1.47-5.6.45a2.16,2.16,0,0,1-.73-.71,3,3,0,0,1-.17-2.08,5.14,5.14,0,0,1,.56-1.64A7.84,7.84,0,0,1,476,27l1-.78A9,9,0,0,0,473.07,28.43Z"/></g><path class="cls-22" d="M481.16,40.34a4.44,4.44,0,0,0-3.72,3.42l-.22,1a1.83,1.83,0,0,0,.4,1.52A6,6,0,0,0,482,49a9.66,9.66,0,0,0,3.5-.66l.85-.27,6.25-2c-1.13-2.45-3.67-3.92-6.19-4.88-.28-.11-.55-.21-.84-.3A9.13,9.13,0,0,0,481.16,40.34Z"/><path class="cls-3" d="M478.44,44.5H479l1.47,0c1.22,0,2.83,0,4.42,0l1.19.05c.39,0,.77,0,1.14.09s.73.07,1.07.12l.95.16.41.1.38.09.6.19c.17,0,.3.11.39.14l.14,0-.11-.09a3.55,3.55,0,0,0-.34-.26,5.82,5.82,0,0,0-.56-.34,6.25,6.25,0,0,0-.77-.35,8.94,8.94,0,0,0-1-.33,11,11,0,0,0-1.09-.24l-.59-.1-.6-.07c-.4,0-.81-.06-1.23-.07h-1.22c-.41,0-.8,0-1.19.08a20.89,20.89,0,0,0-2.08.29,14.36,14.36,0,0,0-1.44.34C478.63,44.43,478.44,44.5,478.44,44.5Z"/><g class="cls-4"><path class="cls-5" d="M481.16,40.34a4.44,4.44,0,0,0-3.72,3.42l-.22,1a1.83,1.83,0,0,0,.4,1.52A6,6,0,0,0,482,49a9.66,9.66,0,0,0,3.5-.66l.85-.27a10.2,10.2,0,0,1-2.14.06c-2-.17-4.12-1.22-4.78-3a2.19,2.19,0,0,1-.15-1,3.05,3.05,0,0,1,1.09-1.77,5.05,5.05,0,0,1,1.43-1,7.66,7.66,0,0,1,2.54-.44l1.23-.06A9.13,9.13,0,0,0,481.16,40.34Z"/></g><path class="cls-23" d="M479.33,55.07a3.57,3.57,0,0,0-4-.25l-.67.41A1.42,1.42,0,0,0,474,56.3a4.82,4.82,0,0,0,.87,4.05A7.54,7.54,0,0,0,477.17,62c.2.12.41.23.62.34l4.62,2.5c.78-2,.22-4.29-.63-6.28-.09-.21-.18-.43-.29-.64A7.28,7.28,0,0,0,479.33,55.07Z"/><path class="cls-3" d="M475.43,55.81l.31.33.82.83c.68.7,1.59,1.6,2.45,2.55.22.23.43.47.63.71s.4.47.59.71.36.46.52.68.3.43.43.63.12.2.18.29l.15.27a4.9,4.9,0,0,1,.23.46c.06.12.1.23.13.3l.05.11v-.12a3.26,3.26,0,0,0,0-.34,3.4,3.4,0,0,0-.11-.51,6.38,6.38,0,0,0-.23-.64,5.86,5.86,0,0,0-.34-.73c-.14-.25-.29-.51-.47-.77a3.28,3.28,0,0,0-.27-.38l-.29-.39c-.2-.26-.42-.5-.64-.75s-.45-.48-.68-.7-.47-.44-.7-.64a14.45,14.45,0,0,0-1.32-1c-.4-.28-.75-.5-1-.64Z"/><g class="cls-4"><path class="cls-5" d="M479.33,55.07a3.57,3.57,0,0,0-4-.25l-.67.41A1.42,1.42,0,0,0,474,56.3a4.82,4.82,0,0,0,.87,4.05A7.54,7.54,0,0,0,477.17,62c.2.12.41.23.62.34a8.07,8.07,0,0,1-1.21-1.2,4.36,4.36,0,0,1-.95-4.39,1.77,1.77,0,0,1,.5-.65,2.4,2.4,0,0,1,1.62-.36,4.23,4.23,0,0,1,1.36.28,6.14,6.14,0,0,1,1.66,1.22l.72.68A7.28,7.28,0,0,0,479.33,55.07Z"/></g><path class="cls-24" d="M478.2,46.8a11.27,11.27,0,0,1-.42,6,8.36,8.36,0,0,1-6.72,4.74,9.19,9.19,0,0,1-1.74.08,15,15,0,0,1-9.18-4.37,19.66,19.66,0,0,1-2.71-3.06,14.19,14.19,0,0,1-1.76-3.39c-.3-.87-.36-2.1.5-2.44s1.55.44,2.08,1.1c2.26,2.83,5,5.54,8.43,6.56a4.29,4.29,0,0,0,2.48.12l0,0c1.55-.52,2.29-2.34,2.34-4,.09-2.86-1.27-5.54-2.69-8a33.12,33.12,0,0,0-7.16-9.3l-.49-6.69A17.85,17.85,0,0,1,467,27.3c.61.49,1.19,1,1.76,1.52A30.76,30.76,0,0,1,478.2,46.8Z"/><g class="cls-4"><path class="cls-5" d="M473.17,43.13a13.22,13.22,0,0,1,.23,8.9,2.86,2.86,0,0,1-3.08,2.19A12.94,12.94,0,0,1,461.4,51a7,7,0,0,0-1.76-1.36,1.79,1.79,0,0,0-2.06.32,1.58,1.58,0,0,0-.15.24,14.19,14.19,0,0,1-1.76-3.39c-.3-.87-.36-2.1.5-2.44s1.55.44,2.08,1.1c2.26,2.83,5,5.54,8.43,6.56a4.29,4.29,0,0,0,2.48.12l0,0c1.55-.52,2.29-2.34,2.34-4,.09-2.86-1.27-5.54-2.69-8a33.12,33.12,0,0,0-7.16-9.3l-.49-6.69A17.85,17.85,0,0,1,467,27.3c.61.49,1.19,1,1.76,1.52a3.86,3.86,0,0,0-.76.38,2.87,2.87,0,0,0-.94,3.08,9,9,0,0,0,1.65,3A31.56,31.56,0,0,1,473.17,43.13Z"/></g><path class="cls-25" d="M375,116.15a47.49,47.49,0,0,1-4.32,8.27,22.28,22.28,0,0,1-7.93,7.51c-6,3.18-14.83,1.74-17.62-4.46a3.15,3.15,0,0,1-.33-1.33c.06-1.79,2.62-2.42,4.21-1.58s2.59,2.46,4,3.53c3.33,2.49,8.34,1.41,11.43-1.39a12.35,12.35,0,0,0,1.08-1.09c2.39-2.7,3.73-6.25,4.86-9.72q.92-2.79,1.71-5.58c6.88-23.9,7.81-47.44.87-71.65l-2-9c0-1.67,1-3.34,1-5,.72-.91,1.91,0,2.54,1.13a3.94,3.94,0,0,1,.3.67C384.31,55.48,386.74,88,375,116.15Z"/><g class="cls-4"><path class="cls-18" d="M375,116.15a47.49,47.49,0,0,1-4.32,8.27c-.43.16-.88.31-1.32.44a19,19,0,0,1-3.82.75c2.39-2.7,3.73-6.25,4.86-9.72q.92-2.79,1.71-5.58a21.35,21.35,0,0,0,5.17-7,27.26,27.26,0,0,0,1.58-8.94,296.17,296.17,0,0,0-3.83-67l-.43-1.62a3.94,3.94,0,0,1,.3.67C384.31,55.48,386.74,88,375,116.15Z"/></g><path class="cls-26" d="M387.84,137.9c-1.54-1.39-6.25.25-8,3.55-.9,1.68-1.36,4.38-.15,5.4,1.56,1.32,5.72-.33,7.56-3.24C388.33,141.85,389,139,387.84,137.9Z"/><path class="cls-27" d="M342.33,104.46a3.17,3.17,0,0,0-1.09,3.44l.2.67a1.3,1.3,0,0,0,.78.79,4.29,4.29,0,0,0,3.7.13,6.92,6.92,0,0,0,1.94-1.64c.14-.16.28-.32.43-.47l3.16-3.45a7.52,7.52,0,0,0-5.56-.83l-.62.11A6.45,6.45,0,0,0,342.33,104.46Z"/><path class="cls-3" d="M342.12,108l.35-.2.9-.53c.75-.44,1.73-1,2.74-1.56l.75-.4.74-.35.71-.3c.22-.09.44-.17.64-.23l.29-.09.27-.08.44-.1.29,0h.1l-.1,0a1.68,1.68,0,0,0-.3,0,3.48,3.48,0,0,0-.47,0,4.54,4.54,0,0,0-.6,0c-.22,0-.46.08-.71.14s-.5.14-.76.23l-.4.15-.4.17q-.39.18-.78.39c-.26.14-.52.29-.76.44s-.48.31-.71.46a14.85,14.85,0,0,0-1.18.92c-.34.29-.6.54-.78.72S342.12,108,342.12,108Z"/><g class="cls-4"><path class="cls-5" d="M342.33,104.46a3.17,3.17,0,0,0-1.09,3.44l.2.67a1.3,1.3,0,0,0,.78.79,4.29,4.29,0,0,0,3.7.13,6.92,6.92,0,0,0,1.94-1.64c.14-.16.28-.32.43-.47a7.86,7.86,0,0,1-1.31.79,3.92,3.92,0,0,1-4-.15,1.48,1.48,0,0,1-.45-.57,2.11,2.11,0,0,1,.05-1.48,3.37,3.37,0,0,1,.54-1.11,5,5,0,0,1,1.41-1.17l.75-.48A6.45,6.45,0,0,0,342.33,104.46Z"/></g><path class="cls-28" d="M331.28,99.71a3.94,3.94,0,0,1,2.69,3.56l0,.87a1.57,1.57,0,0,1-.59,1.25,5.28,5.28,0,0,1-4.26,1.66,8.37,8.37,0,0,1-2.94-1.12l-.69-.37-5.11-2.73c1.37-2,3.81-2.82,6.15-3.25l.77-.13A8,8,0,0,1,331.28,99.71Z"/><path class="cls-3" d="M333,103.75l-.49-.09-1.28-.24c-1-.21-2.44-.49-3.83-.71l-1-.14c-.35,0-.68-.09-1-.11l-.95-.06c-.3,0-.58,0-.85,0l-.37,0-.34,0c-.22,0-.41,0-.56.07l-.36.06-.13,0,.12-.06a2.38,2.38,0,0,1,.33-.17,5.63,5.63,0,0,1,.54-.21,5.57,5.57,0,0,1,.73-.18,7.13,7.13,0,0,1,.88-.13c.31,0,.65,0,1,0h.52l.53,0c.36,0,.72.07,1.08.13s.72.12,1.07.2.69.16,1,.25a17,17,0,0,1,1.75.59c.51.19.92.38,1.21.52Z"/><g class="cls-4"><path class="cls-5" d="M331.28,99.71a3.94,3.94,0,0,1,2.69,3.56l0,.87a1.57,1.57,0,0,1-.59,1.25,5.28,5.28,0,0,1-4.26,1.66,8.37,8.37,0,0,1-2.94-1.12l-.69-.37a8.87,8.87,0,0,0,1.84.39c1.8.18,3.78-.4,4.63-1.82a2,2,0,0,0,.29-.85,2.64,2.64,0,0,0-.66-1.71,4.47,4.47,0,0,0-1.09-1.08,6.58,6.58,0,0,0-2.13-.79l-1.07-.25A8,8,0,0,1,331.28,99.71Z"/></g><path class="cls-29" d="M336.81,89.39a3.79,3.79,0,0,1,.69,4.28l-.36.76a1.51,1.51,0,0,1-1.08.8,5.14,5.14,0,0,1-4.41-.5,8.21,8.21,0,0,1-2-2.3l-.43-.64-3.15-4.67c2.07-1,4.56-.68,6.77,0l.72.25A7.76,7.76,0,0,1,336.81,89.39Z"/><path class="cls-3" d="M336.43,93.63s-.14-.1-.38-.3l-1-.79c-.81-.65-1.87-1.53-3-2.35l-.83-.6c-.27-.19-.54-.38-.81-.55l-.79-.48c-.25-.15-.49-.28-.72-.4l-.33-.15a2.63,2.63,0,0,0-.3-.14l-.51-.2-.34-.11-.12,0h.13a2.35,2.35,0,0,1,.36,0,3.16,3.16,0,0,1,.56.07,4.79,4.79,0,0,1,.71.17,6.12,6.12,0,0,1,.81.29c.29.12.58.26.87.41l.44.25.45.28c.29.18.58.39.86.6l.83.65c.26.23.52.46.75.68.48.46.91.91,1.25,1.31s.61.74.79,1S336.43,93.63,336.43,93.63Z"/><g class="cls-4"><path class="cls-5" d="M336.81,89.39a3.79,3.79,0,0,1,.69,4.28l-.36.76a1.51,1.51,0,0,1-1.08.8,5.14,5.14,0,0,1-4.41-.5,8.21,8.21,0,0,1-2-2.3l-.43-.64A9.38,9.38,0,0,0,330.62,93c1.46,1,3.42,1.37,4.79.54a1.76,1.76,0,0,0,.64-.6,2.59,2.59,0,0,0,.21-1.77,4.59,4.59,0,0,0-.44-1.42,6.54,6.54,0,0,0-1.47-1.64l-.8-.7A7.76,7.76,0,0,1,336.81,89.39Z"/></g><path class="cls-30" d="M344.05,116.53A7,7,0,0,1,342,120.7a4.27,4.27,0,0,1-4.4.92l-2.74-2a6,6,0,0,0,1.1-2,10.1,10.1,0,0,0,.13-5c-.5-2.42-1.53-4.69-2.07-7.09a13.43,13.43,0,0,1,.46-7.84,9.64,9.64,0,0,1,2.29-3.4,8.26,8.26,0,0,1,3.26-2c.21,1.06-.52,2-1,3-1.73,3.3-.87,7.48,1.18,10.6.87,1.32,1.94,2.52,2.7,3.91A10.48,10.48,0,0,1,344.05,116.53Z"/><g class="cls-4"><path class="cls-5" d="M344.05,116.53A7,7,0,0,1,342,120.7a4.27,4.27,0,0,1-4.4.92l-2.74-2a6,6,0,0,0,1.1-2,4,4,0,0,0,4.34-2,7,7,0,0,0,0-5.85c-.74-1.88-1.9-3.55-2.76-5.38a8.18,8.18,0,0,1-.79-5.85c.21-.67.55-1.29.73-2a2.23,2.23,0,0,0-.29-2,1,1,0,0,0-.37-.29,8.26,8.26,0,0,1,3.26-2c.21,1.06-.52,2-1,3-1.73,3.3-.87,7.48,1.18,10.6.87,1.32,1.94,2.52,2.7,3.91A10.48,10.48,0,0,1,344.05,116.53Z"/></g></g></g></g></svg>