<svg xmlns="http://www.w3.org/2000/svg" viewBox="0 0 57.48 47.55"><defs><style>.cls-1{fill:#89612c;}.cls-2{fill:#ffe504;}</style></defs><title>Asset 16</title><g id="Layer_2" data-name="Layer 2"><g id="Layer_4" data-name="Layer 4"><path class="cls-1" d="M52.51,2.84H7.8a5,5,0,0,0-5,5V42.58a5,5,0,0,0,5,5H52.51a5,5,0,0,0,5-5V7.8A5,5,0,0,0,52.51,2.84ZM25.19,35.13H7.8V15.26H25.19Zm27.32,7.45H30.16V7.8H52.51Z"/><rect class="cls-1" x="35.13" y="12.77" width="12.42" height="4.97"/><rect class="cls-1" x="35.13" y="22.71" width="12.42" height="4.97"/><rect class="cls-1" x="35.13" y="32.64" width="12.42" height="4.97"/><path class="cls-2" d="M49.68,0H5A5,5,0,0,0,0,5V39.74a5,5,0,0,0,5,5H49.68a5,5,0,0,0,5-5V5A5,5,0,0,0,49.68,0ZM22.36,32.29H5V12.42H22.36Zm27.32,7.45H27.32V5H49.68Z"/><rect class="cls-2" x="32.29" y="9.94" width="12.42" height="4.97"/><rect class="cls-2" x="32.29" y="19.87" width="12.42" height="4.97"/><rect class="cls-2" x="32.29" y="29.81" width="12.42" height="4.97"/></g></g></svg>