<svg xmlns="http://www.w3.org/2000/svg" viewBox="0 0 99.75 107.26"><defs><style>.cls-1{fill:#ff6;}.cls-1,.cls-2{fill-rule:evenodd;}.cls-2{fill:#ffce00;}</style></defs><title>Asset 1</title><g id="Layer_2" data-name="Layer 2"><g id="Layer_1-2" data-name="Layer 1"><path class="cls-1" d="M27.2,77.71c33.08,25.45,71-12.46,45.52-45.53a1,1,0,0,0-.18-.18C39.47,6.57,1.59,44.46,27,77.53Z"/><path class="cls-2" d="M49.88,0l4.38,16.34a.85.85,0,0,1-.92,1.07c-1.14-.1-2.3-.16-3.46-.16s-2.33.06-3.47.16a.86.86,0,0,1-.92-1.07L49.88,0ZM68,21.91,79.63,12.5a.85.85,0,0,1,1.34,1L76.06,26.28a.86.86,0,0,1-1.37.33A37.63,37.63,0,0,0,68,21.91ZM83.91,38.85l14.94-.78a.86.86,0,0,1,.51,1.58l-11.5,7.48a.86.86,0,0,1-1.3-.55,37.13,37.13,0,0,0-2.65-7.73Zm2.91,23.06,12.54,8.15a.86.86,0,0,1-.51,1.58l-13.69-.71a.85.85,0,0,1-.74-1.2,37.52,37.52,0,0,0,2.4-7.82ZM75.61,82.27l5.36,14a.85.85,0,0,1-1.34,1L69,88.6a.86.86,0,0,1,.11-1.41,37,37,0,0,0,6.53-4.92Zm-21,9.9-3.87,14.45a.87.87,0,0,1-1.67,0L45.49,93.38a.87.87,0,0,1,.92-1.08c1.14.11,2.3.16,3.47.16a38.39,38.39,0,0,0,4.7-.29ZM31.75,87.81,20.13,97.22a.86.86,0,0,1-1.35-1l4.91-12.81a.85.85,0,0,1,1.37-.33,37.63,37.63,0,0,0,6.69,4.7ZM15.84,70.87.91,71.64a.86.86,0,0,1-.52-1.58l11.5-7.47a.85.85,0,0,1,1.3.55,37.92,37.92,0,0,0,2.65,7.73Zm-2.9-23.06L.39,39.65a.86.86,0,0,1,.52-1.58l13.69.72a.85.85,0,0,1,.73,1.2,36.73,36.73,0,0,0-2.39,7.82ZM23.69,26.28,18.78,13.47a.86.86,0,0,1,1.35-1l10.65,8.62a.86.86,0,0,1-.11,1.41,37.37,37.37,0,0,0-5.61,4.08A.86.86,0,0,1,23.69,26.28Z"/></g></g></svg>