<svg xmlns="http://www.w3.org/2000/svg" xmlns:xlink="http://www.w3.org/1999/xlink" viewBox="0 0 78.68 39.03"><defs><style>.cls-1{fill:none;}.cls-2{fill:#793d1c;}.cls-3{clip-path:url(#clip-path);}.cls-4{fill:#964a17;}.cls-5{opacity:0.5;}.cls-6{fill:#51281e;}</style><clipPath id="clip-path"><path class="cls-1" d="M3.68,6.06c0,17.58,13.62,31.81,30.44,31.81l10.1,0C61,37.83,74.67,23.64,74.67,6.06c0,0-12.16,1.33-35.34,1.33S3.68,6.06,3.68,6.06Z"/></clipPath></defs><title>Asset 19</title><g id="Layer_2" data-name="Layer 2"><g id="Layer_4" data-name="Layer 4"><path class="cls-2" d="M4.64,6.12a.9.9,0,0,0-1,.94c.53,17.12,13.94,30.81,30.45,30.81l10.11,0c16.5,0,29.92-13.69,30.44-30.81a.89.89,0,0,0-1-.94C70.39,6.38,58.47,7.33,39,7.33S7.92,6.42,4.64,6.12Z"/><path class="cls-2" d="M47.09,8.07H44.58c0-2.31-2.3-5.77-5.34-5.77h-.11c-3.1,0-5.34,2.31-5.34,5.77H31.27A7.79,7.79,0,0,1,39.13,0h.11A7.83,7.83,0,0,1,47.09,8.07Z"/><g class="cls-3"><path class="cls-4" d="M69.1,27.05A12.94,12.94,0,0,0,71,24c1.37-.3,2.75-.63,4.13-1l-.26-1.12c-1.13.29-2.25.56-3.37.81a29.35,29.35,0,0,0,1.27-5.88l2.36-.58-.26-1.12-2,.49c.16-1.55.26-3.25.33-5.14,0-.39,0-.83,0-1.24,0-1.07,0-2.29,0-3.44h-1.1c0,1.15,0,2.53,0,3.68-1.12.23-2.24.47-3.35.67,0-1.55-.08-3-.14-4.29l-1.1.06c.07,1.54.12,3,.14,4.45-1.14.2-2.26.39-3.38.56-.09-1.53-.22-3.07-.42-4.58l-1.09.15c.19,1.54.33,3.08.42,4.6-1.17.16-2.32.32-3.47.46a43,43,0,0,0-.81-5.27l-1.07.26a42.35,42.35,0,0,1,.78,5.13q-2,.24-4.05.42a44.35,44.35,0,0,0-.88-5.81l-1.07.26a47.3,47.3,0,0,1,.86,5.65c-1.48.12-2.94.21-4.38.3a51.74,51.74,0,0,0-.71-5.59l-1.08.22A47.84,47.84,0,0,1,48,12.51c-1.75.09-3.48.14-5.17.17-.08-1.92-.2-3.93-.35-6l-1.1.08c.15,2.05.27,4,.35,5.94-1.75,0-3.47,0-5.15,0q.13-2.8.39-5.81l-1.1-.11c-.17,2-.3,4-.39,5.89-1.75,0-3.45-.11-5.11-.2A49.46,49.46,0,0,1,31,7.09l-1.08-.22a53.36,53.36,0,0,0-.7,5.52q-2.26-.15-4.38-.33a44.09,44.09,0,0,1,.86-5.55l-1.07-.26A43.24,43.24,0,0,0,23.76,12c-1.4-.13-2.76-.27-4.06-.42a42.91,42.91,0,0,1,.78-5L19.4,6.25a43.66,43.66,0,0,0-.79,5.17c-1.21-.15-2.37-.3-3.47-.46.08-1.48.22-3,.41-4.5l-1.1-.15c-.18,1.48-.32,3-.4,4.49-1.2-.18-2.33-.37-3.39-.55,0-1.4.06-2.85.13-4.37l-1.1,0c0,1.27-.1,2.7-.12,4.23-1.24-.22-2.36-.49-3.37-.69,0-1.12,0-2.46,0-3.61H5.06c0,1.15,0,2.32,0,3.37C2.07,8.49.37,8,.3,8L0,9.14c.08,0,1.9.54,5.13,1.22.06,1.89.17,3.6.33,5.14-1-.24-1.54-.4-1.58-.41L3.6,16.2s.9.21,2,.51h0a17.72,17.72,0,0,0,1.24,5.87c-1.86-.42-2.91-.71-3-.73L3.59,23c.07,0,1.38.4,3.75.92a12.67,12.67,0,0,0,1.89,3.16l.83-.76a10.75,10.75,0,0,1-1.35-2.11l1.72.34a16.7,16.7,0,0,0,2,5.82C7.09,29.39,4,28.52,3.88,28.49L3.59,29.6a112,112,0,0,0,13,2.59A10.3,10.3,0,0,0,18,34.61l.83-.76a7.79,7.79,0,0,1-.93-1.47l3.08.39a14.66,14.66,0,0,0,2.26,4.31l.83-.76a12.57,12.57,0,0,1-1.85-3.41c1.21.14,2.48.26,3.78.37a17.16,17.16,0,0,0,2.62,5.15l.83-.76a15.24,15.24,0,0,1-2.24-4.28c1.33.1,2.69.19,4.09.27A16.86,16.86,0,0,0,33.9,39l.83-.76a14.58,14.58,0,0,1-2.32-4.56c1.2.06,2.44.1,3.7.13a16.07,16.07,0,0,0,1.34,5l.93-.61a13.84,13.84,0,0,1-1.17-4.33l2.56,0H41a17.16,17.16,0,0,1-1.29,4.47l1,.52a19.31,19.31,0,0,0,1.41-5c1.24,0,2.49,0,3.76-.1a14.37,14.37,0,0,1-2.31,4.51l.84.76A16.65,16.65,0,0,0,47,33.71c1.34-.07,2.7-.15,4.08-.25a15,15,0,0,1-2.21,4.21l.89.76c1-1.15,1.55-2.89,2.66-5.06h0c1.1-.1,2.43-.22,3.7-.36a12.06,12.06,0,0,1-1.84,3.32l.82.76a14.85,14.85,0,0,0,2.21-4.21c1-.12,2-.25,3.06-.4a7.16,7.16,0,0,1-.88,1.38l.83.76a9.75,9.75,0,0,0,1.37-2.33,135.63,135.63,0,0,0,13.37-2.67l-.26-1.12c-3,.77-6,1.42-9,2a16,16,0,0,0,2-5.84l1.7-.35a10.85,10.85,0,0,1-1.32,2ZM6.24,10.59c1,.21,2.1.42,3.31.64,0,1.67,0,3.44.08,5.19-1.19-.23-2.2-.46-3-.65C6.43,14.22,6.31,12.51,6.24,10.59ZM8.13,22.88A26.45,26.45,0,0,1,6.74,17q1.25.29,2.94.63c.1,2,.28,3.91.55,5.7ZM30.28,13.6c1.66.09,3.37.16,5.12.2-.09,1.92-.13,3.74-.14,5.47-1.74-.05-3.43-.12-5-.22C30.16,17.21,30.19,15.38,30.28,13.6Zm5.1,12.45c-1.6,0-3.15-.11-4.66-.2-.24-1.83-.39-3.73-.47-5.65,1.61.1,3.28.17,5,.22C35.25,22.44,35.3,24.32,35.38,26.05Zm-5.8-.27c-1.5-.1-2.94-.21-4.34-.34a54.93,54.93,0,0,1-.57-5.67c1.42.13,2.89.26,4.41.36C29.17,22.08,29.34,24,29.58,25.78ZM24.74,13.22c1.42.11,2.89.22,4.4.31C29,15.36,29,17.19,29.05,19c-1.54-.11-3-.23-4.42-.37C24.58,16.85,24.61,15,24.74,13.22Zm-.62,12.11c-1.39-.13-2.72-.28-4-.44a54.86,54.86,0,0,1-.6-5.69c1.28.16,2.63.32,4,.46A56.37,56.37,0,0,0,24.12,25.33ZM19.6,12.69c1.3.15,2.65.3,4.06.43a50.61,50.61,0,0,0-.12,5.38c-1.42-.14-2.76-.3-4-.46A50.52,50.52,0,0,1,19.6,12.69ZM19,24.57a.86.86,0,0,0,0,.17c-1.18-.15-2.3-.31-3.35-.47-.26-1.76-.45-3.68-.55-5.7,1.05.16,2.17.33,3.33.49Q18.58,21.82,19,24.57Zm-3.9-12.52c1.1.16,2.24.34,3.44.49a51.31,51.31,0,0,0-.12,5.28,27.49,27.49,0,0,0-3.34-.54h0C15,15.55,15,13.86,15.08,12.05Zm-4.43-.63c1,.18,2.16.36,3.34.53-.08,1.78-.09,3.55,0,5.27-1.17-.2-2.24-.39-3.22-.58C10.66,15,10.63,13.27,10.65,11.42Zm.14,6.4q1.47.29,3.21.57c.09,2,.26,3.91.51,5.69-1.12-.18-2.17-.37-3.13-.55A55.46,55.46,0,0,1,10.79,17.82ZM13.31,30.5l.36-.32a12.72,12.72,0,0,1-2.08-5.44c1,.18,2,.35,3.11.53A32.13,32.13,0,0,0,16.09,31Zm4,.64a31.51,31.51,0,0,1-1.48-5.68c1.06.16,2.17.31,3.34.46a40.31,40.31,0,0,0,1.35,5.64C19.43,31.43,18.36,31.28,17.34,31.14Zm4.42.56a40.1,40.1,0,0,1-1.42-5.63c1.26.15,2.59.3,4,.43a43.55,43.55,0,0,0,1.29,5.59Q23.6,31.92,21.76,31.7Zm5,.5a42.11,42.11,0,0,1-1.35-5.59c1.38.13,2.82.24,4.31.33a45.66,45.66,0,0,0,1.18,5.55C29.51,32.41,28.13,32.31,26.79,32.2Zm5.26.34A40.66,40.66,0,0,1,30.88,27c1.48.08,3,.14,4.56.19.12,2.07.3,3.91.51,5.49C34.62,32.65,33.32,32.61,32.05,32.54ZM36.5,13.83c1.09,0,2.2,0,3.31,0h1.95c.08,1.91.13,3.74.14,5.48-1.89,0-3.74,0-5.54,0C36.37,17.57,36.42,15.74,36.5,13.83Zm4.72,18.9c-1.42,0-2.82,0-4.18,0-.21-1.56-.38-3.4-.5-5.49,1.05,0,2.13,0,3.23,0l2,0C41.63,29.29,41.46,31.13,41.22,32.73Zm.59-6.63c-1.83,0-3.6,0-5.33,0-.08-1.72-.13-3.61-.13-5.62,1.12,0,2.26,0,3.42,0l2.14,0C41.92,22.49,41.88,24.36,41.81,26.1ZM63.25,12.21c.08,1.81.08,3.58,0,5.28-1.13.18-2.24.35-3.35.5a52.34,52.34,0,0,0-.1-5.33C61,12.53,62.1,12.37,63.25,12.21Zm-3.9,12.36c.26-1.8.44-3.61.53-5.41,1.11-.15,2.21-.32,3.33-.49-.1,2-.3,3.93-.56,5.69-1.12.18-2.24.34-3.35.48A2.16,2.16,0,0,0,59.35,24.57ZM58.73,12.8a50.24,50.24,0,0,1,.1,5.34c-1.35.17-2.7.32-4,.46.05-1.82,0-3.63-.11-5.4C56,13.09,57.37,13,58.73,12.8Zm-4,7c1.33-.13,2.68-.28,4-.45a55.16,55.16,0,0,1-.6,5.69c-1.34.16-2.67.31-4,.44A56.3,56.3,0,0,0,54.75,19.75ZM53.58,13.3a51.5,51.5,0,0,1,.11,5.4c-1.49.14-3,.25-4.41.35,0-1.8,0-3.62-.09-5.45C50.64,13.52,52.1,13.42,53.58,13.3Zm-4.35,6.89c1.45-.08,2.92-.19,4.42-.33a54.87,54.87,0,0,1-.58,5.67c-1.46.13-2.91.23-4.33.32C49,24.05,49.15,22.15,49.23,20.19Zm-1.18-6.53c.09,1.78.11,3.62.07,5.46-1.74.09-3.45.15-5.13.19,0-1.74-.05-3.57-.13-5.48C44.56,13.8,46.29,13.75,48.05,13.66Zm0,6.6c-.07,1.92-.23,3.83-.46,5.65-1.6.08-3.17.14-4.72.16.08-1.74.12-3.61.11-5.62C44.66,20.42,46.35,20.36,48.07,20.26ZM46.26,32.6c-1.33,0-2.65.09-3.94.11.23-1.62.4-3.46.52-5.49,1.5,0,3-.08,4.6-.16A40.77,40.77,0,0,1,46.26,32.6Zm5.25-.32c-1.39.11-2.77.2-4.13.27A45.26,45.26,0,0,0,48.56,27c1.42-.08,2.86-.18,4.32-.31A43.18,43.18,0,0,1,51.51,32.28Zm5-.47c-1.29.15-2.57.27-3.83.38A45.79,45.79,0,0,0,54,26.59c1.31-.12,2.63-.26,4-.43A38.62,38.62,0,0,1,56.53,31.81Zm4.41-.57c-1.07.16-2.14.3-3.19.42A42.09,42.09,0,0,0,59.11,26c1.11-.14,2.22-.3,3.34-.48A30.13,30.13,0,0,1,60.94,31.24Zm3.72-1.06.44.39c-1,.18-1.93.34-2.89.48a32.43,32.43,0,0,0,1.4-5.69c1-.16,2.07-.35,3.11-.54A12.55,12.55,0,0,1,64.66,30.18Zm2.28-6.57c-1.06.21-2.1.39-3.14.56.25-1.78.43-3.7.52-5.69,1.07-.18,2.14-.37,3.22-.58C67.41,20,67.21,22,66.94,23.61Zm.65-6.89c-1.08.21-2.15.41-3.22.59.06-1.72,0-3.49,0-5.26,1.1-.17,2.21-.35,3.33-.55C67.7,13.35,67.66,15.09,67.59,16.72Zm1.19-5.41c1.09-.2,2.2-.42,3.3-.64-.07,1.91-.19,3.63-.36,5.17-1,.24-2,.45-3,.66C68.77,14.74,68.79,13,68.78,11.31Zm-.69,12.08c.27-1.79.45-3.73.56-5.71,1-.2,1.95-.4,2.93-.62A26.33,26.33,0,0,1,70.16,23Z"/><path class="cls-4" d="M78.68,9.15c-1.84.47-3.66.9-5.48,1.29,0-.39,0-.78,0-1.19Q75.81,8.7,78.42,8Z"/><g class="cls-5"><path class="cls-6" d="M39.84,33.93A50,50,0,0,1,8.3,22.9a30.24,30.24,0,0,0,26,15l10.12,0A30.27,30.27,0,0,0,69.1,24.44C60.42,30.3,49.94,33.93,39.84,33.93Z"/></g></g></g></g></svg>