<svg xmlns="http://www.w3.org/2000/svg" viewBox="0 0 267.06 332.77"><defs><style>.cls-1{opacity:0.9;}.cls-2{fill:#50ed3a;}.cls-3{fill:none;}.cls-4{fill:#a9561c;}.cls-5{fill:#c55d1c;}.cls-6{fill:#00811d;}.cls-7{fill:#793d1c;}.cls-8{fill:#9f6;}.cls-9{fill:#00df12;}.cls-10{fill:#00dc1d;}</style></defs><title>Asset 8</title><g id="Layer_2" data-name="Layer 2"><g id="Layer_1-2" data-name="Layer 1"><g class="cls-1"><path class="cls-2" d="M256.92,134.83a10.85,10.85,0,0,1,0-1.14v0a25.27,25.27,0,0,0,5-13.48A25.8,25.8,0,0,0,238.2,92.51a26.5,26.5,0,0,0-3.78,0,23.18,23.18,0,0,0-43.49,9.29,25.75,25.75,0,0,0,0,2.91c-10.13-.41-19.76,1.86-26.56,10.27-2.72,3.39-5.36,9.29-5.08,14.44,10.24-3.89,22.59-3.86,30.92-.36a52.39,52.39,0,0,1,20,23.32c6.12,6.13,12.46,9.62,18.77,11.07a20.62,20.62,0,1,0,28-28.61Z"/><path class="cls-3" d="M77.12,203.78c-4.42.38-7.84-1.78-10-5.54-1.8-3.1-6.7-15-2-17.22-4,.94-4.72-5.19-4.28-7.82.07-.4.19-.78.29-1.18a4.14,4.14,0,0,1-.68-1.18c.76,5.18-6,6-10.24,5.53a153.14,153.14,0,0,0,5.31,16.08,37.57,37.57,0,0,0,12.93,17.28,38.18,38.18,0,0,0,14.87,6.41,47.34,47.34,0,0,1-2.36-6.68A50.68,50.68,0,0,1,79.67,203,10.34,10.34,0,0,1,77.12,203.78Z"/><path class="cls-3" d="M150.63,175.53c-.7,1-1.36,2.07-2,3.11a71.79,71.79,0,0,0,11.21,4.89A67,67,0,0,0,179,187.08a47.41,47.41,0,0,0,15.54-2,11.42,11.42,0,0,0-.67-3.75c-13.48,5.05-27.22-3.73-34.3-15.48A49,49,0,0,0,150.63,175.53Z"/><path class="cls-3" d="M101.83,192.59c-1.17,4.1-6.08,8.69-9.55,10.81a10.83,10.83,0,0,1-3.54,1.53,41.2,41.2,0,0,0,1.32,3.93A37.2,37.2,0,0,0,93.85,216a39.33,39.33,0,0,0,12.21,11.54,49.53,49.53,0,0,1,6-15.57,51.3,51.3,0,0,1,3.89-5.42,49.94,49.94,0,0,1-3.28-13.51A25.49,25.49,0,0,1,101.83,192.59Z"/><path class="cls-4" d="M55.75,203.32A33.91,33.91,0,0,0,60.69,210c2.57-.09,5.13-.2,7.72-.24a37.57,37.57,0,0,1-12.93-17.28,153.14,153.14,0,0,1-5.31-16.08,14.26,14.26,0,0,1-1.61-.29A18.75,18.75,0,0,1,40,171.22a150.34,150.34,0,0,0,7.36,24.39,50.08,50.08,0,0,0,4.92,9.47c-4.56-8-5.06-16.37-6.17-23.52C49.62,188.15,51.59,196.32,55.75,203.32Z"/><path class="cls-4" d="M115,282l-1.47.55v0l.31,1.09c.17.72.31,1.44.42,2.18a21.38,21.38,0,0,1,.11,4.46,27.82,27.82,0,0,1-2.49,9.23,36.16,36.16,0,0,1-2.41,4.5,31.91,31.91,0,0,1-2.78,3.81l15.42,13a51.21,51.21,0,0,0,4.49-6.86,57.11,57.11,0,0,0,3.29-7.09,46.9,46.9,0,0,0,3.2-15.84,39.65,39.65,0,0,0-.74-8.4,41.29,41.29,0,0,0-1.06-4.11l-.69-2-.28-.72Z"/><path class="cls-4" d="M122.25,279.21c-1.36.55-2.76,1.06-4.14,1.59a58,58,0,0,1,2.21,8.14,30,30,0,0,1,0,12.31,15.16,15.16,0,0,1-6.22,9.31"/><path class="cls-5" d="M127,154.33a11,11,0,0,1,.88,1.43,174.92,174.92,0,0,1,5.27-22.68c.31-.93.7-1.83,1-2.76-.92.37-7.48,2.35-7.74,3-.83.31-1.66.67-2.49,1-2,5-3.94,10.16-5.64,15.37A11.32,11.32,0,0,1,127,154.33Z"/><path class="cls-5" d="M134.47,178.53c-2.64,4.2-5.06,8.41-7.46,12.43-.92,1.53-1.83,3-2.75,4.47-.15-2.14-.18-4.33-.15-6.52a26.71,26.71,0,0,1-11.39,4.16A49.94,49.94,0,0,0,116,206.58a51.3,51.3,0,0,0-3.89,5.42,49.53,49.53,0,0,0-6,15.57A39.33,39.33,0,0,1,93.85,216a37.2,37.2,0,0,1-3.79-7.17c-3,.3-6.07.49-9.14.6a47.34,47.34,0,0,0,2.36,6.68,38.18,38.18,0,0,1-14.87-6.41c-2.59,0-5.15.15-7.72.24-1.87-1.9-8.32-4.74-8.27-4.66a58.13,58.13,0,0,0,6.35,7.45c10.39,9.88,23.07,12.25,29.35,12.73.31,0,.57,0,.85,0a45.11,45.11,0,0,0,7.73,7.77,41.37,41.37,0,0,0,8.09,4.69c0,.9-.05,1.79,0,2.69a105.22,105.22,0,0,0,4.33,27.64c1.21,4.38,2.58,8.64,4,12.78l.46,1.44L115,282l15.33-6.18L130,275c-1.57-4-3-7.83-4.36-11.7-5.23-15.26-7.78-31.51-1-44.06a33.75,33.75,0,0,1,2.88-4.48l2.06-2.73c.71-1,1.38-1.94,2-2.93,2.58-3.92,4.73-7.89,6.77-11.77l1.21-2.36C139.17,193.8,134.85,179.93,134.47,178.53Z"/><path class="cls-4" d="M135.73,182.6c.48,1.47,3.33,10.89,3.83,12.34l1.08-2.07c1.86.4,3.67.74,5.57,1.07,3.66.66,7.29,1.24,10.95,1.66a117.25,117.25,0,0,0,22,.77,70.5,70.5,0,0,0,15.63-2.86c-.63-2.68-.2-5.61-.3-8.38a47.41,47.41,0,0,1-15.54,2,67,67,0,0,1-19.15-3.55,71.79,71.79,0,0,1-11.21-4.89c.67-1,1.33-2.11,2-3.11a49,49,0,0,1,8.9-9.63,35.83,35.83,0,0,1-3.86-8.84c-.12-.42-.22-.91-.34-1.36q-2,1.32-3.91,2.81a59.66,59.66,0,0,0-10,10,108.73,108.73,0,0,0-7,10C134.85,179.93,135.33,181.23,135.73,182.6Z"/><path class="cls-4" d="M131.39,131.39c.91-.37,1.83-.7,2.75-1.07.76-2.15,1.49-4.33,2.37-6.39a54.45,54.45,0,0,0,3.45-9.34,32.55,32.55,0,0,1-8.5,1.89c-.55,1.38-1.2,2.78-1.93,4.38-1.39,3.18-2.74,6.26-4,9.44-.54,1.32-1.08,2.64-1.61,4,.83-.29,1.66-.65,2.49-1"/><path class="cls-4" d="M85,204.38c-1.29-.63-1.58-1.79-3.25-1.83a5.94,5.94,0,0,0-2,.48,50.68,50.68,0,0,0,1.25,6.43c3.07-.11,6.12-.3,9.14-.6a41.2,41.2,0,0,1-1.32-3.93A5.7,5.7,0,0,1,85,204.38Z"/><path class="cls-2" d="M100.4,48.65C111.53,63.19,129.6,75.24,133,77.31c29.08,21.46,45-5.58,55.85-32.61-3.53-5.27-8.48-9.87-13.45-10.3,1.09-12.56-3.86-23-14.82-29.64A23,23,0,0,0,134.9,6.15c-7.14-5.52-16-8.58-24.36-3.73C100.37,8.33,96,16.26,94.49,27.28,85.41,27,78.08,28.36,75.83,38.57A27.72,27.72,0,0,0,76.29,52C84.45,48.45,94,44.81,100.4,48.65Z"/><path class="cls-6" d="M102.26,82c0,1.73.84,3.17.5,4.78-.57,2.7-3.31,5-4.16,7.76-2,6.61,0,14.65,6.52,18.07,4.17,2.18,12.25,2.37,12.85-3.68.48,6,6.56,8.11,13.49,7.54a32.55,32.55,0,0,0,8.5-1.89c7.18-2.66,13.2-7.69,12.56-13.7,3.23-.08,5.57,2.34,8.61,3.08,6.32,1.55,13.26-1.15,17.47-5.76a31,31,0,0,0,7.86-14.84c.4-2.13-.05-4.68.68-6.72s2.52-3.39,3.61-5.15A23.93,23.93,0,0,0,193.83,56a31.3,31.3,0,0,0-4.94-11.27C178,71.73,162.12,98.77,133,77.31,129.6,75.24,120,67.89,120,67.89A157.62,157.62,0,0,1,100.4,48.65c-6.41-3.84-16-.2-24.11,3.35a18.41,18.41,0,0,0,6.88,10.24c-3.33,6.29-1.58,17.81,5,21.23,5.81,3,9.13.25,14.08-1.46"/><path class="cls-6" d="M212.08,150.69c-6-7.66-11.66-18.32-20-23.32-8.33-3.5-22.61-1.85-32.85,2,.14,2.58,2.88,3.31,4.89,5.09-2-1.79-4.17-1.05-6.18.33-5.89,4.08-4.86,13.41-3.32,19.63.12.46.22.94.34,1.36a35.83,35.83,0,0,0,3.86,8.84c7.08,11.75,20.82,20.53,34.3,15.48a11.26,11.26,0,0,1,.67,3.75c.1,2.77-.33,5.7.3,8.38,0,.22.08.44.15.66,3.27,10.63,12.77,3.1,15.22-3.94,5.06,3.49,10.53,7.37,17.12,5.7,1.63-.41,3-2,4-2.31s6.9,4.58,15.49,2.1c10.89-3.15,14.82-10.79,10.6-24C254.2,167.76,227.07,169.94,212.08,150.69Z"/><path class="cls-6" d="M50.17,176.37c4.22.51,11-.35,10.24-5.53a4.14,4.14,0,0,0,.68,1.18c-.1.4-.22.78-.29,1.18-.44,2.63.27,8.76,4.28,7.82-4.69,2.26.21,14.12,2,17.22,2.19,3.76,5.61,5.92,10,5.54a10.34,10.34,0,0,0,2.55-.75,5.94,5.94,0,0,1,2-.48c1.67,0,2,1.2,3.25,1.83a5.7,5.7,0,0,0,3.77.55,10.83,10.83,0,0,0,3.54-1.53c3.47-2.12,8.38-6.71,9.55-10.81a25.49,25.49,0,0,0,10.89.48,26.71,26.71,0,0,0,11.39-4.16c4.1-2.94,6-7.26,2.44-13,6-2.95,4.35-14.72,1.3-20.18a11,11,0,0,0-.88-1.43,11.32,11.32,0,0,0-8.7-4.69,17,17,0,0,0-2.76.06,12.24,12.24,0,0,1,.85,1.45c2.56,5.4,1.87,13.45-2,18.16C99.32,187.76,91.31,148.05,77,153c-7.79,2.69-8.93,11.8-18.35,6.22-6.72-4-11.72-12-17.63-17-6.73-5.74-13.06-8.69-22-9.3-5.18-.34-8.74-.12-13.08,2.52a15.44,15.44,0,0,0,7.64,2.74.41.41,0,0,0,.31-.27L14.3,139c-1.74,1.63-3,2.76-3.38,5.18-.56,3.71,2,4.25,2.87,7.14,1.59,5.6-2.95,10.93,3.76,14.82,5.95,3.45,14.12-.72,16.49-6.76a21.31,21.31,0,0,0,6,11.83,18.75,18.75,0,0,0,8.54,4.86A14.26,14.26,0,0,0,50.17,176.37Z"/><path class="cls-2" d="M41,142.2c5.91,5,10.91,13,17.63,17C68.06,164.8,69.2,155.69,77,153c14.32-4.95,22.33,34.76,37.39,16.31,3.85-4.71,4.54-12.76,2-18.16a12.24,12.24,0,0,0-.85-1.45,69.82,69.82,0,0,0-7.79,1.52c1.8-8.5-4.12-13.5-10.4-14.29a22.87,22.87,0,0,0-1.19-2.77c-2.66-5.28-8.7-13-14.5-15.15,5.78-13.68.15-48.73-21.11-37.81C56.63,71.38,36.24,73.32,29.27,78c-10.7,7.13-8.23,17.2-6.84,27.49-20.5-6.16-29.17,21-16.53,30,4.34-2.64,7.9-2.86,13.08-2.52C28,133.51,34.28,136.46,41,142.2Z"/><path class="cls-7" d="M114,311.85a1.32,1.32,0,0,1-1-.6,1.29,1.29,0,0,1,.4-1.78,13.79,13.79,0,0,0,5.65-8.5,28.82,28.82,0,0,0,0-11.8,59.47,59.47,0,0,0-2.17-8c-1-3-2.21-5.93-3.35-8.73-.67-1.63-1.29-3.17-1.88-4.72a1.27,1.27,0,0,1,.74-1.66,1.29,1.29,0,0,1,1.66.74c.58,1.52,1.21,3.05,1.87,4.67,1.15,2.83,2.34,5.75,3.4,8.88a60.63,60.63,0,0,1,2.26,8.31,31.32,31.32,0,0,1,0,12.86,16.42,16.42,0,0,1-6.78,10.09A1.32,1.32,0,0,1,114,311.85Z"/><path class="cls-7" d="M103.68,232.75a1.29,1.29,0,0,1-.64-.24c-5.37-3.81-14.84-11.78-17.93-22.28a1.29,1.29,0,0,1,2.48-.73c2.87,9.76,11.84,17.29,16.94,20.91a1.29,1.29,0,0,1-.85,2.34Z"/><path class="cls-7" d="M122.15,310.18a1.28,1.28,0,0,1-1-1.92c2.66-4.61,3.34-10.54,2.13-18.65A79.42,79.42,0,0,0,121,279.56c-1-3.36-2.13-6.81-3.58-10.55a67.15,67.15,0,0,1-5.6-22.27,46.44,46.44,0,0,1,3.39-20.92,1.29,1.29,0,1,1,2.37,1,43.74,43.74,0,0,0-3.18,19.76,64.31,64.31,0,0,0,5.4,21.46c1.5,3.85,2.7,7.38,3.68,10.81a82.47,82.47,0,0,1,2.32,10.38c1.3,8.72.52,15.18-2.44,20.31A1.28,1.28,0,0,1,122.15,310.18Z"/><path class="cls-7" d="M114.35,221.65a1.47,1.47,0,0,1-.53-.16,1.29,1.29,0,0,1-.49-1.76c1.24-2.21,2.1-4,2.93-5.74,2.53-5.28,4.93-10.27,17.07-25.94a1.29,1.29,0,1,1,2,1.58c-12,15.45-14.32,20.32-16.79,25.47-.85,1.77-1.73,3.6-3,5.89A1.32,1.32,0,0,1,114.35,221.65Z"/><path class="cls-4" d="M59.13,210.54l-2,.57s-6.28-4.49-12.71-23.72l1.64-8.67,2.73,4.49,14.11,26.38Z"/><path class="cls-8" d="M204,101c0-3.08,1.79-3.18,10.25-3.66a3,3,0,0,1,2.12,5.27,3,3,0,0,1-1.78.72c-3.11.18-4.8.31-5.7.4a2.86,2.86,0,0,1-1.71.39A3.12,3.12,0,0,1,204,101Z"/><path class="cls-8" d="M246.35,131.08a3,3,0,0,1-6,.74c-1.7-13.78-14.9-15-15.46-15a3,3,0,0,1-2.75-3.22h0a3,3,0,0,1,3.23-2.75C231.85,111.31,244.51,116.22,246.35,131.08Z"/><path class="cls-8" d="M146.9,22a3,3,0,1,1-3.69,4.73c-10.94-8.53-21.14-.06-21.57.3a3,3,0,0,1-4.22-.33h0a3,3,0,0,1,.34-4.23C122.67,18.29,135.09,12.81,146.9,22Z"/><path class="cls-9" d="M222.85,177.13a32,32,0,0,1-5.29-2.59,3,3,0,0,0-3.12,5.13,38.27,38.27,0,0,0,6.26,3.07,3.1,3.1,0,0,0,.84.19,3,3,0,0,0,1.31-5.8Z"/><path class="cls-9" d="M87.09,183.46a32.13,32.13,0,0,1-5.57,1.9,3,3,0,0,0,1.42,5.84,38.6,38.6,0,0,0,6.59-2.26,3,3,0,0,0-2.44-5.48Z"/><path class="cls-8" d="M34.39,109.54a3.38,3.38,0,0,0,.54.09,3,3,0,0,0,3.13-2.22c0-.08,2.17-7.91,9-11.23,4.64-2.27,10.5-1.92,17.42,1a3,3,0,1,0,2.35-5.52c-8.59-3.66-16.13-4-22.4-.9-9.24,4.51-12,14.66-12.14,15.09A3,3,0,0,0,34.39,109.54Z"/><path class="cls-8" d="M162.21,59.89c1.89,2.44.57,3.61-5.76,9.24a3,3,0,0,1-4.94-2.82,3,3,0,0,1,1-1.66c2.32-2.07,3.56-3.23,4.22-3.86a2.84,2.84,0,0,1,1.09-1.37A3.14,3.14,0,0,1,162.21,59.89Z"/><path class="cls-7" d="M155.65,164.8c-1.12-1.54-4.23-6.29-4.23-6.29l3.91-2.81s2,7.86,4.2,10.2l-1.81,1.55S156.14,165.48,155.65,164.8Z"/><path class="cls-7" d="M191.06,186.92s-1.35,5.18.73,7.44l3-.85s-.47-1.16-.3-8.38l-3.39.88S191.31,185.86,191.06,186.92Z"/><path class="cls-7" d="M131.46,116.48a45.93,45.93,0,0,0,8.5-1.89s-1.11,4.82-2.36,6.34c0,0-3.2,1.68-8.07-.07Z"/><path class="cls-7" d="M115.84,289.82s12.79-.39,16.88,5.26a36.07,36.07,0,0,1-1.9,8.9s-3.9-8.14-9.93-9.49-7.25-.24-7.25-.24a28.33,28.33,0,0,0,.71-3.95S114.14,289.8,115.84,289.82Z"/><path class="cls-7" d="M80.7,221.73c-6.25-.48-12.55-3.5-18.36-8.8A48,48,0,0,1,54.66,204a1.29,1.29,0,1,1,2.18-1.37c.11.17,10.71,16.73,25.85,16.58a1.29,1.29,0,1,1,0,2.57Q81.71,221.81,80.7,221.73Z"/><path class="cls-7" d="M124.56,146.84a.63.63,0,0,1-.19,0,1.28,1.28,0,0,1-1-1.55,70,70,0,0,1,3.92-11.57,1.29,1.29,0,1,1,2.34,1.07,68.18,68.18,0,0,0-3.75,11.09A1.29,1.29,0,0,1,124.56,146.84Z"/><path class="cls-7" d="M165.08,192.51a41.91,41.91,0,0,1-9.3-1.74,1.29,1.29,0,1,1,.79-2.45A41.71,41.71,0,0,0,168,190.06a1.29,1.29,0,0,1,0,2.57C167.91,192.63,166.78,192.64,165.08,192.51Z"/><rect class="cls-10" x="132.66" y="324.23" width="20.74" height="7.73" transform="translate(25.68 -10.03) rotate(4.41)"/><path class="cls-10" d="M109,298.72A10,10,0,0,0,93.39,310a6.5,6.5,0,0,0-.9-.13,7.54,7.54,0,1,0,6.94,8.1c0-.1,0-.2,0-.29.74-.37,1.46-.77,2.17-1.21l.39.05a10,10,0,0,0,10.73-9.19,10.24,10.24,0,0,0,0-1.84,40.08,40.08,0,0,0,5.14-11.61C114.16,293.59,110.72,295.06,109,298.72Z"/><path class="cls-10" d="M154.26,317.33a7.8,7.8,0,0,0-2.47.22c-.2-7.71-15.49-8.64-19.64-1.66.85-8.12-.79-15.4-8.05-19.9-1.48,11.46-7.12,26.78,3.36,33.07a38.77,38.77,0,0,0,4.94,2c3.76.12,7.52.28,11.28.57,1.11.08,2.57.3,4.15.51.65-.13,1.29-.29,1.93-.47a7.73,7.73,0,1,0,4.5-14.37Z"/><path class="cls-6" d="M124.1,296c-.13-.08-.22-.18-.35-.26a13.84,13.84,0,0,0-5.91-1.87C114,308.66,101.25,321.15,87,320.35c-2.48-.17-4.45-.87-5.51,1.06-1.42,2.61,1.85,4.48,3.78,5,6,1.77,44.33,4.54,47.17,4.63a38.77,38.77,0,0,1-4.94-2C117,322.77,122.62,307.45,124.1,296Z"/><path class="cls-2" d="M145.73,98.53a3.64,3.64,0,0,0-.3-.46,3,3,0,0,0-3.75-.81c-.07,0-7.31,3.73-14.35.95-4.8-1.89-8.49-6.46-11-13.55a3,3,0,1,0-5.66,2c3.09,8.81,8,14.58,14.45,17.14,9.56,3.78,18.93-1,19.32-1.21A3,3,0,0,0,145.73,98.53Z"/></g></g></g></svg>