<svg xmlns="http://www.w3.org/2000/svg" viewBox="0 0 20.15 20.15"><defs><style>.cls-1{fill:#00b9ea;}</style></defs><title>Asset 15</title><g id="Layer_2" data-name="Layer 2"><g id="Layer_1-2" data-name="Layer 1"><path class="cls-1" d="M10.07,0A10.08,10.08,0,1,0,20.15,10.07,10.07,10.07,0,0,0,10.07,0Zm5,7.79c-.56,3.17-3.71,5.86-4.65,6.47S8.6,14,8.29,13.36,6.85,8.61,6.57,8.28s-1.12.33-1.12.33L5,8.07s1.71-2,3-2.3S9.44,7.89,9.77,9.22s.54,2,.82,2,.82-.71,1.4-1.81,0-2.08-1.17-1.38C11.28,5.28,15.62,4.62,15.06,7.79Z"/></g></g></svg>