<svg xmlns="http://www.w3.org/2000/svg" viewBox="0 0 62.67 49.79"><defs><style>.cls-1{fill:#09f;}</style></defs><title>Asset 1</title><g id="Layer_2" data-name="Layer 2"><g id="Layer_4" data-name="Layer 4"><path class="cls-1" d="M31.35,44.43A2.82,2.82,0,0,1,29.72,47a2.75,2.75,0,0,1-1.21.28,2.87,2.87,0,0,1-1.82-.66L11.13,33.73H2.85A2.85,2.85,0,0,1,0,30.88V19.54A2.84,2.84,0,0,1,2.85,16.7h8.28L26.69,3.8A2.85,2.85,0,0,1,31.36,6V44.43ZM42.29,40h-.2a2.85,2.85,0,0,1-2-.83l-.39-.39a2.84,2.84,0,0,1-.27-3.7A16.53,16.53,0,0,0,39,14.79a2.85,2.85,0,0,1,.2-3.81l.38-.38a2.77,2.77,0,0,1,2.15-.83,2.82,2.82,0,0,1,2.06,1,22.79,22.79,0,0,1,.6,28A2.86,2.86,0,0,1,42.29,40Zm11.77,8.8a2.83,2.83,0,0,1-2.06,1h-.12a2.84,2.84,0,0,1-2-.84l-.37-.37a2.84,2.84,0,0,1-.17-3.84,30.33,30.33,0,0,0-.5-39.63,2.85,2.85,0,0,1,.11-3.9l.38-.37A2.77,2.77,0,0,1,51.41,0a2.83,2.83,0,0,1,2.05,1,36.55,36.55,0,0,1,.6,47.82Z"/></g></g></svg>