<svg xmlns="http://www.w3.org/2000/svg" viewBox="0 0 134.88 134.88"><defs><style>.cls-1{opacity:0.2;}.cls-2{fill:#ddd;}.cls-3{fill:#fff;}.cls-4{fill:#bbb;}.cls-5{fill:#f90;}.cls-6{fill:#00811d;}.cls-7{fill:#ffce00;}</style></defs><title>Asset 19</title><g id="Layer_2" data-name="Layer 2"><g id="Layer_1-2" data-name="Layer 1"><rect class="cls-1" x="2" y="2" width="132.88" height="132.88" rx="8" ry="8"/><rect class="cls-2" width="132.88" height="132.88" rx="8" ry="8"/><circle class="cls-3" cx="17.04" cy="17.04" r="10.22"/><circle class="cls-4" cx="64.85" cy="75.02" r="40.64"/><circle class="cls-3" cx="98.81" cy="37.48" r="23.85"/><path class="cls-5" d="M105.3,44.23c-3.12,7.73-10.22,7.93-13,7.77a1,1,0,0,1-.92-1.24C93.06,44.87,87.5,42.08,87.7,36c.29-8.57,8.84-9.06,8.84-9.06l0,0a7.24,7.24,0,0,1,5.81,2c2.53,2.46,6,7.52,2.9,15.33"/><path class="cls-6" d="M96.89,28.87a.2.2,0,0,1-.19,0,.6.6,0,0,1-.66-.51,12.77,12.77,0,0,1,2.21-8.45.6.6,0,0,1,1,.66,11.39,11.39,0,0,0-2,7.61.74.74,0,0,1-.38.66"/><path class="cls-6" d="M112,31.7a11,11,0,0,1,1.24,4.92,9.5,9.5,0,0,1-.18,1.42c-.12.79-.26,1.53-.43,2.35-.44-4-2.76-7.57-5.57-10.41a19,19,0,0,0-9-5.65,2.44,2.44,0,0,1-.74-.27c-.21-.16-.37-.47-.22-.68s.13-.14.15-.22a3.83,3.83,0,0,1,2.51-.91,10,10,0,0,1,2.73.42,10.1,10.1,0,0,1,2.83,1,11.08,11.08,0,0,1,2.45,2,25.42,25.42,0,0,1,2,2.09A19.74,19.74,0,0,1,112,31.7"/><path class="cls-7" d="M89.49,33.88c.52-.07,1.43,6.52.92,6.59s-1.15-1.34-1.4-3.16,0-3.36.48-3.43"/></g></g></svg>