<svg xmlns="http://www.w3.org/2000/svg" viewBox="0 0 60.17 61.05"><defs><style>.cls-1{fill:#89612c;}.cls-2{fill:#fff;}</style></defs><title>Asset 17</title><g id="Layer_2" data-name="Layer 2"><g id="Layer_4" data-name="Layer 4"><path class="cls-1" d="M49.15,3.3,9.05,10.08a5.08,5.08,0,0,0-4.14,5.86l7.61,45.11,8.33-11.72L55.93,43.4a5.11,5.11,0,0,0,4.17-5.86L55,7.46A5.1,5.1,0,0,0,49.15,3.3ZM12,27.62l10-1.69.85,5-10,1.69Zm15-2.54,10-1.7.85,5-10,1.69Zm15-2.54,10-1.7.84,5-10,1.7Z"/><path class="cls-2" d="M44.31.07,4.21,6.85A5.08,5.08,0,0,0,.07,12.71L7.68,57.82,16,46.1l35.08-5.93a5.1,5.1,0,0,0,4.17-5.86L50.17,4.24A5.1,5.1,0,0,0,44.31.07ZM7.18,24.4l10-1.7.85,5L8,29.41Zm15-2.55,10-1.69.85,5-10,1.7Zm15-2.54,10-1.7.84,5-10,1.69Z"/></g></g></svg>