<svg xmlns="http://www.w3.org/2000/svg" viewBox="0 0 20.15 20.15"><defs><style>.cls-1{fill:#ed3437;}</style></defs><title>Asset 14</title><g id="Layer_2" data-name="Layer 2"><g id="Layer_1-2" data-name="Layer 1"><path class="cls-1" d="M10,8.54a.26.26,0,0,0,.18-.06.24.24,0,0,0,.07-.18V6.77a.18.18,0,0,0-.07-.15.3.3,0,0,0-.36,0,.2.2,0,0,0-.06.15V8.3a.26.26,0,0,0,.06.18A.24.24,0,0,0,10,8.54Z"/><path class="cls-1" d="M11.25,11.37a.49.49,0,0,0-.23.06.87.87,0,0,0-.22.17V10.49h-.52V14h.52v-.2a.57.57,0,0,0,.22.17.53.53,0,0,0,.26.06.45.45,0,0,0,.35-.14.66.66,0,0,0,.12-.42V12a.74.74,0,0,0-.13-.48A.43.43,0,0,0,11.25,11.37Zm0,2a.3.3,0,0,1,0,.18.18.18,0,0,1-.14.05l-.12,0a.31.31,0,0,1-.12-.09V11.87a.3.3,0,0,1,.1-.07l.11,0a.19.19,0,0,1,.16.07.27.27,0,0,1,.05.19Z"/><polygon class="cls-1" points="6.46 10.99 7.05 10.99 7.05 13.95 7.63 13.95 7.63 10.99 8.22 10.99 8.22 10.49 6.46 10.49 6.46 10.99"/><path class="cls-1" d="M9.39,13.33a.7.7,0,0,1-.16.14.22.22,0,0,1-.14,0,.11.11,0,0,1-.1,0,.2.2,0,0,1,0-.13V11.4H8.44v2.13a.55.55,0,0,0,.09.34A.31.31,0,0,0,8.8,14a.56.56,0,0,0,.3-.08,1,1,0,0,0,.29-.23V14H9.9V11.4H9.39Z"/><path class="cls-1" d="M10.07,0A10.08,10.08,0,1,0,20.15,10.07,10.07,10.07,0,0,0,10.07,0Zm1.22,6.15h.57V8.3a.23.23,0,0,0,0,.14.14.14,0,0,0,.12.05.35.35,0,0,0,.16-.06.8.8,0,0,0,.17-.15V6.15h.58V9h-.58V8.64a1,1,0,0,1-.33.27.68.68,0,0,1-.33.09.38.38,0,0,1-.3-.13.58.58,0,0,1-.1-.38Zm-2.13.64a.65.65,0,0,1,.23-.52A.92.92,0,0,1,10,6.08a.83.83,0,0,1,.59.2.66.66,0,0,1,.22.52V8.26a.72.72,0,0,1-.22.56A.85.85,0,0,1,10,9a.81.81,0,0,1-.6-.22.71.71,0,0,1-.23-.57ZM7.6,5.15,8,6.67h0l.4-1.52h.65L8.36,7.38V9H7.71V7.45L7,5.15Zm7.51,8A1.84,1.84,0,0,1,13.27,15H6.88A1.84,1.84,0,0,1,5,13.16V11.68A1.84,1.84,0,0,1,6.88,9.84h6.39a1.84,1.84,0,0,1,1.84,1.84Z"/><path class="cls-1" d="M12.79,11.33a.78.78,0,0,0-.56.21.73.73,0,0,0-.21.54v1.15a.83.83,0,0,0,.19.58.7.7,0,0,0,.54.21.74.74,0,0,0,.57-.2.81.81,0,0,0,.2-.59V13.1H13v.11a.64.64,0,0,1-.05.3.22.22,0,0,1-.18.06.18.18,0,0,1-.17-.08.58.58,0,0,1-.05-.28v-.48h1v-.65a.78.78,0,0,0-.19-.55A.73.73,0,0,0,12.79,11.33Zm.2,1h-.45v-.26a.44.44,0,0,1,.05-.23.21.21,0,0,1,.18-.07.19.19,0,0,1,.17.07.44.44,0,0,1,.05.23Z"/></g></g></svg>