<?xml version="1.0" encoding="UTF-8" standalone="no"?>
<svg id="svg2" xmlns:rdf="http://www.w3.org/1999/02/22-rdf-syntax-ns#" xmlns="http://www.w3.org/2000/svg" height="100%" width="100%" version="1.1" xmlns:cc="http://creativecommons.org/ns#" xmlns:xlink="http://www.w3.org/1999/xlink" viewBox="0 0 513.3386 520.41529" xmlns:dc="http://purl.org/dc/elements/1.1/">
 <metadata id="metadata46">
  <rdf:RDF>
   <cc:Work rdf:about="">
    <dc:format>image/svg+xml</dc:format>
    <dc:type rdf:resource="http://purl.org/dc/dcmitype/StillImage"/>
    <dc:title/>
   </cc:Work>
  </rdf:RDF>
 </metadata>
 <defs id="defs4">
  <filter id="filter4422" color-interpolation-filters="sRGB">
   <feGaussianBlur id="feGaussianBlur7" stdDeviation="5.22363"/>
  </filter>
  <filter id="filter3651" width="1.14959" y="-0.13688999" x="-0.074790001" height="1.27378" color-interpolation-filters="sRGB">
   <feGaussianBlur id="feGaussianBlur13" stdDeviation="9.50747"/>
  </filter>
  <linearGradient id="linearGradient4151">
   <stop id="stop16" stop-color="#f48c1e" offset="0"/>
   <stop id="stop18" stop-color="#ffcb00" offset="0.65613"/>
   <stop id="stop20" stop-color="#fff" offset="1"/>
  </linearGradient>
  <radialGradient id="radialGradient2853" xlink:href="#linearGradient4151" gradientUnits="userSpaceOnUse" cy="636.84" cx="276.75" gradientTransform="matrix(1.80229,-0.77348,0.55587,1.29522,-607.01245,-178.42959)" r="236.47"/>
  <radialGradient id="radialGradient3023" xlink:href="#linearGradient4151" gradientUnits="userSpaceOnUse" cy="636.84" cx="276.75" gradientTransform="matrix(0.8355159,0.21946873,-0.17940563,0.68298109,128.78395,-63.3249)" r="236.47"/>
 </defs>
 <g id="g24" transform="translate(-27.823701,-124.39354)">
  <path id="path28" d="m550.06,487.64c5.4671,101.82-68.828,175.23-171.15,172.09-94.432-2.8973-177.13-77.356-171.15-172.09,15.523-245.93,329.54-237.79,342.31,0z" transform="matrix(0.74197,0,0,0.74197,3.4749,29.28844)" filter="url(#filter4422)"/>
  <path id="path30" stroke-linejoin="round" d="m402.12,388.96c18.525,22.597,65.068,26.929,103.45,28.375,38.502,1.4504,40.745,53.179,4.8951,42.655,26.292-17.023,20.713-35.615-14.322-28.346-35.477,7.3611-74.519,23.07-95.202-11.315l1.174-31.369zm-74.141,104.09c-13.735,25.79,0.16489,70.42,13.592,106.41,13.468,36.099-33.42,58.063-37.492,20.922,25.824,17.723,40.842,5.4241,20.658-24.121-20.438-29.918-49.953-59.917-26.166-92.232l29.408-10.98zm-111.05-16.71c-28.832,4.7444-55.855,42.886-76.301,75.406-20.507,32.618-66.427,8.6967-39.388-17.088,1.5962,31.28,20.487,35.746,31.709,1.77,11.364-34.405,17.281-76.07,57.4-76.79l26.579,16.701zm-50.065-71.446c-18.525-22.597-65.068-26.929-103.45-28.375-38.502-1.4504-40.745-53.179-4.8951-42.655-26.292,17.023-20.713,35.615,14.322,28.346,35.477-7.361,74.519-23.07,95.202,11.315l-1.174,31.369zm33.828-103.93c10.307-27.341-9.2129-69.815-27.153-103.78-17.995-34.069,25.682-61.876,34.492-25.567-27.888-14.258-41.2-0.13082-17.387,26.576,24.114,27.044,57.239,53.001,37.802,88.105l-27.753,14.668zm122.32-26.594c28.832-4.7444,55.855-42.886,76.301-75.406,20.507-32.618,66.427-8.6967,39.388,17.088-1.5962-31.28-20.487-35.746-31.709-1.77-11.364,34.405-17.281,76.07-57.4,76.79l-26.579-16.701zm78.178,85.741c13.617-25.853,58.346-39.431,95.662-48.546,37.429-9.1421,29.253-60.27-3.7583-42.77,29.171,11.404,27.435,30.738-8.3461,30.642-36.233-0.0969-77.632-7.6568-90.999,30.177l7.4409,30.496zm-50.13,132.97c28.969-3.8213,65.893,24.844,94.891,50.037,29.085,25.269,66.094-10.942,32.739-27.777,7.5443,30.399-9.2393,40.151-29.833,10.89-20.853-29.63-38.6-67.789-77.204-56.842l-20.593,23.692zm-137.38-0.31803c13.473,25.928-0.87853,70.415-14.67,106.27-13.833,35.96,32.83,58.398,37.278,21.301-26.003,17.461-40.894,5.01-20.413-24.329,20.741-29.71,50.558-59.408,27.1-91.962l-29.295-11.277zm-51.952-96.233c-11.175,26.998-54.462,44.643-90.779,57.159-36.426,12.554-23.571,62.71,7.6859,42.241-30.098-8.6659-30.152-28.077,5.4852-31.281,36.087-3.2444,78.007,0.46614,87.829-38.439l-10.221-29.68zm44.194-88.374c-29.126,2.3312-64.532-28.189-92.201-54.836-27.752-26.727-66.568,7.5396-34.12,26.062-5.9761-30.746,11.285-39.624,30.352-9.3464,19.307,30.66,35.074,69.679,74.188,60.725l21.781-22.605zm106.87-34.981c-17.794-23.177-11.431-69.487-4.1121-107.2,7.3408-37.823-42.523-51.768-40.425-14.464,22.554-21.733,39.391-12.074,24.347,20.391-15.234,32.875-39.407,67.323-10.625,95.281l30.814,5.9884z" stroke="#000" stroke-linecap="round" stroke-width="10.38761044"/>
  <path id="path32" fill="url(#radialGradient2853)" d="m401.25,385.26c18.563,22.565,65.114,26.818,103.5,28.198,38.504,1.3846,40.836,53.109,4.968,42.646,26.262-17.067,20.652-35.65-14.37-28.321-35.465,7.4217-74.48,23.197-95.221-11.153l1.1204-31.371zm-73.963,104.21c-13.691,25.814,0.28526,70.42,13.774,106.39,13.529,36.076-33.321,58.12-37.456,20.986,25.855,17.679,40.851,5.3543,20.617-24.156-20.489-29.883-50.055-59.831-26.324-92.187l29.389-11.03zm-111.08-16.52c-28.824,4.7937-55.782,42.982-76.172,75.537-20.451,32.653-66.412,8.8102-39.417-17.021,1.6496,31.278,20.548,35.711,31.712,1.7158,11.305-34.424,17.151-76.1,57.269-76.888l26.608,16.656zm-50.19-71.36c-18.56-22.57-65.11-26.82-103.5-28.2-38.504-1.38-40.835-53.11-4.968-42.64-26.262,17.067-20.652,35.65,14.37,28.321,35.465-7.4217,74.48-23.197,95.221,11.153l-1.1204,31.371zm33.65-103.99c10.26-27.359-9.3322-69.8-27.331-103.74-18.053-34.038,25.576-61.92,34.449-25.626-27.912-14.21-41.2-0.0604-17.342,26.605,24.16,27.003,57.329,52.903,37.952,88.04l-27.73,14.72zm122.28-26.8c28.824-4.7937,55.782-42.982,76.172-75.537,20.451-32.653,66.412-8.8102,39.417,17.021-1.6496-31.278-20.548-35.711-31.712-1.7158-11.305,34.424-17.151,76.1-57.269,76.888l-26.608-16.656zm78.325,85.607c13.573-25.876,58.279-39.531,95.579-48.709,37.413-9.2061,29.15-60.32-3.8314-42.763,29.191,11.354,27.487,30.691-8.2937,30.656-36.233-0.0349-77.645-7.5241-90.947,30.333l7.493,30.483zm-49.902,133.05c28.962-3.8708,65.935,24.731,94.976,49.875,29.129,25.219,66.076-11.055,32.691-27.833,7.5963,30.386-9.1707,40.167-29.814,10.941-20.904-29.595-38.716-67.723-77.301-56.71l-20.553,23.727zm-137.38-0.0832c13.517,25.905-0.75816,70.417-14.488,106.29-13.771,35.984,32.93,58.342,37.314,21.237-25.973,17.505-40.886,5.0798-20.454-24.294,20.69-29.745,50.456-59.494,26.942-92.008l-29.32-11.23zm-52.13-96.15c-11.129,27.017-54.385,44.736-90.681,57.314-36.405,12.617-23.464,62.751,7.7581,42.228-30.113-8.6144-30.2-28.025,5.4318-31.29,36.082-3.3061,78.008,0.33282,87.763-38.589l-10.272-29.663zm44.043-88.45c-29.122,2.381-64.581-28.079-92.294-54.678-27.797-26.679-66.555,7.6533-34.075,26.12-6.0286-30.735,11.218-39.644,30.336-9.3983,19.359,30.627,35.193,69.619,74.292,60.598l21.742-22.642zm106.81-35.164c-17.833-23.146-11.55-69.467-4.2953-107.19,7.2762-37.836-42.612-51.696-40.449-14.395,22.517-21.772,39.371-12.141,24.382,20.349-15.178,32.901-39.292,67.39-10.462,95.299l30.825,5.9357z"/>
  <path id="path34" d="m407.15,386.65c4.0564,75.546-51.068,130.01-126.99,127.68-70.066-2.1498-131.43-57.396-126.99-127.68,11.517-182.47,244.51-176.43,253.98,0z"/>
  <path id="path36" fill="url(#radialGradient3023)" d="m163.67,382.33c-0.59246,65.422,48.183,117.21,113.27,119.21,70.528,2.164,130.78-54.046,120.37-124.23-29.77-153.4-217.07-149.22-233.64,5.02z"/>
  <a id="a38" transform="matrix(0.58236,0,0,0.58236,949.55347,-19.49177)"/>
  <path id="path42" opacity="0.46511996" d="m-441.53,504.56c-0.47841,4.2305-1.0332,8.3868-1.3125,12.812-5.314,84.19,68.779,151.15,154.47,153.78,78.602,2.4116,136.5-42.073,150.34-111.22-33.941,31.377-81.092,49.157-134.09,47.531-72.094-2.2119-138.26-42.623-169.41-102.91z" transform="matrix(0.67697,0,0,0.65187,471.51716,55.62771)" filter="url(#filter3651)" fill="#FFF"/>
 </g>
</svg>
